# Blender 4.0.1
# www.blender.org
o gaugecluster_a
v 23.000864 31.967060 -17.775431
v 22.952452 31.826994 -17.785040
v 23.045439 32.107182 -17.796637
v 22.852617 31.571035 -17.893715
v 22.902302 31.693029 -17.824966
v 23.115484 32.363091 -17.926517
v 23.084213 32.241146 -17.847826
v 22.763174 31.383575 -18.103777
v 22.805546 31.466343 -17.987978
v 22.699619 31.297003 -18.378942
v 22.727345 31.326275 -18.235977
v 22.672926 31.326275 -18.671669
v 22.681221 31.297003 -18.526384
v 22.687710 31.466343 -18.931431
v 22.675127 31.383575 -18.808672
v 23.150505 32.550602 -18.152149
v 23.137907 32.467781 -18.029394
v 22.741423 31.693029 -19.113163
v 22.710133 31.571035 -19.034307
v 23.144415 32.637169 -18.434441
v 23.152693 32.607849 -18.289154
v 22.824755 31.967060 -19.185390
v 22.780197 31.826994 -19.164186
v 23.020071 32.467781 -18.972845
v 23.098274 32.607849 -18.724848
v 23.125999 32.637169 -18.581879
v 23.062443 32.550602 -18.857048
v 22.923334 32.241146 -19.135859
v 22.973019 32.363091 -19.067274
v 22.873182 32.107182 -19.175783
v 23.000864 31.967060 -11.688301
v 23.045439 32.107182 -11.667097
v 22.952452 31.826994 -11.678693
v 22.852617 31.571035 -11.570018
v 22.902302 31.693029 -11.638769
v 23.115484 32.363091 -11.537216
v 23.084213 32.241146 -11.615907
v 22.763174 31.383575 -11.359957
v 22.805546 31.466343 -11.475756
v 22.699619 31.297003 -11.084790
v 22.727345 31.326275 -11.227757
v 22.672926 31.326275 -10.792063
v 22.681221 31.297003 -10.937349
v 22.687710 31.466343 -10.532303
v 22.675127 31.383575 -10.655061
v 23.150505 32.550602 -11.311583
v 23.137907 32.467781 -11.434340
v 23.144415 32.637169 -11.029292
v 23.152693 32.607849 -11.174579
v 23.098274 32.607849 -10.738886
v 23.125999 32.637169 -10.881853
v 23.020071 32.467781 -10.490888
v 23.062443 32.550602 -10.606686
v 22.741423 31.693029 -10.350572
v 22.710133 31.571035 -10.429427
v 22.923334 32.241146 -10.327874
v 22.973019 32.363091 -10.396459
v 22.824772 31.967060 -10.278342
v 22.873182 32.107182 -10.287951
v 22.780197 31.826994 -10.299546
v 23.001087 32.235184 -20.137625
v 22.909479 31.900442 -20.114929
v 22.887280 31.905920 -20.160154
v 23.020020 32.220284 -20.092894
v 23.118961 32.550072 -20.043528
v 22.807714 31.580551 -20.066389
v 22.782520 31.576660 -20.110291
v 23.134537 32.526184 -20.001616
v 23.235748 32.836796 -19.882338
v 22.719170 31.274700 -19.949762
v 22.691391 31.261768 -19.990183
v 23.247984 32.804733 -19.844898
v 23.346357 33.082851 -19.660679
v 22.647747 30.996149 -19.770018
v 22.617872 30.975048 -19.805140
v 23.355446 33.043724 -19.629700
v 23.445953 33.277431 -19.388494
v 22.596548 30.757111 -19.534777
v 22.565157 30.728992 -19.563105
v 23.452183 33.232773 -19.365303
v 23.530163 33.412117 -19.077545
v 22.567804 30.568062 -19.254805
v 22.535572 30.534412 -19.274851
v 23.534000 33.363613 -19.063131
v 23.595337 33.480949 -18.741581
v 22.562798 30.437269 -18.941866
v 22.530409 30.399727 -18.952801
v 23.597300 33.430477 -18.736776
v 23.638603 33.480949 -18.395178
v 22.581713 30.370409 -18.610044
v 22.549891 30.330894 -18.611036
v 23.639341 33.430477 -18.400314
v 23.658085 33.412117 -18.053413
v 22.623737 30.370409 -18.273415
v 22.593159 30.330894 -18.264635
v 23.658258 33.363613 -18.068325
v 23.652922 33.277431 -17.731365
v 22.687054 30.437269 -17.947060
v 22.658316 30.399727 -17.928671
v 23.653233 33.232773 -17.755552
v 23.623337 33.082851 -17.443110
v 22.768873 30.568062 -17.645056
v 22.742540 30.534412 -17.617722
v 23.624508 33.043724 -17.475414
v 23.570623 32.836796 -17.201078
v 22.865608 30.757111 -17.380657
v 22.842136 30.728992 -17.345535
v 23.573290 32.804733 -17.240339
v 23.497103 32.550072 -17.016033
v 22.973053 30.996149 -17.165293
v 22.952745 30.975048 -17.123878
v 23.501869 32.526184 -17.060429
v 23.405973 32.235184 -16.895926
v 23.086519 31.274700 -17.008577
v 23.069534 31.261768 -16.962523
v 23.413340 32.220284 -16.943802
v 23.301216 31.905920 -16.846060
v 23.201019 31.580551 -16.917295
v 23.187407 31.576660 -16.868591
v 23.311577 31.900442 -16.895430
v 23.358715 31.816755 -18.536158
v 22.807714 31.580551 -9.397345
v 22.887280 31.905920 -9.303579
v 22.782520 31.576660 -9.353444
v 22.909479 31.900442 -9.348805
v 23.001087 32.235184 -9.326109
v 22.719170 31.274700 -9.513971
v 22.691391 31.261768 -9.473550
v 23.020020 32.220284 -9.370839
v 23.118961 32.550072 -9.420205
v 22.647747 30.996149 -9.693716
v 22.617872 30.975048 -9.658595
v 23.134537 32.526184 -9.462118
v 23.235748 32.836796 -9.581396
v 22.596548 30.757111 -9.928958
v 22.565157 30.728992 -9.900629
v 23.247984 32.804733 -9.618836
v 23.346357 33.082851 -9.803054
v 22.567804 30.568062 -10.208929
v 22.535572 30.534412 -10.188884
v 23.355446 33.043724 -9.834033
v 23.445953 33.277431 -10.075239
v 22.562798 30.437269 -10.521867
v 22.530409 30.399727 -10.510933
v 23.452183 33.232773 -10.098431
v 23.530180 33.412117 -10.386188
v 22.581713 30.370409 -10.853690
v 22.549891 30.330894 -10.852696
v 23.534000 33.363613 -10.400602
v 23.595337 33.480949 -10.722154
v 22.623737 30.370409 -11.190318
v 22.593159 30.330894 -11.199098
v 23.597300 33.430477 -10.726957
v 23.638603 33.480949 -11.068556
v 22.687054 30.437269 -11.516675
v 22.658316 30.399727 -11.535063
v 23.639341 33.430477 -11.063420
v 23.658085 33.412117 -11.410319
v 22.768873 30.568062 -11.818679
v 22.742540 30.534412 -11.846013
v 23.658258 33.363613 -11.395410
v 23.652922 33.277431 -11.732368
v 22.865608 30.757111 -12.083076
v 22.842136 30.728992 -12.118197
v 23.653233 33.232773 -11.708181
v 23.623337 33.082851 -12.020622
v 22.973053 30.996149 -12.298439
v 22.952745 30.975048 -12.339855
v 23.624508 33.043724 -11.988318
v 23.570623 32.836796 -12.262655
v 23.086519 31.274700 -12.455156
v 23.069534 31.261768 -12.501210
v 23.573290 32.804733 -12.223393
v 23.497103 32.550072 -12.447701
v 23.201019 31.580551 -12.546438
v 23.187407 31.576660 -12.595142
v 23.501869 32.526184 -12.403304
v 23.405973 32.235184 -12.567808
v 23.311577 31.900442 -12.568305
v 23.301216 31.905920 -12.617673
v 23.413340 32.220284 -12.519931
v 23.358715 31.816755 -10.927577
vn -0.9411 0.3172 0.1175
vn -0.9411 0.3171 0.1177
vn -0.9410 0.3174 0.1172
vn -0.9410 0.3172 0.1175
vn -0.9411 0.3171 0.1173
vn -0.9410 0.3174 0.1176
vn -0.9410 0.3173 0.1175
vn -0.9411 0.3171 0.1175
vn -0.9412 0.3169 0.1172
vn -0.9410 0.3172 0.1176
vn -0.9411 0.3171 0.1174
vn -0.9410 0.3173 0.1176
vn -0.9412 0.3167 0.1176
vn -0.9411 0.3170 0.1176
vn -0.9411 0.3173 0.1174
vn -0.9411 0.3171 0.1176
vn -0.9410 0.3172 0.1178
vn -0.9411 0.3172 -0.1175
vn -0.9411 0.3171 -0.1177
vn -0.9410 0.3173 -0.1173
vn -0.9410 0.3172 -0.1175
vn -0.9410 0.3174 -0.1176
vn -0.9411 0.3170 -0.1176
vn -0.9410 0.3173 -0.1175
vn -0.9410 0.3172 -0.1176
vn -0.9411 0.3171 -0.1175
vn -0.9411 0.3171 -0.1176
vn -0.9411 0.3171 -0.1174
vn -0.9410 0.3173 -0.1180
vn -0.8425 0.2982 0.4487
vn -0.8773 0.3065 0.3693
vn -0.8656 0.2310 0.4443
vn -0.8949 0.2557 0.3656
vn -0.8897 0.1667 0.4250
vn -0.8612 0.3573 0.3615
vn -0.8210 0.3654 0.4387
vn -0.9130 0.2071 0.3514
vn -0.9136 0.1083 0.3918
vn -0.8472 0.4058 0.3429
vn -0.8025 0.4296 0.4140
vn -0.9312 0.1631 0.3260
vn -0.9362 0.0580 0.3468
vn -0.8358 0.4501 0.3144
vn -0.7874 0.4883 0.3763
vn -0.9481 0.1248 0.2924
vn -0.9564 0.0179 0.2914
vn -0.8278 0.4879 0.2770
vn -0.7769 0.5382 0.3267
vn -0.9635 0.0948 0.2502
vn -0.9737 -0.0094 0.2278
vn -0.8230 0.5182 0.2326
vn -0.7705 0.5783 0.2681
vn -0.9765 0.0741 0.2021
vn -0.9870 -0.0233 0.1592
vn -0.8225 0.5386 0.1829
vn -0.7699 0.6053 0.2023
vn -0.9866 0.0636 0.1504
vn -0.9958 -0.0235 0.0885
vn -0.8254 0.5494 0.1302
vn -0.7734 0.6199 0.1326
vn -0.9933 0.0634 0.0969
vn -0.9998 -0.0094 0.0187
vn -0.8321 0.5493 0.0768
vn -0.7823 0.6198 0.0618
vn -0.9963 0.0741 0.0442
vn -0.9987 0.0182 -0.0470
vn -0.8420 0.5389 0.0250
vn -0.7956 0.6058 -0.0068
vn -0.9955 0.0951 -0.0054
vn -0.9927 0.0577 -0.1060
vn -0.8551 0.5179 -0.0229
vn -0.8126 0.5786 -0.0705
vn -0.9909 0.1249 -0.0500
vn -0.9819 0.1083 -0.1552
vn -0.8704 0.4880 -0.0650
vn -0.8332 0.5384 -0.1258
vn -0.9828 0.1630 -0.0872
vn -0.9669 0.1665 -0.1934
vn -0.8875 0.4501 -0.0991
vn -0.8558 0.4882 -0.1710
vn -0.9714 0.2070 -0.1160
vn -0.9483 0.2309 -0.2178
vn -0.9055 0.4058 -0.1240
vn -0.8797 0.4296 -0.2038
vn -0.9574 0.2557 -0.1344
vn -0.9269 0.2982 -0.2276
vn -0.9237 0.3573 -0.1386
vn -0.9037 0.3654 -0.2233
vn -0.9412 0.3065 -0.1420
vn -0.8210 0.3654 -0.4387
vn -0.8424 0.2982 -0.4488
vn -0.8612 0.3573 -0.3615
vn -0.8774 0.3065 -0.3691
vn -0.8657 0.2310 -0.4440
vn -0.8472 0.4058 -0.3429
vn -0.8025 0.4296 -0.4140
vn -0.8949 0.2557 -0.3656
vn -0.8895 0.1665 -0.4254
vn -0.8358 0.4501 -0.3144
vn -0.7874 0.4883 -0.3763
vn -0.9132 0.2072 -0.3510
vn -0.9137 0.1085 -0.3916
vn -0.8276 0.4881 -0.2771
vn -0.7766 0.5385 -0.3269
vn -0.9312 0.1631 -0.3260
vn -0.9361 0.0579 -0.3469
vn -0.8230 0.5181 -0.2326
vn -0.7705 0.5783 -0.2681
vn -0.9481 0.1248 -0.2924
vn -0.9564 0.0179 -0.2914
vn -0.8225 0.5386 -0.1829
vn -0.7699 0.6053 -0.2023
vn -0.9635 0.0948 -0.2502
vn -0.9737 -0.0094 -0.2278
vn -0.8254 0.5494 -0.1302
vn -0.7736 0.6197 -0.1325
vn -0.9765 0.0743 -0.2021
vn -0.9870 -0.0232 -0.1592
vn -0.8319 0.5495 -0.0768
vn -0.7824 0.6197 -0.0618
vn -0.9866 0.0636 -0.1504
vn -0.9958 -0.0235 -0.0885
vn -0.8420 0.5389 -0.0250
vn -0.7956 0.6058 0.0068
vn -0.9933 0.0634 -0.0969
vn -0.9998 -0.0094 -0.0187
vn -0.8551 0.5179 0.0229
vn -0.8128 0.5783 0.0704
vn -0.9963 0.0741 -0.0442
vn -0.9987 0.0185 0.0470
vn -0.8704 0.4880 0.0650
vn -0.8332 0.5384 0.1258
vn -0.9955 0.0951 0.0054
vn -0.9927 0.0577 0.1060
vn -0.8875 0.4501 0.0991
vn -0.8558 0.4882 0.1710
vn -0.9909 0.1249 0.0500
vn -0.9819 0.1083 0.1552
vn -0.9055 0.4058 0.1240
vn -0.8797 0.4296 0.2038
vn -0.9828 0.1630 0.0872
vn -0.9669 0.1665 0.1934
vn -0.9237 0.3573 0.1386
vn -0.9037 0.3654 0.2233
vn -0.9714 0.2072 0.1157
vn -0.9483 0.2309 0.2178
vn -0.9412 0.3065 0.1420
vn -0.9269 0.2982 0.2277
vn -0.9574 0.2557 0.1344
vt 0.356211 0.555527
vt 0.358056 0.465086
vt 0.359551 0.510495
vt 0.351804 0.421274
vt 0.341083 0.380984
vt 0.348220 0.598210
vt 0.335883 0.636678
vt 0.326336 0.345979
vt 0.308234 0.317780
vt 0.287540 0.297620
vt 0.265183 0.286373
vt 0.242141 0.284552
vt 0.219388 0.292230
vt 0.178761 0.334311
vt 0.197946 0.309062
vt 0.319779 0.669244
vt 0.300579 0.694507
vt 0.162642 0.366877
vt 0.150320 0.405345
vt 0.256399 0.719003
vt 0.279137 0.711325
vt 0.138989 0.493060
vt 0.142314 0.448028
vt 0.172189 0.657590
vt 0.233341 0.717181
vt 0.210985 0.705950
vt 0.190290 0.685790
vt 0.146721 0.582281
vt 0.157442 0.622570
vt 0.140469 0.538468
vt 0.643125 0.461503
vt 0.644925 0.550453
vt 0.641661 0.506174
vt 0.649241 0.418413
vt 0.659748 0.378786
vt 0.652763 0.592429
vt 0.664841 0.630264
vt 0.674190 0.344353
vt 0.691925 0.316620
vt 0.712193 0.296792
vt 0.734092 0.285741
vt 0.756677 0.283949
vt 0.778958 0.291492
vt 0.818760 0.332881
vt 0.799957 0.308039
vt 0.680625 0.662303
vt 0.699428 0.687130
vt 0.720428 0.703676
vt 0.742708 0.711234
vt 0.765293 0.709443
vt 0.787193 0.698377
vt 0.825196 0.650815
vt 0.807460 0.678563
vt 0.834544 0.364905
vt 0.846622 0.402740
vt 0.839622 0.616382
vt 0.850145 0.576756
vt 0.857709 0.489010
vt 0.856260 0.533681
vt 0.854461 0.444716
vt -0.000960 0.500166
vt 0.006771 0.500151
vt 0.004880 0.604142
vt 0.012322 0.600890
vt 0.021335 0.702908
vt 0.012322 0.399428
vt 0.004880 0.396191
vt 0.028243 0.696705
vt 0.047626 0.792566
vt 0.028243 0.303627
vt 0.021335 0.297409
vt 0.053742 0.783653
vt 0.082640 0.869351
vt 0.053742 0.216665
vt 0.047641 0.207767
vt 0.087673 0.858134
vt 0.124822 0.930011
vt 0.087673 0.142198
vt 0.082640 0.130982
vt 0.128589 0.916973
vt 0.172387 0.971956
vt 0.128589 0.083360
vt 0.124822 0.070307
vt 0.174705 0.957653
vt 0.223276 0.993396
vt 0.174720 0.042679
vt 0.172387 0.028361
vt 0.224054 0.978446
vt 0.275279 0.993396
vt 0.224069 0.021887
vt 0.223276 0.006937
vt 0.274486 0.978446
vt 0.326168 0.971972
vt 0.274501 0.021887
vt 0.275279 0.006937
vt 0.323835 0.957669
vt 0.373733 0.930026
vt 0.323850 0.042679
vt 0.326168 0.028376
vt 0.369967 0.916988
vt 0.415930 0.869366
vt 0.369967 0.083360
vt 0.373733 0.070322
vt 0.410882 0.858149
vt 0.450929 0.792581
vt 0.410882 0.142198
vt 0.415915 0.130982
vt 0.444829 0.783668
vt 0.477235 0.702924
vt 0.444814 0.216665
vt 0.450929 0.207767
vt 0.470312 0.696720
vt 0.493675 0.604142
vt 0.470312 0.303627
vt 0.477220 0.297409
vt 0.486248 0.600905
vt 0.499516 0.500166
vt 0.486233 0.399428
vt 0.493675 0.396191
vt 0.491799 0.500166
vt 0.249278 0.500166
vt 0.992641 0.396823
vt 0.998451 0.500723
vt 0.985230 0.400060
vt 0.990765 0.500723
vt 0.992641 0.604624
vt 0.969385 0.304320
vt 0.976263 0.298102
vt 0.985230 0.601387
vt 0.976263 0.703330
vt 0.944009 0.217417
vt 0.950078 0.208519
vt 0.969385 0.697127
vt 0.950094 0.792927
vt 0.910230 0.142996
vt 0.915247 0.131780
vt 0.944009 0.784029
vt 0.915247 0.869667
vt 0.869512 0.084203
vt 0.873249 0.071165
vt 0.910230 0.858450
vt 0.873249 0.930282
vt 0.823594 0.043553
vt 0.825912 0.029249
vt 0.869512 0.917244
vt 0.825912 0.972197
vt 0.774474 0.022775
vt 0.775267 0.007840
vt 0.823594 0.957894
vt 0.775267 0.993622
vt 0.724286 0.022775
vt 0.723493 0.007840
vt 0.774489 0.978671
vt 0.723508 0.993622
vt 0.675166 0.043553
vt 0.672848 0.029249
vt 0.724286 0.978686
vt 0.672863 0.972212
vt 0.629263 0.084203
vt 0.625512 0.071180
vt 0.675166 0.957909
vt 0.625512 0.930297
vt 0.588530 0.142996
vt 0.583513 0.131795
vt 0.629263 0.917259
vt 0.583513 0.869682
vt 0.554751 0.217417
vt 0.548682 0.208519
vt 0.588530 0.858465
vt 0.548682 0.792942
vt 0.529391 0.304320
vt 0.522513 0.298102
vt 0.554751 0.784044
vt 0.522497 0.703345
vt 0.513530 0.400060
vt 0.506134 0.396823
vt 0.529375 0.697142
vt 0.506119 0.604639
vt 0.507995 0.500723
vt 0.500309 0.500723
vt 0.513530 0.601402
vt 0.749388 0.500723
s 1
f 3/1/1 2/2/1 1/3/2
f 5/4/3 2/2/1 4/5/4
f 4/5/4 2/2/1 3/1/1
f 7/6/5 6/7/1 3/1/1
f 6/7/1 4/5/4 3/1/1
f 9/8/6 4/5/4 8/9/4
f 11/10/1 8/9/4 10/11/7
f 8/9/4 4/5/4 10/11/7
f 13/12/8 10/11/7 12/13/7
f 10/11/7 4/5/4 14/14/9
f 12/13/7 10/11/7 14/14/9
f 15/15/10 12/13/7 14/14/9
f 14/14/9 4/5/4 6/7/1
f 17/16/11 16/17/12 6/7/1
f 19/18/1 14/14/9 18/19/1
f 16/17/12 20/20/10 6/7/1
f 21/21/6 20/20/10 16/17/12
f 18/19/1 14/14/9 22/22/1
f 23/23/10 18/19/1 22/22/1
f 20/20/10 24/24/1 6/7/1
f 24/24/1 14/14/9 6/7/1
f 22/22/1 14/14/9 24/24/1
f 26/25/13 25/26/7 20/20/10
f 25/26/7 24/24/1 20/20/10
f 27/27/14 24/24/1 25/26/7
f 28/28/15 22/22/1 24/24/1
f 29/29/16 28/28/15 24/24/1
f 30/30/17 22/22/1 28/28/15
f 33/31/18 32/32/18 31/33/19
f 35/34/20 34/35/21 33/31/18
f 34/35/21 32/32/18 33/31/18
f 37/36/21 32/32/18 36/37/18
f 36/37/18 32/32/18 34/35/21
f 39/38/22 38/39/21 34/35/21
f 41/40/23 40/41/24 38/39/21
f 38/39/21 40/41/24 34/35/21
f 43/42/24 42/43/24 40/41/24
f 40/41/24 44/44/25 34/35/21
f 42/43/24 44/44/25 40/41/24
f 45/45/26 44/44/25 42/43/24
f 44/44/25 36/37/18 34/35/21
f 47/46/25 36/37/18 46/47/25
f 49/48/22 46/47/25 48/49/25
f 46/47/25 36/37/18 48/49/25
f 51/50/25 48/49/25 50/51/24
f 48/49/25 36/37/18 52/52/18
f 50/51/24 48/49/25 52/52/18
f 53/53/27 50/51/24 52/52/18
f 52/52/18 36/37/18 44/44/25
f 55/54/28 54/55/25 44/44/25
f 57/56/21 52/52/18 56/57/18
f 54/55/25 58/58/18 44/44/25
f 58/58/18 52/52/18 44/44/25
f 56/57/18 52/52/18 58/58/18
f 59/59/19 56/57/18 58/58/18
f 60/60/29 58/58/18 54/55/25
f 63/61/30 62/62/31 61/63/32
f 64/64/33 61/63/32 62/62/31
f 61/63/32 64/64/33 65/65/34
f 62/62/31 63/61/30 66/66/35
f 67/67/36 66/66/35 63/61/30
f 68/68/37 65/65/34 64/64/33
f 65/65/34 68/68/37 69/69/38
f 66/66/35 67/67/36 70/70/39
f 71/71/40 70/70/39 67/67/36
f 72/72/41 69/69/38 68/68/37
f 69/69/38 72/72/41 73/73/42
f 70/70/39 71/71/40 74/74/43
f 75/75/44 74/74/43 71/71/40
f 76/76/45 73/73/42 72/72/41
f 73/73/42 76/76/45 77/77/46
f 74/74/43 75/75/44 78/78/47
f 79/79/48 78/78/47 75/75/44
f 80/80/49 77/77/46 76/76/45
f 77/77/46 80/80/49 81/81/50
f 78/78/47 79/79/48 82/82/51
f 83/83/52 82/82/51 79/79/48
f 84/84/53 81/81/50 80/80/49
f 81/81/50 84/84/53 85/85/54
f 82/82/51 83/83/52 86/86/55
f 87/87/56 86/86/55 83/83/52
f 88/88/57 85/85/54 84/84/53
f 85/85/54 88/88/57 89/89/58
f 86/86/55 87/87/56 90/90/59
f 91/91/60 90/90/59 87/87/56
f 92/92/61 89/89/58 88/88/57
f 89/89/58 92/92/61 93/93/62
f 90/90/59 91/91/60 94/94/63
f 95/95/64 94/94/63 91/91/60
f 96/96/65 93/93/62 92/92/61
f 93/93/62 96/96/65 97/97/66
f 94/94/63 95/95/64 98/98/67
f 99/99/68 98/98/67 95/95/64
f 100/100/69 97/97/66 96/96/65
f 97/97/66 100/100/69 101/101/70
f 98/98/67 99/99/68 102/102/71
f 103/103/72 102/102/71 99/99/68
f 104/104/73 101/101/70 100/100/69
f 101/101/70 104/104/73 105/105/74
f 102/102/71 103/103/72 106/106/75
f 107/107/76 106/106/75 103/103/72
f 108/108/77 105/105/74 104/104/73
f 105/105/74 108/108/77 109/109/78
f 106/106/75 107/107/76 110/110/79
f 111/111/80 110/110/79 107/107/76
f 112/112/81 109/109/78 108/108/77
f 109/109/78 112/112/81 113/113/82
f 110/110/79 111/111/80 114/114/83
f 115/115/84 114/114/83 111/111/80
f 116/116/85 113/113/82 112/112/81
f 113/113/82 116/116/85 117/117/86
f 114/114/83 115/115/84 118/118/87
f 119/119/88 118/118/87 115/115/84
f 117/117/86 120/120/89 119/119/88
f 120/120/89 117/117/86 116/116/85
f 118/118/87 119/119/88 120/120/89
f 116/116/85 121/121/4 120/120/89
f 120/120/89 121/121/4 118/118/87
f 118/118/87 121/121/4 114/114/83
f 112/112/81 121/121/4 116/116/85
f 114/114/83 121/121/4 110/110/79
f 110/110/79 121/121/4 106/106/75
f 108/108/77 121/121/4 112/112/81
f 104/104/73 121/121/4 108/108/77
f 106/106/75 121/121/4 102/102/71
f 102/102/71 121/121/4 98/98/67
f 98/98/67 121/121/4 94/94/63
f 100/100/69 121/121/4 104/104/73
f 96/96/65 121/121/4 100/100/69
f 92/92/61 121/121/4 96/96/65
f 88/88/57 121/121/4 92/92/61
f 84/84/53 121/121/4 88/88/57
f 80/80/49 121/121/4 84/84/53
f 76/76/45 121/121/4 80/80/49
f 72/72/41 121/121/4 76/76/45
f 68/68/37 121/121/4 72/72/41
f 64/64/33 121/121/4 68/68/37
f 62/62/31 121/121/4 64/64/33
f 66/66/35 121/121/4 62/62/31
f 70/70/39 121/121/4 66/66/35
f 74/74/43 121/121/4 70/70/39
f 78/78/47 121/121/4 74/74/43
f 82/82/51 121/121/4 78/78/47
f 86/86/55 121/121/4 82/82/51
f 90/90/59 121/121/4 86/86/55
f 94/94/63 121/121/4 90/90/59
f 124/122/90 123/123/91 122/124/92
f 125/125/93 122/124/92 123/123/91
f 123/123/91 126/126/94 125/125/93
f 122/124/92 127/127/95 124/122/90
f 128/128/96 124/122/90 127/127/95
f 129/129/97 125/125/93 126/126/94
f 126/126/94 130/130/98 129/129/97
f 127/127/95 131/131/99 128/128/96
f 132/132/100 128/128/96 131/131/99
f 133/133/101 129/129/97 130/130/98
f 130/130/98 134/134/102 133/133/101
f 131/131/99 135/135/103 132/132/100
f 136/136/104 132/132/100 135/135/103
f 137/137/105 133/133/101 134/134/102
f 134/134/102 138/138/106 137/137/105
f 135/135/103 139/139/107 136/136/104
f 140/140/108 136/136/104 139/139/107
f 141/141/109 137/137/105 138/138/106
f 138/138/106 142/142/110 141/141/109
f 139/139/107 143/143/111 140/140/108
f 144/144/112 140/140/108 143/143/111
f 145/145/113 141/141/109 142/142/110
f 142/142/110 146/146/114 145/145/113
f 143/143/111 147/147/115 144/144/112
f 148/148/116 144/144/112 147/147/115
f 149/149/117 145/145/113 146/146/114
f 146/146/114 150/150/118 149/149/117
f 147/147/115 151/151/119 148/148/116
f 152/152/120 148/148/116 151/151/119
f 153/153/121 149/149/117 150/150/118
f 150/150/118 154/154/122 153/153/121
f 151/151/119 155/155/123 152/152/120
f 156/156/124 152/152/120 155/155/123
f 157/157/125 153/153/121 154/154/122
f 154/154/122 158/158/126 157/157/125
f 155/155/123 159/159/127 156/156/124
f 160/160/128 156/156/124 159/159/127
f 161/161/129 157/157/125 158/158/126
f 158/158/126 162/162/130 161/161/129
f 159/159/127 163/163/131 160/160/128
f 164/164/132 160/160/128 163/163/131
f 165/165/133 161/161/129 162/162/130
f 162/162/130 166/166/134 165/165/133
f 163/163/131 167/167/135 164/164/132
f 168/168/136 164/164/132 167/167/135
f 169/169/137 165/165/133 166/166/134
f 166/166/134 170/170/138 169/169/137
f 167/167/135 171/171/139 168/168/136
f 172/172/140 168/168/136 171/171/139
f 173/173/141 169/169/137 170/170/138
f 170/170/138 174/174/142 173/173/141
f 171/171/139 175/175/143 172/172/140
f 176/176/144 172/172/140 175/175/143
f 177/177/145 173/173/141 174/174/142
f 174/174/142 178/178/146 177/177/145
f 175/175/143 179/179/147 176/176/144
f 180/180/148 176/176/144 179/179/147
f 178/178/146 180/180/148 181/181/149
f 179/179/147 181/181/149 180/180/148
f 181/181/149 177/177/145 178/178/146
f 173/173/141 177/177/145 182/182/21
f 177/177/145 181/181/149 182/182/21
f 169/169/137 173/173/141 182/182/21
f 181/181/149 179/179/147 182/182/21
f 179/179/147 175/175/143 182/182/21
f 165/165/133 169/169/137 182/182/21
f 175/175/143 171/171/139 182/182/21
f 161/161/129 165/165/133 182/182/21
f 171/171/139 167/167/135 182/182/21
f 157/157/125 161/161/129 182/182/21
f 167/167/135 163/163/131 182/182/21
f 153/153/121 157/157/125 182/182/21
f 163/163/131 159/159/127 182/182/21
f 149/149/117 153/153/121 182/182/21
f 159/159/127 155/155/123 182/182/21
f 145/145/113 149/149/117 182/182/21
f 155/155/123 151/151/119 182/182/21
f 141/141/109 145/145/113 182/182/21
f 151/151/119 147/147/115 182/182/21
f 137/137/105 141/141/109 182/182/21
f 133/133/101 137/137/105 182/182/21
f 129/129/97 133/133/101 182/182/21
f 125/125/93 129/129/97 182/182/21
f 122/124/92 125/125/93 182/182/21
f 127/127/95 122/124/92 182/182/21
f 131/131/99 127/127/95 182/182/21
f 135/135/103 131/131/99 182/182/21
f 139/139/107 135/135/103 182/182/21
f 143/143/111 139/139/107 182/182/21
f 147/147/115 143/143/111 182/182/21
