# Blender 4.3.1
# www.blender.org
o llights
v 0.467253 0.224600 1.916097
v 0.467253 0.337883 1.916097
v 0.490773 0.281241 1.909255
v 0.410472 0.201138 1.932616
v 0.410472 0.361345 1.932616
v 0.353690 0.224600 1.949135
v 0.353690 0.337883 1.949135
v 0.330171 0.281241 1.955977
v 0.518418 0.225668 1.894370
v 0.562902 0.332816 1.882356
v 0.562932 0.207285 1.878797
v 0.518387 0.314432 1.898143
v 0.499967 0.270050 1.902353
v 0.607429 0.314432 1.865193
v 0.607437 0.225668 1.864118
v 0.625868 0.270050 1.858548
v 0.716796 0.230962 1.827671
v 0.716794 0.298239 1.828018
v 0.730749 0.264648 1.823057
v 0.683064 0.217029 1.838826
v 0.683056 0.312173 1.839693
v 0.649328 0.230962 1.850303
v 0.649321 0.298239 1.851106
v 0.635352 0.264601 1.855340
v -0.353690 0.224600 1.949135
v -0.353690 0.337883 1.949135
v -0.330171 0.281241 1.955977
v -0.410472 0.201138 1.932616
v -0.410472 0.361345 1.932616
v -0.467253 0.224600 1.916097
v -0.467253 0.337883 1.916097
v -0.490773 0.281241 1.909255
v -0.518387 0.314432 1.898143
v -0.518418 0.225668 1.894370
v -0.562902 0.332816 1.882356
v -0.499967 0.270050 1.902353
v -0.562932 0.207285 1.878797
v -0.607429 0.314432 1.865193
v -0.607437 0.225668 1.864118
v -0.625868 0.270050 1.858548
v -0.649328 0.230962 1.850303
v -0.649321 0.298239 1.851106
v -0.635352 0.264601 1.855340
v -0.683056 0.312173 1.839693
v -0.683064 0.217029 1.838826
v -0.716794 0.298239 1.828018
v -0.716796 0.230962 1.827671
v -0.730749 0.264648 1.823057
vn 0.2793 -0.0000 0.9602
vn 0.3275 -0.0356 0.9442
vn 0.3293 -0.0216 0.9440
vn 0.3396 -0.0310 0.9401
vn 0.3312 -0.0400 0.9427
vn 0.3137 -0.0402 0.9487
vn 0.3274 -0.0165 0.9447
vn 0.3159 -0.0115 0.9487
vn 0.3145 -0.0115 0.9492
vn 0.3202 -0.0049 0.9473
vn 0.3245 -0.0049 0.9459
vn 0.3213 -0.0060 0.9470
vn 0.3194 -0.0074 0.9476
vn 0.3226 -0.0095 0.9465
vn 0.3195 -0.0105 0.9475
vn 0.3197 -0.0113 0.9474
vn 0.3149 -0.0113 0.9491
vn -0.2793 -0.0000 0.9602
vn -0.3312 -0.0400 0.9427
vn -0.3396 -0.0310 0.9401
vn -0.3275 -0.0355 0.9442
vn -0.3137 -0.0402 0.9487
vn -0.3293 -0.0216 0.9440
vn -0.3274 -0.0165 0.9447
vn -0.3159 -0.0115 0.9487
vn -0.3145 -0.0115 0.9492
vn -0.3194 -0.0104 0.9475
vn -0.3149 -0.0113 0.9491
vn -0.3197 -0.0113 0.9474
vn -0.3226 -0.0095 0.9465
vn -0.3195 -0.0074 0.9475
vn -0.3213 -0.0061 0.9469
vn -0.3202 -0.0049 0.9473
vn -0.3245 -0.0049 0.9459
vt 0.467253 0.224600
vt 0.490773 0.281241
vt 0.467253 0.337883
vt 0.410472 0.201138
vt 0.410472 0.361345
vt 0.353690 0.224600
vt 0.353690 0.337883
vt 0.330171 0.281241
vt 0.518418 0.225668
vt 0.562932 0.207285
vt 0.562902 0.332816
vt 0.518387 0.314432
vt 0.499967 0.270050
vt 0.607429 0.314432
vt 0.607437 0.225668
vt 0.625868 0.270050
vt 0.716796 0.230962
vt 0.730749 0.264648
vt 0.716794 0.298239
vt 0.683064 0.217029
vt 0.683056 0.312173
vt 0.649328 0.230962
vt 0.649321 0.298239
vt 0.635352 0.264601
vt -0.353690 0.224600
vt -0.330171 0.281241
vt -0.353690 0.337883
vt -0.410472 0.201138
vt -0.410472 0.361345
vt -0.467253 0.224600
vt -0.467253 0.337883
vt -0.490773 0.281241
vt -0.518387 0.314432
vt -0.562902 0.332816
vt -0.518418 0.225668
vt -0.499967 0.270050
vt -0.562932 0.207285
vt -0.607429 0.314432
vt -0.607437 0.225668
vt -0.625868 0.270050
vt -0.649328 0.230962
vt -0.635352 0.264601
vt -0.649321 0.298239
vt -0.683056 0.312173
vt -0.683064 0.217029
vt -0.716794 0.298239
vt -0.716796 0.230962
vt -0.730749 0.264648
s 1
f 1/1/1 3/2/1 2/3/1
f 4/4/1 1/1/1 2/3/1
f 2/3/1 5/5/1 4/4/1
f 6/6/1 4/4/1 5/5/1
f 5/5/1 7/7/1 6/6/1
f 7/7/1 8/8/1 6/6/1
f 9/9/2 11/10/3 10/11/4
f 10/11/4 12/12/5 9/9/2
f 12/12/5 13/13/6 9/9/2
f 14/14/7 10/11/4 11/10/3
f 14/14/7 11/10/3 15/15/8
f 15/15/8 16/16/9 14/14/7
f 17/17/10 19/18/11 18/19/12
f 20/20/13 17/17/10 18/19/12
f 18/19/12 21/21/14 20/20/13
f 22/22/15 20/20/13 21/21/14
f 21/21/14 23/23/16 22/22/15
f 23/23/16 24/24/17 22/22/15
f 25/25/18 27/26/18 26/27/18
f 28/28/18 25/25/18 26/27/18
f 26/27/18 29/29/18 28/28/18
f 30/30/18 28/28/18 29/29/18
f 29/29/18 31/31/18 30/30/18
f 31/31/18 32/32/18 30/30/18
f 33/33/19 35/34/20 34/35/21
f 34/35/21 36/36/22 33/33/19
f 37/37/23 34/35/21 35/34/20
f 38/38/24 37/37/23 35/34/20
f 39/39/25 37/37/23 38/38/24
f 38/38/24 40/40/26 39/39/25
f 41/41/27 43/42/28 42/43/29
f 42/43/29 44/44/30 41/41/27
f 45/45/31 41/41/27 44/44/30
f 44/44/30 46/46/32 45/45/31
f 45/45/31 46/46/32 47/47/33
f 46/46/32 48/48/34 47/47/33
o lbrake
v 0.409169 0.436974 -2.141241
v 0.360407 0.487151 -2.144026
v 0.374793 0.451670 -2.147366
v 0.443400 0.451670 -2.129240
v 0.374440 0.522632 -2.133178
v 0.457433 0.487151 -2.118392
v 0.408671 0.537329 -2.121177
v 0.443048 0.522632 -2.115052
v 0.513335 0.436974 -2.113720
v 0.464572 0.487151 -2.116505
v 0.478958 0.451670 -2.119845
v 0.547565 0.451670 -2.101718
v 0.478605 0.522632 -2.105657
v 0.561598 0.487151 -2.090871
v 0.512836 0.537329 -2.093656
v 0.547213 0.522632 -2.087531
v -0.457433 0.487151 -2.118392
v -0.408671 0.537329 -2.121177
v -0.443048 0.522632 -2.115052
v -0.374440 0.522632 -2.133178
v -0.443400 0.451670 -2.129240
v -0.360407 0.487151 -2.144026
v -0.409169 0.436974 -2.141241
v -0.374793 0.451670 -2.147366
v -0.561598 0.487151 -2.090871
v -0.512836 0.537329 -2.093656
v -0.547213 0.522632 -2.087531
v -0.478605 0.522632 -2.105657
v -0.547565 0.451670 -2.101718
v -0.464572 0.487151 -2.116505
v -0.513335 0.436974 -2.113720
v -0.478958 0.451670 -2.119845
vn 0.2507 0.1910 -0.9490
vn 0.2508 0.1910 -0.9490
vn -0.2507 0.1910 -0.9490
vn -0.2508 0.1910 -0.9490
vt 0.409169 0.436974
vt 0.374793 0.451670
vt 0.360407 0.487151
vt 0.443400 0.451670
vt 0.374440 0.522632
vt 0.457433 0.487151
vt 0.408671 0.537329
vt 0.443048 0.522632
vt 0.513335 0.436974
vt 0.478958 0.451670
vt 0.464572 0.487151
vt 0.547565 0.451670
vt 0.478605 0.522632
vt 0.561598 0.487151
vt 0.512836 0.537329
vt 0.547213 0.522632
vt -0.457433 0.487151
vt -0.443048 0.522632
vt -0.408671 0.537329
vt -0.374440 0.522632
vt -0.443400 0.451670
vt -0.360407 0.487151
vt -0.409169 0.436974
vt -0.374793 0.451670
vt -0.561598 0.487151
vt -0.547213 0.522632
vt -0.512836 0.537329
vt -0.478605 0.522632
vt -0.547565 0.451670
vt -0.464572 0.487151
vt -0.513335 0.436974
vt -0.478958 0.451670
s 1
f 49/49/35 51/50/36 50/51/35
f 52/52/35 49/49/35 50/51/35
f 50/51/35 53/53/35 52/52/35
f 54/54/35 52/52/35 53/53/35
f 53/53/35 55/55/35 54/54/35
f 55/55/35 56/56/35 54/54/35
f 57/57/35 59/58/36 58/59/35
f 60/60/35 57/57/35 58/59/35
f 58/59/35 61/61/35 60/60/35
f 62/62/35 60/60/35 61/61/35
f 61/61/35 63/63/35 62/62/35
f 63/63/35 64/64/36 62/62/35
f 65/65/37 67/66/37 66/67/37
f 66/67/37 68/68/37 65/65/37
f 65/65/37 68/68/37 69/69/37
f 68/68/37 70/70/37 69/69/37
f 71/71/37 69/69/37 70/70/37
f 70/70/37 72/72/38 71/71/37
f 73/73/37 75/74/38 74/75/37
f 74/75/37 76/76/37 73/73/37
f 73/73/37 76/76/37 77/77/37
f 76/76/37 78/78/37 77/77/37
f 79/79/37 77/77/37 78/78/37
f 78/78/37 80/80/38 79/79/37
o lreverse
v 0.305004 0.436974 -2.168762
v 0.256242 0.487151 -2.171548
v 0.270628 0.451670 -2.174887
v 0.339235 0.451670 -2.156761
v 0.270275 0.522632 -2.160700
v 0.353268 0.487151 -2.145913
v 0.304506 0.537329 -2.148698
v 0.338883 0.522632 -2.142573
v -0.353268 0.487151 -2.145913
v -0.304506 0.537329 -2.148698
v -0.338883 0.522632 -2.142573
v -0.270275 0.522632 -2.160700
v -0.339235 0.451670 -2.156761
v -0.256242 0.487151 -2.171548
v -0.305004 0.436974 -2.168762
v -0.270628 0.451670 -2.174887
vn 0.2507 0.1910 -0.9490
vn -0.2507 0.1910 -0.9490
vt 0.305004 0.436974
vt 0.270628 0.451670
vt 0.256242 0.487151
vt 0.339235 0.451670
vt 0.270275 0.522632
vt 0.353268 0.487151
vt 0.304506 0.537329
vt 0.338883 0.522632
vt -0.353268 0.487151
vt -0.338883 0.522632
vt -0.304506 0.537329
vt -0.270275 0.522632
vt -0.339235 0.451670
vt -0.256242 0.487151
vt -0.305004 0.436974
vt -0.270628 0.451670
s 1
f 81/81/39 83/82/39 82/83/39
f 84/84/39 81/81/39 82/83/39
f 82/83/39 85/85/39 84/84/39
f 86/86/39 84/84/39 85/85/39
f 85/85/39 87/87/39 86/86/39
f 87/87/39 88/88/39 86/86/39
f 89/89/40 91/90/40 90/91/40
f 90/91/40 92/92/40 89/89/40
f 89/89/40 92/92/40 93/93/40
f 92/92/40 94/94/40 93/93/40
f 95/95/40 93/93/40 94/94/40
f 94/94/40 96/96/40 95/95/40
o lhazard
v 0.617499 0.436974 -2.086199
v 0.568738 0.487151 -2.088984
v 0.583123 0.451670 -2.092324
v 0.651730 0.451670 -2.074197
v 0.582770 0.522632 -2.078136
v 0.665763 0.487151 -2.063349
v 0.617001 0.537329 -2.066135
v 0.651378 0.522632 -2.060009
v -0.665763 0.487151 -2.063349
v -0.617001 0.537329 -2.066135
v -0.651378 0.522632 -2.060009
v -0.582770 0.522632 -2.078136
v -0.651730 0.451670 -2.074197
v -0.568738 0.487151 -2.088984
v -0.617499 0.436974 -2.086199
v -0.583123 0.451670 -2.092324
v 0.882147 0.139389 1.661831
v 0.840916 0.135366 1.784105
v 0.842786 0.173343 1.785355
v 0.884486 0.177366 1.663081
v -0.882147 0.139389 1.661831
v -0.884486 0.177366 1.663081
v -0.842786 0.173343 1.785355
v -0.840916 0.135366 1.784105
vn 0.2507 0.1910 -0.9490
vn 0.2508 0.1910 -0.9490
vn -0.2507 0.1910 -0.9490
vn -0.2508 0.1910 -0.9490
vn 0.9458 -0.0629 0.3187
vn 0.9466 -0.0571 0.3173
vn 0.9449 -0.0687 0.3200
vn -0.9458 -0.0629 0.3187
vn -0.9449 -0.0687 0.3200
vn -0.9466 -0.0571 0.3173
vt 0.617499 0.436974
vt 0.583123 0.451670
vt 0.568738 0.487151
vt 0.651730 0.451670
vt 0.582770 0.522632
vt 0.665763 0.487151
vt 0.617001 0.537329
vt 0.651378 0.522632
vt -0.665763 0.487151
vt -0.651378 0.522632
vt -0.617001 0.537329
vt -0.582770 0.522632
vt -0.651730 0.451670
vt -0.568738 0.487151
vt -0.617499 0.436974
vt -0.583123 0.451670
vt 0.882147 0.139389
vt 0.842786 0.173343
vt 0.840916 0.135366
vt 0.884486 0.177366
vt -0.882147 0.139389
vt -0.842786 0.173343
vt -0.884486 0.177366
vt -0.840916 0.135366
s 1
f 97/97/41 99/98/41 98/99/41
f 100/100/41 97/97/41 98/99/41
f 98/99/41 101/101/41 100/100/41
f 102/102/41 100/100/41 101/101/41
f 101/101/41 103/103/41 102/102/41
f 103/103/41 104/104/42 102/102/41
f 105/105/43 107/106/44 106/107/43
f 106/107/43 108/108/43 105/105/43
f 105/105/43 108/108/43 109/109/43
f 108/108/43 110/110/43 109/109/43
f 111/111/43 109/109/43 110/110/43
f 110/110/43 112/112/43 111/111/43
f 113/113/45 115/114/45 114/115/46
f 113/113/45 116/116/47 115/114/45
f 117/117/48 119/118/48 118/119/49
f 117/117/48 120/120/50 119/118/48
o lbrake2
v 0.199936 0.615534 -2.124399
v 0.199836 0.637473 -2.112450
v -0.000000 0.639177 -2.118448
v -0.000000 0.616822 -2.130512
v -0.199936 0.615534 -2.124399
v -0.199836 0.637473 -2.112450
vn 0.0302 0.4764 -0.8787
vn -0.0000 0.4766 -0.8791
vn 0.0304 0.4782 -0.8777
vn -0.0000 0.4749 -0.8800
vn -0.0302 0.4765 -0.8787
vn -0.0304 0.4782 -0.8777
vt 0.199936 0.615534
vt 0.000000 0.639177
vt 0.199836 0.637473
vt 0.000000 0.616822
vt -0.199936 0.615534
vt -0.199836 0.637473
s 1
f 121/121/51 123/122/52 122/123/53
f 121/121/51 124/124/54 123/122/52
f 123/122/52 124/124/54 125/125/55
f 123/122/52 125/125/55 126/126/56
