# Blender 4.3.1
# www.blender.org
o llights
v 1.916097 0.224600 -0.467253
v 1.916097 0.337883 -0.467253
v 1.909255 0.281241 -0.490773
v 1.932616 0.201138 -0.410472
v 1.932616 0.361345 -0.410472
v 1.949135 0.224600 -0.353690
v 1.949135 0.337883 -0.353690
v 1.955977 0.281241 -0.330171
v 1.894370 0.225668 -0.518418
v 1.882356 0.332816 -0.562902
v 1.878797 0.207285 -0.562932
v 1.898143 0.314432 -0.518387
v 1.902353 0.270050 -0.499967
v 1.865193 0.314432 -0.607429
v 1.864118 0.225668 -0.607437
v 1.858548 0.270050 -0.625868
v 1.827671 0.230962 -0.716796
v 1.828018 0.298239 -0.716794
v 1.823057 0.264648 -0.730749
v 1.838826 0.217029 -0.683064
v 1.839693 0.312173 -0.683056
v 1.850303 0.230962 -0.649328
v 1.851106 0.298239 -0.649321
v 1.855340 0.264601 -0.635352
v 1.949135 0.224600 0.353690
v 1.949135 0.337883 0.353690
v 1.955977 0.281241 0.330171
v 1.932616 0.201138 0.410472
v 1.932616 0.361345 0.410472
v 1.916097 0.224600 0.467253
v 1.916097 0.337883 0.467253
v 1.909255 0.281241 0.490773
v 1.898143 0.314432 0.518387
v 1.894370 0.225668 0.518418
v 1.882356 0.332816 0.562902
v 1.902353 0.270050 0.499967
v 1.878797 0.207285 0.562932
v 1.865193 0.314432 0.607429
v 1.864118 0.225668 0.607437
v 1.858548 0.270050 0.625868
v 1.850303 0.230962 0.649328
v 1.851106 0.298239 0.649321
v 1.855340 0.264601 0.635352
v 1.839693 0.312173 0.683056
v 1.838826 0.217029 0.683064
v 1.828018 0.298239 0.716794
v 1.827671 0.230962 0.716796
v 1.823057 0.264648 0.730749
vn 0.9602 -0.0000 -0.2793
vn 0.9442 -0.0356 -0.3275
vn 0.9440 -0.0216 -0.3293
vn 0.9401 -0.0310 -0.3396
vn 0.9427 -0.0400 -0.3312
vn 0.9487 -0.0402 -0.3137
vn 0.9447 -0.0165 -0.3274
vn 0.9487 -0.0115 -0.3159
vn 0.9492 -0.0115 -0.3145
vn 0.9473 -0.0049 -0.3202
vn 0.9459 -0.0049 -0.3245
vn 0.9470 -0.0060 -0.3213
vn 0.9476 -0.0074 -0.3194
vn 0.9465 -0.0095 -0.3226
vn 0.9475 -0.0105 -0.3195
vn 0.9474 -0.0113 -0.3197
vn 0.9491 -0.0113 -0.3149
vn 0.9602 -0.0000 0.2793
vn 0.9427 -0.0400 0.3312
vn 0.9401 -0.0310 0.3396
vn 0.9442 -0.0355 0.3275
vn 0.9487 -0.0402 0.3137
vn 0.9440 -0.0216 0.3293
vn 0.9447 -0.0165 0.3274
vn 0.9487 -0.0115 0.3159
vn 0.9492 -0.0115 0.3145
vn 0.9475 -0.0104 0.3194
vn 0.9491 -0.0113 0.3149
vn 0.9474 -0.0113 0.3197
vn 0.9465 -0.0095 0.3226
vn 0.9475 -0.0074 0.3195
vn 0.9469 -0.0061 0.3213
vn 0.9473 -0.0049 0.3202
vn 0.9459 -0.0049 0.3245
vt 0.467253 0.224600
vt 0.490773 0.281241
vt 0.467253 0.337883
vt 0.410472 0.201138
vt 0.410472 0.361345
vt 0.353690 0.224600
vt 0.353690 0.337883
vt 0.330171 0.281241
vt 0.518418 0.225668
vt 0.562932 0.207285
vt 0.562902 0.332816
vt 0.518387 0.314432
vt 0.499967 0.270050
vt 0.607429 0.314432
vt 0.607437 0.225668
vt 0.625868 0.270050
vt 0.716796 0.230962
vt 0.730749 0.264648
vt 0.716794 0.298239
vt 0.683064 0.217029
vt 0.683056 0.312173
vt 0.649328 0.230962
vt 0.649321 0.298239
vt 0.635352 0.264601
vt -0.353690 0.224600
vt -0.330171 0.281241
vt -0.353690 0.337883
vt -0.410472 0.201138
vt -0.410472 0.361345
vt -0.467253 0.224600
vt -0.467253 0.337883
vt -0.490773 0.281241
vt -0.518387 0.314432
vt -0.562902 0.332816
vt -0.518418 0.225668
vt -0.499967 0.270050
vt -0.562932 0.207285
vt -0.607429 0.314432
vt -0.607437 0.225668
vt -0.625868 0.270050
vt -0.649328 0.230962
vt -0.635352 0.264601
vt -0.649321 0.298239
vt -0.683056 0.312173
vt -0.683064 0.217029
vt -0.716794 0.298239
vt -0.716796 0.230962
vt -0.730749 0.264648
s 1
f 1/1/1 3/2/1 2/3/1
f 4/4/1 1/1/1 2/3/1
f 2/3/1 5/5/1 4/4/1
f 6/6/1 4/4/1 5/5/1
f 5/5/1 7/7/1 6/6/1
f 7/7/1 8/8/1 6/6/1
f 9/9/2 11/10/3 10/11/4
f 10/11/4 12/12/5 9/9/2
f 12/12/5 13/13/6 9/9/2
f 14/14/7 10/11/4 11/10/3
f 14/14/7 11/10/3 15/15/8
f 15/15/8 16/16/9 14/14/7
f 17/17/10 19/18/11 18/19/12
f 20/20/13 17/17/10 18/19/12
f 18/19/12 21/21/14 20/20/13
f 22/22/15 20/20/13 21/21/14
f 21/21/14 23/23/16 22/22/15
f 23/23/16 24/24/17 22/22/15
f 25/25/18 27/26/18 26/27/18
f 28/28/18 25/25/18 26/27/18
f 26/27/18 29/29/18 28/28/18
f 30/30/18 28/28/18 29/29/18
f 29/29/18 31/31/18 30/30/18
f 31/31/18 32/32/18 30/30/18
f 33/33/19 35/34/20 34/35/21
f 34/35/21 36/36/22 33/33/19
f 37/37/23 34/35/21 35/34/20
f 38/38/24 37/37/23 35/34/20
f 39/39/25 37/37/23 38/38/24
f 38/38/24 40/40/26 39/39/25
f 41/41/27 43/42/28 42/43/29
f 42/43/29 44/44/30 41/41/27
f 45/45/31 41/41/27 44/44/30
f 44/44/30 46/46/32 45/45/31
f 45/45/31 46/46/32 47/47/33
f 46/46/32 48/48/34 47/47/33
o lbrake
v -2.141241 0.436974 -0.409169
v -2.144026 0.487151 -0.360407
v -2.147366 0.451670 -0.374793
v -2.129240 0.451670 -0.443400
v -2.133178 0.522632 -0.374440
v -2.118392 0.487151 -0.457433
v -2.121177 0.537329 -0.408671
v -2.115052 0.522632 -0.443048
v -2.113720 0.436974 -0.513335
v -2.116505 0.487151 -0.464572
v -2.119845 0.451670 -0.478958
v -2.101718 0.451670 -0.547565
v -2.105657 0.522632 -0.478605
v -2.090871 0.487151 -0.561598
v -2.093656 0.537329 -0.512836
v -2.087531 0.522632 -0.547213
v -2.118392 0.487151 0.457433
v -2.121177 0.537329 0.408671
v -2.115052 0.522632 0.443048
v -2.133178 0.522632 0.374440
v -2.129240 0.451670 0.443400
v -2.144026 0.487151 0.360407
v -2.141241 0.436974 0.409169
v -2.147366 0.451670 0.374793
v -2.090871 0.487151 0.561598
v -2.093656 0.537329 0.512836
v -2.087531 0.522632 0.547213
v -2.105657 0.522632 0.478605
v -2.101718 0.451670 0.547565
v -2.116505 0.487151 0.464572
v -2.113720 0.436974 0.513335
v -2.119845 0.451670 0.478958
vn -0.9490 0.1910 -0.2507
vn -0.9490 0.1910 -0.2508
vn -0.9490 0.1910 0.2507
vn -0.9490 0.1910 0.2508
vt 0.409169 0.436974
vt 0.374793 0.451670
vt 0.360407 0.487151
vt 0.443400 0.451670
vt 0.374440 0.522632
vt 0.457433 0.487151
vt 0.408671 0.537329
vt 0.443048 0.522632
vt 0.513335 0.436974
vt 0.478958 0.451670
vt 0.464572 0.487151
vt 0.547565 0.451670
vt 0.478605 0.522632
vt 0.561598 0.487151
vt 0.512836 0.537329
vt 0.547213 0.522632
vt -0.457433 0.487151
vt -0.443048 0.522632
vt -0.408671 0.537329
vt -0.374440 0.522632
vt -0.443400 0.451670
vt -0.360407 0.487151
vt -0.409169 0.436974
vt -0.374793 0.451670
vt -0.561598 0.487151
vt -0.547213 0.522632
vt -0.512836 0.537329
vt -0.478605 0.522632
vt -0.547565 0.451670
vt -0.464572 0.487151
vt -0.513335 0.436974
vt -0.478958 0.451670
s 1
f 49/49/35 51/50/36 50/51/35
f 52/52/35 49/49/35 50/51/35
f 50/51/35 53/53/35 52/52/35
f 54/54/35 52/52/35 53/53/35
f 53/53/35 55/55/35 54/54/35
f 55/55/35 56/56/35 54/54/35
f 57/57/35 59/58/36 58/59/35
f 60/60/35 57/57/35 58/59/35
f 58/59/35 61/61/35 60/60/35
f 62/62/35 60/60/35 61/61/35
f 61/61/35 63/63/35 62/62/35
f 63/63/35 64/64/36 62/62/35
f 65/65/37 67/66/37 66/67/37
f 66/67/37 68/68/37 65/65/37
f 65/65/37 68/68/37 69/69/37
f 68/68/37 70/70/37 69/69/37
f 71/71/37 69/69/37 70/70/37
f 70/70/37 72/72/38 71/71/37
f 73/73/37 75/74/38 74/75/37
f 74/75/37 76/76/37 73/73/37
f 73/73/37 76/76/37 77/77/37
f 76/76/37 78/78/37 77/77/37
f 79/79/37 77/77/37 78/78/37
f 78/78/37 80/80/38 79/79/37
o lreverse
v -2.168762 0.436974 -0.305004
v -2.171548 0.487151 -0.256242
v -2.174887 0.451670 -0.270628
v -2.156761 0.451670 -0.339235
v -2.160700 0.522632 -0.270275
v -2.145913 0.487151 -0.353268
v -2.148698 0.537329 -0.304506
v -2.142573 0.522632 -0.338883
v -2.145913 0.487151 0.353268
v -2.148698 0.537329 0.304506
v -2.142573 0.522632 0.338883
v -2.160700 0.522632 0.270275
v -2.156761 0.451670 0.339235
v -2.171548 0.487151 0.256242
v -2.168762 0.436974 0.305004
v -2.174887 0.451670 0.270628
vn -0.9490 0.1910 -0.2507
vn -0.9490 0.1910 0.2507
vt 0.305004 0.436974
vt 0.270628 0.451670
vt 0.256242 0.487151
vt 0.339235 0.451670
vt 0.270275 0.522632
vt 0.353268 0.487151
vt 0.304506 0.537329
vt 0.338883 0.522632
vt -0.353268 0.487151
vt -0.338883 0.522632
vt -0.304506 0.537329
vt -0.270275 0.522632
vt -0.339235 0.451670
vt -0.256242 0.487151
vt -0.305004 0.436974
vt -0.270628 0.451670
s 1
f 81/81/39 83/82/39 82/83/39
f 84/84/39 81/81/39 82/83/39
f 82/83/39 85/85/39 84/84/39
f 86/86/39 84/84/39 85/85/39
f 85/85/39 87/87/39 86/86/39
f 87/87/39 88/88/39 86/86/39
f 89/89/40 91/90/40 90/91/40
f 90/91/40 92/92/40 89/89/40
f 89/89/40 92/92/40 93/93/40
f 92/92/40 94/94/40 93/93/40
f 95/95/40 93/93/40 94/94/40
f 94/94/40 96/96/40 95/95/40
o lhazard
v -2.086199 0.436974 -0.617499
v -2.088984 0.487151 -0.568738
v -2.092324 0.451670 -0.583123
v -2.074197 0.451670 -0.651730
v -2.078136 0.522632 -0.582770
v -2.063349 0.487151 -0.665763
v -2.066135 0.537329 -0.617001
v -2.060009 0.522632 -0.651378
v -2.063349 0.487151 0.665763
v -2.066135 0.537329 0.617001
v -2.060009 0.522632 0.651378
v -2.078136 0.522632 0.582770
v -2.074197 0.451670 0.651730
v -2.088984 0.487151 0.568738
v -2.086199 0.436974 0.617499
v -2.092324 0.451670 0.583123
v 1.661831 0.139389 -0.882147
v 1.784105 0.135366 -0.840916
v 1.785355 0.173343 -0.842786
v 1.663081 0.177366 -0.884486
v 1.661831 0.139389 0.882147
v 1.663081 0.177366 0.884486
v 1.785355 0.173343 0.842786
v 1.784105 0.135366 0.840916
vn -0.9490 0.1910 -0.2507
vn -0.9490 0.1910 -0.2508
vn -0.9490 0.1910 0.2507
vn -0.9490 0.1910 0.2508
vn 0.3187 -0.0629 -0.9458
vn 0.3173 -0.0571 -0.9466
vn 0.3200 -0.0687 -0.9449
vn 0.3187 -0.0629 0.9458
vn 0.3200 -0.0687 0.9449
vn 0.3173 -0.0571 0.9466
vt 0.617499 0.436974
vt 0.583123 0.451670
vt 0.568738 0.487151
vt 0.651730 0.451670
vt 0.582770 0.522632
vt 0.665763 0.487151
vt 0.617001 0.537329
vt 0.651378 0.522632
vt -0.665763 0.487151
vt -0.651378 0.522632
vt -0.617001 0.537329
vt -0.582770 0.522632
vt -0.651730 0.451670
vt -0.568738 0.487151
vt -0.617499 0.436974
vt -0.583123 0.451670
vt 0.882147 0.139389
vt 0.842786 0.173343
vt 0.840916 0.135366
vt 0.884486 0.177366
vt -0.882147 0.139389
vt -0.842786 0.173343
vt -0.884486 0.177366
vt -0.840916 0.135366
s 1
f 97/97/41 99/98/41 98/99/41
f 100/100/41 97/97/41 98/99/41
f 98/99/41 101/101/41 100/100/41
f 102/102/41 100/100/41 101/101/41
f 101/101/41 103/103/41 102/102/41
f 103/103/41 104/104/42 102/102/41
f 105/105/43 107/106/44 106/107/43
f 106/107/43 108/108/43 105/105/43
f 105/105/43 108/108/43 109/109/43
f 108/108/43 110/110/43 109/109/43
f 111/111/43 109/109/43 110/110/43
f 110/110/43 112/112/43 111/111/43
f 113/113/45 115/114/45 114/115/46
f 113/113/45 116/116/47 115/114/45
f 117/117/48 119/118/48 118/119/49
f 117/117/48 120/120/50 119/118/48
o lbrake2
v -2.124399 0.615534 -0.199936
v -2.112450 0.637473 -0.199836
v -2.118448 0.639177 0.000000
v -2.130512 0.616822 0.000000
v -2.124399 0.615534 0.199936
v -2.112450 0.637473 0.199836
vn -0.8787 0.4764 -0.0302
vn -0.8791 0.4766 -0.0000
vn -0.8777 0.4782 -0.0304
vn -0.8800 0.4749 -0.0000
vn -0.8787 0.4765 0.0302
vn -0.8777 0.4782 0.0304
vt 0.199936 0.615534
vt 0.000000 0.639177
vt 0.199836 0.637473
vt 0.000000 0.616822
vt -0.199936 0.615534
vt -0.199836 0.637473
s 1
f 121/121/51 123/122/52 122/123/53
f 121/121/51 124/124/54 123/122/52
f 123/122/52 124/124/54 125/125/55
f 123/122/52 125/125/55 126/126/56
