# Blender 4.0.1
# www.blender.org
o doorcardlf_a.006_buttonstex.001
v 14.409756 27.617424 30.541588
v 14.621636 27.443989 30.681414
v 14.537637 27.396824 30.508480
v 14.486860 27.660648 30.701275
v 14.595935 27.289612 30.486670
v 14.617875 27.360043 30.592609
v 14.650473 27.278692 30.557945
v 14.567726 27.366577 30.522890
v 10.615330 26.086830 27.050220
v 10.972016 25.945789 26.846907
v 10.629121 25.948565 26.821201
v 10.959479 26.096497 27.071640
v 9.495747 25.951965 26.823149
v 9.891300 26.093365 27.043209
v 9.890045 25.956440 26.827042
v 9.498882 26.087009 27.058790
v 14.617249 27.078409 30.303221
v 14.700623 27.181595 30.533798
v 14.711278 27.002966 30.367485
v 14.563338 27.297400 30.445385
v 10.637896 25.233698 17.927244
v 10.928761 25.122280 17.638634
v 10.629120 25.136061 17.643696
v 10.937538 25.219915 17.922180
v 12.449542 25.224751 18.079144
v 12.877692 25.138836 17.880892
v 12.373063 25.164431 17.895695
v 12.945394 25.198526 18.061224
v 11.516137 25.200497 17.933865
v 11.807003 25.089077 17.645254
v 11.507360 25.102861 17.650316
v 11.815779 25.186712 17.928802
v 12.426973 25.160133 17.923349
v 12.681483 25.062321 17.670179
v 12.418825 25.074402 17.674467
v 12.689631 25.148052 17.919064
v 11.733032 25.402748 18.546141
v 12.027659 25.346371 18.315563
v 11.733032 25.358002 18.314005
v 12.027659 25.391117 18.547699
vn -0.7230 -0.4912 0.4858
vn -0.7230 -0.4927 0.4843
vn -0.7232 -0.4934 0.4833
vn -0.7233 -0.4949 0.4817
vn -0.7223 -0.4969 0.4809
vn -0.7245 -0.4947 0.4799
vn -0.7244 -0.4949 0.4800
vn -0.7266 -0.4926 0.4789
vn -0.0455 -0.8564 0.5143
vn -0.0257 -0.8419 0.5390
vn -0.0310 -0.8459 0.5324
vn -0.0113 -0.8308 0.5565
vn 0.0045 -0.8449 0.5348
vn 0.0159 -0.8539 0.5202
vn 0.0229 -0.8593 0.5110
vn 0.0338 -0.8673 0.4966
vn -0.7245 -0.4913 0.4834
vn -0.7245 -0.4912 0.4835
vn -0.0379 -0.9445 0.3264
vn -0.0384 -0.9444 0.3265
vn -0.0381 -0.9445 0.3263
vn -0.0382 -0.9443 0.3268
vn -0.0383 -0.9444 0.3266
vn -0.0381 -0.9443 0.3269
vn -0.0383 -0.9444 0.3264
vn -0.0381 -0.9444 0.3266
vn -0.0382 -0.9445 0.3263
vn -0.0397 -0.9811 0.1891
vt 0.189592 0.899905
vt 0.181273 0.961130
vt 0.148934 0.886736
vt 0.141241 0.943198
vt 0.470490 0.371200
vt 0.469640 0.410876
vt 0.451406 0.370697
vt 0.451562 0.408390
vt 0.145251 0.437955
vt 0.236450 0.436209
vt 0.146535 0.579900
vt 0.237953 0.579732
vt 0.138061 0.440552
vt 0.138040 0.579174
vt 0.244775 0.436125
vt 0.244490 0.583224
vt 0.140231 0.907433
vt 0.177869 0.885926
vt 0.148576 0.947891
vt 0.191229 0.944260
vt 0.233860 0.045902
vt 0.269468 0.046921
vt 0.233348 0.117126
vt 0.268955 0.118145
vt 0.131016 0.659713
vt 0.221905 0.648973
vt 0.145261 0.728786
vt 0.234503 0.717013
vt 0.279605 0.045902
vt 0.315218 0.046935
vt 0.279092 0.117126
vt 0.314705 0.118145
vt 0.326619 0.045902
vt 0.362232 0.046935
vt 0.326106 0.117126
vt 0.361719 0.118145
vt 0.365915 0.045929
vt 0.402548 0.046320
vt 0.365723 0.119192
vt 0.402357 0.119583
s 1
f 3/1/1 2/2/2 1/3/3
f 4/4/4 1/3/3 2/2/2
f 7/5/5 6/6/6 5/7/7
f 8/8/8 5/7/7 6/6/6
f 11/9/9 10/10/10 9/11/11
f 12/12/12 9/11/11 10/10/10
f 15/13/13 14/14/14 13/15/15
f 16/16/16 13/15/15 14/14/14
f 19/17/17 18/18/18 17/19/17
f 20/20/18 17/19/17 18/18/18
f 23/21/19 22/22/19 21/23/20
f 24/24/19 21/23/20 22/22/19
f 27/25/21 26/26/22 25/27/23
f 28/28/24 25/27/23 26/26/22
f 31/29/19 30/30/25 29/31/25
f 32/32/19 29/31/25 30/30/25
f 35/33/26 34/34/27 33/35/26
f 36/36/27 33/35/26 34/34/27
f 39/37/28 38/38/28 37/39/28
f 40/40/28 37/39/28 38/38/28
