# Blender 4.3.1
# www.blender.org
o mesh_40outLIGHTS
v 0.440824 0.516113 -2.030303
v 0.440824 0.459902 -2.030303
v 0.568735 0.466548 -2.024997
v 0.577534 0.516113 -2.024632
v 0.312912 0.466548 -2.035611
v 0.568735 0.565679 -2.024997
v 0.304113 0.516113 -2.035976
v 0.440824 0.572324 -2.030303
v 0.312912 0.565679 -2.035611
v -0.440824 0.516113 -2.030303
v -0.577534 0.516113 -2.024632
v -0.568735 0.466548 -2.024997
v -0.568735 0.565679 -2.024997
v -0.440824 0.459902 -2.030303
v -0.440824 0.572324 -2.030303
v -0.312912 0.466548 -2.035611
v -0.312912 0.565679 -2.035611
v -0.304113 0.516113 -2.035976
vn 0.0415 -0.0000 -0.9991
vn 0.0414 -0.0000 -0.9991
vn -0.0415 -0.0000 -0.9991
vn -0.0414 -0.0000 -0.9991
vt 0.440824 0.516113
vt 0.568735 0.466548
vt 0.440824 0.459902
vt 0.577534 0.516113
vt 0.312912 0.466548
vt 0.568735 0.565679
vt 0.304113 0.516113
vt 0.440824 0.572324
vt 0.312912 0.565679
vt -0.440824 0.516113
vt -0.568735 0.466548
vt -0.577534 0.516113
vt -0.568735 0.565679
vt -0.440824 0.459902
vt -0.440824 0.572324
vt -0.312912 0.466548
vt -0.312912 0.565679
vt -0.304113 0.516113
s 1
f 1/1/1 3/2/2 2/3/1
f 1/1/1 4/4/2 3/2/2
f 1/1/1 2/3/1 5/5/1
f 6/6/2 4/4/2 1/1/1
f 1/1/1 5/5/1 7/7/1
f 6/6/2 1/1/1 8/8/1
f 9/9/1 1/1/1 7/7/1
f 9/9/1 8/8/1 1/1/1
f 10/10/3 12/11/4 11/12/4
f 10/10/3 11/12/4 13/13/4
f 10/10/3 14/14/3 12/11/4
f 10/10/3 13/13/4 15/15/3
f 16/16/3 14/14/3 10/10/3
f 17/17/3 10/10/3 15/15/3
f 16/16/3 10/10/3 18/18/3
f 17/17/3 18/18/3 10/10/3
o mesh_40outLIGHTS.001
v 0.533185 0.224340 1.972299
v 0.413809 0.221146 2.031640
v 0.413812 0.304155 2.023982
v 0.533181 0.313483 1.964078
v 0.299606 0.219312 2.047547
v 0.302717 0.291602 2.040431
v 0.405120 0.220985 2.032180
v 0.405109 0.303367 2.024583
v 0.266683 0.257212 2.048797
v 0.249879 0.217586 2.054875
v 0.543655 0.269191 1.975137
v 0.632707 0.269191 1.975137
v 0.588181 0.224665 1.975137
v 0.556696 0.237706 1.975137
v 0.619666 0.237706 1.975137
v 0.588181 0.313717 1.975137
v 0.556696 0.300676 1.975137
v 0.619666 0.300676 1.975137
v -0.299606 0.219312 2.047547
v -0.266683 0.257212 2.048797
v -0.249879 0.217586 2.054875
v -0.302717 0.291602 2.040431
v -0.405120 0.220985 2.032180
v -0.405109 0.303367 2.024583
v -0.413812 0.304155 2.023982
v -0.413809 0.221146 2.031640
v -0.533185 0.224340 1.972299
v -0.533181 0.313483 1.964078
v -0.556696 0.237706 1.975137
v -0.632707 0.269191 1.975137
v -0.543655 0.269191 1.975137
v -0.588181 0.224665 1.975137
v -0.619666 0.237706 1.975137
v -0.556696 0.300676 1.975137
v -0.588181 0.313717 1.975137
v -0.619666 0.300676 1.975137
vn 0.4418 0.0824 0.8933
vn 0.4419 0.0824 0.8933
vn 0.1421 0.0909 0.9857
vn -0.0000 -0.0000 1.0000
vn -0.1421 0.0909 0.9857
vn -0.4418 0.0824 0.8933
vn -0.4419 0.0824 0.8933
vt 0.533185 0.224340
vt 0.413812 0.304155
vt 0.413809 0.221146
vt 0.533181 0.313483
vt 0.299606 0.219312
vt 0.405120 0.220985
vt 0.302717 0.291602
vt 0.405109 0.303367
vt 0.266683 0.257212
vt 0.249879 0.217586
vt 0.543655 0.269191
vt 0.588181 0.224665
vt 0.632707 0.269191
vt 0.556696 0.237706
vt 0.619666 0.237706
vt 0.588181 0.313717
vt 0.556696 0.300676
vt 0.619666 0.300676
vt -0.299606 0.219312
vt -0.249879 0.217586
vt -0.266683 0.257212
vt -0.302717 0.291602
vt -0.405120 0.220985
vt -0.405109 0.303367
vt -0.413812 0.304155
vt -0.533185 0.224340
vt -0.413809 0.221146
vt -0.533181 0.313483
vt -0.556696 0.237706
vt -0.543655 0.269191
vt -0.632707 0.269191
vt -0.588181 0.224665
vt -0.619666 0.237706
vt -0.556696 0.300676
vt -0.588181 0.313717
vt -0.619666 0.300676
s 1
f 19/19/5 21/20/5 20/21/5
f 19/19/5 22/22/6 21/20/5
f 23/23/7 25/24/7 24/25/7
f 26/26/7 24/25/7 25/24/7
f 24/25/7 27/27/7 23/23/7
f 27/27/7 28/28/7 23/23/7
f 29/29/8 31/30/8 30/31/8
f 29/29/8 32/32/8 31/30/8
f 31/30/8 33/33/8 30/31/8
f 34/34/8 29/29/8 30/31/8
f 34/34/8 35/35/8 29/29/8
f 30/31/8 36/36/8 34/34/8
f 37/37/9 39/38/9 38/39/9
f 38/39/9 40/40/9 37/37/9
f 37/37/9 40/40/9 41/41/9
f 40/40/9 42/42/9 41/41/9
f 43/43/10 45/44/10 44/45/10
f 43/43/10 46/46/11 45/44/10
f 47/47/8 49/48/8 48/49/8
f 50/50/8 47/47/8 48/49/8
f 48/49/8 51/51/8 50/50/8
f 49/48/8 52/52/8 48/49/8
f 52/52/8 53/53/8 48/49/8
f 53/53/8 54/54/8 48/49/8
o mesh_40outLIGHTS.002
v 0.655654 0.303547 1.931896
v 0.669641 0.221378 1.967922
v 0.649356 0.241971 1.972079
v 0.722908 0.222063 1.914174
v 0.670704 0.319213 1.909986
v 0.723172 0.318809 1.864614
v 0.752471 0.222053 1.864397
v 0.757912 0.317960 1.782512
v 0.782890 0.223585 1.788903
v 0.785829 0.248672 1.770352
v 0.774608 0.300349 1.770750
v 0.669505 0.515001 -2.002128
v 0.669505 0.458775 -2.004434
v 0.733545 0.466490 -1.957681
v 0.598402 0.465422 -2.026008
v 0.733955 0.515001 -1.942006
v 0.589601 0.515001 -2.030909
v 0.721123 0.563617 -1.951192
v 0.598402 0.564581 -2.026008
v 0.669505 0.571228 -2.002128
v -0.723172 0.318809 1.864614
v -0.752471 0.222053 1.864397
v -0.757912 0.317960 1.782512
v -0.782890 0.223585 1.788903
v -0.785829 0.248672 1.770352
v -0.774608 0.300349 1.770750
v -0.722908 0.222063 1.914174
v -0.670704 0.319213 1.909986
v -0.655654 0.303547 1.931896
v -0.669641 0.221378 1.967922
v -0.649356 0.241971 1.972079
v -0.669505 0.515001 -2.002128
v -0.733545 0.466490 -1.957681
v -0.669505 0.458775 -2.004434
v -0.598402 0.465422 -2.026008
v -0.733955 0.515001 -1.942006
v -0.589601 0.515001 -2.030909
v -0.721123 0.563617 -1.951192
v -0.598402 0.564581 -2.026008
v -0.669505 0.571228 -2.002128
vn 0.6134 0.3908 0.6863
vn 0.5635 0.4103 0.7171
vn 0.6076 0.4034 0.6841
vn 0.6859 0.3458 0.6403
vn 0.6186 0.3624 0.6972
vn 0.7916 0.2981 0.5334
vn 0.8732 0.2606 0.4118
vn 0.8359 0.2347 0.4962
vn 0.8688 0.2585 0.4224
vn 0.7629 0.1995 0.6149
vn 0.6638 0.1385 0.7349
vn 0.5023 0.0434 -0.8636
vn 0.6298 0.1298 -0.7658
vn 0.4461 0.0367 -0.8943
vn 0.3164 0.0032 -0.9486
vn 0.6760 0.1338 -0.7247
vn 0.3389 -0.0000 -0.9408
vn 0.6922 0.0209 -0.7214
vn 0.3286 0.0165 -0.9443
vn 0.5239 -0.0000 -0.8518
vn -0.7916 0.2981 0.5334
vn -0.8359 0.2347 0.4962
vn -0.8732 0.2606 0.4118
vn -0.8688 0.2585 0.4224
vn -0.7629 0.1995 0.6149
vn -0.6638 0.1385 0.7349
vn -0.6859 0.3458 0.6403
vn -0.6186 0.3624 0.6972
vn -0.6134 0.3908 0.6863
vn -0.6076 0.4034 0.6841
vn -0.5635 0.4103 0.7171
vn -0.5023 0.0433 -0.8636
vn -0.4461 0.0367 -0.8943
vn -0.6298 0.1298 -0.7658
vn -0.3164 0.0032 -0.9486
vn -0.6760 0.1338 -0.7247
vn -0.3389 -0.0000 -0.9408
vn -0.6922 0.0209 -0.7214
vn -0.3286 0.0165 -0.9443
vn -0.5239 -0.0000 -0.8518
vt 0.655654 0.303547
vt 0.649356 0.241971
vt 0.669641 0.221378
vt 0.722908 0.222063
vt 0.670704 0.319213
vt 0.723172 0.318809
vt 0.752471 0.222053
vt 0.757912 0.317960
vt 0.782890 0.223585
vt 0.785829 0.248672
vt 0.774608 0.300349
vt 0.669505 0.515001
vt 0.733545 0.466490
vt 0.669505 0.458775
vt 0.598402 0.465422
vt 0.733955 0.515001
vt 0.589601 0.515001
vt 0.721123 0.563617
vt 0.598402 0.564581
vt 0.669505 0.571228
vt -0.723172 0.318809
vt -0.757912 0.317960
vt -0.752471 0.222053
vt -0.782890 0.223585
vt -0.785829 0.248672
vt -0.774608 0.300349
vt -0.722908 0.222063
vt -0.670704 0.319213
vt -0.655654 0.303547
vt -0.669641 0.221378
vt -0.649356 0.241971
vt -0.669505 0.515001
vt -0.669505 0.458775
vt -0.733545 0.466490
vt -0.598402 0.465422
vt -0.733955 0.515001
vt -0.589601 0.515001
vt -0.721123 0.563617
vt -0.598402 0.564581
vt -0.669505 0.571228
s 1
f 55/55/12 57/56/13 56/57/14
f 56/57/14 58/58/15 55/55/12
f 59/59/16 55/55/12 58/58/15
f 60/60/17 59/59/16 58/58/15
f 58/58/15 61/61/18 60/60/17
f 62/62/19 60/60/17 61/61/18
f 61/61/18 63/63/20 62/62/19
f 64/64/21 62/62/19 63/63/20
f 64/64/21 65/65/22 62/62/19
f 66/66/23 68/67/24 67/68/25
f 66/66/23 67/68/25 69/69/26
f 66/66/23 70/70/27 68/67/24
f 66/66/23 69/69/26 71/71/28
f 72/72/29 70/70/27 66/66/23
f 73/73/30 66/66/23 71/71/28
f 72/72/29 66/66/23 74/74/31
f 73/73/30 74/74/31 66/66/23
f 75/75/32 77/76/33 76/77/34
f 78/78/35 76/77/34 77/76/33
f 79/79/36 78/78/35 77/76/33
f 77/76/33 80/80/37 79/79/36
f 76/77/34 81/81/38 75/75/32
f 75/75/32 81/81/38 82/82/39
f 83/83/40 82/82/39 81/81/38
f 81/81/38 84/84/41 83/83/40
f 84/84/41 85/85/42 83/83/40
f 86/86/43 88/87/44 87/88/45
f 86/86/43 89/89/46 88/87/44
f 86/86/43 87/88/45 90/90/47
f 86/86/43 91/91/48 89/89/46
f 92/92/49 86/86/43 90/90/47
f 93/93/50 91/91/48 86/86/43
f 92/92/49 94/94/51 86/86/43
f 93/93/50 86/86/43 94/94/51
o mesh_40outLIGHTS.003
v -0.000000 0.754647 -1.656996
v 0.133450 0.754647 -1.656996
v 0.133450 0.767724 -1.615522
v -0.000000 0.767724 -1.615522
v -0.133450 0.767724 -1.615522
v -0.133450 0.754647 -1.656996
vn -0.0000 0.9537 -0.3007
vt 0.000000 0.754647
vt 0.133450 0.767724
vt 0.133450 0.754647
vt 0.000000 0.767724
vt -0.133450 0.767724
vt -0.133450 0.754647
s 1
f 95/95/52 97/96/52 96/97/52
f 95/95/52 98/98/52 97/96/52
f 99/99/52 98/98/52 95/95/52
f 99/99/52 95/95/52 100/100/52
o mesh_40outLIGHTS.004
v 0.219034 0.509359 -2.039680
v 0.219034 0.463969 -2.039680
v 0.276433 0.469335 -2.035395
v 0.283537 0.509359 -2.035100
v 0.161636 0.469335 -2.043966
v 0.276433 0.549382 -2.035395
v 0.154531 0.509359 -2.044261
v 0.219034 0.554748 -2.039680
v 0.161636 0.549382 -2.043966
v -0.219034 0.509359 -2.039680
v -0.283537 0.509359 -2.035100
v -0.276433 0.469335 -2.035395
v -0.276433 0.549382 -2.035395
v -0.219034 0.463969 -2.039680
v -0.219034 0.554748 -2.039680
v -0.161636 0.469335 -2.043966
v -0.161636 0.549382 -2.043966
v -0.154531 0.509359 -2.044261
vn 0.0727 -0.0000 -0.9974
vn 0.0726 -0.0027 -0.9974
vn 0.0745 -0.0000 -0.9972
vn 0.0708 -0.0000 -0.9975
vn 0.0726 0.0027 -0.9974
vn 0.0726 0.0026 -0.9974
vn 0.0725 -0.0028 -0.9974
vn -0.0731 -0.0000 -0.9973
vn -0.0726 -0.0027 -0.9974
vn -0.0708 -0.0000 -0.9975
vn -0.0726 0.0026 -0.9974
vn -0.0745 -0.0000 -0.9972
vn -0.0726 0.0027 -0.9974
vt 0.219034 0.509359
vt 0.276433 0.469335
vt 0.219034 0.463969
vt 0.283537 0.509359
vt 0.161636 0.469335
vt 0.276433 0.549382
vt 0.154531 0.509359
vt 0.219034 0.554748
vt 0.161636 0.549382
vt -0.219034 0.509359
vt -0.276433 0.469335
vt -0.283537 0.509359
vt -0.276433 0.549382
vt -0.219034 0.463969
vt -0.219034 0.554748
vt -0.161636 0.469335
vt -0.161636 0.549382
vt -0.154531 0.509359
s 1
f 101/101/53 103/102/54 102/103/55
f 101/101/53 104/104/56 103/102/54
f 101/101/53 102/103/55 105/105/57
f 106/106/58 104/104/56 101/101/53
f 101/101/53 105/105/57 107/107/56
f 106/106/58 101/101/53 108/108/55
f 109/109/59 101/101/53 107/107/56
f 109/109/59 108/108/55 101/101/53
f 110/110/60 112/111/61 111/112/62
f 110/110/60 111/112/62 113/113/63
f 110/110/60 114/114/64 112/111/61
f 110/110/60 113/113/63 115/115/64
f 116/116/65 114/114/64 110/110/60
f 117/117/61 110/110/60 115/115/64
f 116/116/65 110/110/60 118/118/62
f 117/117/61 118/118/62 110/110/60
