# Blender 4.0.1
# www.blender.org
o aero_b_cov___O_OBJ_O_NOSORT_NEAR
v 5.268807 2.080950 20.214260
v 5.746845 1.819385 20.193110
v 5.749917 2.212266 19.966379
v 6.861762 1.905512 19.680149
v 5.745878 1.440123 20.256769
v 6.677761 1.557450 19.849379
v 6.814489 1.620682 19.753330
v 6.955797 1.789757 19.579689
v 7.092024 2.260680 19.222940
v 6.959790 2.254958 19.389380
v 7.010757 2.350546 19.208979
v 6.453452 2.351909 19.528589
v 6.515072 2.262551 19.633499
v 4.577228 1.395954 20.725149
v 5.154706 1.783058 20.428530
v 4.870087 1.761847 20.536219
v 4.535893 1.458950 20.719519
v 4.711811 1.762349 20.560690
v 5.745878 2.298457 19.850460
v 5.177648 2.167233 20.098820
v 4.916566 2.007059 20.328470
v 5.024079 1.953171 20.371580
v -5.268807 2.080950 20.214260
v -5.749917 2.212266 19.966379
v -5.746845 1.819385 20.193110
v -6.861763 1.905513 19.680149
v -6.677762 1.557449 19.849379
v -5.745878 1.440124 20.256769
v -6.814490 1.620683 19.753330
v -6.955797 1.789757 19.579689
v -6.959791 2.254961 19.389389
v -7.092021 2.260679 19.222929
v -7.010756 2.350545 19.208969
v -6.515073 2.262552 19.633499
v -6.453451 2.351909 19.528589
v -4.577228 1.395954 20.725149
v -4.870087 1.761847 20.536219
v -5.154706 1.783059 20.428530
v -4.535893 1.458948 20.719519
v -4.711811 1.762349 20.560690
v -5.745877 2.298457 19.850460
v -5.177648 2.167233 20.098820
v -5.024079 1.953171 20.371580
v -4.916566 2.007059 20.328470
v 6.646189 3.191821 18.507759
v 7.377466 3.448458 17.625000
v 6.680267 3.425226 18.033220
v 4.400345 3.034678 19.120710
v 5.746002 3.128711 18.813030
v 5.746127 3.364993 18.341560
v 4.412078 3.259264 18.653400
v 4.644485 2.803209 19.464930
v 5.745877 2.809336 19.242001
v 6.612111 2.875324 18.939810
v 6.993175 3.002558 18.602209
v -6.646189 3.191821 18.507759
v -6.680267 3.425226 18.033220
v -7.377466 3.448458 17.625000
v -4.400345 3.034678 19.120710
v -4.412078 3.259264 18.653400
v -5.746127 3.364993 18.341560
v -5.746002 3.128711 18.813030
v -4.644485 2.803209 19.464930
v -5.745877 2.809336 19.242001
v -6.612111 2.875324 18.939810
v -6.993175 3.002558 18.602209
vn 0.0482 0.8734 0.4846
vn 0.0621 0.8943 0.4432
vn 0.0351 0.8969 0.4409
vn 0.0896 0.8484 0.5217
vn 0.1601 0.8810 0.4452
vn 0.2083 0.8319 0.5144
vn 0.2703 0.8411 0.4684
vn 0.2855 0.7923 0.5393
vn 0.2033 0.7825 0.5886
vn 0.1305 0.7950 0.5924
vn 0.0885 0.8233 0.5606
vn -0.0621 0.8943 0.4432
vn -0.0482 0.8734 0.4846
vn -0.0351 0.8969 0.4409
vn -0.0896 0.8484 0.5217
vn -0.0885 0.8233 0.5606
vn -0.1305 0.7950 0.5924
vn -0.2033 0.7825 0.5886
vn -0.2083 0.8319 0.5144
vn -0.2855 0.7923 0.5393
vn -0.2703 0.8411 0.4684
vn -0.1601 0.8810 0.4452
vn 0.2203 0.8455 0.4865
vn 0.2955 0.7303 0.6160
vn 0.4484 0.7415 0.4992
vn 0.1729 0.7273 0.6642
vn 0.5924 0.2545 0.7644
vn 0.3048 0.3153 0.8987
vn 0.3614 -0.0959 0.9275
vn 0.1690 0.4304 0.8867
vn 0.0934 0.0987 0.9907
vn 0.0279 0.5315 0.8466
vn -0.2045 0.4032 0.8920
vn -0.1686 0.6637 0.7287
vn 0.1017 0.8480 0.5202
vn 0.0543 0.7548 0.6537
vn 0.0004 0.8220 0.5695
vn 0.0118 0.7341 0.6789
vn -0.0624 0.7918 0.6076
vn 0.4978 -0.1026 0.8612
vn 0.6708 -0.1198 0.7319
vn 0.8092 0.0232 0.5870
vn 0.5653 0.5985 0.5677
vn 0.7504 0.4206 0.5100
vn -0.3614 -0.0959 0.9275
vn -0.5924 0.2545 0.7644
vn -0.4978 -0.1026 0.8612
vn -0.3048 0.3153 0.8987
vn -0.1729 0.7273 0.6642
vn -0.0543 0.7548 0.6537
vn -0.1017 0.8480 0.5202
vn -0.0004 0.8220 0.5695
vn -0.2203 0.8455 0.4865
vn -0.2955 0.7303 0.6159
vn -0.5653 0.5985 0.5677
vn -0.8092 0.0232 0.5870
vn -0.7503 0.4206 0.5100
vn -0.4484 0.7415 0.4992
vn -0.6708 -0.1198 0.7319
vn -0.0118 0.7341 0.6789
vn 0.0624 0.7918 0.6076
vn -0.1690 0.4304 0.8867
vn -0.0934 0.0987 0.9907
vn -0.0279 0.5315 0.8466
vn 0.2044 0.4032 0.8920
vn 0.1686 0.6637 0.7287
vt 0.909668 0.955078
s 1
f 48/1/1 50/1/2 51/1/3
f 49/1/4 50/1/2 48/1/1
f 49/1/4 47/1/5 50/1/2
f 45/1/6 47/1/5 49/1/4
f 45/1/6 46/1/7 47/1/5
f 55/1/8 46/1/7 45/1/6
f 45/1/6 54/1/9 55/1/8
f 49/1/4 54/1/9 45/1/6
f 49/1/4 53/1/10 54/1/9
f 52/1/11 53/1/10 49/1/4
f 61/1/12 59/1/13 60/1/14
f 62/1/15 59/1/13 61/1/12
f 62/1/15 63/1/16 59/1/13
f 64/1/17 63/1/16 62/1/15
f 62/1/15 65/1/18 64/1/17
f 56/1/19 65/1/18 62/1/15
f 56/1/19 66/1/20 65/1/18
f 58/1/21 66/1/20 56/1/19
f 56/1/19 57/1/22 58/1/21
f 62/1/15 57/1/22 56/1/19
f 62/1/15 61/1/12 57/1/22
f 12/1/23 13/1/24 11/1/25
f 3/1/26 13/1/24 12/1/23
f 3/1/26 4/1/27 13/1/24
f 2/1/28 4/1/27 3/1/26
f 2/1/28 5/1/29 4/1/27
f 15/1/30 5/1/29 2/1/28
f 15/1/30 14/1/31 5/1/29
f 16/1/32 14/1/31 15/1/30
f 16/1/32 17/1/33 14/1/31
f 18/1/34 17/1/33 16/1/32
f 19/1/35 3/1/26 12/1/23
f 1/1/36 3/1/26 19/1/35
f 1/1/36 2/1/28 3/1/26
f 15/1/30 2/1/28 1/1/36
f 20/1/37 1/1/36 19/1/35
f 22/1/38 1/1/36 20/1/37
f 22/1/38 15/1/30 1/1/36
f 16/1/32 15/1/30 22/1/38
f 21/1/39 22/1/38 20/1/37
f 16/1/32 22/1/38 21/1/39
f 6/1/40 4/1/27 5/1/29
f 7/1/41 4/1/27 6/1/40
f 7/1/41 8/1/42 4/1/27
f 8/1/42 10/1/43 4/1/27
f 9/1/44 10/1/43 8/1/42
f 9/1/44 11/1/25 10/1/43
f 13/1/24 10/1/43 11/1/25
f 4/1/27 10/1/43 13/1/24
f 28/1/45 26/1/46 27/1/47
f 25/1/48 26/1/46 28/1/45
f 25/1/48 24/1/49 26/1/46
f 23/1/50 24/1/49 25/1/48
f 23/1/50 41/1/51 24/1/49
f 42/1/52 41/1/51 23/1/50
f 35/1/53 24/1/49 41/1/51
f 34/1/54 24/1/49 35/1/53
f 34/1/54 26/1/46 24/1/49
f 31/1/55 26/1/46 34/1/54
f 31/1/55 30/1/56 26/1/46
f 32/1/57 30/1/56 31/1/55
f 31/1/55 33/1/58 32/1/57
f 34/1/54 33/1/58 31/1/55
f 34/1/54 35/1/53 33/1/58
f 26/1/46 29/1/59 27/1/47
f 30/1/56 29/1/59 26/1/46
f 42/1/52 43/1/60 44/1/61
f 23/1/50 43/1/60 42/1/52
f 23/1/50 38/1/62 43/1/60
f 25/1/48 38/1/62 23/1/50
f 25/1/48 28/1/45 38/1/62
f 36/1/63 38/1/62 28/1/45
f 37/1/64 38/1/62 36/1/63
f 37/1/64 43/1/60 38/1/62
f 44/1/61 43/1/60 37/1/64
f 39/1/65 37/1/64 36/1/63
f 40/1/66 37/1/64 39/1/65
f 40/1/66 44/1/61 37/1/64
f 18/1/34 16/1/32 21/1/39
f 49/1/4 48/1/1 52/1/11
o glass_L1___O_OBJ_O_NOSORT_NEAR
v -1.756604 5.424788 -20.308069
v -1.756604 5.177444 -20.153299
v -3.220876 5.005038 -19.943489
v -3.275384 5.251809 -20.098429
v -5.854561 3.699164 -19.306919
v -5.854561 4.387564 -19.282120
v -4.328388 4.438807 -19.703749
v -4.328388 3.699164 -19.699440
v -6.775236 4.803266 -18.718109
v -6.606191 4.677644 -18.907320
v -7.072101 4.666019 -18.576740
v -4.328388 4.886106 -19.706139
v -5.854561 4.823350 -19.214579
v -5.854561 4.967637 -19.114370
v -5.810014 5.154722 -18.657690
v -4.328388 5.287109 -19.201899
v -4.328388 5.121912 -19.628000
v -4.328388 4.982945 -19.718950
v 0.000000 5.485730 -20.389170
v 0.000000 5.230168 -20.234089
v -1.756604 5.177444 -20.153299
v -1.756604 5.424788 -20.308069
v -7.243795 4.413035 -18.470970
v -7.056818 4.366838 -18.719990
v -7.247829 3.699164 -18.661150
v -7.424378 3.699164 -18.378759
v -3.313914 5.428789 -19.443489
v -3.308907 5.403580 -20.008209
v -1.756604 4.893279 -20.085209
v 0.000000 4.937588 -20.166309
v -7.536106 3.755624 -18.175779
v -7.571503 3.896397 -18.033020
v -4.144979 3.758558 -19.746809
v -3.961571 3.907948 -19.794189
v -6.435754 4.365440 -19.060459
v -3.606168 4.437598 -19.838699
v -3.767102 4.172773 -19.816439
v -6.445493 5.073810 -18.394800
v -1.756604 5.576711 -20.224001
v 0.000000 5.635648 -20.305099
v -1.756604 5.576711 -20.224001
v -3.313914 4.648911 -19.899269
v -1.756604 5.595212 -19.664450
v 0.000000 5.654186 -19.769770
v -1.756604 5.595212 -19.664450
v -6.435582 3.699164 -19.087120
v -6.940010 4.914306 -18.174599
v -7.228983 4.687623 -18.049839
v -1.756604 4.893279 -20.085209
v -2.535259 4.818951 -19.992239
v -7.390946 4.460943 -17.984289
v -7.484150 4.235608 -17.965410
v -7.544603 4.057006 -17.974569
v 1.756604 5.424788 -20.308069
v 3.275384 5.251809 -20.098429
v 3.220876 5.005038 -19.943489
v 1.756604 5.177444 -20.153299
v 5.854561 3.699164 -19.306919
v 4.328388 3.699164 -19.699440
v 4.328388 4.438807 -19.703749
v 5.854561 4.387564 -19.282120
v 6.775236 4.803266 -18.718109
v 7.072101 4.666019 -18.576740
v 6.606191 4.677644 -18.907320
v 4.328388 4.886106 -19.706139
v 5.854561 4.823350 -19.214579
v 5.854561 4.967637 -19.114370
v 4.328388 5.121912 -19.628000
v 4.328388 5.287109 -19.201899
v 5.810014 5.154722 -18.657690
v 4.328388 4.982945 -19.718950
v 1.756604 5.424788 -20.308069
v 1.756604 5.177444 -20.153299
v 7.243795 4.413035 -18.470970
v 7.424378 3.699164 -18.378759
v 7.247829 3.699164 -18.661150
v 7.056818 4.366838 -18.719990
v 3.308907 5.403580 -20.008209
v 3.313914 5.428789 -19.443489
v 1.756604 4.893279 -20.085209
v 7.571503 3.896397 -18.033020
v 7.536106 3.755624 -18.175779
v 4.144979 3.758558 -19.746809
v 3.961571 3.907948 -19.794189
v 6.435754 4.365440 -19.060459
v 3.606168 4.437598 -19.838699
v 3.767102 4.172773 -19.816439
v 6.445493 5.073810 -18.394800
v 1.756604 5.576711 -20.224001
v 1.756604 5.576711 -20.224001
v 3.313914 4.648911 -19.899269
v 1.756604 5.595212 -19.664450
v 1.756604 5.595212 -19.664450
v 6.435582 3.699164 -19.087120
v 6.940010 4.914306 -18.174599
v 7.228983 4.687623 -18.049839
v 1.756604 4.893279 -20.085209
v 2.535259 4.818951 -19.992239
v 7.390946 4.460943 -17.984289
v 7.484150 4.235608 -17.965410
v 7.544603 4.057006 -17.974569
v 3.106698 8.723113 1.227543
v 1.553349 8.722650 1.462676
v 1.553349 6.524020 5.641189
v 3.106698 6.524020 5.372948
v 4.528975 5.086502 7.324397
v 4.528975 6.524020 4.817759
v 3.106698 5.126697 7.760239
v 5.403268 6.524020 4.290796
v 5.745878 5.032742 6.637606
v 0.000000 5.161015 8.147068
v 1.553349 5.143856 8.025747
v 0.000000 6.524020 5.765239
v 0.000000 8.722186 1.553619
v 6.254617 6.524020 3.625771
v 6.786867 5.282549 5.328623
v 4.958961 8.571407 0.732215
v 5.296621 8.329663 0.887573
v -3.106698 8.723113 1.227543
v -3.106698 6.524022 5.372949
v -1.553349 6.524020 5.641189
v -1.553349 8.722651 1.462676
v -4.528975 5.086503 7.324397
v -3.106698 5.126697 7.760239
v -4.528975 6.524022 4.817759
v -5.403268 6.524020 4.290796
v -5.745878 5.032743 6.637606
v -1.553349 5.143855 8.025747
v -6.254617 6.524020 3.625771
v -6.786867 5.282550 5.328625
v -4.958961 8.571407 0.732215
v -5.296621 8.329663 0.887573
v 6.003178 7.602408 -6.061711
v 5.792179 8.078911 -0.974550
v 6.613338 6.523726 -0.975522
v 6.563843 6.467467 -6.691925
v 5.561293 8.391569 -0.973351
v 5.739810 8.107951 -5.557713
v 5.517362 8.476316 -4.558844
v 7.061475 5.575354 -0.973350
v 6.535317 6.524436 2.547668
v 6.990495 5.492828 2.706121
v 5.744120 8.070002 0.268784
v 6.803016 6.033978 -6.553746
v 7.019727 5.782722 -5.547182
v 6.911372 5.864286 -6.223440
v 5.475878 8.537750 -2.849799
v -6.003178 7.602408 -6.061711
v -6.563842 6.467467 -6.691925
v -6.613338 6.523726 -0.975522
v -5.792179 8.078911 -0.974550
v -5.561293 8.391569 -0.973351
v -5.517362 8.476316 -4.558844
v -5.739810 8.107952 -5.557713
v -7.061476 5.575354 -0.973350
v -6.990495 5.492828 2.706121
v -6.535316 6.524435 2.547668
v -5.744119 8.070000 0.268784
v -6.803016 6.033978 -6.553748
v -6.911373 5.864287 -6.223440
v -7.019727 5.782723 -5.547182
v -5.475878 8.537750 -2.849799
v 5.282648 6.063642 -12.557409
v 5.584598 7.345084 -9.061155
v 5.897007 6.365764 -10.435181
v 5.795372 6.145512 -11.221720
v 4.754354 8.550354 -7.818980
v 5.140630 8.267162 -8.066453
v 4.263475 6.042572 -14.480670
v 3.106698 6.034386 -15.318450
v 3.106698 8.776702 -7.686821
v 1.756604 6.034548 -15.832820
v 1.756604 8.778443 -7.643188
v 0.000000 6.034668 -15.955210
v 0.000000 8.780709 -7.642924
v -5.282648 6.063642 -12.557409
v -5.795372 6.145512 -11.221720
v -5.897007 6.365764 -10.435181
v -5.584598 7.345084 -9.061155
v -4.754354 8.550354 -7.818980
v -4.263475 6.042572 -14.480670
v -5.140630 8.267162 -8.066453
v -3.106698 8.776702 -7.686821
v -3.106698 6.034386 -15.318450
v -1.756604 8.778443 -7.643188
v -1.756604 6.034548 -15.832820
vn -0.0000 0.9966 -0.0829
vn -0.0747 0.9965 -0.0365
vn -0.0681 0.9929 -0.0974
vn -0.0000 0.9994 -0.0338
vn -0.0413 -0.4940 -0.8685
vn -0.0000 -0.5069 -0.8620
vn -0.0812 0.0098 -0.9967
vn -0.0000 0.0041 -1.0000
vn 0.0747 0.9965 -0.0365
vn 0.0413 -0.4940 -0.8685
vn 0.0812 0.0098 -0.9967
vn -0.3273 0.8271 0.4570
vn -0.2755 0.8454 0.4576
vn -0.3336 0.8376 0.4327
vn -0.2989 0.8348 0.4623
vn -0.2321 0.8536 0.4664
vn -0.2280 0.8538 0.4681
vn -0.1281 0.8694 0.4772
vn -0.1159 0.8704 0.4784
vn -0.0642 0.8754 0.4792
vn -0.0581 0.8756 0.4795
vn -0.0000 0.8777 0.4792
vn -0.1468 0.8676 0.4751
vn -0.0736 0.8751 0.4783
vn 0.0642 0.8754 0.4792
vn 0.0581 0.8756 0.4795
vn 0.1159 0.8704 0.4784
vn 0.0736 0.8751 0.4783
vn 0.1468 0.8676 0.4751
vn 0.1281 0.8694 0.4772
vn 0.2321 0.8536 0.4664
vn 0.2280 0.8538 0.4681
vn 0.2989 0.8348 0.4623
vn 0.3163 0.8265 0.4658
vn 0.3890 0.7951 0.4652
vn 0.3273 0.8271 0.4570
vn 0.2755 0.8454 0.4576
vn 0.8871 0.4616 -0.0061
vn 0.8911 0.4538 0.0085
vn 0.8996 0.4366 0.0085
vn 0.8959 0.4436 0.0236
vn 0.9111 0.4116 0.0230
vn 0.8860 0.4637 -0.0067
vn 0.8844 0.4666 -0.0072
vn 0.8585 0.5128 0.0086
vn 0.8587 0.5124 -0.0046
vn 0.8299 0.5578 0.0117
vn 0.8421 0.5393 -0.0001
vn 0.8526 0.5226 0.0019
vn 0.8439 0.5357 0.0298
vn -0.3890 0.7951 0.4652
vn -0.3163 0.8265 0.4658
vn -0.8959 0.4436 0.0236
vn -0.8996 0.4366 0.0085
vn -0.9111 0.4116 0.0230
vn -0.8911 0.4538 0.0084
vn -0.8871 0.4616 -0.0061
vn -0.8439 0.5357 0.0298
vn -0.8585 0.5128 0.0086
vn -0.8844 0.4666 -0.0072
vn -0.8587 0.5124 -0.0046
vn -0.8860 0.4637 -0.0067
vn -0.8299 0.5578 0.0117
vn -0.8421 0.5393 -0.0001
vn -0.8525 0.5226 0.0019
vn -0.1305 0.0167 -0.9913
vn -0.0812 0.0098 -0.9966
vn -0.1736 0.0228 -0.9845
vn -0.0413 -0.4941 -0.8684
vn -0.1227 -0.4634 -0.8776
vn -0.0748 0.9965 -0.0365
vn -0.1986 0.9718 -0.1271
vn -0.1205 0.9820 -0.1455
vn -0.2508 -0.1982 -0.9475
vn -0.2584 0.9209 -0.2919
vn -0.1557 0.9711 -0.1811
vn -0.2450 0.8854 -0.3951
vn -0.3385 0.1014 -0.9355
vn -0.2403 -0.1674 -0.9562
vn -0.2985 0.0267 -0.9540
vn -0.1958 -0.0449 -0.9796
vn -0.4073 0.0410 -0.9124
vn -0.4467 0.1855 -0.8753
vn -0.5612 0.7659 -0.3138
vn -0.3002 0.9335 -0.1964
vn -0.6146 0.7592 -0.2142
vn -0.6637 0.0448 -0.7467
vn -0.7176 0.6140 -0.3287
vn -0.8396 0.4330 -0.3280
vn -0.8291 0.1524 -0.5379
vn -0.8748 0.4357 -0.2119
vn -0.7615 0.6105 -0.2179
vn -0.9143 0.3351 -0.2276
vn -0.9431 0.2294 -0.2406
vn -0.9603 0.1224 -0.2508
vn -0.8674 0.1768 -0.4652
vn -0.1770 0.9666 -0.1853
vn -0.1836 0.0065 -0.9830
vn -0.1878 -0.0106 -0.9822
vn -0.1918 -0.0278 -0.9810
vn -0.1939 -0.0363 -0.9803
vn -0.1795 0.0236 -0.9835
vn 0.6561 0.6840 -0.3188
vn 0.7248 0.6252 -0.2894
vn 0.6971 0.6487 -0.3053
vn 0.6197 0.7110 -0.3323
vn 0.1807 0.9179 -0.3532
vn 0.1193 0.9318 -0.3428
vn 0.0348 0.9448 -0.3257
vn 0.0348 0.9449 -0.3255
vn -0.0000 0.9475 -0.3197
vn -0.0000 0.9475 -0.3196
vn -0.0348 0.9449 -0.3255
vn -0.1193 0.9318 -0.3428
vn -0.1807 0.9179 -0.3532
vn -0.6561 0.6840 -0.3188
vn -0.6197 0.7110 -0.3323
vn -0.6971 0.6487 -0.3053
vn -0.7248 0.6252 -0.2894
vn 0.0812 0.0098 -0.9966
vn 0.1305 0.0167 -0.9913
vn 0.1785 0.0235 -0.9837
vn 0.1795 0.0236 -0.9835
vn 0.1836 0.0065 -0.9830
vn 0.0413 -0.4941 -0.8684
vn 0.1227 -0.4634 -0.8776
vn 0.2508 -0.1982 -0.9475
vn 0.2584 0.9209 -0.2919
vn 0.2450 0.8854 -0.3951
vn 0.1557 0.9711 -0.1811
vn 0.1770 0.9666 -0.1853
vn 0.0748 0.9965 -0.0365
vn 0.1986 0.9718 -0.1271
vn 0.0681 0.9929 -0.0974
vn 0.1205 0.9820 -0.1455
vn 0.3002 0.9335 -0.1964
vn 0.5612 0.7659 -0.3138
vn 0.4467 0.1855 -0.8753
vn 0.7176 0.6140 -0.3287
vn 0.6637 0.0448 -0.7467
vn 0.8396 0.4330 -0.3280
vn 0.8291 0.1524 -0.5379
vn 0.6146 0.7592 -0.2142
vn 0.7615 0.6105 -0.2179
vn 0.8748 0.4357 -0.2119
vn 0.9143 0.3351 -0.2276
vn 0.9431 0.2294 -0.2406
vn 0.9603 0.1224 -0.2508
vn 0.8674 0.1768 -0.4652
vn 0.3385 0.1014 -0.9355
vn 0.4073 0.0410 -0.9124
vn 0.2985 0.0267 -0.9540
vn 0.1958 -0.0449 -0.9796
vn 0.2403 -0.1674 -0.9562
vn 0.1878 -0.0106 -0.9822
vn 0.1918 -0.0278 -0.9810
vn 0.1939 -0.0363 -0.9803
vn 0.3336 0.8376 0.4327
vt 0.994629 0.755859
vt 0.630859 0.768066
vt 0.630859 0.789062
vt 0.994629 0.776856
vt 0.630859 0.852051
vt 0.994629 0.841309
vt 0.630859 0.897949
vt 0.994629 0.889160
vt 0.983398 0.955078
vt 0.055878 0.851562
vt 0.042114 0.798828
vt 0.050171 0.762207
vt 0.206055 0.801758
vt 0.206055 0.781250
vt 0.432129 0.804199
vt 0.432129 0.825684
vt 0.206055 0.816406
vt 0.432129 0.890137
vt 0.206055 0.882812
vt 0.432129 0.991211
vt 0.206055 0.991211
vt 0.484375 0.991211
vt 0.484375 0.893555
vt 0.543457 0.847168
vt 0.570312 0.825684
vt 0.582031 0.819336
vt 0.589356 0.991211
vt 0.561035 0.893066
vt 0.609863 0.848145
vt 0.639648 0.885742
vt 0.680664 0.991211
vt 0.653320 0.879395
vt 0.627441 0.845703
vt 0.668945 0.925781
vt 0.099121 0.882812
vt 0.122986 0.921875
vt 0.151733 0.961426
vt 0.178955 0.983398
s 1
f 110/2/67 107/3/68 111/3/69
f 106/2/70 107/3/68 110/2/67
f 106/2/70 88/4/71 107/3/68
f 85/5/72 88/4/71 106/2/70
f 85/5/72 87/6/73 88/4/71
f 86/7/74 87/6/73 85/5/72
f 86/7/74 95/8/73 87/6/73
f 96/9/74 95/8/73 86/7/74
f 156/3/75 106/2/70 110/2/67
f 138/4/76 106/2/70 156/3/75
f 138/4/76 85/5/72 106/2/70
f 139/6/77 85/5/72 138/4/76
f 139/6/77 86/7/74 85/5/72
f 146/8/77 86/7/74 139/6/77
f 146/8/77 96/9/74 86/7/74
f 195/10/78 197/10/79 198/10/80
f 192/10/81 197/10/79 195/10/78
f 192/10/81 191/10/82 197/10/79
f 189/10/83 191/10/82 192/10/81
f 189/10/83 186/10/84 191/10/82
f 190/10/85 186/10/84 189/10/83
f 190/10/85 187/10/86 186/10/84
f 194/10/87 187/10/86 190/10/85
f 194/10/87 177/10/88 187/10/86
f 191/10/82 185/10/89 197/10/79
f 186/10/84 185/10/89 191/10/82
f 186/10/84 187/10/86 185/10/89
f 187/10/86 188/10/90 185/10/89
f 180/10/88 188/10/90 187/10/86
f 187/10/86 179/10/88 180/10/88
f 177/10/88 179/10/88 187/10/86
f 177/10/88 170/10/91 179/10/88
f 178/10/92 170/10/91 177/10/88
f 178/10/92 174/10/93 170/10/91
f 170/10/91 180/10/88 179/10/88
f 169/10/94 180/10/88 170/10/91
f 170/10/91 168/10/95 169/10/94
f 171/10/96 168/10/95 170/10/91
f 171/10/96 173/10/97 168/10/95
f 172/10/98 173/10/97 171/10/96
f 172/10/98 175/10/99 173/10/97
f 176/10/100 175/10/99 172/10/98
f 176/10/100 182/10/101 175/10/99
f 181/10/102 175/10/99 182/10/101
f 183/10/103 175/10/99 181/10/102
f 183/10/103 173/10/97 175/10/99
f 168/10/95 173/10/97 183/10/103
s 0
f 210/10/104 211/10/104 212/10/104
s 1
f 201/10/105 211/10/104 210/10/104
f 201/10/105 206/10/106 211/10/104
f 207/10/107 206/10/106 201/10/105
f 207/10/107 208/10/108 206/10/106
f 202/10/109 201/10/105 210/10/104
f 199/10/110 201/10/105 202/10/109
f 199/10/110 200/10/111 201/10/105
f 204/10/112 200/10/111 199/10/110
f 204/10/112 203/10/113 200/10/111
f 205/10/114 203/10/113 204/10/112
f 205/10/114 213/10/115 203/10/113
f 209/10/116 200/10/111 203/10/113
f 201/10/105 200/10/111 209/10/116
f 171/10/96 174/10/93 172/10/98
f 170/10/91 174/10/93 171/10/96
f 196/10/117 192/10/81 195/10/78
f 193/10/118 192/10/81 196/10/117
f 193/10/118 189/10/83 192/10/81
f 223/10/119 221/10/120 222/10/121
f 216/10/122 221/10/120 223/10/119
f 216/10/122 227/10/123 221/10/120
f 225/10/123 227/10/123 216/10/122
s 0
f 225/10/123 226/10/123 227/10/123
s 1
f 224/10/124 216/10/122 223/10/119
f 217/10/125 216/10/122 224/10/124
f 217/10/125 214/10/126 216/10/122
f 220/10/127 214/10/126 217/10/125
f 215/10/128 216/10/122 214/10/126
f 225/10/123 216/10/122 215/10/128
f 218/10/129 217/10/125 224/10/124
f 220/10/127 217/10/125 218/10/129
f 218/10/129 219/10/130 220/10/127
f 228/10/131 219/10/130 218/10/129
f 116/11/132 68/12/133 115/11/73
f 69/12/134 68/12/133 116/11/132
f 69/12/134 67/13/135 68/12/133
f 70/13/136 67/13/135 69/12/134
f 70/13/136 105/13/137 67/13/135
f 94/13/138 105/13/137 70/13/136
f 94/13/138 109/13/69 105/13/137
f 93/13/139 109/13/69 94/13/138
f 84/14/140 70/13/136 69/12/134
f 83/15/141 70/13/136 84/14/140
f 83/15/141 94/13/138 70/13/136
f 82/15/142 94/13/138 83/15/141
f 82/15/142 93/13/139 94/13/138
f 83/15/141 80/16/143 82/15/142
f 84/14/140 80/16/143 83/15/141
f 84/14/140 79/17/144 80/16/143
f 78/18/145 79/17/144 84/14/140
f 78/18/145 72/19/146 79/17/144
f 73/20/147 72/19/146 78/18/145
f 73/20/147 71/21/146 72/19/146
f 74/22/147 71/21/146 73/20/147
f 112/23/148 72/19/146 71/21/146
f 101/24/148 72/19/146 112/23/148
f 101/24/148 79/17/144 72/19/146
f 76/25/149 79/17/144 101/24/148
f 76/25/149 80/16/143 79/17/144
f 75/26/150 80/16/143 76/25/149
f 75/26/150 104/27/151 80/16/143
f 113/27/152 104/27/151 75/26/150
f 91/28/153 101/24/148 112/23/148
f 90/29/153 101/24/148 91/28/153
f 90/29/153 76/25/149 101/24/148
f 77/30/154 76/25/149 90/29/153
f 77/30/154 75/26/150 76/25/149
f 113/27/152 75/26/150 77/30/154
f 90/29/153 89/31/155 77/30/154
f 91/28/153 89/31/155 90/29/153
f 91/28/153 92/32/156 89/31/155
f 117/33/157 77/30/154 89/31/155
f 114/34/158 77/30/154 117/33/157
f 114/34/158 113/27/152 77/30/154
f 89/31/155 118/35/159 117/33/157
f 119/35/160 118/35/159 89/31/155
f 89/31/155 98/35/161 119/35/160
f 97/35/162 98/35/161 89/31/155
f 80/16/143 81/16/163 82/15/142
f 104/27/151 81/16/163 80/16/143
f 69/12/134 78/18/145 84/14/140
f 73/20/147 78/18/145 69/12/134
f 102/36/164 73/20/147 69/12/134
f 103/37/165 73/20/147 102/36/164
f 103/37/165 100/38/166 73/20/147
f 99/39/167 73/20/147 100/38/166
f 74/22/147 73/20/147 99/39/167
f 108/11/168 69/12/134 116/11/132
f 102/36/164 69/12/134 108/11/168
f 229/10/169 231/10/170 232/10/170
f 230/10/171 231/10/170 229/10/169
f 229/10/169 234/10/172 230/10/171
f 233/10/173 234/10/172 229/10/169
f 235/10/173 233/10/173 229/10/169
f 236/10/174 233/10/173 235/10/173
f 236/10/174 237/10/174 233/10/173
f 239/10/175 237/10/174 236/10/174
f 238/10/176 239/10/175 236/10/174
f 240/10/177 239/10/175 238/10/176
f 240/10/177 241/10/178 239/10/175
f 251/10/179 241/10/178 240/10/177
f 252/10/179 251/10/179 240/10/177
f 250/10/180 251/10/179 252/10/179
f 250/10/180 249/10/180 251/10/179
f 246/10/181 249/10/180 250/10/180
f 247/10/181 246/10/181 250/10/180
f 242/10/182 246/10/181 247/10/181
f 242/10/182 248/10/183 246/10/181
f 245/10/184 248/10/183 242/10/182
f 242/10/182 244/10/185 245/10/184
f 243/10/185 244/10/185 242/10/182
f 123/12/186 164/11/187 163/11/77
f 122/12/188 164/11/187 123/12/186
f 122/12/188 157/11/189 164/11/187
f 152/36/190 157/11/189 122/12/188
f 120/13/191 122/12/188 123/12/186
f 121/13/192 122/12/188 120/13/191
f 121/13/192 137/14/193 122/12/188
f 134/15/194 137/14/193 121/13/192
f 134/15/194 133/16/195 137/14/193
f 135/15/196 133/16/195 134/15/194
f 135/15/196 136/16/197 133/16/195
f 155/13/198 121/13/192 120/13/191
f 144/13/199 121/13/192 155/13/198
f 144/13/199 134/15/194 121/13/192
f 135/15/196 134/15/194 144/13/199
f 158/13/200 144/13/199 155/13/198
f 145/13/201 144/13/199 158/13/200
f 145/13/201 135/15/196 144/13/199
f 154/27/202 133/16/195 136/16/197
f 128/26/203 133/16/195 154/27/202
f 128/26/203 130/25/204 133/16/195
f 129/30/205 130/25/204 128/26/203
f 129/30/205 143/29/206 130/25/204
f 140/31/207 143/29/206 129/30/205
f 140/31/207 142/28/206 143/29/206
f 141/32/208 142/28/206 140/31/207
f 161/27/209 128/26/203 154/27/202
f 129/30/205 128/26/203 161/27/209
f 162/34/210 129/30/205 161/27/209
f 165/33/211 129/30/205 162/34/210
f 165/33/211 140/31/207 129/30/205
f 166/35/212 140/31/207 165/33/211
f 166/35/212 167/35/213 140/31/207
f 147/35/214 140/31/207 167/35/213
f 148/35/215 140/31/207 147/35/214
f 148/35/215 141/32/208 140/31/207
f 130/25/204 132/17/216 133/16/195
f 151/24/217 132/17/216 130/25/204
f 151/24/217 127/19/218 132/17/216
f 160/23/217 127/19/218 151/24/217
f 160/23/217 124/21/218 127/19/218
f 126/20/219 127/19/218 124/21/218
f 131/18/220 127/19/218 126/20/219
f 131/18/220 132/17/216 127/19/218
f 137/14/193 132/17/216 131/18/220
f 137/14/193 133/16/195 132/17/216
f 131/18/220 122/12/188 137/14/193
f 126/20/219 122/12/188 131/18/220
f 126/20/219 152/36/190 122/12/188
f 153/37/221 152/36/190 126/20/219
f 126/20/219 150/38/222 153/37/221
f 149/39/223 150/38/222 126/20/219
f 126/20/219 125/22/219 149/39/223
f 124/21/218 125/22/219 126/20/219
f 143/29/206 151/24/217 130/25/204
f 142/28/206 151/24/217 143/29/206
f 142/28/206 160/23/217 151/24/217
f 97/35/162 89/31/155 92/32/156
f 159/3/200 156/3/75 110/2/67
f 184/10/224 183/10/103 181/10/102
f 209/10/116 207/10/107 201/10/105
