# Blender 4.0.1
# www.blender.org
o PLC_FD3S_aero_J.004
v -1.597070 1.621497 21.592569
v -1.699500 1.529083 21.579830
v -1.699500 0.037198 21.374159
v -1.597070 -0.055216 21.361420
v 1.597070 1.621497 21.592569
v 1.597070 -0.055216 21.361420
v 1.699500 0.037198 21.374159
v 1.699500 1.529083 21.579830
v 1.597070 -0.053066 21.345829
v -1.597070 -0.053066 21.345829
v -1.597070 1.623648 21.576969
v 1.597070 1.623648 21.576969
v -1.699500 0.039349 21.358559
v -1.699500 1.531233 21.564230
v 1.699500 1.531233 21.564230
v 1.699500 0.039349 21.358559
v -1.597070 2.501640 -20.664089
v -1.597070 0.851903 -20.782160
v -1.699500 0.942831 -20.775660
v -1.699500 2.410713 -20.670599
v 1.597070 2.501640 -20.664089
v 1.597070 0.851903 -20.782160
v 1.699500 0.942831 -20.775660
v 1.699500 2.410713 -20.670599
v 1.597070 0.850930 -20.766809
v 1.597070 2.500667 -20.648739
v -1.597070 2.500667 -20.648739
v -1.597070 0.850930 -20.766809
v -1.699500 2.409739 -20.655249
v -1.699500 0.941857 -20.760300
v 1.699500 0.941857 -20.760300
v 1.699500 2.409739 -20.655249
vn -0.0000 -0.0000 1.0000
vn -0.0000 0.8944 -0.4472
vn 0.0001 0.8944 -0.4472
vn -0.0000 -0.0000 -1.0000
vn 0.0001 -0.0000 -1.0000
vt 0.013329 0.459717
vt 0.042664 0.012108
vt 0.013329 0.037964
vt 0.042664 0.485596
vt 0.957031 0.012108
vt 0.957031 0.485596
vt 0.986328 0.459717
vt 0.986328 0.037964
vt 0.989746 0.009995
s 0
f 3/1/1 1/2/1 2/3/1
f 4/4/1 1/2/1 3/1/1
f 4/4/1 5/5/1 1/2/1
f 6/6/1 5/5/1 4/4/1
f 6/6/1 7/7/1 5/5/1
f 23/1/2 21/2/3 24/3/2
f 22/4/2 21/2/2 23/1/2
f 22/4/2 18/6/2 21/2/2
f 18/6/2 17/5/2 21/2/2
f 19/7/2 17/5/2 18/6/2
f 19/7/2 20/8/2 17/5/2
f 30/9/1 27/9/1 29/9/1
f 28/9/1 27/9/1 30/9/1
f 28/9/1 25/9/1 27/9/1
f 25/9/1 26/9/1 27/9/1
f 32/9/1 26/9/1 25/9/1
f 11/9/4 13/9/4 14/9/4
f 10/9/4 13/9/4 11/9/5
f 11/9/4 9/9/4 10/9/4
f 12/9/4 9/9/4 11/9/4
f 12/9/4 15/9/4 9/9/4
f 8/8/1 5/5/1 7/7/1
f 15/9/4 16/9/4 9/9/4
f 31/9/1 32/9/1 25/9/1
