# Blender 4.0.1
# www.blender.org
o PLC_FD3S_bonnet_NC
v 5.745878 4.851233 13.253380
v 5.745878 4.550442 14.887620
v 6.880067 4.590789 14.884219
v 6.880737 4.875225 13.253019
v 3.107143 4.102719 16.801359
v 4.528975 4.014637 16.801359
v 4.528975 4.468667 14.887620
v 3.107143 4.537027 14.887620
v 4.528975 5.077285 8.323998
v 3.107143 5.097294 8.662374
v 3.107143 4.993674 11.826850
v 4.528975 4.904933 11.826850
v 6.785242 5.043553 6.695921
v 6.604788 5.238258 6.323315
v 5.745878 5.271933 7.251730
v 5.745878 5.056867 7.798209
v 5.745878 5.001478 11.826850
v 6.881036 5.025804 11.827869
v 3.107143 5.326941 8.244961
v 1.553572 5.343291 8.517924
v 1.553572 5.107336 8.947049
v 3.107143 4.867787 13.253380
v 4.528975 4.767333 13.253380
v 4.837190 4.150218 16.398279
v 5.745878 4.240768 16.286610
v 3.107143 3.678775 17.958010
v 4.429536 3.593463 17.958010
v 0.000000 5.078490 11.826850
v 0.000000 4.953483 13.253380
v 4.528975 5.303250 7.830076
v -0.000000 3.771163 17.958010
v -0.000000 3.097083 19.469620
v 3.107143 3.063766 19.286280
v 4.400345 3.034678 19.120710
v -0.000000 4.198345 16.801359
v 0.000000 5.117374 9.087536
v -0.000000 4.714424 14.887620
v 0.000000 5.359642 8.646698
v 6.790800 4.232209 16.223909
v -5.745878 4.851233 13.253380
v -6.880737 4.875225 13.253019
v -6.880067 4.590790 14.884219
v -5.745878 4.550443 14.887620
v -3.107143 4.102719 16.801359
v -3.107143 4.537027 14.887620
v -4.528975 4.468667 14.887620
v -4.528975 4.014637 16.801359
v -4.528975 5.077285 8.323998
v -4.528974 4.904933 11.826850
v -3.107143 4.993674 11.826850
v -3.107143 5.097294 8.662374
v -6.785241 5.043553 6.695920
v -5.745877 5.056868 7.798209
v -5.745878 5.271934 7.251731
v -6.604788 5.238259 6.323315
v -6.881036 5.025804 11.827869
v -5.745877 5.001478 11.826850
v -1.553572 5.107336 8.947049
v -1.553572 5.343291 8.517924
v -3.107143 5.326941 8.244961
v -4.528975 4.767333 13.253380
v -3.107143 4.867787 13.253380
v -5.745877 4.240768 16.286610
v -4.837190 4.150218 16.398279
v -4.429536 3.593463 17.958010
v -3.107143 3.678774 17.958010
v -4.528975 5.303250 7.830077
v -3.107143 3.063766 19.286280
v -4.400345 3.034678 19.120710
v -6.790800 4.232209 16.223909
vn 0.1400 0.9439 0.2991
vn 0.3584 0.9103 0.2072
vn 0.4696 0.8469 0.2496
vn 0.0910 0.9788 0.1833
vn -0.0207 0.9990 0.0398
vn 0.0379 0.9680 0.2481
vn -0.0216 0.9979 0.0603
vn 0.0031 0.9980 0.0626
vn -0.0007 0.9976 0.0698
vn -0.0000 0.9981 0.0613
vn -0.0000 0.9975 0.0710
vn 0.0007 0.9976 0.0698
vn -0.0000 0.9938 0.1112
vn 0.0068 0.9941 0.1079
vn -0.0000 0.9742 0.2255
vn -0.0068 0.9941 0.1079
vn -0.0367 0.9970 0.0685
vn -0.0318 0.9979 0.0556
vn 0.0759 0.9955 0.0570
vn 0.0500 0.9980 0.0389
vn 0.0063 0.9729 0.2311
vn -0.0473 0.9934 0.1049
vn -0.0314 0.9933 0.1109
vn 0.0808 0.9890 0.1237
vn -0.0226 0.9702 0.2411
vn -0.0071 0.9688 0.2478
vn 0.0736 0.9641 0.2550
vn -0.0382 0.9714 0.2343
vn 0.0052 0.9543 0.2989
vn -0.0000 0.9550 0.2965
vn -0.0000 0.8582 0.5133
vn -0.0052 0.9543 0.2989
vn -0.0288 0.8752 0.4828
vn 0.0447 0.9530 0.2997
vn -0.0394 0.8854 0.4632
vn -0.0063 0.9729 0.2311
vn 0.0382 0.9714 0.2343
vn 0.0473 0.9934 0.1049
vn 0.0226 0.9702 0.2411
vn 0.0367 0.9970 0.0685
vn 0.0216 0.9979 0.0603
vn -0.0031 0.9980 0.0626
vn -0.0379 0.9680 0.2481
vn -0.0257 0.9601 0.2786
vn -0.0427 0.9386 0.3423
vn -0.0217 0.9408 0.3383
vn 0.0318 0.9979 0.0556
vn 0.0207 0.9990 0.0398
vn -0.0910 0.9788 0.1833
vn -0.1400 0.9439 0.2991
vn -0.3584 0.9103 0.2072
vn -0.4696 0.8469 0.2496
vn -0.0500 0.9980 0.0389
vn -0.0759 0.9955 0.0570
vn -0.0808 0.9890 0.1237
vn 0.0314 0.9933 0.1109
vn 0.0071 0.9688 0.2478
vn 0.0288 0.8752 0.4828
vn -0.0447 0.9530 0.2997
vn -0.0581 0.9397 0.3370
vn -0.0128 0.9555 0.2948
vn -0.0000 0.9426 0.3338
vn -0.0000 0.9505 0.3107
vn 0.0128 0.9555 0.2948
vn 0.0257 0.9601 0.2786
vn 0.0217 0.9408 0.3383
vn 0.0427 0.9386 0.3423
vn 0.0581 0.9397 0.3370
vn 0.0394 0.8854 0.4632
vn -0.0736 0.9642 0.2550
vt 0.934082 0.479980
vt 0.951172 0.512695
vt 0.962891 0.506836
vt 0.916992 0.479980
vt 0.790527 0.479980
vt 0.900391 0.441895
vt 0.790527 0.441895
vt 0.790527 0.397217
vt 0.745606 0.397217
vt 0.790527 0.299805
vt 0.745606 0.299805
vt 0.745606 0.202515
vt 0.694336 0.299805
vt 0.694336 0.202515
vt 0.634766 0.299805
vt 0.694336 0.397217
vt 0.745606 0.441895
vt 0.745606 0.479980
vt 0.745606 0.515625
vt 0.790527 0.515625
vt 0.634766 0.397217
vt 0.694336 0.441895
vt 0.694336 0.479980
vt 0.694824 0.515625
vt 0.646973 0.451660
vt 0.650879 0.479980
vt 0.652832 0.512695
vt 0.634766 0.441895
vt 0.598145 0.397217
vt 0.598145 0.299805
vt 0.550781 0.299805
vt 0.598145 0.202515
vt 0.556641 0.202515
vt 0.598145 0.161011
vt 0.562012 0.161987
vt 0.634766 0.202515
vt 0.634766 0.157959
vt 0.694336 0.157959
vt 0.646973 0.148315
vt 0.745606 0.157959
vt 0.790527 0.157959
vt 0.790527 0.202515
vt 0.900391 0.157959
vt 0.889648 0.202515
vt 0.902832 0.202515
vt 0.894043 0.251221
vt 0.745606 0.119812
vt 0.790527 0.119812
vt 0.916992 0.119812
vt 0.934082 0.119812
vt 0.951172 0.087219
vt 0.962891 0.092896
vt 0.790527 0.084229
vt 0.745606 0.084229
vt 0.694824 0.084290
vt 0.694336 0.119812
vt 0.650879 0.119812
vt 0.556641 0.397217
vt 0.598145 0.438721
vt 0.916016 0.157959
vt 0.880859 0.251221
vt 0.890137 0.299805
vt 0.876465 0.299805
vt 0.880859 0.348633
vt 0.889648 0.397217
vt 0.894043 0.348633
vt 0.902832 0.397217
vt 0.916016 0.441895
vt 0.562012 0.437744
vt 0.652832 0.087036
s 1
f 15/1/1 13/2/2 14/3/3
f 16/4/4 13/2/2 15/1/1
f 16/4/4 17/5/5 13/2/2
f 9/6/6 17/5/5 16/4/4
f 9/6/6 12/7/7 17/5/5
f 11/8/8 12/7/7 9/6/6
f 11/8/8 22/9/9 12/7/7
f 28/10/10 22/9/9 11/8/8
f 28/10/10 29/11/11 22/9/9
f 62/12/12 29/11/11 28/10/10
f 62/12/12 37/13/13 29/11/11
f 45/14/14 37/13/13 62/12/12
f 35/15/15 37/13/13 45/14/14
f 8/16/16 37/13/13 35/15/15
f 8/16/16 22/9/9 37/13/13
f 23/17/17 22/9/9 8/16/16
f 23/17/17 12/7/7 22/9/9
f 1/18/18 12/7/7 23/17/17
f 1/18/18 17/5/5 12/7/7
f 4/19/19 17/5/5 1/18/18
f 4/19/19 18/20/20 17/5/5
f 5/21/21 8/16/16 35/15/15
f 7/22/22 8/16/16 5/21/21
f 7/22/22 23/17/17 8/16/16
f 1/18/18 23/17/17 7/22/22
f 2/23/23 1/18/18 7/22/22
f 3/24/24 1/18/18 2/23/23
f 3/24/24 4/19/19 1/18/18
f 24/25/25 2/23/23 7/22/22
f 25/26/26 2/23/23 24/25/25
f 25/26/26 3/24/24 2/23/23
f 39/27/27 3/24/24 25/26/26
f 7/22/22 6/28/28 24/25/25
f 5/21/21 6/28/28 7/22/22
f 5/21/21 26/29/29 6/28/28
f 31/30/30 26/29/29 5/21/21
f 31/30/30 32/31/31 26/29/29
f 66/32/32 32/31/31 31/30/30
f 66/32/32 68/33/33 32/31/31
f 65/34/34 68/33/33 66/32/32
f 65/34/34 69/35/35 68/33/33
f 35/15/15 31/30/30 5/21/21
f 44/36/36 31/30/30 35/15/15
f 44/36/36 66/32/32 31/30/30
f 47/37/37 66/32/32 44/36/36
f 47/37/37 65/34/34 66/32/32
f 45/14/14 44/36/36 35/15/15
f 46/38/38 44/36/36 45/14/14
f 46/38/38 47/37/37 44/36/36
f 64/39/39 47/37/37 46/38/38
f 45/14/14 61/40/40 46/38/38
f 62/12/12 61/40/40 45/14/14
f 62/12/12 49/41/41 61/40/40
f 50/42/42 49/41/41 62/12/12
f 50/42/42 48/43/43 49/41/41
f 51/44/44 48/43/43 50/42/42
f 51/44/44 60/45/45 48/43/43
f 59/46/46 60/45/45 51/44/44
f 61/40/40 40/47/47 46/38/38
f 49/41/41 40/47/47 61/40/40
f 49/41/41 57/48/48 40/47/47
f 48/43/43 57/48/48 49/41/41
f 48/43/43 53/49/49 57/48/48
f 54/50/50 53/49/49 48/43/43
f 54/50/50 52/51/51 53/49/49
f 55/52/52 52/51/51 54/50/50
f 52/51/51 57/48/48 53/49/49
f 56/53/53 57/48/48 52/51/51
f 56/53/53 41/54/54 57/48/48
f 41/54/54 40/47/47 57/48/48
f 42/55/55 40/47/47 41/54/54
f 42/55/55 43/56/56 40/47/47
f 63/57/57 43/56/56 42/55/55
f 63/57/57 64/39/39 43/56/56
f 46/38/38 43/56/56 64/39/39
f 40/47/47 43/56/56 46/38/38
f 33/58/58 26/29/29 32/31/31
f 27/59/59 26/29/29 33/58/58
f 27/59/59 6/28/28 26/29/29
f 67/60/60 48/43/43 60/45/45
f 54/50/50 48/43/43 67/60/60
f 28/10/10 50/42/42 62/12/12
f 58/61/61 50/42/42 28/10/10
f 58/61/61 51/44/44 50/42/42
f 59/46/46 51/44/44 58/61/61
f 58/61/61 38/62/62 59/46/46
f 36/63/63 38/62/62 58/61/61
f 36/63/63 21/64/64 38/62/62
f 28/10/10 21/64/64 36/63/63
f 28/10/10 11/8/8 21/64/64
f 10/65/65 21/64/64 11/8/8
f 20/66/66 21/64/64 10/65/65
f 20/66/66 38/62/62 21/64/64
f 9/6/6 10/65/65 11/8/8
f 19/67/67 10/65/65 9/6/6
f 19/67/67 20/66/66 10/65/65
f 9/6/6 30/68/68 19/67/67
f 15/1/1 30/68/68 9/6/6
f 17/5/5 18/20/20 13/2/2
f 16/4/4 15/1/1 9/6/6
f 33/58/58 34/69/69 27/59/59
f 22/9/9 29/11/11 37/13/13
f 58/61/61 28/10/10 36/63/63
f 70/70/70 63/57/57 42/55/55
o PLC_FD3S_bonnet_NC.001
v 0.000000 3.133327 19.405470
v -1.553572 3.121958 19.348450
v -1.553572 3.086674 19.413279
v 0.000000 3.101020 19.470600
v -3.107143 3.093078 19.246399
v -3.107143 3.055645 19.310930
v -4.366897 3.053886 19.120710
v -4.390224 3.008718 19.185879
v 3.107143 3.093078 19.246399
v 1.553572 3.121958 19.348450
v 1.553572 3.086674 19.413279
v 3.107143 3.055645 19.310930
v 4.390224 3.008718 19.185879
v 4.366897 3.053886 19.120710
v -6.769279 4.255272 16.201389
v -6.865071 4.240541 16.209959
v -6.736170 4.232196 16.285709
v -5.745702 4.252356 16.274611
v -5.745702 4.232153 16.356739
v -4.906496 4.185800 16.334641
v -4.945120 4.168365 16.414160
v -4.725399 4.142406 16.439569
v -4.782468 4.132510 16.503901
v -4.572739 4.082601 16.608250
v -4.648373 4.078620 16.662100
v -4.488787 4.035163 16.800610
v -4.579230 4.024245 16.825279
v -4.421704 3.610740 17.957199
v -4.509735 3.606767 17.959280
v -4.454928 3.083459 19.049669
v -6.929652 4.586545 14.887620
v -6.900689 4.408296 15.556419
v -6.804897 4.422283 15.556419
v -6.833859 4.600234 14.884219
v -6.947760 4.725690 14.070499
v -6.851968 4.741660 14.068620
v -6.961916 4.868761 13.253380
v -6.866125 4.883790 13.253019
v -6.961916 5.023375 11.826850
v -6.866125 5.043913 11.827869
v -6.932927 5.040218 9.261895
v -6.837135 5.054624 9.261895
v -6.840789 5.047697 6.612052
v -6.744997 5.065334 6.695921
v -6.777393 5.135120 6.414403
v -6.685819 5.154299 6.491834
v -6.576414 5.250424 6.355853
v -6.631318 5.247543 6.230318
v 4.509735 3.606767 17.959280
v 4.579230 4.024245 16.825279
v 4.488787 4.035163 16.800610
v 4.421704 3.610740 17.957199
v 5.745702 4.232153 16.356739
v 6.736170 4.232196 16.285709
v 6.769279 4.255272 16.201389
v 5.745702 4.252356 16.274611
v 4.648373 4.078620 16.662100
v 4.572739 4.082601 16.608250
v 4.454928 3.083459 19.049669
v 4.782468 4.132510 16.503901
v 4.725399 4.142406 16.439569
v 6.865071 4.240541 16.209959
v 4.945120 4.168365 16.414160
v 4.906496 4.185800 16.334641
v 6.866125 4.883790 13.253019
v 6.851968 4.741660 14.068620
v 6.947760 4.725690 14.070499
v 6.961916 4.868761 13.253380
v 6.900689 4.408296 15.556419
v 6.804897 4.422283 15.556419
v 6.866125 5.043913 11.827869
v 6.961916 5.023375 11.826850
v 6.744997 5.065334 6.695921
v 6.837135 5.054624 9.261895
v 6.932927 5.040218 9.261895
v 6.840789 5.047697 6.612052
v 6.631318 5.247543 6.230318
v 6.576414 5.250424 6.355853
v 6.685819 5.154299 6.491834
v 6.777393 5.135120 6.414403
v 6.833859 4.600234 14.884219
v 6.929652 4.586545 14.887620
vn 0.0170 0.8854 0.4644
vn -0.6837 0.7277 -0.0550
vn -0.0533 0.8637 0.5012
vn -0.6981 0.7157 0.0202
vn -0.6775 0.7346 0.0378
vn 0.2801 0.9319 0.2303
vn -0.6486 0.7610 -0.0119
vn 0.4499 0.8930 0.0145
vn -0.6547 0.7549 0.0400
vn 0.4460 0.8934 0.0540
vn -0.6462 0.7546 0.1135
vn 0.4511 0.8842 0.1214
vn -0.6355 0.7585 0.1442
vn 0.4623 0.8752 0.1422
vn -0.6262 0.7572 0.1859
vn 0.4664 0.8673 0.1739
vn -0.6179 0.7527 0.2274
vn 0.4674 0.8606 0.2022
vn 0.1249 0.8475 0.5158
vn -0.2672 0.8080 0.5252
vn -0.1133 0.8860 -0.4496
vn -0.0249 0.6770 0.7356
vn 0.0702 0.8646 -0.4975
vn -0.1075 0.7008 0.7052
vn 0.2541 0.8603 -0.4421
vn -0.2796 0.7332 0.6199
vn 0.4815 0.8268 -0.2908
vn -0.4217 0.7594 0.4954
vn 0.5773 0.8098 -0.1047
vn -0.5433 0.7564 0.3643
vn 0.5848 0.8013 0.1262
vn -0.5915 0.7312 0.3399
vn 0.5677 0.7690 0.2939
vn -0.1019 0.4843 0.8690
vn 0.4252 0.7376 0.5246
vn 0.0168 0.8741 -0.4854
vn -0.0841 0.4887 0.8684
vn 0.0178 0.8592 -0.5114
vn -0.0510 0.4984 0.8654
vn 0.0161 0.8366 -0.5475
vn -0.0000 0.5041 0.8636
vn -0.0000 0.8296 -0.5584
vn 0.0510 0.4984 0.8655
vn -0.0160 0.8367 -0.5475
vn 0.0841 0.4887 0.8684
vn -0.0178 0.8592 -0.5114
vn -0.0168 0.8741 -0.4854
vn 0.1019 0.4843 0.8689
vn -0.4252 0.7376 0.5246
vn 0.5915 0.7312 0.3399
vn -0.5677 0.7690 0.2939
vn 0.5433 0.7564 0.3643
vn -0.5848 0.8013 0.1262
vn 0.4217 0.7594 0.4955
vn -0.5773 0.8098 -0.1047
vn 0.2796 0.7332 0.6199
vn -0.4815 0.8268 -0.2908
vn 0.1075 0.7008 0.7052
vn -0.2541 0.8602 -0.4421
vn 0.0249 0.6770 0.7356
vn -0.0702 0.8646 -0.4975
vn 0.2670 0.8080 0.5252
vn 0.1133 0.8860 -0.4496
vn -0.1249 0.8475 0.5159
vn -0.4674 0.8606 0.2023
vn 0.6179 0.7527 0.2274
vn 0.6262 0.7572 0.1859
vn -0.4664 0.8673 0.1739
vn 0.6355 0.7586 0.1442
vn -0.4623 0.8752 0.1423
vn 0.6462 0.7547 0.1135
vn -0.4511 0.8842 0.1214
vn 0.6547 0.7548 0.0400
vn -0.4460 0.8934 0.0540
vn 0.6487 0.7610 -0.0119
vn -0.4499 0.8930 0.0145
vn 0.6774 0.7346 0.0378
vn -0.2801 0.9319 0.2303
vn 0.6981 0.7157 0.0202
vn -0.0170 0.8854 0.4644
vn 0.0533 0.8637 0.5012
vn 0.6837 0.7277 -0.0550
vt 0.961914 0.086548
vt 0.963867 0.092896
vt 0.967773 0.091187
vt 0.959473 0.089417
vt 0.953125 0.087585
vt 0.955566 0.084595
vt 0.872070 0.084656
vt 0.872070 0.081665
vt 0.791016 0.083740
vt 0.791016 0.080750
vt 0.746094 0.083740
vt 0.746094 0.080750
vt 0.720215 0.084229
vt 0.720215 0.081177
vt 0.694336 0.084778
vt 0.694336 0.081787
vt 0.673340 0.085693
vt 0.673340 0.082703
vt 0.652832 0.083801
vt 0.652832 0.086792
vt 0.650391 0.087891
vt 0.650391 0.119080
vt 0.647949 0.119080
vt 0.648926 0.145386
vt 0.645996 0.144287
vt 0.645508 0.151123
vt 0.643555 0.149292
vt 0.640137 0.156006
vt 0.638184 0.153564
vt 0.633789 0.158569
vt 0.633301 0.155762
vt 0.597656 0.160767
vt 0.597168 0.157959
vt 0.560547 0.162476
vt 0.562988 0.159668
vt 0.558594 0.161743
vt 0.556641 0.202148
vt 0.554688 0.202148
vt 0.553711 0.250977
vt 0.551270 0.250977
vt 0.551758 0.299805
vt 0.549805 0.299805
vt 0.553711 0.348877
vt 0.551270 0.348877
vt 0.556641 0.397705
vt 0.554688 0.397705
vt 0.558594 0.438232
vt 0.560547 0.437500
vt 0.562988 0.440186
vt 0.597656 0.439209
vt 0.597168 0.441895
vt 0.633789 0.441162
vt 0.633301 0.444092
vt 0.640137 0.443848
vt 0.638184 0.446289
vt 0.645508 0.448730
vt 0.643555 0.450440
vt 0.648926 0.454346
vt 0.645996 0.455566
vt 0.650391 0.480713
vt 0.647949 0.480713
vt 0.652832 0.512695
vt 0.650391 0.511719
vt 0.652832 0.516113
vt 0.673340 0.517090
vt 0.673340 0.514160
vt 0.694336 0.515137
vt 0.694336 0.518066
vt 0.720215 0.515625
vt 0.720215 0.518555
vt 0.746094 0.516113
vt 0.746094 0.519043
vt 0.791016 0.516113
vt 0.791016 0.519043
vt 0.872070 0.515137
vt 0.872070 0.518066
vt 0.953125 0.512207
vt 0.955566 0.515137
vt 0.959473 0.510254
vt 0.961914 0.513184
vt 0.967773 0.508789
vt 0.963867 0.506836
s 1
f 115/71/71 117/72/72 118/73/73
f 116/74/74 117/72/72 115/71/71
f 115/71/71 114/75/75 116/74/74
f 113/76/76 114/75/75 115/71/71
f 113/76/76 112/77/77 114/75/75
f 111/78/78 112/77/77 113/76/76
f 111/78/78 110/79/79 112/77/77
f 109/80/80 110/79/79 111/78/78
f 109/80/80 108/81/81 110/79/79
f 107/82/82 108/81/81 109/80/80
f 107/82/82 106/83/83 108/81/81
f 105/84/84 106/83/83 107/82/82
f 105/84/84 104/85/85 106/83/83
f 101/86/86 104/85/85 105/84/84
f 101/86/86 103/87/87 104/85/85
f 102/88/88 103/87/87 101/86/86
f 102/88/88 86/89/89 103/87/87
f 86/89/89 85/90/90 103/87/87
f 87/91/91 85/90/90 86/89/89
f 87/91/91 88/92/92 85/90/90
f 89/93/93 88/92/92 87/91/91
f 89/93/93 90/94/94 88/92/92
f 91/95/95 90/94/94 89/93/93
f 91/95/95 92/96/96 90/94/94
f 93/97/97 92/96/96 91/95/95
f 93/97/97 94/98/98 92/96/96
f 95/99/99 94/98/98 93/97/97
f 95/99/99 96/100/100 94/98/98
f 97/101/101 96/100/100 95/99/99
f 97/101/101 98/102/102 96/100/100
f 99/103/103 98/102/102 97/101/101
f 99/103/103 77/104/104 98/102/102
f 100/105/105 77/104/104 99/103/103
f 100/105/105 78/106/106 77/104/104
f 78/106/106 75/107/107 77/104/104
f 76/108/108 75/107/107 78/106/106
f 76/108/108 72/109/109 75/107/107
f 73/110/110 72/109/109 76/108/108
f 73/110/110 71/111/111 72/109/109
f 74/112/112 71/111/111 73/110/110
f 74/112/112 80/113/113 71/111/111
f 81/114/114 80/113/113 74/112/112
f 81/114/114 79/115/115 80/113/113
f 82/116/116 79/115/115 81/114/114
f 82/116/116 83/117/117 79/115/115
f 83/117/117 84/118/118 79/115/115
f 129/119/119 84/118/118 83/117/117
f 129/119/119 122/120/120 84/118/118
f 119/121/121 122/120/120 129/119/119
f 119/121/121 121/122/122 122/120/120
f 120/123/123 121/122/122 119/121/121
f 120/123/123 128/124/124 121/122/122
f 127/125/125 128/124/124 120/123/123
f 127/125/125 131/126/126 128/124/124
f 130/127/127 131/126/126 127/125/125
f 130/127/127 134/128/128 131/126/126
f 133/129/129 134/128/128 130/127/127
f 133/129/129 126/130/130 134/128/128
f 123/131/131 126/130/130 133/129/129
f 123/131/131 125/132/132 126/130/130
f 124/133/133 125/132/132 123/131/131
f 124/133/133 132/134/134 125/132/132
f 139/135/135 125/132/132 132/134/134
f 140/136/136 125/132/132 139/135/135
f 139/135/135 151/137/137 140/136/136
f 152/138/138 151/137/137 139/135/135
f 152/138/138 136/139/139 151/137/137
f 137/140/140 136/139/139 152/138/138
f 137/140/140 135/141/141 136/139/139
f 138/142/142 135/141/141 137/140/140
f 138/142/142 141/143/143 135/141/141
f 142/144/144 141/143/143 138/142/142
f 142/144/144 144/145/145 141/143/143
f 145/146/146 144/145/145 142/144/144
f 145/146/146 143/147/147 144/145/145
f 146/148/148 143/147/147 145/146/146
f 146/148/148 149/149/149 143/147/147
f 150/150/150 149/149/149 146/148/148
f 150/150/150 147/151/151 149/149/149
f 148/152/152 149/149/149 147/151/151
o PLC_FD3S_bonnet_NC.002
v -2.959839 3.437866 18.548450
v -2.959839 3.680218 18.057249
v -3.946563 3.605915 18.056049
v -3.946563 3.363564 18.548450
v 2.959839 3.437866 18.548450
v 3.946563 3.363564 18.548450
v 3.946563 3.605915 18.056049
v 2.959839 3.680218 18.057249
vn -0.0676 0.8949 0.4411
vn 0.0676 0.8949 0.4410
vn 0.0676 0.8949 0.4411
vt 0.637207 0.354248
vt 0.411377 0.480225
vt 0.411377 0.354248
vt 0.637207 0.480225
s 0
f 155/153/153 153/154/153 154/155/153
f 156/156/153 153/154/153 155/153/153
f 157/154/154 159/153/154 160/155/154
f 158/156/155 159/153/155 157/154/155
