# Blender 4.3.1
# www.blender.org
o mesh_39out.001
v 0.588115 0.255993 1.724905
v 0.669557 0.397055 1.724905
v 0.750999 0.255993 1.724905
v 0.669557 0.208972 1.724905
v 0.622536 0.221572 1.724905
v 0.716577 0.221572 1.724905
v 0.575515 0.303014 1.724905
v 0.588115 0.350034 1.724905
v 0.622536 0.384456 1.724905
v 0.716577 0.384456 1.724905
v 0.750999 0.350034 1.724905
v 0.763598 0.303014 1.724905
v -0.669557 0.397055 1.724905
v -0.669557 0.208972 1.724905
v -0.750999 0.350034 1.724905
v -0.716577 0.384456 1.724905
v -0.716577 0.221572 1.724905
v -0.750999 0.255993 1.724905
v -0.763598 0.303014 1.724905
v -0.588115 0.350034 1.724905
v -0.622536 0.384456 1.724905
v -0.622536 0.221572 1.724905
v -0.588115 0.255993 1.724905
v -0.575515 0.303014 1.724905
vn -0.0000 -0.0000 1.0000
vt 0.588115 0.255993
vt 0.750999 0.255993
vt 0.669557 0.397055
vt 0.622536 0.221572
vt 0.669557 0.208972
vt 0.716577 0.221572
vt 0.575515 0.303014
vt 0.588115 0.350034
vt 0.622536 0.384456
vt 0.716577 0.384456
vt 0.750999 0.350034
vt 0.763598 0.303014
vt -0.669557 0.397055
vt -0.750999 0.350034
vt -0.669557 0.208972
vt -0.716577 0.384456
vt -0.716577 0.221572
vt -0.750999 0.255993
vt -0.763598 0.303014
vt -0.588115 0.350034
vt -0.622536 0.384456
vt -0.622536 0.221572
vt -0.588115 0.255993
vt -0.575515 0.303014
s 1
f 1/1/1 3/2/1 2/3/1
f 1/1/1 5/4/1 4/5/1
f 4/5/1 6/6/1 1/1/1
f 6/6/1 3/2/1 1/1/1
f 7/7/1 1/1/1 2/3/1
f 8/8/1 7/7/1 2/3/1
f 2/3/1 9/9/1 8/8/1
f 10/10/1 2/3/1 3/2/1
f 11/11/1 10/10/1 3/2/1
f 3/2/1 12/12/1 11/11/1
f 13/13/1 15/14/1 14/15/1
f 13/13/1 16/16/1 15/14/1
f 17/17/1 14/15/1 15/14/1
f 18/18/1 17/17/1 15/14/1
f 15/14/1 19/19/1 18/18/1
f 20/20/1 13/13/1 14/15/1
f 20/20/1 21/21/1 13/13/1
f 14/15/1 22/22/1 20/20/1
f 22/22/1 23/23/1 20/20/1
f 23/23/1 24/24/1 20/20/1
o mesh_39out.002
v 0.484001 0.031493 1.941553
v 0.486810 0.028611 1.905224
v 0.486810 0.098361 1.922008
v 0.486798 0.098361 1.974957
v 0.745478 0.030952 1.829567
v 0.701135 0.031170 1.881023
v 0.716920 0.098361 1.909011
v 0.793939 0.098361 1.818843
v 0.657259 0.031316 1.898448
v 0.633966 0.098361 1.941894
v 0.484001 0.031493 1.941553
v 0.486798 0.098361 1.974957
v -0.745478 0.030952 1.829567
v -0.793939 0.098361 1.818843
v -0.716920 0.098361 1.909011
v -0.701135 0.031170 1.881023
v -0.657259 0.031316 1.898448
v -0.633966 0.098361 1.941894
v -0.484001 0.031493 1.941553
v -0.486798 0.098361 1.974957
v -0.486810 0.098361 1.922008
v -0.486810 0.028611 1.905224
v -0.484001 0.031493 1.941553
v -0.486798 0.098361 1.974957
vn -0.9988 0.0304 -0.0395
vn -0.9967 0.0189 -0.0786
vn -0.9991 0.0419 -0.0002
vn 0.6925 -0.4079 0.5950
vn 0.5252 -0.4284 0.7353
vn 0.5236 -0.4295 0.7358
vn 0.6951 -0.4053 0.5938
vn 0.2928 -0.4460 0.8458
vn 0.2475 -0.4517 0.8572
vn 0.2040 -0.4618 0.8632
vn 0.1963 -0.4448 0.8739
vn -0.6925 -0.4079 0.5950
vn -0.5252 -0.4284 0.7353
vn -0.6951 -0.4053 0.5938
vn -0.5236 -0.4295 0.7358
vn -0.2928 -0.4460 0.8458
vn -0.2475 -0.4517 0.8572
vn -0.2040 -0.4618 0.8632
vn -0.1963 -0.4448 0.8739
vn 0.9988 0.0304 -0.0395
vn 0.9967 0.0189 -0.0786
vn 0.9991 0.0419 -0.0002
vt 0.484001 0.031493
vt 0.486810 0.098361
vt 0.486810 0.028611
vt 0.486798 0.098361
vt 0.745478 0.030952
vt 0.716920 0.098361
vt 0.701135 0.031170
vt 0.793939 0.098361
vt 0.657259 0.031316
vt 0.633966 0.098361
vt -0.745478 0.030952
vt -0.716920 0.098361
vt -0.793939 0.098361
vt -0.701135 0.031170
vt -0.657259 0.031316
vt -0.633966 0.098361
vt -0.484001 0.031493
vt -0.486798 0.098361
vt -0.486810 0.098361
vt -0.486810 0.028611
s 1
f 25/25/2 27/26/2 26/27/3
f 25/25/2 28/28/4 27/26/2
f 29/29/5 31/30/6 30/31/7
f 29/29/5 32/32/8 31/30/6
f 33/33/9 30/31/7 31/30/6
f 33/33/9 31/30/6 34/34/10
f 35/25/11 33/33/9 34/34/10
f 35/25/11 34/34/10 36/28/12
f 37/35/13 39/36/14 38/37/15
f 37/35/13 40/38/16 39/36/14
f 41/39/17 39/36/14 40/38/16
f 41/39/17 42/40/18 39/36/14
f 43/41/19 42/40/18 41/39/17
f 43/41/19 44/42/20 42/40/18
f 45/43/21 47/41/21 46/44/22
f 45/43/21 48/42/23 47/41/21
o mesh_39out.003
v 0.668776 0.372482 -2.041376
v 0.596956 0.350296 -2.051162
v 0.674760 0.350285 -2.039585
v 0.684162 0.353455 -2.033741
v 0.677625 0.377545 -2.035676
v 0.652934 0.403932 -2.038995
v 0.647464 0.395228 -2.044055
v 0.616729 0.415804 -2.044534
v 0.614899 0.405910 -2.049157
v 0.580181 0.417743 -2.045938
v 0.579660 0.407780 -2.050562
v 0.568348 0.350262 -2.052135
v 0.543481 0.419688 -2.047002
v 0.542958 0.409725 -2.051630
v 0.539402 0.350226 -2.053010
v 0.483182 0.422884 -2.048397
v 0.482658 0.412920 -2.052971
v 0.475670 0.350200 -2.054141
v 0.422883 0.426080 -2.049790
v 0.422358 0.416116 -2.054363
v 0.411939 0.350173 -2.055272
v 0.368186 0.418987 -2.055514
v 0.364131 0.429194 -2.051063
v 0.343320 0.407368 -2.051794
v 0.353329 0.403406 -2.056032
v 0.353764 0.350091 -2.056492
v 0.343791 0.349727 -2.052298
v -0.596956 0.350296 -2.051162
v -0.647464 0.395228 -2.044055
v -0.668776 0.372482 -2.041376
v -0.674760 0.350285 -2.039585
v -0.684162 0.353455 -2.033741
v -0.677625 0.377545 -2.035676
v -0.652934 0.403932 -2.038995
v -0.616729 0.415804 -2.044534
v -0.614899 0.405910 -2.049157
v -0.580181 0.417743 -2.045938
v -0.579660 0.407780 -2.050562
v -0.568348 0.350262 -2.052135
v -0.543481 0.419688 -2.047002
v -0.542958 0.409725 -2.051630
v -0.539402 0.350226 -2.053010
v -0.483182 0.422884 -2.048397
v -0.482658 0.412920 -2.052971
v -0.475670 0.350200 -2.054141
v -0.422883 0.426080 -2.049790
v -0.422358 0.416116 -2.054363
v -0.411939 0.350173 -2.055272
v -0.368186 0.418987 -2.055514
v -0.364131 0.429194 -2.051063
v -0.343320 0.407368 -2.051794
v -0.353329 0.403406 -2.056032
v -0.353764 0.350091 -2.056492
v -0.343791 0.349727 -2.052298
vn 0.3578 0.1092 -0.9274
vn 0.3354 0.0141 -0.9420
vn 0.1012 -0.0004 -0.9949
vn 0.5107 0.0691 -0.8570
vn 0.4622 0.1716 -0.8700
vn 0.3531 0.2999 -0.8862
vn 0.2434 0.2018 -0.9487
vn 0.1920 0.3833 -0.9034
vn 0.1163 0.2479 -0.9618
vn 0.0545 0.4167 -0.9074
vn 0.0444 0.2247 -0.9734
vn 0.0318 0.0211 -0.9993
vn 0.0468 0.4187 -0.9069
vn 0.0371 0.2247 -0.9737
vn 0.0236 0.0199 -0.9995
vn 0.0428 0.4163 -0.9082
vn 0.0331 0.2209 -0.9747
vn 0.0198 0.0146 -0.9997
vn 0.0423 0.4143 -0.9092
vn 0.0302 0.1771 -0.9837
vn 0.0206 0.0103 -0.9997
vn -0.0716 0.2450 -0.9669
vn -0.1174 0.3574 -0.9265
vn -0.3149 0.1977 -0.9283
vn -0.2062 0.0658 -0.9763
vn -0.1875 0.0069 -0.9822
vn -0.3879 0.0048 -0.9217
vn -0.1012 -0.0004 -0.9949
vn -0.3578 0.1092 -0.9274
vn -0.2434 0.2018 -0.9487
vn -0.3353 0.0144 -0.9420
vn -0.5107 0.0691 -0.8570
vn -0.4622 0.1716 -0.8700
vn -0.3531 0.2999 -0.8862
vn -0.1919 0.3830 -0.9036
vn -0.1163 0.2479 -0.9618
vn -0.0545 0.4167 -0.9074
vn -0.0444 0.2247 -0.9734
vn -0.0318 0.0211 -0.9993
vn -0.0468 0.4187 -0.9069
vn -0.0371 0.2247 -0.9737
vn -0.0236 0.0199 -0.9995
vn -0.0428 0.4164 -0.9082
vn -0.0331 0.2209 -0.9747
vn -0.0198 0.0146 -0.9997
vn -0.0423 0.4144 -0.9091
vn -0.0302 0.1771 -0.9837
vn -0.0207 0.0103 -0.9997
vn 0.0716 0.2450 -0.9669
vn 0.1176 0.3574 -0.9265
vn 0.3149 0.1977 -0.9283
vn 0.2062 0.0658 -0.9763
vn 0.1875 0.0069 -0.9822
vn 0.3879 0.0048 -0.9217
vt 0.668776 0.372482
vt 0.674760 0.350285
vt 0.596956 0.350296
vt 0.684162 0.353455
vt 0.677625 0.377545
vt 0.652934 0.403932
vt 0.647464 0.395228
vt 0.616729 0.415804
vt 0.614899 0.405910
vt 0.580181 0.417743
vt 0.579660 0.407780
vt 0.568348 0.350262
vt 0.543481 0.419688
vt 0.542958 0.409725
vt 0.539402 0.350226
vt 0.483182 0.422884
vt 0.482658 0.412920
vt 0.475670 0.350200
vt 0.422883 0.426080
vt 0.422358 0.416116
vt 0.411939 0.350173
vt 0.368186 0.418987
vt 0.364131 0.429194
vt 0.343320 0.407368
vt 0.353329 0.403406
vt 0.353764 0.350091
vt 0.343791 0.349727
vt -0.596956 0.350296
vt -0.668776 0.372482
vt -0.647464 0.395228
vt -0.674760 0.350285
vt -0.684162 0.353455
vt -0.677625 0.377545
vt -0.652934 0.403932
vt -0.616729 0.415804
vt -0.614899 0.405910
vt -0.580181 0.417743
vt -0.579660 0.407780
vt -0.568348 0.350262
vt -0.543481 0.419688
vt -0.542958 0.409725
vt -0.539402 0.350226
vt -0.483182 0.422884
vt -0.482658 0.412920
vt -0.475670 0.350200
vt -0.422883 0.426080
vt -0.422358 0.416116
vt -0.411939 0.350173
vt -0.368186 0.418987
vt -0.364131 0.429194
vt -0.343320 0.407368
vt -0.353329 0.403406
vt -0.353764 0.350091
vt -0.343791 0.349727
s 1
f 49/45/24 51/46/25 50/47/26
f 52/48/27 51/46/25 49/45/24
f 52/48/27 49/45/24 53/49/28
f 49/45/24 54/50/29 53/49/28
f 49/45/24 55/51/30 54/50/29
f 55/51/30 49/45/24 50/47/26
f 55/51/30 56/52/31 54/50/29
f 55/51/30 57/53/32 56/52/31
f 50/47/26 57/53/32 55/51/30
f 57/53/32 58/54/33 56/52/31
f 59/55/34 57/53/32 50/47/26
f 57/53/32 59/55/34 58/54/33
f 59/55/34 50/47/26 60/56/35
f 59/55/34 61/57/36 58/54/33
f 60/56/35 62/58/37 59/55/34
f 59/55/34 62/58/37 61/57/36
f 60/56/35 63/59/38 62/58/37
f 62/58/37 64/60/39 61/57/36
f 65/61/40 62/58/37 63/59/38
f 62/58/37 65/61/40 64/60/39
f 65/61/40 63/59/38 66/62/41
f 65/61/40 67/63/42 64/60/39
f 68/64/43 65/61/40 66/62/41
f 65/61/40 68/64/43 67/63/42
f 68/64/43 66/62/41 69/65/44
f 70/66/45 67/63/42 68/64/43
f 68/64/43 69/65/44 70/66/45
f 70/66/45 71/67/46 67/63/42
f 70/66/45 72/68/47 71/67/46
f 70/66/45 69/65/44 73/69/48
f 70/66/45 73/69/48 72/68/47
f 69/65/44 74/70/49 73/69/48
f 73/69/48 75/71/50 72/68/47
f 73/69/48 74/70/49 75/71/50
f 76/72/51 78/73/52 77/74/53
f 76/72/51 79/75/54 78/73/52
f 80/76/55 78/73/52 79/75/54
f 80/76/55 81/77/56 78/73/52
f 78/73/52 81/77/56 82/78/57
f 78/73/52 82/78/57 77/74/53
f 77/74/53 82/78/57 83/79/58
f 77/74/53 83/79/58 84/80/59
f 77/74/53 84/80/59 76/72/51
f 84/80/59 83/79/58 85/81/60
f 86/82/61 76/72/51 84/80/59
f 84/80/59 85/81/60 86/82/61
f 86/82/61 87/83/62 76/72/51
f 86/82/61 85/81/60 88/84/63
f 87/83/62 86/82/61 89/85/64
f 86/82/61 88/84/63 89/85/64
f 87/83/62 89/85/64 90/86/65
f 89/85/64 88/84/63 91/87/66
f 92/88/67 90/86/65 89/85/64
f 89/85/64 91/87/66 92/88/67
f 92/88/67 93/89/68 90/86/65
f 94/90/69 92/88/67 91/87/66
f 95/91/70 93/89/68 92/88/67
f 94/90/69 95/91/70 92/88/67
f 95/91/70 96/92/71 93/89/68
f 94/90/69 97/93/72 95/91/70
f 96/92/71 95/91/70 97/93/72
f 94/90/69 98/94/73 97/93/72
f 97/93/72 98/94/73 99/95/74
f 100/96/75 96/92/71 97/93/72
f 97/93/72 99/95/74 100/96/75
f 101/97/76 96/92/71 100/96/75
f 100/96/75 99/95/74 102/98/77
f 100/96/75 102/98/77 101/97/76
o mesh_39out.004
v 0.354488 0.261432 -2.057257
v 0.406701 0.317023 -2.055742
v 0.354035 0.316947 -2.056778
v 0.344058 0.316920 -2.052584
v 0.344552 0.256414 -2.053113
v 0.364062 0.241782 -2.053035
v 0.458263 0.251551 -2.056070
v 0.458528 0.317053 -2.054969
v 0.367396 0.251753 -2.057261
v 0.396357 0.241710 -2.052405
v 0.396377 0.251688 -2.056693
v 0.458092 0.241574 -2.051833
v 0.548893 0.251350 -2.054842
v 0.561831 0.317129 -2.053042
v 0.537421 0.317098 -2.053792
v 0.533494 0.251384 -2.055345
v 0.458528 0.317053 -2.054969
v 0.458263 0.251551 -2.056070
v 0.533476 0.241407 -2.051135
v 0.458092 0.241574 -2.051833
v 0.548878 0.241373 -2.050647
v 0.565026 0.251324 -2.054730
v 0.586266 0.317158 -2.052357
v 0.564981 0.241343 -2.050285
v 0.654613 0.251115 -2.038176
v 0.679499 0.317260 -2.037319
v 0.655855 0.241137 -2.033270
v 0.680334 0.264240 -2.034327
v 0.689343 0.317536 -2.031312
v 0.690258 0.260429 -2.028182
v 0.677959 0.247224 -2.029080
v 0.672708 0.256108 -2.034611
v -0.406701 0.317023 -2.055742
v -0.354488 0.261432 -2.057257
v -0.354035 0.316947 -2.056778
v -0.344058 0.316920 -2.052584
v -0.344552 0.256414 -2.053113
v -0.364062 0.241782 -2.053035
v -0.458528 0.317053 -2.054969
v -0.458263 0.251551 -2.056070
v -0.367396 0.251753 -2.057261
v -0.396357 0.241710 -2.052405
v -0.396377 0.251688 -2.056693
v -0.458092 0.241574 -2.051833
v -0.548893 0.251350 -2.054842
v -0.533494 0.251384 -2.055345
v -0.537421 0.317098 -2.053792
v -0.458528 0.317053 -2.054969
v -0.458263 0.251551 -2.056070
v -0.561831 0.317129 -2.053042
v -0.533476 0.241407 -2.051135
v -0.458092 0.241574 -2.051833
v -0.548878 0.241373 -2.050647
v -0.565026 0.251324 -2.054730
v -0.586266 0.317158 -2.052357
v -0.564981 0.241343 -2.050285
v -0.654613 0.251115 -2.038176
v -0.679499 0.317260 -2.037319
v -0.655855 0.241137 -2.033270
v -0.680334 0.264240 -2.034327
v -0.689343 0.317536 -2.031312
v -0.690258 0.260429 -2.028182
v -0.677959 0.247224 -2.029080
v -0.672708 0.256108 -2.034611
vn -0.1735 -0.0829 -0.9813
vn -0.1880 0.0069 -0.9821
vn 0.0151 0.0128 -0.9998
vn -0.3875 0.0048 -0.9219
vn -0.3128 -0.1546 -0.9372
vn -0.1497 -0.3416 -0.9279
vn 0.0149 0.0167 -0.9997
vn 0.0113 -0.1228 -0.9924
vn -0.0461 -0.2748 -0.9604
vn 0.0139 -0.3949 -0.9186
vn 0.0135 -0.1924 -0.9812
vn 0.0080 -0.3929 -0.9195
vn 0.0227 -0.1866 -0.9822
vn 0.0260 0.0219 -0.9994
vn 0.0219 0.0248 -0.9995
vn 0.0193 -0.1464 -0.9890
vn 0.0123 0.0197 -0.9997
vn 0.0086 -0.2593 -0.9658
vn 0.0185 -0.3886 -0.9212
vn 0.0077 -0.3910 -0.9204
vn 0.0179 -0.3940 -0.9189
vn 0.0697 -0.1994 -0.9774
vn 0.1232 -0.0144 -0.9923
vn 0.1175 -0.4100 -0.9045
vn 0.1987 -0.2223 -0.9545
vn 0.2895 -0.0473 -0.9560
vn 0.2407 -0.4006 -0.8841
vn 0.3786 -0.1636 -0.9110
vn 0.5183 -0.0393 -0.8543
vn 0.4663 -0.1818 -0.8658
vn 0.3522 -0.3433 -0.8707
vn 0.2939 -0.3253 -0.8988
vn -0.0151 0.0128 -0.9998
vn 0.1880 0.0069 -0.9821
vn 0.1735 -0.0829 -0.9813
vn 0.3875 0.0048 -0.9219
vn 0.3128 -0.1546 -0.9372
vn 0.1497 -0.3416 -0.9279
vn -0.0109 -0.1228 -0.9924
vn -0.0149 0.0167 -0.9997
vn 0.0461 -0.2748 -0.9604
vn -0.0139 -0.3949 -0.9186
vn -0.0135 -0.1924 -0.9812
vn -0.0080 -0.3930 -0.9195
vn -0.0228 -0.1866 -0.9822
vn -0.0260 0.0219 -0.9994
vn -0.0193 -0.1464 -0.9890
vn -0.0123 0.0197 -0.9997
vn -0.0079 -0.2593 -0.9658
vn -0.0219 0.0248 -0.9995
vn -0.0183 -0.3890 -0.9211
vn -0.0077 -0.3910 -0.9204
vn -0.0180 -0.3940 -0.9190
vn -0.0697 -0.1994 -0.9774
vn -0.1232 -0.0144 -0.9923
vn -0.1175 -0.4100 -0.9045
vn -0.1987 -0.2223 -0.9545
vn -0.2895 -0.0473 -0.9560
vn -0.2407 -0.4006 -0.8841
vn -0.3786 -0.1636 -0.9110
vn -0.5183 -0.0393 -0.8543
vn -0.4663 -0.1818 -0.8658
vn -0.3522 -0.3433 -0.8707
vn -0.2939 -0.3253 -0.8988
vt 0.354488 0.261432
vt 0.354035 0.316947
vt 0.406701 0.317023
vt 0.344058 0.316920
vt 0.344552 0.256414
vt 0.364062 0.241782
vt 0.458528 0.317053
vt 0.458263 0.251551
vt 0.367396 0.251753
vt 0.396357 0.241710
vt 0.396377 0.251688
vt 0.458092 0.241574
vt 0.548893 0.251350
vt 0.537421 0.317098
vt 0.561831 0.317129
vt 0.533494 0.251384
vt 0.533476 0.241407
vt 0.548878 0.241373
vt 0.565026 0.251324
vt 0.586266 0.317158
vt 0.564981 0.241343
vt 0.654613 0.251115
vt 0.679499 0.317260
vt 0.655855 0.241137
vt 0.680334 0.264240
vt 0.689343 0.317536
vt 0.690258 0.260429
vt 0.677959 0.247224
vt 0.672708 0.256108
vt -0.406701 0.317023
vt -0.354035 0.316947
vt -0.354488 0.261432
vt -0.344058 0.316920
vt -0.344552 0.256414
vt -0.364062 0.241782
vt -0.458263 0.251551
vt -0.458528 0.317053
vt -0.367396 0.251753
vt -0.396357 0.241710
vt -0.396377 0.251688
vt -0.458092 0.241574
vt -0.548893 0.251350
vt -0.537421 0.317098
vt -0.533494 0.251384
vt -0.561831 0.317129
vt -0.533476 0.241407
vt -0.548878 0.241373
vt -0.565026 0.251324
vt -0.586266 0.317158
vt -0.564981 0.241343
vt -0.654613 0.251115
vt -0.679499 0.317260
vt -0.655855 0.241137
vt -0.680334 0.264240
vt -0.689343 0.317536
vt -0.690258 0.260429
vt -0.677959 0.247224
vt -0.672708 0.256108
s 1
f 103/99/78 105/100/79 104/101/80
f 103/99/78 106/102/81 105/100/79
f 103/99/78 107/103/82 106/102/81
f 103/99/78 108/104/83 107/103/82
f 104/101/80 110/105/84 109/106/85
f 103/99/78 111/107/86 108/104/83
f 111/107/86 112/108/87 108/104/83
f 104/101/80 113/109/88 103/99/78
f 113/109/88 111/107/86 103/99/78
f 104/101/80 109/106/85 113/109/88
f 111/107/86 113/109/88 112/108/87
f 113/109/88 109/106/85 114/110/89
f 113/109/88 114/110/89 112/108/87
f 115/111/90 117/112/91 116/113/92
f 115/111/90 118/114/93 117/112/91
f 119/105/94 117/112/91 118/114/93
f 119/105/94 118/114/93 120/106/95
f 120/106/95 118/114/93 121/115/96
f 120/106/95 121/115/96 122/110/97
f 115/111/90 121/115/96 118/114/93
f 115/111/90 123/116/98 121/115/96
f 116/113/92 124/117/99 115/111/90
f 124/117/99 123/116/98 115/111/90
f 116/113/92 125/118/100 124/117/99
f 124/117/99 126/119/101 123/116/98
f 124/117/99 125/118/100 127/120/102
f 127/120/102 126/119/101 124/117/99
f 125/118/100 128/121/103 127/120/102
f 127/120/102 129/122/104 126/119/101
f 127/120/102 128/121/103 130/123/105
f 130/123/105 128/121/103 131/124/106
f 130/123/105 131/124/106 132/125/107
f 130/123/105 132/125/107 133/126/108
f 134/127/109 129/122/104 127/120/102
f 130/123/105 134/127/109 127/120/102
f 134/127/109 133/126/108 129/122/104
f 130/123/105 133/126/108 134/127/109
f 135/128/110 137/129/111 136/130/112
f 138/131/113 136/130/112 137/129/111
f 138/131/113 139/132/114 136/130/112
f 136/130/112 139/132/114 140/133/115
f 135/128/110 142/134/116 141/135/117
f 136/130/112 140/133/115 143/136/118
f 143/136/118 140/133/115 144/137/119
f 145/138/120 135/128/110 136/130/112
f 143/136/118 145/138/120 136/130/112
f 135/128/110 145/138/120 142/134/116
f 143/136/118 144/137/119 145/138/120
f 145/138/120 146/139/121 142/134/116
f 145/138/120 144/137/119 146/139/121
f 147/140/122 149/141/123 148/142/124
f 150/135/125 148/142/124 149/141/123
f 150/135/125 151/134/126 148/142/124
f 147/140/122 152/143/127 149/141/123
f 153/144/128 148/142/124 151/134/126
f 153/144/128 147/140/122 148/142/124
f 153/144/128 151/134/126 154/139/129
f 153/144/128 155/145/130 147/140/122
f 152/143/127 147/140/122 156/146/131
f 155/145/130 156/146/131 147/140/122
f 152/143/127 156/146/131 157/147/132
f 155/145/130 158/148/133 156/146/131
f 157/147/132 156/146/131 159/149/134
f 158/148/133 159/149/134 156/146/131
f 160/150/135 157/147/132 159/149/134
f 158/148/133 161/151/136 159/149/134
f 160/150/135 159/149/134 162/152/137
f 162/152/137 163/153/138 160/150/135
f 162/152/137 164/154/139 163/153/138
f 165/155/140 164/154/139 162/152/137
f 161/151/136 166/156/141 159/149/134
f 161/151/136 165/155/140 166/156/141
f 159/149/134 166/156/141 162/152/137
f 165/155/140 162/152/137 166/156/141
