# Blender 4.3.1
# www.blender.org
o mesh_52out.004
v 0.439176 0.321127 1.994421
v 0.508970 0.280828 1.994537
v 0.452149 0.274623 1.994443
v 0.477968 0.261880 1.994485
v 0.438167 0.294863 1.994419
v 0.519861 0.303615 1.994555
v 0.515223 0.329308 1.994547
v 0.498494 0.349430 1.994519
v 0.477188 0.355782 1.994484
v 0.454462 0.349469 1.994446
v 0.526666 0.354989 1.884177
v 0.632976 0.340606 1.884353
v 0.580095 0.276444 1.884265
v 0.527123 0.304985 1.884177
v 0.545846 0.283979 1.884209
v 0.521871 0.330330 1.884169
v 0.632594 0.313339 1.884352
v 0.621095 0.292633 1.884333
v 0.614724 0.384882 1.884323
v 0.629168 0.366134 1.884347
v 0.536073 0.381412 1.884192
v 0.554123 0.398398 1.884222
v 0.600646 0.398860 1.884299
v 0.577958 0.407925 1.884262
v 0.759201 0.352668 1.772267
v 0.635882 0.343764 1.772063
v 0.659282 0.405454 1.772101
v 0.724259 0.292238 1.772209
v 0.751483 0.315122 1.772254
v 0.672770 0.292435 1.772124
v 0.644141 0.314248 1.772076
v 0.752430 0.386142 1.772256
v 0.641929 0.386503 1.772073
v 0.632796 0.368328 1.772058
v 0.674818 0.415402 1.772127
v 0.726765 0.419420 1.772213
v -0.515223 0.329308 1.994547
v -0.439176 0.321127 1.994421
v -0.519861 0.303615 1.994555
v -0.498494 0.349430 1.994519
v -0.477188 0.355782 1.994484
v -0.454462 0.349469 1.994446
v -0.508970 0.280828 1.994537
v -0.452149 0.274623 1.994443
v -0.477968 0.261880 1.994485
v -0.438167 0.294863 1.994419
v -0.554123 0.398398 1.884222
v -0.600646 0.398860 1.884299
v -0.577958 0.407925 1.884262
v -0.614724 0.384882 1.884323
v -0.536073 0.381412 1.884192
v -0.526666 0.354989 1.884177
v -0.632976 0.340606 1.884353
v -0.629168 0.366134 1.884347
v -0.580095 0.276444 1.884265
v -0.521871 0.330330 1.884169
v -0.632594 0.313339 1.884352
v -0.621095 0.292633 1.884333
v -0.527123 0.304985 1.884177
v -0.545846 0.283979 1.884209
v -0.635882 0.343764 1.772063
v -0.759201 0.352668 1.772267
v -0.659282 0.405454 1.772101
v -0.641929 0.386503 1.772073
v -0.632796 0.368328 1.772058
v -0.724259 0.292238 1.772209
v -0.751483 0.315122 1.772254
v -0.672770 0.292435 1.772124
v -0.644141 0.314248 1.772076
v -0.752430 0.386142 1.772256
v -0.674818 0.415402 1.772127
v -0.726765 0.419420 1.772213
vn -0.0017 -0.0000 1.0000
vn -0.0016 -0.0000 1.0000
vn -0.0016 0.0001 1.0000
vn -0.0016 -0.0001 1.0000
vn 0.0017 -0.0000 1.0000
vn 0.0016 -0.0000 1.0000
vn 0.0016 -0.0001 1.0000
vn 0.0016 0.0001 1.0000
vt 0.439176 0.321127
vt 0.452149 0.274623
vt 0.508970 0.280828
vt 0.477968 0.261880
vt 0.438167 0.294863
vt 0.519861 0.303615
vt 0.515223 0.329308
vt 0.498494 0.349430
vt 0.477188 0.355782
vt 0.454462 0.349469
vt 0.526666 0.354989
vt 0.580095 0.276444
vt 0.632976 0.340606
vt 0.527123 0.304985
vt 0.545846 0.283979
vt 0.521871 0.330330
vt 0.632594 0.313339
vt 0.621095 0.292633
vt 0.614724 0.384882
vt 0.629168 0.366134
vt 0.536073 0.381412
vt 0.554123 0.398398
vt 0.600646 0.398860
vt 0.577958 0.407925
vt 0.759201 0.352668
vt 0.659282 0.405454
vt 0.635882 0.343764
vt 0.724259 0.292238
vt 0.751483 0.315122
vt 0.672770 0.292435
vt 0.644141 0.314248
vt 0.752430 0.386142
vt 0.641929 0.386503
vt 0.632796 0.368328
vt 0.674818 0.415402
vt 0.726765 0.419420
vt -0.515223 0.329308
vt -0.519861 0.303615
vt -0.439176 0.321127
vt -0.498494 0.349430
vt -0.477188 0.355782
vt -0.454462 0.349469
vt -0.508970 0.280828
vt -0.452149 0.274623
vt -0.477968 0.261880
vt -0.438167 0.294863
vt -0.554123 0.398398
vt -0.577958 0.407925
vt -0.600646 0.398860
vt -0.614724 0.384882
vt -0.536073 0.381412
vt -0.526666 0.354989
vt -0.629168 0.366134
vt -0.632976 0.340606
vt -0.580095 0.276444
vt -0.521871 0.330330
vt -0.632594 0.313339
vt -0.621095 0.292633
vt -0.527123 0.304985
vt -0.545846 0.283979
vt -0.635882 0.343764
vt -0.659282 0.405454
vt -0.759201 0.352668
vt -0.632796 0.368328
vt -0.641929 0.386503
vt -0.751483 0.315122
vt -0.724259 0.292238
vt -0.672770 0.292435
vt -0.644141 0.314248
vt -0.752430 0.386142
vt -0.674818 0.415402
vt -0.726765 0.419420
s 1
f 1/1/1 3/2/1 2/3/1
f 4/4/2 2/3/1 3/2/1
f 3/2/1 1/1/1 5/5/1
f 2/3/1 6/6/1 1/1/1
f 6/6/1 7/7/1 1/1/1
f 7/7/1 8/8/1 1/1/1
f 8/8/1 9/9/1 1/1/1
f 9/9/1 10/10/1 1/1/1
f 11/11/1 13/12/1 12/13/1
f 14/14/1 15/15/3 13/12/1
f 16/16/1 14/14/1 13/12/1
f 11/11/1 16/16/1 13/12/1
f 17/17/2 12/13/1 13/12/1
f 13/12/1 18/18/1 17/17/2
f 11/11/1 12/13/1 19/19/1
f 20/20/1 19/19/1 12/13/1
f 21/21/1 11/11/1 19/19/1
f 22/22/1 21/21/1 19/19/1
f 19/19/1 23/23/1 22/22/1
f 23/23/1 24/24/4 22/22/1
f 25/25/1 27/26/1 26/27/1
f 28/28/2 29/29/2 25/25/1
f 25/25/1 30/30/1 28/28/2
f 26/27/1 30/30/1 25/25/1
f 26/27/1 31/31/1 30/30/1
f 25/25/1 32/32/1 27/26/1
f 27/26/1 33/33/2 26/27/1
f 33/33/2 34/34/2 26/27/1
f 27/26/1 32/32/1 35/35/1
f 32/32/1 36/36/1 35/35/1
f 37/37/5 39/38/5 38/39/5
f 40/40/5 37/37/5 38/39/5
f 40/40/5 38/39/5 41/41/5
f 38/39/5 42/42/5 41/41/5
f 39/38/5 43/43/5 38/39/5
f 43/43/5 44/44/5 38/39/5
f 43/43/5 45/45/6 44/44/5
f 38/39/5 44/44/5 46/46/5
f 47/47/5 49/48/7 48/49/6
f 48/49/6 50/50/5 47/47/5
f 51/51/5 47/47/5 50/50/5
f 52/52/5 51/51/5 50/50/5
f 50/50/5 54/53/5 53/54/5
f 52/52/5 50/50/5 53/54/5
f 52/52/5 53/54/5 55/55/5
f 56/56/5 52/52/5 55/55/5
f 53/54/5 57/57/6 55/55/5
f 57/57/6 58/58/5 55/55/5
f 59/59/5 56/56/5 55/55/5
f 55/55/5 60/60/8 59/59/5
f 61/61/5 63/62/5 62/63/5
f 61/61/5 65/64/6 64/65/6
f 63/62/5 61/61/5 64/65/6
f 62/63/5 67/66/6 66/67/6
f 66/67/6 68/68/5 62/63/5
f 62/63/5 68/68/5 61/61/5
f 68/68/5 69/69/5 61/61/5
f 70/70/5 62/63/5 63/62/5
f 63/62/5 71/71/5 70/70/5
f 71/71/5 72/72/5 70/70/5
o mesh_52out.005
v 0.868077 0.425214 0.935890
v 0.850457 0.427186 0.871730
v 0.850457 0.399454 0.871730
v 0.868077 0.397481 0.935890
v 0.751392 0.315122 1.827352
v 0.827752 0.317490 1.700207
v 0.829829 0.261880 1.732145
v 0.723535 0.261880 1.899369
v 0.724074 0.292238 1.883669
v 0.672525 0.292435 1.919755
v 0.620976 0.292633 1.955841
v 0.560737 0.261880 2.009505
v 0.759172 0.352668 1.789779
v 0.827752 0.317490 1.700207
v 0.751392 0.315122 1.827352
v 0.752420 0.386142 1.778636
v 0.825729 0.419420 1.635243
v 0.726720 0.419420 1.799341
v 0.820769 0.392576 -2.015962
v 0.826857 0.388786 -1.977193
v 0.818330 0.439298 -1.980108
v 0.813705 0.442173 -2.017674
v 0.700905 0.398263 -2.100182
v 0.702865 0.448119 -2.101147
v 0.622202 0.450301 -2.125648
v 0.579788 0.398263 -2.137133
v -0.850457 0.399454 0.871730
v -0.850457 0.427186 0.871730
v -0.868077 0.425214 0.935890
v -0.868077 0.397481 0.935890
v -0.751392 0.315122 1.827352
v -0.829829 0.261880 1.732145
v -0.827752 0.317490 1.700207
v -0.723535 0.261880 1.899369
v -0.724074 0.292238 1.883669
v -0.672525 0.292435 1.919755
v -0.620976 0.292633 1.955841
v -0.560737 0.261880 2.009505
v -0.759172 0.352668 1.789779
v -0.751392 0.315122 1.827352
v -0.827752 0.317490 1.700207
v -0.752420 0.386142 1.778636
v -0.825729 0.419420 1.635243
v -0.726720 0.419420 1.799341
v -0.818330 0.439298 -1.980108
v -0.826857 0.388786 -1.977193
v -0.820769 0.392576 -2.015962
v -0.813705 0.442173 -2.017674
v -0.700905 0.398263 -2.100182
v -0.702865 0.448119 -2.101147
v -0.622202 0.450301 -2.125648
v -0.579788 0.398263 -2.137133
vn 0.9643 -0.0000 -0.2648
vn 0.8180 0.2773 0.5039
vn 0.8119 0.2935 0.5047
vn 0.8115 0.3135 0.4932
vn 0.6596 0.3285 0.6760
vn 0.6955 0.3203 0.6432
vn 0.5310 0.3818 0.7565
vn 0.5304 0.3553 0.7697
vn 0.5293 0.3284 0.7823
vn 0.8082 0.3252 0.4910
vn 0.8083 0.3243 0.4915
vn 0.8082 0.3262 0.4904
vn 0.8090 0.3251 0.4896
vn 0.8094 0.3248 0.4892
vn 0.8107 0.3218 0.4891
vn 0.9149 0.1252 -0.3839
vn 0.9813 0.1468 -0.1245
vn 0.9779 0.1571 -0.1382
vn 0.7801 0.0546 -0.6232
vn 0.4458 -0.0106 -0.8951
vn 0.4515 -0.0350 -0.8916
vn 0.2907 -0.0283 -0.9564
vn 0.2917 -0.0267 -0.9561
vn -0.9643 -0.0000 -0.2648
vn -0.8180 0.2772 0.5039
vn -0.8115 0.3135 0.4932
vn -0.8119 0.2934 0.5046
vn -0.6596 0.3285 0.6760
vn -0.6955 0.3203 0.6432
vn -0.5310 0.3818 0.7565
vn -0.5304 0.3553 0.7697
vn -0.5293 0.3284 0.7823
vn -0.8082 0.3252 0.4910
vn -0.8082 0.3262 0.4904
vn -0.8083 0.3243 0.4915
vn -0.8090 0.3251 0.4896
vn -0.8095 0.3247 0.4892
vn -0.8107 0.3218 0.4891
vn -0.9813 0.1467 -0.1244
vn -0.9149 0.1252 -0.3839
vn -0.9779 0.1571 -0.1382
vn -0.7801 0.0546 -0.6232
vn -0.4458 -0.0106 -0.8951
vn -0.4515 -0.0350 -0.8916
vn -0.2907 -0.0283 -0.9564
vn -0.2917 -0.0267 -0.9561
vt 0.868077 0.425214
vt 0.850457 0.399454
vt 0.850457 0.427186
vt 0.868077 0.397481
vt 0.751392 0.315122
vt 0.829829 0.261880
vt 0.827752 0.317490
vt 0.723535 0.261880
vt 0.724074 0.292238
vt 0.672525 0.292435
vt 0.620976 0.292633
vt 0.560737 0.261880
vt 0.759172 0.352668
vt 0.752420 0.386142
vt 0.825729 0.419420
vt 0.726720 0.419420
vt 0.820769 0.392576
vt 0.818330 0.439298
vt 0.826857 0.388786
vt 0.813705 0.442173
vt 0.700905 0.398263
vt 0.702865 0.448119
vt 0.622202 0.450301
vt 0.579788 0.398263
vt -0.850457 0.399454
vt -0.868077 0.425214
vt -0.850457 0.427186
vt -0.868077 0.397481
vt -0.751392 0.315122
vt -0.827752 0.317490
vt -0.829829 0.261880
vt -0.723535 0.261880
vt -0.724074 0.292238
vt -0.672525 0.292435
vt -0.620976 0.292633
vt -0.560737 0.261880
vt -0.759172 0.352668
vt -0.752420 0.386142
vt -0.825729 0.419420
vt -0.726720 0.419420
vt -0.818330 0.439298
vt -0.820769 0.392576
vt -0.826857 0.388786
vt -0.813705 0.442173
vt -0.700905 0.398263
vt -0.702865 0.448119
vt -0.622202 0.450301
vt -0.579788 0.398263
s 1
f 73/73/9 75/74/9 74/75/9
f 73/73/9 76/76/9 75/74/9
f 77/77/10 79/78/11 78/79/12
f 80/80/13 79/78/11 77/77/10
f 81/81/14 80/80/13 77/77/10
f 80/80/13 81/81/14 82/82/15
f 80/80/13 82/82/15 83/83/16
f 80/80/13 83/83/16 84/84/17
f 85/85/18 87/77/19 86/79/20
f 88/86/21 85/85/18 86/79/20
f 88/86/21 86/79/20 89/87/22
f 90/88/23 88/86/21 89/87/22
f 91/89/24 93/90/25 92/91/26
f 91/89/24 94/92/27 93/90/25
f 94/92/27 91/89/24 95/93/28
f 94/92/27 95/93/28 96/94/29
f 97/95/30 96/94/29 95/93/28
f 97/95/30 95/93/28 98/96/31
f 99/97/32 101/98/32 100/99/32
f 99/97/32 102/100/32 101/98/32
f 103/101/33 105/102/34 104/103/35
f 106/104/36 103/101/33 104/103/35
f 107/105/37 103/101/33 106/104/36
f 106/104/36 108/106/38 107/105/37
f 106/104/36 109/107/39 108/106/38
f 106/104/36 110/108/40 109/107/39
f 111/109/41 113/102/42 112/101/43
f 113/102/42 111/109/41 114/110/44
f 113/102/42 114/110/44 115/111/45
f 116/112/46 115/111/45 114/110/44
f 117/113/47 119/114/48 118/115/49
f 117/113/47 120/116/50 119/114/48
f 121/117/51 119/114/48 120/116/50
f 121/117/51 120/116/50 122/118/52
f 121/117/51 122/118/52 123/119/53
f 121/117/51 123/119/53 124/120/54
o mesh_52out.006
v 0.596678 0.460664 -2.077491
v 0.516391 0.460664 -2.077625
v 0.556535 0.420520 -2.077558
v 0.584920 0.432278 -2.077511
v 0.528149 0.432278 -2.077605
v 0.584920 0.489049 -2.077511
v 0.556535 0.500807 -2.077558
v 0.528149 0.489049 -2.077605
v -0.516391 0.460664 -2.077625
v -0.596678 0.460664 -2.077491
v -0.556535 0.420520 -2.077558
v -0.528149 0.432278 -2.077605
v -0.584920 0.432278 -2.077511
v -0.556535 0.500807 -2.077558
v -0.528149 0.489049 -2.077605
v -0.584920 0.489049 -2.077511
vn 0.0017 -0.0000 -1.0000
vn 0.0016 -0.0000 -1.0000
vn -0.0017 -0.0000 -1.0000
vt 0.596678 0.460664
vt 0.556535 0.420520
vt 0.516391 0.460664
vt 0.584920 0.432278
vt 0.528149 0.432278
vt 0.584920 0.489049
vt 0.556535 0.500807
vt 0.528149 0.489049
vt -0.516391 0.460664
vt -0.556535 0.420520
vt -0.596678 0.460664
vt -0.528149 0.432278
vt -0.584920 0.432278
vt -0.556535 0.500807
vt -0.528149 0.489049
vt -0.584920 0.489049
s 1
f 125/121/55 127/122/55 126/123/55
f 125/121/55 128/124/55 127/122/55
f 127/122/55 129/125/55 126/123/55
f 130/126/55 125/121/55 126/123/55
f 131/127/56 130/126/55 126/123/55
f 126/123/55 132/128/56 131/127/56
f 133/129/57 135/130/57 134/131/57
f 133/129/57 136/132/57 135/130/57
f 135/130/57 137/133/57 134/131/57
f 138/134/57 133/129/57 134/131/57
f 138/134/57 139/135/57 133/129/57
f 134/131/57 140/136/57 138/134/57
o mesh_52out.007
v 0.647895 0.460584 -2.043479
v 0.600544 0.507934 -2.043557
v 0.614413 0.474452 -2.043534
v 0.681376 0.474452 -2.043423
v 0.695245 0.507934 -2.043400
v 0.681376 0.541416 -2.043423
v 0.647895 0.555285 -2.043479
v 0.614413 0.541416 -2.043534
v 0.703610 0.507139 -1.976282
v 0.798310 0.507139 -1.976125
v 0.750960 0.554489 -1.976204
v 0.717478 0.540621 -1.976259
v 0.784442 0.540621 -1.976148
v 0.717478 0.473657 -1.976259
v 0.750960 0.459789 -1.976204
v 0.784442 0.473657 -1.976148
v -0.600544 0.507934 -2.043557
v -0.695245 0.507934 -2.043400
v -0.647895 0.460584 -2.043479
v -0.614413 0.474452 -2.043534
v -0.681376 0.474452 -2.043423
v -0.647895 0.555285 -2.043479
v -0.614413 0.541416 -2.043534
v -0.681376 0.541416 -2.043423
v -0.703610 0.507139 -1.976282
v -0.798310 0.507139 -1.976125
v -0.750960 0.459789 -1.976204
v -0.717478 0.473657 -1.976259
v -0.784442 0.473657 -1.976148
v -0.750960 0.554489 -1.976204
v -0.717478 0.540621 -1.976259
v -0.784442 0.540621 -1.976148
vn 0.0017 -0.0000 -1.0000
vn 0.0016 -0.0000 -1.0000
vn -0.0017 -0.0000 -1.0000
vn -0.0016 -0.0000 -1.0000
vt 0.647895 0.460584
vt 0.614413 0.474452
vt 0.600544 0.507934
vt 0.681376 0.474452
vt 0.695245 0.507934
vt 0.681376 0.541416
vt 0.647895 0.555285
vt 0.614413 0.541416
vt 0.703610 0.507139
vt 0.750960 0.554489
vt 0.798310 0.507139
vt 0.717478 0.540621
vt 0.784442 0.540621
vt 0.717478 0.473657
vt 0.750960 0.459789
vt 0.784442 0.473657
vt -0.600544 0.507934
vt -0.647895 0.460584
vt -0.695245 0.507934
vt -0.614413 0.474452
vt -0.681376 0.474452
vt -0.647895 0.555285
vt -0.614413 0.541416
vt -0.681376 0.541416
vt -0.703610 0.507139
vt -0.750960 0.459789
vt -0.798310 0.507139
vt -0.717478 0.473657
vt -0.784442 0.473657
vt -0.750960 0.554489
vt -0.717478 0.540621
vt -0.784442 0.540621
s 1
f 141/137/58 143/138/59 142/139/58
f 144/140/58 141/137/58 142/139/58
f 145/141/58 144/140/58 142/139/58
f 146/142/58 145/141/58 142/139/58
f 147/143/58 146/142/58 142/139/58
f 142/139/58 148/144/59 147/143/58
f 149/145/58 151/146/58 150/147/58
f 149/145/58 152/148/59 151/146/58
f 151/146/58 153/149/58 150/147/58
f 154/150/58 149/145/58 150/147/58
f 155/151/58 154/150/58 150/147/58
f 150/147/58 156/152/58 155/151/58
f 157/153/60 159/154/60 158/155/60
f 157/153/60 160/156/61 159/154/60
f 159/154/60 161/157/60 158/155/60
f 162/158/60 157/153/60 158/155/60
f 162/158/60 163/159/61 157/153/60
f 158/155/60 164/160/60 162/158/60
f 165/161/61 167/162/60 166/163/60
f 165/161/61 168/164/61 167/162/60
f 167/162/60 169/165/60 166/163/60
f 170/166/60 165/161/61 166/163/60
f 170/166/60 171/167/61 165/161/61
f 166/163/60 172/168/60 170/166/60
o mesh_52out.008
v 0.077396 0.774486 -1.677077
v -0.000000 0.774486 -1.677077
v -0.000000 0.746865 -1.717300
v 0.077987 0.746865 -1.717300
v -0.077396 0.774486 -1.677077
v -0.077987 0.746865 -1.717300
vn -0.0000 0.8244 -0.5661
vt 0.077396 0.774486
vt 0.000000 0.746865
vt 0.000000 0.774486
vt 0.077987 0.746865
vt -0.077396 0.774486
vt -0.077987 0.746865
s 1
f 173/169/62 175/170/62 174/171/62
f 173/169/62 176/172/62 175/170/62
f 177/173/62 174/171/62 175/170/62
f 177/173/62 175/170/62 178/174/62
