# Blender 4.3.1
# www.blender.org
o mesh_57out.001
v -0.000000 0.639164 -2.123453
v 0.197699 0.638529 -2.123453
v 0.197699 0.654677 -2.123453
v -0.000000 0.655312 -2.123453
v -0.197699 0.654677 -2.123453
v -0.197699 0.638529 -2.123453
v -0.000000 0.638933 -2.109597
v 0.197699 0.638298 -2.109597
v -0.197699 0.638298 -2.109597
vn -0.0000 0.4442 0.8959
vn 0.0015 0.8884 0.4591
vn -0.0000 -0.0000 1.0000
vn -0.0030 0.8884 0.4591
vn -0.0000 0.9999 0.0167
vn 0.0032 0.9999 0.0167
vn -0.0032 0.9999 0.0167
vt 0.000000 0.639164
vt 0.197699 0.638529
vt 0.197699 0.654677
vt 0.000000 0.655312
vt -0.197699 0.654677
vt -0.197699 0.638529
vt 0.000000 0.638933
vt 0.197699 0.638298
vt -0.197699 0.638298
s 1
f 1/1/1 2/2/2 3/3/3
f 1/1/1 3/3/3 4/4/3
f 1/1/1 4/4/3 5/5/3
f 1/1/1 5/5/3 6/6/4
f 2/2/2 1/1/1 7/7/5
f 7/7/5 1/1/1 6/6/4
f 2/2/2 7/7/5 8/8/6
f 7/7/5 6/6/4 9/9/7
o mesh_57out.002
v 0.817120 0.190577 1.842353
v 0.754764 0.190600 1.976539
v 0.802671 0.248609 1.850797
v 0.819119 0.227891 1.843428
v 0.752020 0.283122 1.921541
v 0.697121 0.298983 1.982514
v 0.697230 0.189023 2.033130
v -0.754764 0.190600 1.976539
v -0.817120 0.190577 1.842353
v -0.802671 0.248609 1.850797
v -0.819119 0.227891 1.843428
v -0.752020 0.283122 1.921541
v -0.697121 0.298983 1.982514
v -0.697230 0.189023 2.033130
v 0.533021 0.352335 -2.202886
v 0.590849 0.352335 -2.197003
v 0.590062 0.436797 -2.191989
v 0.532300 0.436797 -2.198291
v -0.533021 0.352335 -2.202886
v -0.532300 0.436797 -2.198291
v -0.590062 0.436797 -2.191989
v -0.590849 0.352335 -2.197003
vn -0.6799 -0.0630 -0.7306
vn -0.7930 -0.2869 -0.5375
vn -0.7492 -0.1476 -0.6456
vn -0.3595 0.0461 -0.9320
vn -0.7912 -0.3297 -0.5151
vn -0.7013 -0.3384 -0.6274
vn -0.6613 -0.3142 -0.6811
vn 0.7930 -0.2869 -0.5375
vn 0.6799 -0.0630 -0.7305
vn 0.7492 -0.1476 -0.6456
vn 0.3595 0.0461 -0.9320
vn 0.7912 -0.3297 -0.5151
vn 0.7013 -0.3384 -0.6274
vn 0.6613 -0.3142 -0.6811
vn -0.1047 -0.0574 0.9928
vn -0.1010 -0.0599 0.9931
vn -0.1083 -0.0549 0.9926
vn 0.1047 -0.0574 0.9928
vn 0.1083 -0.0549 0.9926
vn 0.1010 -0.0599 0.9931
vt 0.817120 0.190577
vt 0.754764 0.190600
vt 0.802671 0.248609
vt 0.819119 0.227891
vt 0.752020 0.283122
vt 0.697121 0.298983
vt 0.697230 0.189023
vt -0.754764 0.190600
vt -0.817120 0.190577
vt -0.802671 0.248609
vt -0.819119 0.227891
vt -0.752020 0.283122
vt -0.697121 0.298983
vt -0.697230 0.189023
vt 0.533021 0.352335
vt 0.590849 0.352335
vt 0.590062 0.436797
vt 0.532300 0.436797
vt -0.533021 0.352335
vt -0.532300 0.436797
vt -0.590062 0.436797
vt -0.590849 0.352335
s 1
f 10/10/8 11/11/9 12/12/10
f 13/13/11 10/10/8 12/12/10
f 12/12/10 11/11/9 14/14/12
f 15/15/13 14/14/12 11/11/9
f 15/15/13 11/11/9 16/16/14
f 17/17/15 18/18/16 19/19/17
f 19/19/17 18/18/16 20/20/18
f 21/21/19 17/17/15 19/19/17
f 17/17/15 21/21/19 22/22/20
f 17/17/15 22/22/20 23/23/21
f 24/24/22 25/25/23 26/26/22
f 24/24/22 26/26/22 27/27/24
f 28/28/25 29/29/26 30/30/25
f 28/28/25 30/30/25 31/31/27
o mesh_57out.003
v 0.631064 0.301224 2.021288
v 0.668052 0.301224 1.989518
v 0.668750 0.187830 2.007477
v 0.631064 0.187830 2.021288
v 0.357801 0.290488 2.118988
v 0.409784 0.298747 2.097890
v 0.419804 0.189428 2.097890
v 0.302171 0.189383 2.118988
v 0.506821 0.300243 2.075676
v 0.506692 0.189428 2.075686
v 0.631064 0.301224 2.021288
v 0.631064 0.187830 2.021288
v -0.419804 0.189428 2.097890
v -0.409784 0.298747 2.097890
v -0.357801 0.290488 2.118988
v -0.302171 0.189383 2.118988
v -0.506821 0.300243 2.075676
v -0.506692 0.189428 2.075686
v -0.631064 0.301224 2.021288
v -0.631064 0.187830 2.021288
v -0.668750 0.187830 2.007477
v -0.668052 0.301224 1.989518
v -0.631064 0.301224 2.021288
v -0.631064 0.187830 2.021288
v 0.496200 0.094459 2.192387
v 0.493919 0.129402 2.192387
v 0.601003 0.129402 2.151448
v 0.601003 0.094459 2.151448
v -0.601003 0.129402 2.151448
v -0.493919 0.129402 2.192387
v -0.496200 0.094459 2.192387
v -0.601003 0.094459 2.151448
vn -0.5044 -0.0627 -0.8612
vn -0.6466 -0.1232 -0.7528
vn -0.5043 -0.0627 -0.8612
vn -0.3441 -0.0000 -0.9389
vn -0.2755 0.0316 -0.9608
vn -0.2978 -0.0273 -0.9543
vn -0.2554 0.0107 -0.9668
vn -0.1757 0.0967 -0.9797
vn -0.2915 -0.0066 -0.9565
vn -0.3508 0.0002 -0.9365
vn -0.4009 0.0002 -0.9161
vn -0.4007 -0.0000 -0.9162
vn 0.2554 0.0107 -0.9668
vn 0.2982 -0.0273 -0.9541
vn 0.2755 0.0316 -0.9608
vn 0.1757 0.0967 -0.9797
vn 0.2915 -0.0066 -0.9565
vn 0.3508 0.0002 -0.9365
vn 0.4009 0.0002 -0.9161
vn 0.4007 -0.0000 -0.9162
vn 0.5043 -0.0627 -0.8612
vn 0.6466 -0.1232 -0.7528
vn 0.5044 -0.0627 -0.8612
vn 0.3441 -0.0000 -0.9389
vn -0.3604 -0.0116 -0.9327
vn -0.3570 -0.0233 -0.9338
vn -0.3605 -0.0116 -0.9327
vn -0.3639 -0.0000 -0.9315
vn 0.3605 -0.0116 -0.9327
vn 0.3570 -0.0233 -0.9338
vn 0.3639 -0.0000 -0.9315
vt 0.631064 0.301224
vt 0.668052 0.301224
vt 0.668750 0.187830
vt 0.631064 0.187830
vt 0.357801 0.290488
vt 0.409784 0.298747
vt 0.419804 0.189428
vt 0.302171 0.189383
vt 0.506821 0.300243
vt 0.506692 0.189428
vt -0.419804 0.189428
vt -0.409784 0.298747
vt -0.357801 0.290488
vt -0.302171 0.189383
vt -0.506821 0.300243
vt -0.506692 0.189428
vt -0.631064 0.301224
vt -0.631064 0.187830
vt -0.668750 0.187830
vt -0.668052 0.301224
vt 0.496200 0.094459
vt 0.493919 0.129402
vt 0.601003 0.129402
vt 0.601003 0.094459
vt -0.601003 0.129402
vt -0.493919 0.129402
vt -0.496200 0.094459
vt -0.601003 0.094459
s 1
f 32/32/28 33/33/29 34/34/30
f 32/32/28 34/34/30 35/35/31
f 36/36/32 37/37/33 38/38/34
f 36/36/32 38/38/34 39/39/35
f 40/40/36 38/38/34 37/37/33
f 40/40/36 41/41/37 38/38/34
f 41/41/37 40/40/36 42/32/38
f 41/41/37 42/32/38 43/35/39
f 44/42/40 45/43/41 46/44/42
f 44/42/40 46/44/42 47/45/43
f 48/46/44 45/43/41 44/42/40
f 48/46/44 44/42/40 49/47/45
f 50/48/46 48/46/44 49/47/45
f 50/48/46 49/47/45 51/49/47
f 52/50/48 53/51/49 54/48/50
f 52/50/48 54/48/50 55/49/51
f 56/52/52 57/53/53 58/54/54
f 56/52/52 58/54/54 59/55/55
f 60/56/56 61/57/57 62/58/56
f 60/56/56 62/58/56 63/59/58
o mesh_57out.004
v 0.508191 0.403586 -2.201659
v 0.390642 0.326234 -2.217469
v 0.508051 0.373677 -2.203312
v 0.418127 0.314520 -2.215802
v 0.369639 0.347563 -2.217850
v 0.496558 0.346201 -2.206173
v 0.496887 0.431302 -2.200860
v 0.447910 0.314204 -2.213092
v 0.475451 0.325329 -2.209710
v 0.475861 0.452607 -2.201035
v 0.358310 0.375253 -2.216825
v 0.448314 0.464257 -2.202158
v 0.418464 0.464505 -2.204278
v 0.358379 0.405089 -2.214553
v 0.369834 0.432527 -2.211361
v 0.390932 0.453390 -2.207743
v 0.618759 0.431730 -2.186148
v 0.739100 0.431730 -2.147202
v 0.665210 0.464350 -2.172437
v 0.638822 0.452895 -2.179978
v 0.608326 0.404076 -2.190762
v 0.719098 0.452895 -2.153554
v 0.693110 0.464350 -2.162293
v 0.750118 0.404076 -2.144341
v 0.609113 0.374143 -2.193117
v 0.750634 0.374143 -2.145885
v 0.740569 0.346489 -2.151600
v 0.620998 0.346489 -2.192856
v 0.721361 0.325324 -2.160332
v 0.695852 0.313869 -2.170508
v 0.668023 0.313869 -2.180865
v 0.642098 0.325324 -2.189792
v -0.390642 0.326234 -2.217469
v -0.508051 0.373677 -2.203312
v -0.418127 0.314520 -2.215802
v -0.447910 0.314204 -2.213092
v -0.496558 0.346201 -2.206173
v -0.475451 0.325329 -2.209710
v -0.508191 0.403586 -2.201659
v -0.369639 0.347563 -2.217850
v -0.496887 0.431302 -2.200860
v -0.358310 0.375253 -2.216825
v -0.475861 0.452607 -2.201035
v -0.448314 0.464257 -2.202158
v -0.418464 0.464505 -2.204278
v -0.358379 0.405089 -2.214553
v -0.369834 0.432527 -2.211361
v -0.390932 0.453390 -2.207743
v -0.739100 0.431730 -2.147202
v -0.618759 0.431730 -2.186148
v -0.665210 0.464350 -2.172437
v -0.638822 0.452895 -2.179978
v -0.608326 0.404076 -2.190762
v -0.719098 0.452895 -2.153554
v -0.693110 0.464350 -2.162293
v -0.750118 0.404076 -2.144341
v -0.609113 0.374143 -2.193117
v -0.750634 0.374143 -2.145885
v -0.740569 0.346489 -2.151600
v -0.620998 0.346489 -2.192856
v -0.721361 0.325324 -2.160332
v -0.695852 0.313869 -2.170508
v -0.668023 0.313869 -2.180865
v -0.642098 0.325324 -2.189792
vn -0.0919 -0.0629 0.9938
vn -0.0923 -0.0651 0.9936
vn -0.0950 -0.0631 0.9935
vn -0.0928 -0.0703 0.9932
vn -0.0871 -0.0704 0.9937
vn -0.0929 -0.0717 0.9931
vn -0.0867 -0.0698 0.9938
vn -0.0912 -0.0761 0.9929
vn -0.0912 -0.0760 0.9929
vn -0.0822 -0.0775 0.9936
vn -0.0824 -0.0812 0.9933
vn -0.0741 -0.0887 0.9933
vn -0.0887 -0.0801 0.9928
vn -0.0949 -0.0757 0.9926
vn -0.0942 -0.0766 0.9926
vn -0.0936 -0.0774 0.9926
vn -0.2924 -0.0126 0.9562
vn -0.3161 -0.0166 0.9486
vn -0.3122 -0.0225 0.9498
vn -0.2610 -0.0338 0.9647
vn -0.3097 -0.0503 0.9495
vn -0.3393 -0.0473 0.9395
vn -0.3411 -0.0581 0.9382
vn -0.3125 -0.0542 0.9484
vn -0.3164 -0.0870 0.9446
vn -0.3159 -0.0674 0.9464
vn -0.3213 -0.1014 0.9415
vn -0.3507 -0.1584 0.9230
vn -0.3258 -0.1001 0.9401
vn -0.3358 -0.1315 0.9327
vn -0.3874 -0.2303 0.8927
vn -0.4270 -0.3023 0.8522
vn 0.0923 -0.0651 0.9936
vn 0.0952 -0.0646 0.9934
vn 0.0909 -0.0716 0.9933
vn 0.0944 -0.0695 0.9931
vn 0.0961 -0.0686 0.9930
vn 0.0912 -0.0760 0.9929
vn 0.0919 -0.0629 0.9938
vn 0.0878 -0.0687 0.9938
vn 0.0865 -0.0706 0.9937
vn 0.0826 -0.0799 0.9934
vn 0.0805 -0.0804 0.9935
vn 0.0741 -0.0887 0.9933
vn 0.0887 -0.0801 0.9928
vn 0.0949 -0.0757 0.9926
vn 0.0942 -0.0766 0.9926
vn 0.0936 -0.0774 0.9926
vn 0.3162 -0.0165 0.9486
vn 0.2924 -0.0126 0.9562
vn 0.3122 -0.0225 0.9498
vn 0.2610 -0.0338 0.9647
vn 0.3097 -0.0503 0.9495
vn 0.3393 -0.0473 0.9395
vn 0.3411 -0.0581 0.9382
vn 0.3125 -0.0542 0.9484
vn 0.3164 -0.0870 0.9446
vn 0.3159 -0.0675 0.9464
vn 0.3213 -0.1014 0.9415
vn 0.3507 -0.1584 0.9230
vn 0.3258 -0.1001 0.9401
vn 0.3358 -0.1315 0.9327
vn 0.3874 -0.2303 0.8927
vn 0.4270 -0.3023 0.8522
vt 0.508191 0.403586
vt 0.390642 0.326234
vt 0.508051 0.373677
vt 0.418127 0.314520
vt 0.369639 0.347563
vt 0.496558 0.346201
vt 0.496887 0.431302
vt 0.447910 0.314204
vt 0.475451 0.325329
vt 0.475861 0.452607
vt 0.358310 0.375253
vt 0.448314 0.464257
vt 0.418464 0.464505
vt 0.358379 0.405089
vt 0.369834 0.432527
vt 0.390932 0.453390
vt 0.618759 0.431730
vt 0.739100 0.431730
vt 0.665210 0.464350
vt 0.638822 0.452895
vt 0.608326 0.404076
vt 0.719098 0.452895
vt 0.693110 0.464350
vt 0.750118 0.404076
vt 0.609113 0.374143
vt 0.750634 0.374143
vt 0.740569 0.346489
vt 0.620998 0.346489
vt 0.721361 0.325324
vt 0.695852 0.313869
vt 0.668023 0.313869
vt 0.642098 0.325324
vt -0.390642 0.326234
vt -0.508051 0.373677
vt -0.418127 0.314520
vt -0.447910 0.314204
vt -0.496558 0.346201
vt -0.475451 0.325329
vt -0.508191 0.403586
vt -0.369639 0.347563
vt -0.496887 0.431302
vt -0.358310 0.375253
vt -0.475861 0.452607
vt -0.448314 0.464257
vt -0.418464 0.464505
vt -0.358379 0.405089
vt -0.369834 0.432527
vt -0.390932 0.453390
vt -0.739100 0.431730
vt -0.618759 0.431730
vt -0.665210 0.464350
vt -0.638822 0.452895
vt -0.608326 0.404076
vt -0.719098 0.452895
vt -0.693110 0.464350
vt -0.750118 0.404076
vt -0.609113 0.374143
vt -0.750634 0.374143
vt -0.740569 0.346489
vt -0.620998 0.346489
vt -0.721361 0.325324
vt -0.695852 0.313869
vt -0.668023 0.313869
vt -0.642098 0.325324
s 1
f 64/60/59 65/61/60 66/62/61
f 67/63/62 66/62/61 65/61/60
f 65/61/60 64/60/59 68/64/63
f 69/65/64 66/62/61 67/63/62
f 70/66/65 68/64/63 64/60/59
f 71/67/66 69/65/64 67/63/62
f 69/65/64 71/67/66 72/68/67
f 73/69/68 68/64/63 70/66/65
f 68/64/63 73/69/68 74/70/69
f 75/71/70 74/70/69 73/69/68
f 76/72/71 74/70/69 75/71/70
f 74/70/69 76/72/71 77/73/72
f 77/73/72 76/72/71 78/74/73
f 78/74/73 76/72/71 79/75/74
f 80/76/75 81/77/76 82/78/77
f 80/76/75 82/78/77 83/79/78
f 84/80/79 81/77/76 80/76/75
f 85/81/80 82/78/77 81/77/76
f 82/78/77 85/81/80 86/82/81
f 87/83/82 81/77/76 84/80/79
f 88/84/83 87/83/82 84/80/79
f 87/83/82 88/84/83 89/85/84
f 89/85/84 88/84/83 90/86/85
f 91/87/86 90/86/85 88/84/83
f 90/86/85 91/87/86 92/88/87
f 92/88/87 91/87/86 93/89/88
f 93/89/88 91/87/86 94/90/89
f 94/90/89 91/87/86 95/91/90
f 96/92/91 97/93/92 98/94/93
f 99/95/94 98/94/93 97/93/92
f 100/96/95 99/95/94 97/93/92
f 99/95/94 100/96/95 101/97/96
f 97/93/92 96/92/91 102/98/97
f 103/99/98 102/98/97 96/92/91
f 102/98/97 103/99/98 104/100/99
f 105/101/100 104/100/99 103/99/98
f 104/100/99 105/101/100 106/102/101
f 106/102/101 105/101/100 107/103/102
f 107/103/102 105/101/100 108/104/103
f 109/105/104 108/104/103 105/101/100
f 110/106/105 108/104/103 109/105/104
f 108/104/103 110/106/105 111/107/106
f 112/108/107 113/109/108 114/110/109
f 114/110/109 113/109/108 115/111/110
f 113/109/108 112/108/107 116/112/111
f 112/108/107 114/110/109 117/113/112
f 117/113/112 114/110/109 118/114/113
f 119/115/114 116/112/111 112/108/107
f 116/112/111 119/115/114 120/116/115
f 121/117/116 120/116/115 119/115/114
f 122/118/117 120/116/115 121/117/116
f 120/116/115 122/118/117 123/119/118
f 124/120/119 123/119/118 122/118/117
f 125/121/120 123/119/118 124/120/119
f 125/121/120 126/122/121 123/119/118
f 123/119/118 126/122/121 127/123/122
o mesh_57out.005
v 0.169650 0.146499 -2.274473
v 0.242642 0.146257 -2.271318
v 0.241496 0.196632 -2.282061
v 0.168013 0.197002 -2.285243
v 0.169896 0.055674 -2.224258
v 0.242817 0.055997 -2.222968
v 0.169650 0.146499 -2.274473
v 0.168013 0.197002 -2.285243
v 0.167301 0.195924 -2.255190
v 0.168938 0.145422 -2.244420
v 0.169896 0.055674 -2.224258
v 0.169184 0.054597 -2.194206
v -0.169650 0.146499 -2.274473
v -0.168013 0.197002 -2.285243
v -0.241496 0.196632 -2.282061
v -0.242642 0.146257 -2.271318
v -0.169896 0.055674 -2.224258
v -0.242817 0.055997 -2.222968
v -0.167301 0.195924 -2.255190
v -0.168013 0.197002 -2.285243
v -0.169650 0.146499 -2.274473
v -0.168938 0.145422 -2.244420
v -0.169896 0.055674 -2.224258
v -0.169184 0.054597 -2.194206
vn -0.0401 0.3023 0.9524
vn -0.0321 0.3913 0.9197
vn -0.0415 0.2073 0.9774
vn -0.0413 0.2071 0.9774
vn -0.0269 0.4778 0.8781
vn -0.0177 0.4721 0.8814
vn 0.9992 0.0306 0.0248
vn 0.9990 0.0377 0.0250
vn 0.9994 0.0233 0.0245
vn 0.9996 0.0161 0.0243
vn 0.0401 0.3023 0.9524
vn 0.0413 0.2071 0.9774
vn 0.0415 0.2073 0.9774
vn 0.0321 0.3913 0.9197
vn 0.0269 0.4778 0.8781
vn 0.0177 0.4721 0.8814
vn -0.9990 0.0377 0.0250
vn -0.9992 0.0306 0.0248
vn -0.9994 0.0233 0.0245
vn -0.9996 0.0161 0.0243
vt 0.169650 0.146499
vt 0.242642 0.146257
vt 0.241496 0.196632
vt 0.168013 0.197002
vt 0.169896 0.055674
vt 0.242817 0.055997
vt 0.167301 0.195924
vt 0.168938 0.145422
vt 0.169184 0.054597
vt -0.169650 0.146499
vt -0.168013 0.197002
vt -0.241496 0.196632
vt -0.242642 0.146257
vt -0.169896 0.055674
vt -0.242817 0.055997
vt -0.167301 0.195924
vt -0.168938 0.145422
vt -0.169184 0.054597
s 1
f 128/124/123 129/125/124 130/126/125
f 128/124/123 130/126/125 131/127/126
f 132/128/127 129/125/124 128/124/123
f 132/128/127 133/129/128 129/125/124
f 134/124/129 135/127/130 136/130/130
f 134/124/129 136/130/130 137/131/131
f 138/128/132 134/124/129 137/131/131
f 138/128/132 137/131/131 139/132/132
f 140/133/133 141/134/134 142/135/135
f 140/133/133 142/135/135 143/136/136
f 144/137/137 140/133/133 143/136/136
f 144/137/137 143/136/136 145/138/138
f 146/139/139 147/134/139 148/133/140
f 146/139/139 148/133/140 149/140/141
f 149/140/141 148/133/140 150/137/142
f 149/140/141 150/137/142 151/141/142
