# Blender 4.0.1
# www.blender.org
o Displays1
v 17.634966 7.486468 12.475462
v 17.634966 8.697989 13.500637
v 17.634966 9.071240 12.313537
v 17.634966 9.667994 12.892312
v 17.634966 10.252325 11.950912
v 17.634966 7.370428 13.828237
v 17.634966 9.172813 10.789087
v 17.634966 10.451491 10.789087
v 17.634966 10.252326 9.627262
v 17.634966 7.517015 10.789087
v 17.634966 9.071240 9.264637
v 17.634966 9.667994 8.685862
v 17.634966 8.697989 8.077537
v 17.634966 7.486468 9.102712
v 17.634966 7.370428 7.750012
v 17.634966 5.800123 10.789087
v 17.634966 5.804833 9.047137
v 17.634966 5.885202 7.677487
v 17.634966 4.808540 8.033962
v 17.634966 4.431673 9.141037
v 17.634966 4.382277 10.789087
v 17.634966 4.431673 12.437137
v 17.634966 5.804833 12.531037
v 17.634966 4.808540 13.544212
v 17.634966 5.885202 13.900687
v 17.886965 7.621677 -2.991916
v 18.351215 10.491301 -1.618553
v 18.351215 10.491301 -2.991916
v 17.886965 7.621677 -1.618553
v 17.886965 7.621677 2.403802
v 18.351215 10.491301 1.030439
v 17.886965 7.621677 1.030439
v 18.351215 10.491301 2.403802
v 17.886965 7.621677 1.030439
v 18.351215 10.491301 1.030439
v 17.886965 7.621677 -0.294056
v 18.351215 10.491301 -0.294056
v 18.351215 10.491301 -1.618553
v 17.886965 7.621677 -1.618553
v 18.141216 4.247480 7.182712
v 18.141216 3.673543 6.608774
v 18.141216 3.903433 6.952837
v 18.141216 5.059160 7.182712
v 18.141216 4.653320 7.263412
v 18.141216 5.633098 6.608774
v 18.141216 5.403208 6.952837
v 18.141216 5.059160 5.223165
v 18.141216 5.713820 6.202942
v 18.141216 5.633098 5.797101
v 18.141216 5.403208 5.453054
v 18.141216 3.903433 5.453054
v 18.141216 3.592820 6.202942
v 18.141216 3.673543 5.797101
v 18.141216 4.247480 5.223165
v 18.141216 4.653320 5.142435
v 18.141216 7.283000 7.182712
v 18.141216 6.709063 6.608774
v 18.141216 6.938952 6.952837
v 18.141216 6.709063 5.797101
v 18.141216 6.628340 6.202942
v 18.141216 7.688840 7.263412
v 18.141216 8.438726 6.952837
v 18.141216 8.094680 7.182712
v 18.141216 8.668617 5.797101
v 18.141216 8.668617 6.608774
v 18.141216 8.749340 6.202942
v 18.141216 7.688840 5.142435
v 18.141216 6.938952 5.453054
v 18.141216 7.283000 5.223165
v 18.141216 8.438726 5.453054
v 18.141216 8.094680 5.223165
v 18.216219 6.770285 17.095762
v 18.216219 8.564509 15.301538
v 18.216219 6.324778 16.798086
v 18.216219 7.821320 17.095762
v 18.216219 7.295803 17.200314
v 18.216219 8.266834 16.798086
v 18.216219 8.669044 15.827063
v 18.216219 8.564509 16.352589
v 18.216219 6.770285 14.558362
v 18.216219 8.266834 14.856037
v 18.216219 7.295803 14.453813
v 18.216219 7.821320 14.558362
v 18.216219 6.027095 15.301538
v 18.216219 6.324778 14.856037
v 18.216219 5.922560 15.827063
v 18.216219 6.027095 16.352589
v 13.382463 4.529203 -1.778798
v 12.950463 4.266118 -0.286536
v 13.382463 4.529203 -0.286536
v 12.950463 4.266110 -1.778798
v 21.876219 9.683229 -0.294055
v 21.108963 8.782991 -0.294055
v 21.155470 8.837555 1.087829
v 20.445965 8.005520 0.886814
v 20.340965 7.882760 -0.294056
v 20.759468 8.373799 1.857967
v 20.445965 8.005520 -1.474928
v 21.265718 8.967133 2.446409
v 21.155470 8.837555 -1.675936
v 20.759468 8.373799 -2.446080
v 21.265718 8.967133 -3.034523
v 21.876219 9.683229 1.165987
v 21.876219 9.683230 2.626027
v 22.486717 10.399326 2.407462
v 21.876219 9.683229 -1.754101
v 21.876219 9.683229 -3.214140
v 22.486717 10.399325 -2.995568
v 22.597717 10.528906 1.067174
v 22.992970 10.992663 1.801319
v 23.307217 11.360945 0.847867
v 22.597717 10.528905 -1.655281
v 22.992970 10.992663 -2.389426
v 23.307217 11.360945 -1.435981
v 22.644217 10.583466 -0.294055
v 23.411465 11.483705 -0.294055
v 15.060968 2.719573 -2.036986
v 15.630962 3.151528 0.934814
v 15.630962 3.151528 -2.036986
v 15.060968 2.719573 0.934807
v 21.162214 8.777217 -13.391587
v 18.901712 6.873868 -13.176337
v 21.587469 8.782084 -8.804438
v 19.285719 6.874332 -8.585288
v -6.587032 17.567526 -17.771139
v -6.587032 15.302984 -14.392239
v -6.587032 15.302984 -17.771139
v -6.587032 17.567526 -14.392239
v -6.587032 17.567526 13.804087
v -6.587032 15.302984 17.183062
v -6.587032 15.302984 13.804087
v -6.587032 17.567526 17.183062
v -6.587032 17.567526 -1.983526
v -6.587032 15.302984 1.395404
v -6.587032 15.302984 -1.983526
v -6.587032 17.567526 1.395404
vn -1.0000 -0.0000 -0.0000
vn -0.9874 0.1580 -0.0000
vn -0.5214 0.8533 -0.0000
vn -0.7637 0.6456 -0.0000
vn -0.6063 0.7953 -0.0000
vn -0.6361 0.7696 0.0550
vn 1.0000 -0.0000 -0.0000
vt 0.736971 0.212984
vt 0.806551 0.295211
vt 0.725982 0.320544
vt 0.765265 0.361046
vt 0.701370 0.400705
vt 0.828784 0.205109
vt 0.622518 0.327438
vt 0.622518 0.414222
vt 0.543665 0.400705
vt 0.622518 0.215058
vt 0.519054 0.320544
vt 0.479771 0.361046
vt 0.438485 0.295211
vt 0.508064 0.212984
vt 0.416251 0.205109
vt 0.622518 0.098531
vt 0.504289 0.098851
vt 0.411333 0.104306
vt 0.435525 0.031232
vt 0.510664 0.005654
vt 0.622518 0.002302
vt 0.734371 0.005654
vt 0.740746 0.098851
vt 0.809510 0.031232
vt 0.833703 0.104306
vt 0.454811 0.711073
vt 0.594236 0.993239
vt 0.457076 0.992631
vt 0.591971 0.711681
vt 0.993689 0.713462
vt 0.858793 0.994412
vt 0.856529 0.712854
vt 0.995954 0.995020
vt 0.724250 0.712268
vt 0.726515 0.993825
vt 0.447315 0.641182
vt 0.380094 0.573962
vt 0.420390 0.600887
vt 0.447315 0.736246
vt 0.456770 0.688714
vt 0.380094 0.803467
vt 0.420390 0.776542
vt 0.217809 0.736246
vt 0.332563 0.812922
vt 0.285030 0.803467
vt 0.244734 0.776542
vt 0.244734 0.600887
vt 0.332563 0.564507
vt 0.285030 0.573962
vt 0.217809 0.641182
vt 0.208355 0.688714
vt 0.989312 0.378513
vt 0.921807 0.311008
vt 0.962273 0.338047
vt 0.826341 0.311008
vt 0.874075 0.301514
vt 0.998807 0.426246
vt 0.962273 0.514445
vt 0.989312 0.473979
vt 0.826341 0.541483
vt 0.921807 0.541483
vt 0.874075 0.550978
vt 0.749342 0.426246
vt 0.785876 0.338047
vt 0.758837 0.378513
vt 0.785876 0.514445
vt 0.758837 0.473979
vt 0.761364 0.507240
vt 0.579970 0.688634
vt 0.731269 0.462199
vt 0.761364 0.613498
vt 0.771933 0.560369
vt 0.731269 0.658538
vt 0.633100 0.699202
vt 0.686229 0.688634
vt 0.504835 0.507240
vt 0.534931 0.658538
vt 0.494266 0.560369
vt 0.504835 0.613498
vt 0.579970 0.432104
vt 0.534931 0.462199
vt 0.633100 0.421536
vt 0.686229 0.432104
vt 0.845794 0.005220
vt 0.909606 0.217741
vt 0.845794 0.217800
vt 0.909607 0.005161
vt 0.197833 0.160971
vt 0.197833 0.082733
vt 0.290973 0.087474
vt 0.277424 0.015163
vt 0.197833 0.004494
vt 0.342880 0.047170
vt 0.118242 0.015163
vt 0.382541 0.098736
vt 0.104694 0.087474
vt 0.052786 0.047170
vt 0.013126 0.098736
vt 0.296241 0.160971
vt 0.394648 0.160971
vt 0.379916 0.223206
vt 0.099426 0.160971
vt 0.001019 0.160971
vt 0.015751 0.223206
vt 0.289580 0.234468
vt 0.339062 0.274772
vt 0.274799 0.306779
vt 0.106086 0.234467
vt 0.056605 0.274772
vt 0.120867 0.306779
vt 0.197833 0.239209
vt 0.197833 0.317448
vt 0.989119 0.005574
vt 0.931107 0.271344
vt 0.931107 0.005607
vt 0.989119 0.271310
vt 0.003060 0.562386
vt 0.003060 0.315910
vt 0.414090 0.562385
vt 0.414090 0.315910
vt 0.301268 0.997460
vt 0.001117 0.809527
vt 0.301268 0.809527
vt 0.001117 0.997460
s 0
f 1/1/1 2/2/1 3/3/1
f 4/4/1 3/3/1 2/2/1
f 3/3/1 4/4/1 5/5/1
f 2/2/1 1/1/1 6/6/1
f 5/5/1 7/7/1 3/3/1
f 7/7/1 5/5/1 8/8/1
f 7/7/1 8/8/1 9/9/1
f 10/10/1 3/3/1 7/7/1
f 3/3/1 10/10/1 1/1/1
f 9/9/1 11/11/1 7/7/1
f 11/11/1 10/10/1 7/7/1
f 11/11/1 9/9/1 12/12/1
f 12/12/1 13/13/1 11/11/1
f 14/14/1 11/11/1 13/13/1
f 11/11/1 14/14/1 10/10/1
f 13/13/1 15/15/1 14/14/1
f 16/16/1 1/1/1 10/10/1
f 14/14/1 16/16/1 10/10/1
f 15/15/1 17/17/1 14/14/1
f 14/14/1 17/17/1 16/16/1
f 15/15/1 18/18/1 17/17/1
f 19/19/1 17/17/1 18/18/1
f 17/17/1 19/19/1 20/20/1
f 20/20/1 16/16/1 17/17/1
f 16/16/1 20/20/1 21/21/1
f 16/16/1 21/21/1 22/22/1
f 1/1/1 16/16/1 23/23/1
f 16/16/1 22/22/1 23/23/1
f 23/23/1 6/6/1 1/1/1
f 23/23/1 22/22/1 24/24/1
f 6/6/1 23/23/1 25/25/1
f 23/23/1 24/24/1 25/25/1
f 26/26/2 27/27/2 28/28/2
f 27/27/2 26/26/2 29/29/2
f 30/30/2 31/31/2 32/32/2
f 31/31/2 30/30/2 33/33/2
f 34/32/2 35/31/2 36/34/2
f 37/35/2 36/34/2 35/31/2
f 38/27/2 36/34/2 37/35/2
f 38/27/2 39/29/2 36/34/2
f 40/36/1 41/37/1 42/38/1
f 43/39/1 40/36/1 44/40/1
f 40/36/1 43/39/1 45/41/1
f 45/41/1 43/39/1 46/42/1
f 47/43/1 40/36/1 45/41/1
f 40/36/1 47/43/1 41/37/1
f 47/43/1 45/41/1 48/44/1
f 47/43/1 48/44/1 49/45/1
f 47/43/1 49/45/1 50/46/1
f 51/47/1 41/37/1 47/43/1
f 41/37/1 51/47/1 52/48/1
f 52/48/1 51/47/1 53/49/1
f 51/47/1 47/43/1 54/50/1
f 54/50/1 47/43/1 55/51/1
f 56/52/1 57/53/1 58/54/1
f 56/52/1 59/55/1 57/53/1
f 57/53/1 59/55/1 60/56/1
f 61/57/1 59/55/1 56/52/1
f 62/58/1 59/55/1 61/57/1
f 62/58/1 61/57/1 63/59/1
f 59/55/1 62/58/1 64/60/1
f 64/60/1 62/58/1 65/61/1
f 64/60/1 65/61/1 66/62/1
f 67/63/1 59/55/1 64/60/1
f 59/55/1 67/63/1 68/64/1
f 68/64/1 67/63/1 69/65/1
f 67/63/1 64/60/1 70/66/1
f 67/63/1 70/66/1 71/67/1
f 72/68/1 73/69/1 74/70/1
f 75/71/1 72/68/1 76/72/1
f 75/71/1 73/69/1 72/68/1
f 77/73/1 73/69/1 75/71/1
f 77/73/1 78/74/1 73/69/1
f 78/74/1 77/73/1 79/75/1
f 74/70/1 73/69/1 80/76/1
f 80/76/1 73/69/1 81/77/1
f 81/77/1 82/78/1 80/76/1
f 82/78/1 81/77/1 83/79/1
f 80/76/1 84/80/1 74/70/1
f 84/80/1 80/76/1 85/81/1
f 74/70/1 84/80/1 86/82/1
f 74/70/1 86/82/1 87/83/1
f 88/84/3 89/85/3 90/86/3
f 89/85/3 88/84/3 91/87/3
f 92/88/4 93/89/4 94/90/4
f 93/89/4 95/91/4 94/90/4
f 93/89/4 96/92/4 95/91/4
f 94/90/4 95/91/4 97/93/4
f 93/89/4 98/94/4 96/92/4
f 94/90/4 97/93/4 99/95/4
f 98/94/4 93/89/4 100/96/4
f 92/88/4 100/96/4 93/89/4
f 100/96/4 101/97/4 98/94/4
f 101/97/4 100/96/4 102/98/4
f 103/99/4 94/90/4 99/95/4
f 92/88/4 94/90/4 103/99/4
f 103/99/4 99/95/4 104/100/4
f 105/101/4 103/99/4 104/100/4
f 106/102/4 102/98/4 100/96/4
f 100/96/4 92/88/4 106/102/4
f 102/98/4 106/102/4 107/103/4
f 107/103/4 106/102/4 108/104/4
f 103/99/4 105/101/4 109/105/4
f 109/105/4 92/88/4 103/99/4
f 110/106/4 109/105/4 105/101/4
f 109/105/4 110/106/4 111/107/4
f 108/104/4 106/102/4 112/108/4
f 112/108/4 106/102/4 92/88/4
f 108/104/4 112/108/4 113/109/4
f 112/108/4 114/110/4 113/109/4
f 111/107/4 115/111/4 109/105/4
f 92/88/4 109/105/4 115/111/4
f 112/108/4 92/88/4 115/111/4
f 114/110/4 112/108/4 115/111/4
f 115/111/4 111/107/4 116/112/4
f 114/110/4 115/111/4 116/112/4
f 117/113/5 118/114/5 119/115/5
f 118/114/5 117/113/5 120/116/5
f 121/117/6 122/118/6 123/119/6
f 122/118/6 124/120/6 123/119/6
f 125/121/7 126/122/7 127/123/7
f 126/122/7 125/121/7 128/124/7
f 129/121/7 130/122/7 131/123/7
f 130/122/7 129/121/7 132/124/7
f 133/121/7 134/122/7 135/123/7
f 134/122/7 133/121/7 136/124/7
