# Blender 4.0.1
# www.blender.org
o KIT00_BODY_A.013
v 91.857475 21.220652 -0.544462
v 92.310440 17.204252 -0.527362
v 92.294968 16.713139 -0.270155
v 92.225182 16.366098 0.217002
v 92.180420 16.287792 0.684378
v 91.411896 17.915865 4.382222
v 91.305473 18.363482 4.751018
v 91.216263 18.911013 4.975402
v 91.163033 19.343590 5.026543
v 90.715240 23.819065 5.040885
v 92.310417 -17.204237 -0.527336
v 91.857452 -21.220636 -0.544429
v 92.294945 -16.713125 -0.270127
v 92.225159 -16.366085 0.217030
v 92.180397 -16.287779 0.684405
v 91.411873 -17.915844 4.382252
v 91.305450 -18.363462 4.751048
v 91.216248 -18.910994 4.975433
v 91.163010 -19.343571 5.026574
v 90.715218 -23.819044 5.040918
v 91.290329 -22.611706 2.174773
v 91.262390 -22.781206 2.173532
v 91.834007 -21.426508 -0.555912
v 91.631905 -23.352737 -0.559439
v 91.016235 -26.847794 -0.564584
v 90.279190 -29.411196 -0.571470
v 89.159889 -31.361738 -0.583338
v 87.458107 -32.702396 -0.600082
v 85.208473 -33.361618 -0.620163
v 84.023598 -33.627743 -0.602763
v 83.068611 -33.846752 -0.240635
v 82.779602 -33.862446 0.251742
v 82.640152 -33.823532 0.835757
v 82.676529 -33.727139 1.463838
v 82.857025 -33.598629 2.074906
v 84.719719 -32.675755 5.205991
v 85.467819 -32.299614 6.456688
v 86.571953 -31.818213 7.406800
v 87.505165 -31.366793 7.872442
v 88.086487 -31.038031 8.013432
v 88.667816 -30.510145 8.108408
v 89.324905 -29.150286 8.221633
v 90.010147 -26.834402 8.246490
v 90.242813 -25.430834 8.227562
v 90.237999 -25.184324 7.806691
v 90.332230 -24.683035 6.657355
v 90.646446 -24.062948 5.198359
v 89.159904 31.361759 -0.583382
v 87.458115 32.702415 -0.600124
v 85.208481 33.361637 -0.620208
v 84.023613 33.627758 -0.602806
v 83.068626 33.846767 -0.240679
v 82.779617 33.862465 0.251699
v 82.640175 33.823551 0.835714
v 82.676544 33.727154 1.463795
v 82.857048 33.598644 2.074860
v 84.719742 32.675781 5.205945
v 85.467834 32.299637 6.456644
v 86.571968 31.818241 7.406756
v 87.505188 31.366817 7.872401
v 88.086510 31.038057 8.013389
v 88.667839 30.510174 8.108368
v 89.324928 29.150311 8.221592
v 90.010170 26.834427 8.246450
v 90.242836 25.430859 8.227525
v 90.238022 25.184349 7.806653
v 90.332245 24.683060 6.657321
v 90.646469 24.062969 5.198326
v 91.290352 22.611725 2.174739
v 91.262405 22.781223 2.173497
v 91.834030 21.426521 -0.555945
v 91.631927 23.352755 -0.559475
v 91.016251 26.847813 -0.564623
v 90.279213 29.411213 -0.571512
v 85.251747 33.040710 2.172507
v 87.506592 32.388477 2.172508
v 85.414360 32.572975 5.205948
v 87.576118 31.917517 5.205949
v 87.712807 31.611689 6.581632
v 88.724525 30.812378 6.634169
v 89.416634 29.287764 6.634170
v 90.078667 26.821159 6.634171
v 89.002213 31.192131 2.172506
v 88.849266 30.987551 5.205950
v 89.581192 29.348125 5.205951
v 90.253906 26.828903 5.205952
v 90.677429 26.851057 2.172510
v 89.953812 29.388775 2.172509
v 91.143089 23.656265 2.172512
v 85.251724 -33.040691 2.172550
v 87.576103 -31.917496 5.205993
v 87.712784 -31.611664 6.581676
v 85.414337 -32.572952 5.205994
v 87.506577 -32.388462 2.172550
v 89.002197 -31.192108 2.172549
v 89.953789 -29.388754 2.172551
v 88.849251 -30.987528 5.205993
v 89.581169 -29.348101 5.205992
v 88.724503 -30.812351 6.634212
v 89.416611 -29.287735 6.634211
v 90.078644 -26.821131 6.634210
v 90.253883 -26.828882 5.205991
v 90.677406 -26.851032 2.172549
v 91.143074 -23.656244 2.172548
vn 0.3564 0.9223 0.1497
vn 0.2789 0.9421 0.1864
vn 0.5178 0.8456 -0.1298
vn 0.2481 0.9556 0.1591
vn 0.2871 0.9500 0.1225
vn 0.2660 0.9555 0.1272
vn 0.2344 0.9652 0.1159
vn 0.2224 0.9648 0.1402
vn 0.2362 0.9637 0.1245
vn 0.4507 0.8876 0.0948
vn 0.4585 0.8820 0.1094
vn 0.2278 0.9599 0.1633
vn 0.4481 0.8830 0.1399
vn 0.4990 0.8484 0.1765
vn 0.6095 0.7761 0.1618
vn 0.8037 0.5781 0.1405
vn 0.8235 0.5508 0.1357
vn 0.9422 0.3269 0.0738
vn 0.9412 0.3255 0.0902
vn 0.9797 0.1959 0.0438
vn 0.9823 0.1771 0.0608
vn 0.2315 0.9637 0.1330
vn 0.1661 0.9738 0.1550
vn 0.2606 0.9653 0.0155
vn 0.7349 0.6726 0.0871
vn 0.7690 0.6287 0.1157
vn 0.9379 0.3240 0.1238
vn 0.9742 0.1818 0.1335
vn 0.9683 0.2147 0.1275
vn 0.9117 0.3979 0.1029
vn 0.9307 0.3473 0.1147
vn 0.7759 0.6241 0.0921
vn 0.9719 0.1960 0.1308
vn 0.9930 0.1165 -0.0167
vn 0.9961 0.0857 -0.0226
vn 0.9854 0.1320 0.1074
vn 0.9796 0.1414 0.1424
vn 0.9789 0.1450 0.1442
vn 0.9783 0.1358 0.1568
vn 0.9805 0.1297 0.1475
vn 0.9803 0.1123 0.1628
vn 0.2864 -0.9522 0.1058
vn 0.2586 -0.9658 0.0184
vn 0.2211 -0.9653 0.1390
vn 0.2411 -0.9629 0.1209
vn 0.2663 -0.9555 0.1273
vn 0.2327 -0.9633 0.1337
vn 0.2875 -0.9496 0.1248
vn 0.1706 -0.9725 0.1586
vn 0.2362 -0.9637 0.1245
vn 0.4506 -0.8876 0.0950
vn 0.4481 -0.8830 0.1399
vn 0.4990 -0.8484 0.1765
vn 0.2780 -0.9413 0.1917
vn 0.2278 -0.9599 0.1633
vn 0.4583 -0.8820 0.1093
vn 0.7759 -0.6241 0.0921
vn 0.7349 -0.6726 0.0871
vn 0.9116 -0.3979 0.1029
vn 0.7690 -0.6287 0.1157
vn 0.9380 -0.3239 0.1238
vn 0.8235 -0.5508 0.1357
vn 0.9412 -0.3255 0.0902
vn 0.9223 -0.3781 0.0800
vn 0.9796 -0.1957 0.0446
vn 0.9823 -0.1772 0.0607
vn 0.9931 -0.1162 -0.0173
vn 0.9952 -0.0972 -0.0103
vn 0.7881 -0.5999 0.1379
vn 0.9742 -0.1819 0.1335
vn 0.9683 -0.2147 0.1275
vn 0.9305 -0.3473 0.1161
vn 0.9718 -0.1961 0.1312
vn 0.9854 -0.1324 0.1070
vn 0.9801 -0.1388 0.1417
vn 0.9789 -0.1450 0.1442
vn 0.9779 -0.1373 0.1578
vn 0.9789 -0.1326 0.1552
vn 0.9803 -0.1123 0.1626
vn 0.6091 -0.7758 0.1648
vn 0.4263 -0.8904 0.1591
vn 0.5183 -0.8455 -0.1280
vn 0.9791 0.1045 0.1742
vn 0.9859 0.0773 0.1485
vn 0.9847 0.0355 0.1708
vn 0.9832 0.1007 0.1525
vn 0.9862 0.0899 0.1388
vn 0.9821 0.1013 0.1585
vn 0.9818 0.1041 0.1588
vn 0.9821 0.0946 0.1627
vn 0.9813 0.1074 0.1596
vn 0.9955 -0.0546 0.0770
vn 0.9827 0.1115 0.1479
vn 0.9819 -0.1045 0.1581
vn 0.9827 -0.1115 0.1479
vn 0.9792 -0.1047 0.1739
vn 0.9828 -0.0786 0.1671
vn 0.9813 -0.1074 0.1594
vn 0.9821 -0.0944 0.1629
vn 0.9819 -0.1041 0.1585
vn 0.9822 -0.1011 0.1581
vn 0.9862 -0.0897 0.1389
vn 0.9846 -0.0402 0.1700
vn 0.9958 0.0552 0.0733
vt 0.248047 0.728516
vt 0.148438 0.638672
vt 0.210938 0.714844
vt 0.056641 0.035156
vt 0.048828 0.050781
vt 0.041016 0.064453
vt 0.044922 0.205078
vt 0.111328 0.019531
vt 0.117188 0.205078
vt 0.207031 0.019531
vt 0.210938 0.205078
vt 0.130859 0.490234
vt 0.220703 0.488281
vt 0.236328 0.638672
vt 0.267578 0.730469
vt 0.308594 0.736328
vt 0.308594 0.638672
vt 0.373047 0.740234
vt 0.378906 0.638672
vt 0.486328 0.740234
vt 0.492188 0.638672
vt 0.037109 0.099609
vt 0.097656 0.488281
vt 0.072266 0.027344
vt 0.308594 0.205078
vt 0.308594 0.488281
vt 0.388672 0.488281
vt 0.501953 0.488281
vt 0.521484 0.205078
vt 0.402344 0.205078
vt 0.414062 0.019531
vt 0.308594 0.019531
vt 0.533203 0.019531
vt 0.537109 0.738281
vt 0.552734 0.691406
vt 0.568359 0.638672
vt 0.617188 0.484375
vt 0.656250 0.205078
vt 0.681641 0.019531
vt 0.701172 0.205078
vt 0.761719 0.019531
vt 0.949219 0.476562
vt 0.988281 0.585938
vt 0.972656 0.505859
vt 0.683594 0.714844
vt 0.619141 0.968750
vt 0.849609 0.970703
vt 0.878906 0.951172
vt 0.904297 0.921875
vt 0.917969 0.878906
vt 0.986328 0.541016
vt 0.751953 0.476562
s 1
f 60/1/1 58/2/2 59/3/3
f 52/4/4 53/5/5 54/6/6
f 56/7/7 52/4/4 54/6/6
f 56/7/7 50/8/8 52/4/4
f 56/7/7 75/9/9 50/8/8
f 49/10/10 50/8/8 75/9/9
f 75/9/9 76/11/11 49/10/10
f 76/11/11 75/9/9 77/12/12
f 77/12/12 78/13/13 76/11/11
f 78/13/13 77/12/12 58/2/2
f 58/2/2 79/14/14 78/13/13
f 60/1/1 79/14/14 58/2/2
f 60/1/1 61/15/15 79/14/14
f 79/14/14 61/15/15 62/16/16
f 62/16/16 80/17/17 79/14/14
f 80/17/17 62/16/16 63/18/18
f 63/18/18 81/19/19 80/17/17
f 81/19/19 63/18/18 64/20/20
f 64/20/20 82/21/21 81/19/19
f 56/7/7 54/6/6 55/22/22
f 57/23/23 58/2/2 77/12/12
f 57/23/23 77/12/12 75/9/9
f 75/9/9 56/7/7 57/23/23
f 50/8/8 51/24/24 52/4/4
f 83/25/25 76/11/11 78/13/13
f 78/13/13 84/26/26 83/25/25
f 84/26/26 78/13/13 79/14/14
f 79/14/14 80/17/17 84/26/26
f 85/27/27 84/26/26 80/17/17
f 80/17/17 81/19/19 85/27/27
f 85/27/27 81/19/19 82/21/21
f 82/21/21 86/28/28 85/27/27
f 85/27/27 86/28/28 87/29/29
f 87/29/29 88/30/30 85/27/27
f 74/31/31 88/30/30 87/29/29
f 88/30/30 74/31/31 48/32/32
f 48/32/32 83/25/25 88/30/30
f 76/11/11 83/25/25 48/32/32
f 48/32/32 49/10/10 76/11/11
f 84/26/26 85/27/27 88/30/30
f 88/30/30 83/25/25 84/26/26
f 87/29/29 73/33/33 74/31/31
f 82/21/21 64/20/20 65/34/34
f 82/21/21 65/34/34 66/35/35
f 82/21/21 66/35/35 67/36/36
f 86/28/28 82/21/21 67/36/36
f 67/36/36 68/37/37 86/28/28
f 87/29/29 86/28/28 68/37/37
f 68/37/37 89/38/38 87/29/29
f 73/33/33 87/29/29 89/38/38
f 89/38/38 72/39/39 73/33/33
f 72/39/39 89/38/38 70/40/40
f 70/40/40 71/41/41 72/39/39
f 89/38/38 68/37/37 70/40/40
f 31/4/42 30/24/43 29/8/44
f 35/7/45 31/4/42 29/8/44
f 35/7/45 33/6/46 31/4/42
f 35/7/45 34/22/47 33/6/46
f 33/6/46 32/5/48 31/4/42
f 36/23/49 35/7/45 90/9/50
f 35/7/45 29/8/44 90/9/50
f 90/9/50 29/8/44 28/10/51
f 91/13/52 92/14/53 37/2/54
f 37/2/54 93/12/55 91/13/52
f 37/2/54 36/23/49 93/12/55
f 90/9/50 93/12/55 36/23/49
f 93/12/55 90/9/50 94/11/56
f 28/10/51 94/11/56 90/9/50
f 94/11/56 28/10/51 27/32/57
f 27/32/57 95/25/58 94/11/56
f 96/30/59 95/25/58 27/32/57
f 97/26/60 95/25/58 96/30/59
f 96/30/59 98/27/61 97/26/60
f 99/17/62 97/26/60 98/27/61
f 98/27/61 100/19/63 99/17/62
f 99/17/62 100/19/63 42/18/64
f 43/20/65 42/18/64 100/19/63
f 100/19/63 101/21/66 43/20/65
f 101/21/66 44/34/67 43/20/65
f 101/21/66 45/35/68 44/34/67
f 94/11/56 91/13/52 93/12/55
f 91/13/52 94/11/56 95/25/58
f 95/25/58 97/26/60 91/13/52
f 92/14/53 91/13/52 97/26/60
f 97/26/60 99/17/62 92/14/53
f 92/14/53 99/17/62 41/16/69
f 42/18/64 41/16/69 99/17/62
f 101/21/66 100/19/63 98/27/61
f 98/27/61 102/28/70 101/21/66
f 103/29/71 102/28/70 98/27/61
f 98/27/61 96/30/59 103/29/71
f 103/29/71 96/30/59 26/31/72
f 27/32/57 26/31/72 96/30/59
f 26/31/72 25/33/73 103/29/71
f 101/21/66 46/36/74 45/35/68
f 46/36/74 101/21/66 102/28/70
f 102/28/70 47/37/75 46/36/74
f 47/37/75 102/28/70 103/29/71
f 103/29/71 104/38/76 47/37/75
f 104/38/76 103/29/71 25/33/73
f 25/33/73 24/39/77 104/38/76
f 22/40/78 104/38/76 24/39/77
f 24/39/77 23/41/79 22/40/78
f 47/37/75 104/38/76 22/40/78
f 41/16/69 40/15/80 92/14/53
f 39/1/81 92/14/53 40/15/80
f 39/1/81 37/2/54 92/14/53
f 39/1/81 38/3/82 37/2/54
f 2/42/83 5/43/84 3/44/85
f 2/42/83 69/45/86 5/43/84
f 69/45/86 10/46/87 5/43/84
f 10/46/87 9/47/88 5/43/84
f 9/47/88 8/48/89 5/43/84
f 8/48/89 7/49/90 5/43/84
f 7/49/90 6/50/91 5/43/84
f 5/43/84 4/51/92 3/44/85
f 2/42/83 1/52/93 69/45/86
f 21/45/94 12/52/95 11/42/96
f 15/43/97 16/50/98 17/49/99
f 15/43/97 17/49/99 18/48/100
f 15/43/97 18/48/100 19/47/101
f 15/43/97 19/47/101 20/46/102
f 21/45/94 15/43/97 20/46/102
f 21/45/94 11/42/96 15/43/97
f 11/42/96 13/44/103 15/43/97
f 13/44/103 14/51/104 15/43/97
