# Blender 4.0.1
# www.blender.org
o _035__BMW_M3_E36_KIT00_BOOT_LODA_
v -83.731857 34.493896 21.326399
v -83.976959 35.929272 21.360067
v -84.400284 35.875046 19.443195
v -84.151001 34.449249 19.174610
v -84.573944 34.450768 15.057310
v -84.920502 35.853882 15.092118
v -85.701401 36.032253 0.000000
v -85.447563 35.005341 0.707940
v -85.620079 35.718525 0.596638
v -85.336594 34.512024 0.225910
v -85.506081 35.251469 -0.746244
v -85.645920 35.823822 -0.528656
v -85.732178 36.733124 -0.473784
v -85.673660 36.514057 -0.903754
v -85.678596 36.823334 -0.504982
v -85.616653 36.590282 -0.962350
v -85.704437 36.903214 0.000000
v -85.756493 36.808022 0.000000
v -85.732178 36.733124 0.473784
v -85.673660 36.514015 0.903754
v -85.586639 36.170914 1.246894
v -85.479477 35.736462 1.468244
v -85.410698 35.765377 1.561382
v -85.524315 36.225941 1.326694
v -85.616653 36.590282 0.962350
v -85.678596 36.823334 0.504982
v -85.069839 33.994884 -0.904856
v -85.146980 34.337299 -1.247274
v -85.058441 34.282619 -1.326960
v -85.358261 34.618160 -0.431832
v -85.023094 33.776192 -0.475646
v -85.248062 34.771107 -1.468320
v -85.362816 35.253632 -1.544738
v -85.286819 35.253937 -1.642398
v -85.410698 35.765377 -1.561382
v -85.165596 34.742725 -1.561420
v -84.975975 33.918770 -0.963148
v -84.926582 33.686020 -0.506312
v -85.586639 36.170914 -1.246894
v -85.524315 36.225941 -1.326694
v -85.479477 35.736462 -1.468244
v -85.013222 33.700649 0.000000
v -84.915932 33.605648 0.000000
v -85.023094 33.776192 0.475608
v -85.069839 33.994884 0.904856
v -85.146980 34.337299 1.247274
v -85.248062 34.771107 1.468320
v -84.975975 33.918770 0.963110
v -84.926582 33.686020 0.506274
v -85.058441 34.282619 1.326960
v -85.165596 34.742725 1.561420
v -85.362816 35.253632 1.544738
v -85.286819 35.253937 1.642360
v -85.659599 32.345837 0.000000
v -85.641365 32.732182 -0.125628
v -85.648201 32.584625 -0.328966
v -85.641365 32.732182 0.125628
v -85.648201 32.584625 0.328966
v -85.659599 32.345837 0.406638
v -85.670616 32.107082 0.328966
v -85.677460 31.959488 0.125628
v -85.677460 31.959488 -0.125628
v -85.670616 32.107082 -0.328966
v -85.659599 32.345837 -0.406638
vn -0.9618 -0.1825 0.2041
vn -0.9621 -0.1689 0.2140
vn -0.9682 -0.1964 0.1552
vn -0.9705 -0.1965 0.1395
vn -0.9670 -0.2299 0.1101
vn -0.9637 -0.2414 0.1138
vn -0.9902 -0.1395 0.0020
vn -0.9616 -0.2571 0.0962
vn -0.9803 -0.1788 0.0845
vn -0.9496 -0.3120 0.0294
vn -0.9675 -0.2316 -0.1020
vn -0.9830 -0.1648 -0.0804
vn -0.9658 0.2097 -0.1528
vn -0.9512 0.1412 -0.2745
vn -0.8714 0.4367 -0.2233
vn -0.8544 0.3272 -0.4037
vn -0.8782 0.4783 -0.0000
vn -0.9715 0.2371 -0.0000
vn -0.9670 0.2040 0.1530
vn -0.9529 0.1372 0.2706
vn -0.9319 0.0353 0.3610
vn -0.9096 -0.0845 0.4067
vn -0.8034 -0.0099 0.5953
vn -0.8314 0.1687 0.5295
vn -0.8556 0.3258 0.4023
vn -0.8726 0.4353 0.2216
vn -0.8296 -0.5052 -0.2379
vn -0.8460 -0.4230 -0.3246
vn -0.7275 -0.5073 -0.4620
vn -0.9525 -0.2985 -0.0609
vn -0.8237 -0.5524 -0.1278
vn -0.8642 -0.3241 -0.3850
vn -0.8848 -0.2045 -0.4188
vn -0.7743 -0.1907 -0.6034
vn -0.8026 -0.0079 -0.5965
vn -0.7485 -0.3615 -0.5560
vn -0.7115 -0.6192 -0.3322
vn -0.7014 -0.6900 -0.1789
vn -0.9313 0.0334 -0.3627
vn -0.8303 0.1704 -0.5307
vn -0.9094 -0.0786 -0.4085
vn -0.8216 -0.5701 -0.0019
vn -0.6983 -0.7158 -0.0000
vn -0.8204 -0.5574 0.1276
vn -0.8306 -0.5046 0.2356
vn -0.8457 -0.4268 0.3205
vn -0.8630 -0.3244 0.3873
vn -0.7111 -0.6208 0.3300
vn -0.7009 -0.6910 0.1767
vn -0.7275 -0.5090 0.4600
vn -0.7487 -0.3636 0.5542
vn -0.8863 -0.2063 0.4147
vn -0.7750 -0.1928 0.6019
vn -0.9990 0.0451 -0.0000
vn -0.9990 0.0450 -0.0000
vt 0.835449 0.004394
vt 0.835449 0.191895
vt 0.586914 0.191406
vt 0.556641 0.004394
vt 0.023284 0.004394
vt 0.023437 0.190918
vt 0.396484 0.785522
vt 0.538574 0.586670
vt 0.516113 0.724609
vt 0.441895 0.491699
vt 0.246826 0.634277
vt 0.290527 0.745117
vt 0.301514 0.915405
vt 0.215210 0.872803
vt 0.295166 0.929687
vt 0.203491 0.884338
vt 0.396484 0.945435
vt 0.396484 0.930115
vt 0.491699 0.915405
vt 0.577637 0.872803
vt 0.646484 0.806152
vt 0.690918 0.722168
vt 0.709961 0.724609
vt 0.662598 0.813721
vt 0.589355 0.884338
vt 0.497803 0.929687
vt 0.214966 0.385742
vt 0.146240 0.451660
vt 0.130249 0.437988
vt 0.309814 0.511963
vt 0.301025 0.343750
vt 0.101929 0.535400
vt 0.086608 0.628662
vt 0.067016 0.625488
vt 0.083252 0.724609
vt 0.083252 0.526611
vt 0.203247 0.367676
vt 0.294922 0.322754
vt 0.146362 0.806152
vt 0.130371 0.813721
vt 0.101929 0.722168
vt 0.396484 0.329102
vt 0.396484 0.307617
vt 0.491943 0.343750
vt 0.578125 0.385742
vt 0.646973 0.451660
vt 0.690918 0.535400
vt 0.589844 0.367676
vt 0.498047 0.322754
vt 0.662598 0.437988
vt 0.709961 0.526611
vt 0.706543 0.628662
vt 0.726074 0.625488
vt 0.891113 0.894592
vt 0.872070 0.952667
vt 0.841309 0.930481
vt 0.909668 0.952667
vt 0.940430 0.930481
vt 0.952148 0.894592
vt 0.940430 0.858765
vt 0.909668 0.836548
vt 0.872070 0.836548
vt 0.841309 0.858765
vt 0.829590 0.894592
s 1
f 1/1/1 2/2/2 3/3/3
f 3/3/3 4/4/4 1/1/1
f 5/5/5 4/4/4 3/3/3
f 3/3/3 6/6/6 5/5/5
f 7/7/7 8/8/8 9/9/9
f 7/7/7 10/10/10 8/8/8
f 7/7/7 11/11/11 10/10/10
f 7/7/7 12/12/12 11/11/11
f 12/12/12 7/7/7 13/13/13
f 13/13/13 14/14/14 12/12/12
f 14/14/14 13/13/13 15/15/15
f 15/15/15 16/16/16 14/14/14
f 17/17/17 15/15/15 13/13/13
f 18/18/18 13/13/13 7/7/7
f 13/13/13 18/18/18 17/17/17
f 19/19/19 18/18/18 7/7/7
f 7/7/7 9/9/9 20/20/20
f 20/20/20 19/19/19 7/7/7
f 21/21/21 20/20/20 9/9/9
f 22/22/22 21/21/21 9/9/9
f 21/21/21 22/22/22 23/23/23
f 20/20/20 21/21/21 24/24/24
f 23/23/23 24/24/24 21/21/21
f 19/19/19 20/20/20 25/25/25
f 24/24/24 25/25/25 20/20/20
f 26/26/26 17/17/17 18/18/18
f 25/25/25 26/26/26 19/19/19
f 18/18/18 19/19/19 26/26/26
f 27/27/27 28/28/28 29/29/29
f 28/28/28 27/27/27 30/30/30
f 11/11/11 30/30/30 10/10/10
f 27/27/27 31/31/31 30/30/30
f 10/10/10 30/30/30 31/31/31
f 32/32/32 28/28/28 30/30/30
f 30/30/30 11/11/11 32/32/32
f 33/33/33 32/32/32 11/11/11
f 32/32/32 33/33/33 34/34/34
f 35/35/35 34/34/34 33/33/33
f 34/34/34 36/36/36 32/32/32
f 28/28/28 32/32/32 36/36/36
f 36/36/36 29/29/29 28/28/28
f 29/29/29 37/37/37 27/27/27
f 31/31/31 27/27/27 37/37/37
f 37/37/37 38/38/38 31/31/31
f 39/39/39 14/14/14 16/16/16
f 11/11/11 12/12/12 39/39/39
f 14/14/14 39/39/39 12/12/12
f 16/16/16 40/40/40 39/39/39
f 39/39/39 41/41/41 11/11/11
f 41/41/41 33/33/33 11/11/11
f 40/40/40 35/35/35 41/41/41
f 41/41/41 39/39/39 40/40/40
f 33/33/33 41/41/41 35/35/35
f 42/42/42 31/31/31 38/38/38
f 31/31/31 42/42/42 10/10/10
f 38/38/38 43/43/43 42/42/42
f 42/42/42 44/44/44 10/10/10
f 44/44/44 42/42/42 43/43/43
f 8/8/8 10/10/10 45/45/45
f 44/44/44 45/45/45 10/10/10
f 45/45/45 46/46/46 8/8/8
f 46/46/46 47/47/47 8/8/8
f 46/46/46 45/45/45 48/48/48
f 45/45/45 44/44/44 49/49/49
f 49/49/49 48/48/48 45/45/45
f 43/43/43 49/49/49 44/44/44
f 48/48/48 50/50/50 46/46/46
f 47/47/47 46/46/46 50/50/50
f 50/50/50 51/51/51 47/47/47
f 47/47/47 52/52/52 8/8/8
f 9/9/9 8/8/8 52/52/52
f 52/52/52 47/47/47 51/51/51
f 52/52/52 22/22/22 9/9/9
f 51/51/51 53/53/53 52/52/52
f 53/53/53 23/23/23 22/22/22
f 22/22/22 52/52/52 53/53/53
s 0
f 54/54/54 55/55/54 56/56/54
f 54/54/55 57/57/55 55/55/55
f 54/54/54 58/58/54 57/57/54
f 54/54/55 59/59/55 58/58/55
f 54/54/54 60/60/54 59/59/54
f 54/54/55 61/61/55 60/60/55
f 54/54/54 62/62/54 61/61/54
f 54/54/55 63/63/55 62/62/55
f 54/54/54 64/64/54 63/63/54
f 54/54/55 56/56/55 64/64/55
