# Blender 4.0.1
# www.blender.org
o _146__BMW_M3_E36_GEARSHIFT_CPIT_
v 3.566482 25.492071 0.370006
v 3.787413 25.518824 0.187302
v 3.275553 25.553175 -0.215232
v 3.908102 25.533377 -0.072238
v 3.908102 25.533377 -0.358226
v 3.787413 25.518824 -0.617804
v 3.566482 25.492071 -0.800508
v 3.287257 25.457911 -0.866666
v 3.008071 25.423445 -0.800508
v 2.787215 25.396044 -0.617804
v 2.666604 25.380882 -0.358226
v 2.666604 25.380882 -0.072238
v 2.787215 25.396044 0.187302
v 3.008071 25.423445 0.370006
v 3.287257 25.457911 0.436164
vn 0.2044 0.7721 0.6018
vn 0.4366 0.8004 0.4109
vn -0.1219 0.9925 -0.0000
vn 0.5611 0.8152 0.1434
vn 0.5599 0.8158 -0.1451
vn 0.4353 0.8005 -0.4119
vn 0.2036 0.7720 -0.6022
vn -0.0904 0.7360 -0.6709
vn -0.3860 0.6991 -0.6018
vn -0.6174 0.6705 -0.4115
vn -0.7416 0.6550 -0.1449
vn -0.7427 0.6542 0.1432
vn -0.6185 0.6700 0.4105
vn -0.3868 0.6990 0.6014
vn -0.0904 0.7361 0.6708
vt 0.678223 0.145996
vt 0.664551 0.180176
vt 0.634766 0.103027
vt 0.645508 0.199219
vt 0.624512 0.199219
vt 0.604980 0.180176
vt 0.591797 0.145996
vt 0.586914 0.103027
vt 0.591797 0.059570
vt 0.604980 0.025390
vt 0.624512 0.006835
vt 0.645508 0.006835
vt 0.664551 0.025390
vt 0.678223 0.059570
vt 0.683105 0.103027
s 1
f 1/1/1 2/2/2 3/3/3
f 2/2/2 4/4/4 3/3/3
f 4/4/4 5/5/5 3/3/3
f 5/5/5 6/6/6 3/3/3
f 6/6/6 7/7/7 3/3/3
f 7/7/7 8/8/8 3/3/3
f 8/8/8 9/9/9 3/3/3
f 9/9/9 10/10/10 3/3/3
f 10/10/10 11/11/11 3/3/3
f 11/11/11 12/12/12 3/3/3
f 12/12/12 13/13/13 3/3/3
f 13/13/13 14/14/14 3/3/3
f 15/15/15 1/1/1 3/3/3
f 14/14/14 15/15/15 3/3/3
