# Blender 4.0.1
# www.blender.org
o _146__BMW_M3_E36_GEARSHIFT_CPIT_
v 3.566482 25.492071 0.370006
v 3.787413 25.518824 0.187302
v 3.275553 25.553175 -0.215232
v 3.908102 25.533377 -0.072238
v 3.908102 25.533377 -0.358226
v 3.787413 25.518824 -0.617804
v 3.566482 25.492071 -0.800508
v 3.287257 25.457911 -0.866666
v 3.008071 25.423445 -0.800508
v 2.787215 25.396044 -0.617804
v 2.666604 25.380882 -0.358226
v 2.666604 25.380882 -0.072238
v 2.787215 25.396044 0.187302
v 3.008071 25.423445 0.370006
v 3.287257 25.457911 0.436164
vn 0.2044 0.7721 0.6018
vn 0.4366 0.8004 0.4109
vn -0.1219 0.9925 -0.0000
vn 0.5611 0.8152 0.1434
vn 0.5599 0.8158 -0.1451
vn 0.4353 0.8005 -0.4119
vn 0.2036 0.7720 -0.6022
vn -0.0904 0.7360 -0.6709
vn -0.3860 0.6991 -0.6018
vn -0.6174 0.6705 -0.4115
vn -0.7416 0.6550 -0.1449
vn -0.7427 0.6542 0.1432
vn -0.6185 0.6700 0.4105
vn -0.3868 0.6990 0.6014
vn -0.0904 0.7361 0.6708
vt 0.678223 0.145996
vt 0.664551 0.180176
vt 0.634766 0.103027
vt 0.645508 0.199219
vt 0.624512 0.199219
vt 0.604980 0.180176
vt 0.591797 0.145996
vt 0.586914 0.103027
vt 0.591797 0.059570
vt 0.604980 0.025390
vt 0.624512 0.006835
vt 0.645508 0.006835
vt 0.664551 0.025390
vt 0.678223 0.059570
vt 0.683105 0.103027
s 1
f 1/1/1 2/2/2 3/3/3
f 2/2/2 4/4/4 3/3/3
f 4/4/4 5/5/5 3/3/3
f 5/5/5 6/6/6 3/3/3
f 6/6/6 7/7/7 3/3/3
f 7/7/7 8/8/8 3/3/3
f 8/8/8 9/9/9 3/3/3
f 9/9/9 10/10/10 3/3/3
f 10/10/10 11/11/11 3/3/3
f 11/11/11 12/12/12 3/3/3
f 12/12/12 13/13/13 3/3/3
f 13/13/13 14/14/14 3/3/3
f 15/15/15 1/1/1 3/3/3
f 14/14/14 15/15/15 3/3/3
o _195__BMW_M3_E36_KIT00_INTANIM_CPIT_
v 7.293685 45.410004 -3.913734
v 7.293685 44.398815 -4.186992
v 7.293685 44.171581 -4.143026
v 7.293685 44.039719 -4.043884
v 7.293685 43.935596 -3.838570
v 7.293685 43.935596 -1.500886
v 7.293685 45.957577 -1.176670
v 7.293685 45.957577 1.176670
v 7.293685 43.935596 1.500886
v 7.293685 45.926041 3.252040
v 7.293685 45.823055 3.543766
v 7.293685 45.668018 3.742354
v 7.293685 45.410004 3.913734
v 7.293685 44.398815 4.186992
v 7.293685 44.171581 4.143026
v 7.293685 44.039719 4.043884
v 7.293685 43.935596 3.838570
v 10.420173 31.965714 -17.975140
v 10.859489 31.510437 -16.926834
v 10.690200 31.457083 -16.990484
v 10.316546 31.884813 -17.887321
v 10.750887 31.407759 -16.825830
v 11.059180 31.391800 -16.150038
v 10.923026 31.324045 -16.133812
v 10.817956 31.607374 -16.801548
v 10.987019 31.525066 -16.129707
v 10.760500 31.648909 -16.933863
v 10.385744 32.080399 -17.843658
v 10.320119 32.134396 -18.039968
v 10.280294 32.041561 -18.435699
v 10.208284 32.175323 -18.415598
v 10.255821 31.932426 -18.044073
v 10.144064 31.973314 -18.419170
v 10.251414 31.935883 -17.868057
v 10.190006 31.984371 -18.030354
v 10.247006 32.015381 -17.847195
v 10.183851 32.066185 -18.023743
v 10.301156 32.076447 -17.836668
v 10.236215 32.129570 -18.027390
v 10.675760 31.645489 -16.928696
v 10.621230 31.585752 -16.943895
v 10.625220 31.507624 -16.969395
v 10.685451 31.459364 -16.809261
v 10.857173 31.375877 -16.120094
v 10.850903 31.457350 -16.113482
v 10.680282 31.540340 -16.795391
v 10.733673 31.602890 -16.791821
v 10.903191 31.520391 -16.117130
v 10.124380 32.170498 -18.402981
v 10.072017 32.107075 -18.399107
v 10.078249 32.025261 -18.405527
v 6.997703 44.115719 4.300536
v 7.480303 44.115719 4.300536
v 7.480303 44.270004 4.336104
v 6.997703 44.000961 4.232212
v 7.480303 44.000961 4.232212
v 6.997703 43.903679 4.138390
v 7.480303 43.903679 4.138390
v 6.997703 43.828438 4.002388
v 6.997703 44.039337 4.024390
v 6.997703 44.105457 4.093474
v 7.190743 44.039337 4.024390
v 7.190743 43.987659 3.941246
v 6.997703 43.987659 3.941246
v 6.997703 43.957642 3.815010
v 7.190743 43.957642 3.815010
v 6.997703 43.939018 1.860290
v 6.997703 43.766117 1.860290
v 6.997703 43.764221 -1.890082
v 7.480303 43.764221 -1.890082
v 7.480303 43.776760 -3.850616
v 7.827775 44.028320 -3.816378
v 7.480303 43.766117 1.860290
v 7.827775 44.028320 0.000000
v 8.059423 44.318260 -3.811324
v 8.059423 44.288616 0.000000
v 7.827775 44.028320 3.816378
v 8.059423 44.318260 3.811324
v 8.059423 45.343498 3.533772
v 8.059423 45.604179 0.000000
v 8.059423 45.541481 -3.280312
v 7.827775 45.833698 -3.235434
v 7.827775 45.864861 0.000000
v 8.059423 45.541481 3.280312
v 7.827775 45.833698 3.235434
v 7.827775 45.740597 3.498660
v 7.480303 46.084877 3.251470
v 7.480303 46.124016 1.500924
v 6.997703 46.124016 1.500924
v 6.997703 46.122501 -1.552680
v 6.997703 45.948841 -1.551388
v 6.997703 45.910839 -3.219664
v 7.190743 45.910839 -3.219664
v 7.190743 45.948841 -1.551388
v 6.997703 45.950356 1.499594
v 6.997703 46.084877 3.251470
v 6.997703 46.038521 3.455720
v 7.480303 46.038521 3.455720
v 7.480303 45.975819 3.606732
v 6.997703 45.975819 3.606732
v 6.997703 45.821918 3.522334
v 6.997703 45.874741 3.397884
v 6.997703 45.912361 3.220234
v 7.190743 45.950356 1.499594
v 7.190743 45.912361 3.220234
v 7.190743 45.874741 3.397884
v 7.190743 45.821918 3.522334
v 7.190743 45.745541 3.643060
v 6.997703 45.745541 3.643060
v 7.190743 45.650539 3.745584
v 6.997703 45.650539 3.745584
v 7.190743 45.539200 3.828044
v 6.997703 45.539200 3.828044
v 7.190743 45.375038 3.902562
v 6.997703 45.375038 3.902562
v 6.997703 44.425797 4.164382
v 7.190743 44.425797 4.164382
v 7.190743 44.285202 4.165028
v 6.997703 44.285202 4.165028
v 6.997703 44.270004 4.336104
v 6.997703 44.187920 4.138922
v 7.190743 44.187920 4.138922
v 7.190743 44.105457 4.093474
v 7.480303 44.445557 4.333520
v 6.997703 44.445557 4.333520
v 6.997703 45.447620 4.062124
v 7.480303 45.447620 4.062124
v 7.827775 44.395397 4.091954
v 7.827775 45.371239 3.828196
v 7.827775 44.209957 4.056120
v 7.827775 44.112679 3.982818
v 7.827775 45.604179 3.673536
v 7.480303 45.882339 3.749916
v 6.997703 45.882339 3.749916
v 6.997703 45.769855 3.874518
v 7.480303 45.769855 3.874518
v 6.997703 45.635342 3.972786
v 7.480303 45.635342 3.972786
v 7.827775 44.112679 -3.982818
v 7.827775 44.209957 -4.056120
v 7.480303 43.901402 -4.134704
v 7.827775 44.395397 -4.091954
v 8.059423 45.343498 -3.533772
v 7.827775 45.371239 -3.828196
v 7.827775 45.604179 -3.673536
v 7.827775 45.740597 -3.498660
v 7.480303 45.971638 -3.612204
v 7.480303 45.882339 -3.749916
v 6.997703 45.971638 -3.612204
v 6.997703 46.038521 -3.455720
v 7.480303 46.038521 -3.455720
v 6.997703 46.083736 -3.250482
v 7.480303 46.083736 -3.250482
v 7.480303 46.122501 -1.552680
v 7.152629 43.440079 -0.292030
v 7.161255 43.480358 -0.292030
v 7.368963 43.436279 -0.292030
v 7.360337 43.395618 -0.292030
v 7.360337 43.395618 -0.248216
v 7.152629 43.440079 -0.248216
v 7.161255 43.480358 -0.248216
v 7.161255 43.480358 0.248216
v 7.238927 43.845917 -0.248216
v 7.238927 43.845917 -0.292030
v 7.446635 43.801838 -0.292030
v 7.368963 43.436279 -0.248216
v 7.360337 43.395618 0.248216
v 7.152629 43.440079 0.248216
v 7.152629 43.440079 0.292030
v 7.161255 43.480358 0.292030
v 7.238927 43.845917 0.248216
v 7.238927 43.845917 0.292030
v 7.368963 43.436279 0.292030
v 7.446635 43.801838 0.292030
v 7.446635 43.801838 0.248216
v 7.368963 43.436279 0.248216
v 7.446635 43.801838 -0.248216
v 7.360337 43.395618 0.292030
v 7.675623 46.818657 -0.630572
v 7.791600 46.874519 -0.641706
v 8.018536 46.571659 -0.581666
v 7.918481 46.519600 -0.571330
v 8.287195 45.123096 -0.290168
v 7.918481 46.519600 -0.439090
v 8.287195 45.123096 -0.185098
v 7.675623 46.818657 -0.483550
v 7.336663 46.984337 -0.508174
v 7.336663 46.984337 0.423282
v 7.165245 47.067936 -0.508022
v 7.163991 47.068699 -0.662492
v 6.973117 47.162178 -0.456228
v 7.336663 46.984337 -0.663404
v 7.410004 47.052361 -0.676932
v 7.217420 47.140896 -0.677844
v 6.997703 47.150021 -0.625404
v 7.033613 47.223740 -0.638438
v 6.835823 47.229057 -0.532532
v 6.849389 47.221840 -0.326952
v 6.997703 47.150021 -0.042446
v 6.799191 47.246159 -0.166972
v 6.777607 47.257179 -0.042446
v 6.666723 47.310379 -0.218918
v 6.733793 47.277317 -0.390070
v 6.871733 47.302399 -0.543438
v 6.769703 47.351036 -0.397822
v 6.702558 47.383720 -0.222756
v 6.639819 47.324059 -0.042446
v 6.799191 47.246159 0.082080
v 6.666723 47.310379 0.133988
v 6.675729 47.397778 -0.042446
v 6.702558 47.383720 0.137864
v 6.733793 47.277317 0.305140
v 6.769703 47.351036 0.312930
v 6.835823 47.229057 0.447640
v 6.973117 47.162178 0.371336
v 6.849389 47.221840 0.242060
v 7.165245 47.068317 0.423130
v 7.163991 47.068699 0.577600
v 6.997703 47.150021 0.540512
v 7.269517 47.707100 0.638970
v 7.535100 47.571819 0.685140
v 7.336663 46.984337 0.578512
v 7.813145 47.427795 0.666368
v 7.675623 46.818657 0.545680
v 7.675623 46.818657 0.398658
v 7.918481 46.519600 0.486400
v 7.918481 46.519600 0.354198
v 8.287195 45.123096 0.205276
v 8.434863 45.123096 0.227772
v 8.537843 46.842979 0.550506
v 8.434863 45.123096 0.160208
v 8.434863 45.123096 -0.245138
v 8.531725 46.741138 -0.616284
v 8.537843 46.842979 -0.635398
v 8.356773 47.148117 -0.532494
v 8.463477 46.903019 -0.647292
v 8.031418 47.315319 -0.663442
v 7.813145 47.427795 -0.751260
v 7.809497 47.333942 -0.732716
v 7.754815 47.373459 -0.740506
v 7.490032 47.510639 -0.756960
v 7.236533 47.639839 -0.711930
v 7.535100 47.571819 -0.770032
v 7.813145 47.427795 -0.143906
v 8.356773 47.148117 0.610964
v 7.247325 47.718117 0.624074
v 7.107637 47.786140 0.530366
v 7.005569 47.834778 0.363850
v 6.938196 47.867462 0.163134
v 6.972281 47.766380 0.356668
v 6.904907 47.799057 0.159562
v 6.911633 47.881138 -0.042446
v 6.878307 47.812740 -0.042446
v 6.938196 47.867462 -0.248026
v 6.904907 47.799057 -0.244454
v 7.005569 47.834778 -0.448742
v 7.107637 47.786140 -0.615258
v 7.269517 47.707100 -0.723862
v 7.074463 47.718117 -0.605188
v 6.972281 47.766380 -0.441560
v 6.871733 47.302399 0.458546
v 7.074388 47.718117 0.520258
v 7.480303 45.443058 -4.072764
v 7.480303 44.448601 -4.335420
v 6.997703 44.448601 -4.335420
v 6.997703 45.443058 -4.072764
v 6.997703 45.635342 -3.972786
v 7.480303 45.635342 -3.972786
v 6.997703 45.786201 -3.861446
v 6.997703 45.666878 -3.732436
v 6.997703 45.539200 -3.828044
v 7.190743 45.666878 -3.732436
v 7.190743 45.539200 -3.828044
v 6.997703 45.370480 -3.912822
v 6.997703 44.442516 -4.159632
v 7.190743 44.442516 -4.159632
v 7.190743 45.370480 -3.912822
v 8.462299 46.803459 -0.627570
v 8.434863 45.123096 -0.312702
v 9.785534 31.757057 -7.591868
v 9.713524 31.779743 -7.604522
v 9.899572 31.940861 -8.375390
v 9.971621 31.918175 -8.362736
v 10.227931 31.837540 -8.317744
v 10.041844 31.676418 -7.546838
v 9.644060 31.740337 -6.816136
v 9.900370 31.659662 -6.771106
v 9.640677 31.788103 -6.711218
v 9.896951 31.707428 -6.666226
v 9.663098 31.882341 -6.670026
v 9.919408 31.801668 -6.625034
v 10.025391 32.159630 -6.587110
v 9.769080 32.240303 -6.632102
v 9.591050 31.905027 -6.682680
v 9.568630 31.810789 -6.723872
v 9.572013 31.763023 -6.828752
v 9.600551 31.866116 -6.806484
v 9.713296 32.255653 -6.750358
v 9.741758 31.868662 -7.606080
v 9.949049 32.520897 -7.617594
v 9.924120 32.018002 -8.376758
v 10.003350 32.267357 -8.381166
v 10.029684 32.350273 -8.382610
v 10.029456 32.305588 -8.461308
v 10.101732 32.327587 -8.369956
v 10.101504 32.282940 -8.448654
v 10.358042 32.246952 -8.324965
v 10.357815 32.202267 -8.403624
v 10.309516 32.518654 -7.561696
v 10.053205 32.599289 -7.606726
v 9.981158 32.621975 -7.619380
v 9.844966 32.636677 -6.817542
v 9.885702 32.750072 -6.846194
v 9.856556 32.716743 -6.739870
v 9.957750 32.727386 -6.833540
v 10.214023 32.646713 -6.788548
v 10.184876 32.613422 -6.682186
v 9.928566 32.694099 -6.727216
v 10.144596 32.512230 -6.634230
v 9.888325 32.592903 -6.679260
v 9.816277 32.615555 -6.691876
v 10.222496 32.487720 -6.620550
v 10.262776 32.588913 -6.668544
v 10.135096 32.128696 -6.766128
v 10.291922 32.622204 -6.774868
v 10.387417 32.494141 -7.548016
v 10.435942 32.222443 -8.311284
v 10.305830 31.813030 -8.304064
v 10.330264 31.846014 -8.384092
v 10.435677 32.177753 -8.389944
v 10.280294 32.041561 -8.404879
v 10.252364 31.870562 -8.397772
v 10.144064 31.973314 -8.421408
v 9.996092 31.951197 -8.442801
v 9.924045 31.973883 -8.455456
v 9.943880 32.036278 -8.456558
v 10.078249 32.025261 -8.435050
v 10.072017 32.107075 -8.441472
v 10.008100 32.238327 -8.460093
v 10.119744 31.651909 -7.533158
v 9.978232 31.635151 -6.757426
v 9.974850 31.682917 -6.652546
v 9.997270 31.777159 -6.611354
v 10.103252 32.135117 -6.573430
v 10.003350 32.267357 -18.459412
v 9.924120 32.018002 -18.463820
v 9.943880 32.036278 -18.384020
v 9.949049 32.520897 -19.222984
v 10.008100 32.238327 -18.380447
v 10.072017 32.107075 -18.399107
v 10.078249 32.025261 -18.405527
v 9.996092 31.951197 -18.397776
v 10.144064 31.973314 -18.419170
v 10.252364 31.870562 -18.442768
v 10.280294 32.041561 -18.435699
v 10.330264 31.846014 -18.456448
v 10.435677 32.177753 -18.450596
v 10.435942 32.222443 -18.529293
v 10.358042 32.246952 -18.515614
v 10.309516 32.518654 -19.278843
v 10.101732 32.327587 -18.470621
v 10.053205 32.599289 -19.233852
v 10.214023 32.646713 -20.052029
v 9.957750 32.727386 -20.007038
v 10.184876 32.613422 -20.158354
v 9.928566 32.694099 -20.113363
v 10.144596 32.512230 -20.206347
v 9.888325 32.592903 -20.161316
v 10.025391 32.159630 -20.253468
v 9.769080 32.240303 -20.208475
v 9.663098 31.882341 -20.170551
v 9.919408 31.801668 -20.215546
v 9.896951 31.707428 -20.174353
v 9.640677 31.788103 -20.129360
v 9.900370 31.659662 -20.069471
v 9.644060 31.740337 -20.024443
v 10.041844 31.676418 -19.293739
v 9.785534 31.757057 -19.248711
v 10.227931 31.837540 -18.522835
v 9.971621 31.918175 -18.477842
v 10.305830 31.813030 -18.536514
v 10.387417 32.494141 -19.292524
v 10.291922 32.622204 -20.065710
v 10.262776 32.588913 -20.172035
v 10.135096 32.128696 -20.074411
v 10.119744 31.651909 -19.307383
v 9.978232 31.635151 -20.083153
v 9.974850 31.682917 -20.188032
v 9.997270 31.777159 -20.229223
v 10.103252 32.135117 -20.267147
v 10.222496 32.487720 -20.220028
v 6.997703 43.790440 3.844802
v 7.480303 43.790440 3.844802
v 7.480303 43.828438 4.002388
v 7.480303 44.267719 -4.336560
v 7.480303 44.116096 -4.302816
v 7.480303 44.000961 -4.232212
v 6.997703 44.000961 -4.232212
v 6.997703 43.901402 -4.134704
v 6.997703 44.037060 -4.020780
v 6.997703 44.105457 -4.093474
v 6.997703 44.188301 -4.140442
v 7.190743 44.188301 -4.140442
v 7.190743 44.300781 -4.165484
v 6.997703 44.300781 -4.165484
v 6.997703 44.267719 -4.336560
v 6.997703 44.116096 -4.302816
v 6.997703 43.832619 -4.019298
v 7.480303 43.832619 -4.019298
v 6.997703 43.987659 -3.941246
v 6.997703 43.948898 -3.808626
v 7.190743 43.987659 -3.941246
v 7.190743 43.948898 -3.808626
v 7.190743 43.937881 -1.890082
v 6.997703 43.937881 -1.890082
v 6.997703 43.776760 -3.850616
v 7.190743 44.037060 -4.020780
v 7.190743 44.105457 -4.093474
v 6.997703 45.882339 -3.749916
v 7.480303 45.786201 -3.861446
v 8.359433 45.123096 -0.301188
v 7.293685 45.823055 -3.543766
v 7.293685 45.668018 -3.742354
v 7.293685 45.926041 -3.252040
v 6.997703 45.817738 -3.527996
v 7.190743 45.817738 -3.527996
v 7.190743 45.874741 -3.397884
v 6.997703 45.874741 -3.397884
v 6.997703 45.745541 -3.643060
v 7.190743 45.745541 -3.643060
v 7.190743 43.939018 1.860290
v 9.697033 32.262951 -6.644756
v 10.208284 32.175323 -8.424942
v 10.124380 32.170498 -8.437595
v 10.183851 32.066185 -8.816836
v 10.236215 32.129570 -8.813188
v 10.301156 32.076447 -9.003910
v 10.247006 32.015381 -8.993345
v 10.072017 32.107075 -8.441472
v 10.124380 32.170498 -8.437595
v 10.320119 32.134396 -8.800610
v 10.208284 32.175323 -8.424942
v 10.280294 32.041561 -8.404879
v 10.420173 31.965714 -8.865400
v 10.255821 31.932426 -8.796468
v 10.144064 31.973314 -8.421408
v 10.190006 31.984371 -8.810225
v 10.078249 32.025261 -8.435050
v 10.251414 31.935883 -8.972522
v 10.621230 31.585752 -9.896683
v 10.625220 31.507624 -9.871184
v 10.680282 31.540340 -10.045185
v 10.685451 31.459364 -10.031278
v 10.850903 31.457350 -10.727097
v 10.857173 31.375877 -10.720484
v 10.903191 31.520391 -10.723448
v 10.733673 31.602890 -10.048759
v 10.987019 31.525066 -10.710870
v 10.817956 31.607374 -10.039030
v 10.675760 31.645489 -9.911881
v 10.760500 31.648909 -9.906713
v 10.859489 31.510437 -9.913744
v 10.690200 31.457083 -9.850056
v 10.316546 31.884813 -8.953218
v 10.750887 31.407759 -10.014748
v 10.923026 31.324045 -10.706766
v 11.059180 31.391800 -10.690502
v 10.385744 32.080399 -8.996918
v 10.029456 32.305588 -18.379269
v 10.029684 32.350273 -18.457968
v 9.981158 32.621975 -19.221197
v 9.885702 32.750072 -19.994383
v 9.856556 32.716743 -20.100708
v 9.816277 32.615555 -20.148664
v 9.697033 32.262951 -20.195822
v 9.591050 31.905027 -20.157900
v 9.713296 32.255653 -20.090219
v 9.600551 31.866116 -20.034094
v 9.568630 31.810789 -20.116707
v 9.572013 31.763023 -20.011787
v 10.101504 32.282940 -18.391924
v 10.124380 32.170498 -18.402981
v 10.208284 32.175323 -18.415598
v 10.357815 32.202267 -18.436916
v 9.844966 32.636677 -20.023035
v 9.741758 31.868662 -19.234497
v 9.899572 31.940861 -18.465189
v 9.924045 31.973883 -18.385122
v 9.713524 31.779743 -19.236055
vn -1.0000 -0.0000 -0.0000
vn 0.8772 -0.2650 -0.4003
vn 0.9012 -0.2116 -0.3781
vn -0.1178 -0.9421 -0.3140
vn -0.2061 -0.9325 -0.2965
vn -0.0608 -0.9828 -0.1746
vn 0.9183 -0.2924 -0.2669
vn -0.0806 -0.9919 -0.0982
vn 0.4937 0.8694 0.0197
vn 0.5140 0.8574 -0.0235
vn 0.4697 0.8726 0.1336
vn 0.5110 0.8491 0.1337
vn 0.4929 0.8700 0.0137
vn 0.9093 -0.2822 -0.3057
vn 0.4391 0.8978 -0.0333
vn -0.1826 -0.9741 -0.1335
vn -0.1553 -0.9860 -0.0609
vn -0.8594 -0.4866 0.1570
vn -0.8623 -0.4675 0.1944
vn -0.8755 0.2316 0.4240
vn -0.8946 0.2884 0.3414
vn -0.3853 0.8099 0.4424
vn -0.4005 0.8696 0.2887
vn -0.4008 0.7819 0.4775
vn -0.8828 0.1805 0.4336
vn -0.8450 -0.5188 0.1297
vn -0.8464 -0.5106 0.1513
vn -0.8517 -0.5024 0.1492
vn -0.9232 0.2804 0.2627
vn -0.9080 0.2432 0.3413
vn -0.4048 0.8587 0.3144
vn -0.4089 0.8885 0.2084
vn -0.4437 0.8678 0.2238
vn -0.9118 0.2804 0.3000
vn -0.8635 -0.4612 0.2041
vn -0.6739 -0.2753 0.6856
vn 0.3124 -0.3574 0.8801
vn 0.3199 -0.0943 0.9427
vn -0.6825 -0.4445 0.5803
vn 0.3144 -0.5736 0.7564
vn -0.6758 -0.5854 0.4479
vn 0.3096 -0.7564 0.5762
vn -0.6778 -0.6857 0.2653
vn -0.7313 0.5392 -0.4177
vn -0.7428 0.4077 -0.5311
vn -0.0000 0.7901 -0.6130
vn -0.0000 0.9233 -0.3842
vn -0.7451 0.6156 -0.2565
vn -0.7331 0.6751 -0.0824
vn -0.0000 0.9926 -0.1216
vn -0.7081 0.7061 -0.0020
vn -0.7052 -0.7091 0.0020
vn -0.7063 -0.7079 -0.0021
vn 0.3180 -0.9481 -0.0000
vn 0.3104 -0.9372 -0.1592
vn 0.6788 -0.7142 -0.1707
vn 0.3350 -0.9422 0.0059
vn 0.6801 -0.7331 -0.0000
vn 0.9213 -0.2353 -0.3097
vn 0.9356 -0.3531 -0.0000
vn 0.6775 -0.7186 0.1567
vn 0.9208 -0.2371 0.3096
vn 0.9251 0.2102 0.3162
vn 0.9334 0.3588 0.0001
vn 0.9238 0.3609 -0.1277
vn 0.6813 0.7225 -0.1179
vn 0.6771 0.7359 0.0001
vn 0.9249 0.3594 0.1237
vn 0.6787 0.7239 0.1239
vn 0.6830 0.6376 0.3562
vn 0.3086 0.9434 0.1219
vn 0.3221 0.9467 0.0079
vn -0.7061 0.7081 0.0039
vn -0.7052 0.7090 -0.0078
vn -0.7081 -0.7061 0.0060
vn -0.7264 -0.6832 0.0746
vn -0.0000 -0.9940 0.1098
vn -0.0000 -1.0000 0.0078
vn -0.7091 -0.7051 -0.0059
vn -0.6866 0.7219 0.0863
vn -0.6891 0.6911 0.2179
vn 0.3201 0.9054 0.2789
vn 0.3124 0.8388 0.4459
vn -0.6877 0.6425 0.3380
vn -0.7267 -0.6089 -0.3182
vn -0.7294 -0.6528 -0.2045
vn -0.7291 -0.6799 -0.0786
vn -0.0000 -1.0000 -0.0098
vn -0.0000 -0.9933 -0.1156
vn -0.0000 -0.9538 -0.3003
vn -0.0000 -0.8860 -0.4638
vn -0.0000 -0.7917 -0.6109
vn -0.7287 -0.5422 -0.4184
vn -0.0000 -0.6657 -0.7462
vn -0.7289 -0.4558 -0.5108
vn -0.0000 -0.5059 -0.8626
vn -0.7309 -0.3438 -0.5895
vn -0.0000 -0.3391 -0.9408
vn -0.7251 -0.2319 -0.6485
vn -0.7377 -0.0902 -0.6691
vn -0.0000 -0.1332 -0.9911
vn -0.0000 0.1275 -0.9918
vn -0.7388 0.0863 -0.6683
vn -0.6800 -0.0767 0.7291
vn -0.7350 0.2529 -0.6291
vn -0.0000 0.3743 -0.9273
vn -0.0000 0.6096 -0.7927
vn 0.3063 0.1217 0.9441
vn -0.6816 0.1002 0.7248
vn -0.6887 0.2492 0.6809
vn 0.2969 0.3284 0.8967
vn 0.6706 0.0236 0.7414
vn 0.6808 0.2893 0.6729
vn 0.6724 -0.2960 0.6784
vn 0.6765 -0.5647 0.4726
vn 0.6869 0.4999 0.5275
vn 0.3166 0.7551 0.5742
vn -0.6920 0.5721 0.4404
vn -0.6859 0.4874 0.5404
vn 0.3128 0.6332 0.7080
vn -0.6872 0.3712 0.6244
vn 0.3108 0.4936 0.8122
vn 0.6730 -0.5671 -0.4748
vn 0.6784 -0.3001 -0.6706
vn 0.3138 -0.7436 -0.5904
vn 0.6828 0.0373 -0.7297
vn 0.9241 0.2118 -0.3182
vn 0.6778 0.2986 -0.6719
vn 0.6848 0.4984 -0.5317
vn 0.6851 0.6360 -0.3553
vn 0.3119 0.8414 -0.4413
vn 0.3139 0.7572 -0.5728
vn -0.6878 0.6408 -0.3410
vn -0.6867 0.6922 -0.2220
vn 0.3120 0.9027 -0.2963
vn -0.6857 0.7228 -0.0863
vn 0.3002 0.9475 -0.1099
vn 0.3374 0.9413 -0.0137
vn -0.6836 -0.4439 -0.5794
vn -0.6915 0.1470 -0.7072
vn 0.6917 -0.1451 -0.7074
vn 0.4455 -0.6829 -0.5789
vn 0.5456 -0.8380 -0.0000
vn -0.8390 -0.5442 -0.0000
vn -0.9782 0.2078 -0.0000
vn -0.9781 0.2079 -0.0000
vn -0.6916 0.1470 -0.7072
vn 0.6918 -0.1450 -0.7074
vn 0.9786 -0.2059 -0.0000
vn -0.6837 -0.4460 0.5776
vn -0.6927 0.1452 0.7064
vn 0.6925 -0.1471 0.7063
vn 0.6926 -0.1471 0.7062
vn 0.4454 -0.6848 0.5769
vn -0.3635 -0.6131 -0.7014
vn -0.0000 -0.1920 -0.9814
vn -0.5454 -0.4356 -0.7161
vn -0.7131 -0.3064 -0.6306
vn -0.8920 -0.4520 -0.0000
vn -0.9674 -0.2532 -0.0000
vn -0.6229 -0.7823 -0.0000
vn -0.4378 -0.8991 -0.0000
vn -0.4377 -0.8991 -0.0000
vn -0.3890 -0.6305 -0.6717
vn -0.4362 -0.8998 -0.0000
vn -0.3101 -0.6830 -0.6613
vn -0.0274 -0.1704 -0.9850
vn -0.1470 -0.1020 -0.9839
vn -0.5232 -0.5546 -0.6470
vn -0.3582 0.0158 -0.9335
vn -0.7203 -0.4259 -0.5475
vn -0.4338 -0.9010 -0.0001
vn -0.4338 -0.9010 -0.0000
vn -0.4361 -0.8999 -0.0000
vn -0.4359 -0.9000 0.0001
vn -0.4345 -0.9007 -0.0000
vn -0.4362 -0.8999 -0.0000
vn -0.4346 -0.9006 -0.0000
vn -0.9289 -0.3103 -0.2023
vn -0.4364 -0.8998 -0.0001
vn -0.8603 -0.3575 -0.3634
vn -0.6182 0.1960 -0.7612
vn -0.7935 0.3390 -0.5054
vn -0.8681 0.4096 -0.2802
vn -0.9608 -0.2771 -0.0000
vn -0.9283 -0.3121 0.2021
vn -0.8994 0.4371 0.0001
vn -0.8700 0.4066 0.2789
vn -0.8609 -0.3558 0.3636
vn -0.7958 0.3341 0.5050
vn -0.7217 -0.4248 0.5466
vn -0.4363 -0.8998 -0.0000
vn -0.3890 -0.6365 0.6660
vn -0.5267 -0.5542 0.6446
vn 0.0393 0.6703 0.7411
vn 0.2554 0.5716 0.7798
vn -0.3061 -0.6925 0.6533
vn 0.3460 0.5407 0.7668
vn -0.3636 -0.6151 0.6996
vn -0.5505 -0.4325 0.7141
vn -0.8920 -0.4521 -0.0000
vn -0.7141 -0.3144 0.6254
vn 0.6850 -0.2061 0.6987
vn 0.7513 0.0807 0.6550
vn 0.9984 -0.0568 -0.0000
vn 0.9984 -0.0567 -0.0000
vn 0.6999 -0.1686 -0.6940
vn 0.7357 0.1177 -0.6670
vn 0.6632 0.6985 -0.2688
vn 0.3042 0.1962 -0.9322
vn 0.5341 0.7698 -0.3495
vn 0.3551 0.5374 -0.7649
vn -0.0098 -0.1784 -0.9839
vn -0.1177 -0.1138 -0.9865
vn -0.3664 0.0177 -0.9303
vn 0.2569 0.5669 -0.7827
vn 0.4528 0.8916 -0.0000
vn 0.5430 0.4663 0.6984
vn -0.0492 0.7709 0.6351
vn -0.1986 0.7984 0.5684
vn -0.3003 0.8891 0.3454
vn -0.3360 0.9236 0.1847
vn -0.8166 0.3416 0.4653
vn -0.8776 0.4083 0.2513
vn -0.3589 0.9334 -0.0000
vn -0.9002 0.4354 0.0002
vn -0.3349 0.9241 -0.1841
vn -0.8764 0.4098 -0.2529
vn -0.2980 0.8899 -0.3453
vn -0.1941 0.7980 -0.5705
vn 0.0353 0.6684 -0.7429
vn -0.6541 0.2036 -0.7285
vn -0.8159 0.3414 -0.4667
vn -0.6245 0.1885 0.7580
vn -0.6578 0.2121 0.7227
vn 0.3101 0.3473 -0.8850
vn 0.2959 0.1274 -0.9467
vn -0.6799 0.0961 -0.7270
vn -0.6833 0.2625 -0.6813
vn -0.6903 0.3827 -0.6140
vn 0.3195 0.4959 -0.8075
vn -0.6831 0.4963 -0.5358
vn -0.7309 -0.4635 0.5010
vn -0.7270 -0.3616 0.5836
vn -0.0000 -0.6790 0.7341
vn -0.0000 -0.5276 0.8495
vn -0.7316 -0.2419 0.6373
vn -0.7330 -0.1022 0.6725
vn -0.0000 -0.1491 0.9888
vn -0.0000 -0.3552 0.9348
vn -0.0000 -0.1882 -0.9821
vn 0.6741 -0.1764 -0.7172
vn -0.2673 -0.9494 -0.1651
vn -0.8426 -0.4852 -0.2337
vn -0.8119 -0.4582 -0.3618
vn -0.2242 -0.9125 -0.3422
vn -0.3195 -0.9349 0.1548
vn -0.3195 -0.9349 0.1549
vn -0.3223 -0.6444 0.6935
vn -0.2260 -0.1926 0.9549
vn -0.1533 0.0589 0.9864
vn -0.8039 0.0550 0.5922
vn -0.8462 -0.3122 0.4319
vn -0.8613 -0.5081 0.0079
vn -0.9409 0.2960 -0.1647
vn -0.9409 0.2960 -0.1646
vn -0.9409 0.2960 -0.1645
vn -0.9409 0.2960 -0.1644
vn -0.3996 0.8287 -0.3918
vn -0.3411 0.5295 -0.7767
vn 0.3354 0.8610 -0.3824
vn 0.2862 0.4410 -0.8506
vn 0.3234 0.9232 -0.2078
vn -0.4078 0.8739 -0.2646
vn -0.9409 0.2960 -0.1648
vn -0.4076 0.9130 -0.0178
vn -0.5073 0.7531 0.4189
vn 0.2773 0.9537 0.1161
vn 0.1080 0.7290 0.6759
vn 0.1081 0.7290 0.6759
vn -0.0687 0.3043 0.9501
vn -0.0688 0.3043 0.9501
vn -0.6893 0.4242 0.5872
vn 0.5837 0.0236 0.8116
vn 0.6784 0.3795 0.6291
vn 0.9412 -0.2961 0.1627
vn 0.8294 0.5229 0.1966
vn 0.8835 0.4670 -0.0377
vn 0.8914 0.4222 -0.1649
vn 0.4813 -0.8663 -0.1337
vn 0.5470 -0.6216 -0.5607
vn 0.7987 0.1707 -0.5770
vn 0.1510 -0.0628 -0.9865
vn -0.0275 -0.5550 -0.8314
vn 0.1510 -0.0627 -0.9865
vn -0.5929 -0.2611 -0.7617
vn -0.5564 0.1626 -0.8149
vn -0.5563 0.1626 -0.8149
vn 0.4495 -0.8933 -0.0058
vn 0.3767 -0.8985 0.2256
vn 0.3436 -0.6872 0.6401
vn 0.4675 -0.3418 0.8153
vn 0.5296 -0.1569 0.8336
vn -0.9417 0.2943 0.1628
vn -0.5574 0.1610 0.8145
vn 0.1513 -0.0648 0.9864
vn 0.1513 -0.0649 0.9864
vn -0.0275 -0.5572 0.8299
vn 0.5469 -0.6234 0.5588
vn 0.7999 0.1691 0.5759
vn 0.8924 0.4207 0.1633
vn 0.3362 0.8611 0.3814
vn 0.3242 0.9232 0.2063
vn 0.2767 0.9537 -0.1177
vn 0.1078 0.7289 -0.6760
vn -0.0686 0.3055 -0.9497
vn -0.0685 0.3055 -0.9497
vn -0.1529 0.0608 -0.9864
vn -0.1530 0.0608 -0.9864
vn -0.2256 -0.1903 -0.9554
vn -0.2256 -0.1903 -0.9555
vn -0.3222 -0.6424 -0.6954
vn -0.3199 -0.9343 -0.1570
vn -0.3200 -0.9343 -0.1570
vn -0.2669 -0.9498 0.1629
vn -0.2669 -0.9499 0.1629
vn -0.2239 -0.9134 0.3398
vn -0.2240 -0.9134 0.3398
vn 0.4806 -0.8670 0.1314
vn 0.8842 0.4657 0.0354
vn 0.8284 0.5239 -0.1982
vn 0.6770 0.3807 -0.6299
vn 0.9414 -0.2942 -0.1647
vn 0.4488 -0.8936 0.0040
vn 0.3770 -0.8977 -0.2279
vn 0.3437 -0.6853 -0.6421
vn 0.4671 -0.3395 -0.8164
vn 0.5289 -0.1548 -0.8344
vn 0.5828 0.0255 -0.8122
vn -0.6814 -0.7266 0.0884
vn 0.2923 -0.9495 0.1138
vn 0.3038 -0.8858 0.3509
vn 0.3075 -0.1038 -0.9459
vn 0.3100 -0.3531 -0.8827
vn 0.3158 -0.5846 -0.7473
vn -0.6821 -0.4482 -0.5779
vn -0.6794 -0.5753 -0.4555
vn -0.7325 0.5401 0.4144
vn -0.7439 0.4122 0.5260
vn -0.7438 0.2394 0.6241
vn -0.0000 0.3579 0.9338
vn -0.0000 0.0864 0.9963
vn -0.7385 0.0570 0.6718
vn -0.6812 -0.0746 -0.7283
vn -0.6719 -0.2751 -0.6876
vn -0.6837 -0.6641 -0.3025
vn 0.3183 -0.8645 -0.3890
vn -0.7402 0.6145 0.2729
vn -0.7412 0.6647 0.0941
vn -0.0000 0.9135 0.4068
vn -0.0000 0.9899 0.1415
vn -0.0000 1.0000 -0.0000
vn -0.7081 0.7061 -0.0000
vn -0.6741 -0.7292 -0.1180
vn -0.0000 0.7928 0.6095
vn -0.0000 0.6177 0.7864
vn -0.6918 0.5779 -0.4330
vn 0.3121 0.6478 -0.6949
vn -0.1313 -0.1959 -0.9718
vn -0.7244 -0.6106 0.3200
vn -0.0000 -0.8852 0.4652
vn -0.0000 -0.9540 0.2998
vn -0.7304 -0.6518 0.2042
vn -0.7253 -0.5524 0.4108
vn -0.0000 -0.8025 0.5966
vn -0.0000 1.0000 -0.0040
vn -0.7560 0.2455 0.6068
vn -0.8935 0.2900 -0.3429
vn -0.3996 0.8696 -0.2899
vn -0.3843 0.8099 -0.4432
vn -0.8744 0.2336 -0.4253
vn -0.9107 0.2821 -0.3016
vn -0.4428 0.8679 -0.2254
vn 0.4921 0.8704 -0.0157
vn 0.4399 0.8975 0.0314
vn 0.9094 -0.2842 0.3038
vn 0.8775 -0.2670 0.3985
vn -0.1823 -0.9744 0.1314
vn -0.1549 -0.9862 0.0588
vn -0.8628 -0.4658 -0.1967
vn -0.8639 -0.4595 -0.2062
vn -0.8600 -0.4849 -0.1590
vn -0.8818 0.1823 -0.4349
vn -0.8456 -0.5172 -0.1318
vn -0.9070 0.2449 -0.3426
vn -0.8470 -0.5091 -0.1533
vn -0.9223 0.2820 -0.2644
vn -0.8523 -0.5007 -0.1512
vn -0.4080 0.8885 -0.2100
vn -0.4038 0.8587 -0.3156
vn 0.5150 0.8569 0.0217
vn 0.4928 0.8699 -0.0216
vn -0.3998 0.7820 -0.4781
vn 0.4688 0.8728 -0.1354
vn 0.9015 -0.2136 0.3763
vn -0.1176 -0.9429 0.3117
vn -0.2059 -0.9333 0.2941
vn -0.0607 -0.9832 0.1723
vn -0.0804 -0.9921 0.0961
vn 0.9183 -0.2943 0.2649
vn 0.5101 0.8494 -0.1354
vn -0.3421 0.5290 0.7766
vn -0.4006 0.8287 0.3909
vn -0.4085 0.8740 0.2632
vn -0.4083 0.9127 0.0157
vn -0.5062 0.7533 -0.4199
vn -0.6879 0.4254 -0.5881
vn -0.7548 0.2470 -0.6077
vn -0.8030 0.0570 -0.5933
vn -0.8460 -0.3101 -0.4338
vn -0.8621 -0.5067 -0.0098
vn 0.2869 0.4402 0.8508
vn -0.9417 0.2943 0.1629
vn -0.9418 0.2943 0.1628
vn -0.8118 -0.4600 0.3597
vn -0.5935 -0.2634 0.7605
vn -0.8422 -0.4868 0.2318
vt 0.477295 0.823608
vt 0.477295 0.822266
vt 0.477295 0.822021
vt 0.477295 0.821777
vt 0.477295 0.821655
vt 0.476807 0.821655
vt 0.476807 0.824341
vt 0.476563 0.824341
vt 0.476318 0.821655
vt 0.476074 0.824341
vt 0.476074 0.824219
vt 0.476074 0.823975
vt 0.476074 0.823608
vt 0.476074 0.822266
vt 0.476074 0.822021
vt 0.476074 0.821777
vt 0.476074 0.821655
vt 0.436035 0.970459
vt 0.485840 0.822266
vt 0.485840 0.822144
vt 0.486084 0.822144
vt 0.486572 0.822144
vt 0.486816 0.822144
vt 0.486328 0.822144
vt 0.485840 0.821899
vt 0.486816 0.822021
vt 0.486572 0.822266
vt 0.351563 0.821899
vt 0.486816 0.822266
vt 0.486816 0.822388
vt 0.938965 0.883545
vt 0.891113 0.910706
vt 0.986816 0.874634
vt 0.993652 0.880310
vt 0.996094 0.891968
vt 0.999023 0.936462
vt 0.988281 0.887451
vt 0.992187 0.935852
vt 0.938965 0.894653
vt 0.938965 0.975906
vt 0.891602 0.920288
vt 0.891602 0.951385
vt 0.891602 0.961731
vt 0.886230 0.956360
vt 0.938965 0.988510
vt 0.988769 0.983459
vt 0.987305 0.997648
vt 0.993652 0.993217
vt 0.987305 0.997650
vt 0.996582 0.980484
vt 0.986816 0.936157
vt 0.886230 0.915039
vt 0.886230 0.935425
vt 0.886230 0.922790
vt 0.886230 0.926331
vt 0.886230 0.947967
vt 0.990234 0.510742
vt 0.990234 0.479980
vt 0.995117 0.482422
vt 0.942383 0.535400
vt 0.995117 0.507568
vt 0.995117 0.495117
vt 0.995117 0.485840
vt 0.995117 0.474609
vt 0.995117 0.515869
vt 0.990234 0.521240
vt 0.942383 0.548096
vt 0.894531 0.557129
vt 0.887695 0.552734
vt 0.885254 0.540039
vt 0.882324 0.496094
vt 0.885254 0.451660
vt 0.888184 0.439941
vt 0.894531 0.434082
vt 0.942383 0.443359
vt 0.990234 0.470215
vt 0.894531 0.495605
vt 0.477295 0.824219
vt 0.477295 0.823975
vt 0.477295 0.824341
vt 0.886230 0.944427
vt 0.889160 0.495605
vt 0.893066 0.446777
vt 0.995117 0.503906
vt 0.892578 0.542969
vt 0.942383 0.454102
s 0
f 16/16/16 17/17/16 18/18/16
f 16/16/16 18/18/16 19/19/16
f 16/16/16 19/19/16 20/20/16
f 16/16/16 20/20/16 21/21/16
f 16/16/16 21/21/16 22/22/16
f 23/23/16 22/22/16 21/21/16
f 21/21/16 24/24/16 23/23/16
f 24/24/16 25/25/16 23/23/16
f 24/24/16 26/26/16 25/25/16
f 24/24/16 27/27/16 26/26/16
f 24/24/16 28/28/16 27/27/16
f 24/24/16 29/29/16 28/28/16
f 24/24/16 30/30/16 29/29/16
f 24/24/16 31/31/16 30/30/16
f 24/24/16 32/32/16 31/31/16
s 1
f 33/33/17 34/33/18 35/33/19
f 35/33/19 36/33/20 33/33/17
f 34/33/18 37/33/21 35/33/19
f 37/33/21 34/33/18 38/33/22
f 38/33/22 39/33/23 37/33/21
f 38/33/22 34/33/18 40/33/24
f 40/33/24 41/33/25 38/33/22
f 40/33/24 34/33/18 42/33/26
f 42/33/26 34/33/18 33/33/17
f 33/33/17 43/33/27 42/33/26
f 43/33/27 33/33/17 44/33/28
f 44/33/28 33/33/17 45/33/29
f 45/33/29 46/33/30 44/33/28
f 33/33/17 36/33/20 47/33/31
f 45/33/29 33/33/17 47/33/31
f 47/33/31 48/33/32 45/33/29
f 47/33/31 36/33/20 49/33/33
f 48/33/32 47/33/31 50/33/34
f 49/33/33 50/33/34 47/33/31
f 50/33/34 49/33/33 51/33/35
f 51/33/35 52/33/36 50/33/34
f 42/33/26 43/33/27 53/33/37
f 52/33/36 51/33/35 53/33/37
f 53/33/37 54/33/38 52/33/36
f 43/33/27 44/33/28 54/33/38
f 54/33/38 53/33/37 43/33/27
f 55/33/39 53/33/37 51/33/35
f 53/33/37 55/33/39 42/33/26
f 40/33/24 42/33/26 55/33/39
f 51/33/35 56/33/40 55/33/39
f 56/33/40 51/33/35 49/33/33
f 49/33/33 57/33/41 56/33/40
f 57/33/41 49/33/33 36/33/20
f 36/33/20 35/33/19 57/33/41
f 35/33/19 37/33/21 58/33/42
f 58/33/42 57/33/41 35/33/19
f 37/33/21 39/33/23 59/33/43
f 59/33/43 58/33/42 37/33/21
f 58/33/42 59/33/43 60/33/44
f 57/33/41 58/33/42 61/33/45
f 60/33/44 61/33/45 58/33/42
f 61/33/45 56/33/40 57/33/41
f 41/33/25 40/33/24 62/33/46
f 56/33/40 61/33/45 62/33/46
f 62/33/46 55/33/39 56/33/40
f 55/33/39 62/33/46 40/33/24
f 63/33/47 62/33/46 61/33/45
f 61/33/45 60/33/44 63/33/47
f 62/33/46 63/33/47 41/33/25
f 64/33/48 54/33/38 44/33/28
f 44/33/28 46/33/30 64/33/48
f 65/33/49 52/33/36 54/33/38
f 54/33/38 64/33/48 65/33/49
f 66/33/50 50/33/34 52/33/36
f 50/33/34 66/33/50 48/33/32
f 52/33/36 65/33/49 66/33/50
f 67/34/51 68/35/52 69/35/53
f 68/35/52 67/34/51 70/35/54
f 70/35/54 71/35/55 68/35/52
f 71/35/55 70/35/54 72/34/56
f 72/34/56 73/35/57 71/35/55
f 73/35/57 72/34/56 74/35/58
f 74/35/58 72/34/56 75/35/59
f 75/35/59 72/34/56 70/35/54
f 70/35/54 76/35/60 75/35/59
f 77/35/61 75/35/59 76/35/60
f 75/35/59 77/35/61 78/35/62
f 75/35/59 79/35/63 74/35/58
f 78/35/62 79/35/63 75/35/59
f 74/35/58 79/35/63 80/35/64
f 81/35/65 80/35/64 79/35/63
f 79/35/63 78/35/62 81/35/65
f 82/36/66 80/35/64 81/35/65
f 80/35/64 82/36/66 83/36/67
f 84/37/68 83/36/67 82/36/66
f 83/36/67 84/37/68 85/37/69
f 86/38/70 85/37/69 84/37/68
f 85/37/69 86/38/70 87/38/71
f 85/37/69 88/36/72 83/36/67
f 87/38/71 89/39/73 85/37/69
f 88/36/72 85/37/69 89/39/73
f 89/39/73 87/38/71 90/38/74
f 90/38/74 91/39/75 89/39/73
f 92/35/76 89/39/73 91/39/75
f 91/39/75 93/35/77 92/35/76
f 94/35/78 93/35/77 91/39/75
f 91/39/75 95/39/79 94/35/78
f 96/37/80 95/39/79 91/39/75
f 95/39/79 96/37/80 97/37/81
f 97/37/81 98/39/82 95/39/79
f 99/35/83 95/39/79 98/39/82
f 95/39/79 99/35/83 94/35/78
f 98/39/82 100/35/84 99/35/83
f 100/35/84 101/35/85 99/35/83
f 94/35/78 99/35/83 101/35/85
f 101/35/85 100/35/84 102/35/86
f 103/36/87 102/35/86 100/35/84
f 100/35/84 98/39/82 103/36/87
f 102/35/86 103/36/87 104/36/88
f 105/37/89 104/36/88 103/36/87
f 104/36/88 105/37/89 106/37/90
f 107/37/91 106/37/90 105/37/89
f 106/37/90 107/37/91 108/37/92
f 108/37/92 109/37/93 106/37/90
f 110/36/94 106/37/90 109/37/93
f 106/37/90 110/36/94 104/36/88
f 104/36/88 111/35/95 102/35/86
f 111/35/95 104/36/88 110/36/94
f 102/35/86 111/35/95 112/35/96
f 101/35/85 102/35/86 113/35/97
f 112/35/96 113/35/97 102/35/86
f 101/35/85 113/35/97 114/35/98
f 113/35/97 112/35/96 115/35/99
f 115/35/99 114/35/98 113/35/97
f 116/35/100 115/35/99 112/35/96
f 112/35/96 117/35/101 116/35/100
f 112/35/96 111/35/95 118/35/102
f 110/36/94 118/35/102 111/35/95
f 118/35/102 117/35/101 112/35/96
f 118/35/102 110/36/94 119/36/103
f 109/37/93 119/36/103 110/36/94
f 119/36/103 120/35/104 118/35/102
f 121/35/105 117/35/101 118/35/102
f 118/35/102 120/35/104 121/35/105
f 117/35/101 121/35/105 122/35/106
f 122/35/106 116/35/100 117/35/101
f 116/35/100 122/35/106 123/35/107
f 123/35/107 124/35/108 116/35/100
f 124/35/108 123/35/107 125/35/109
f 125/35/109 126/35/110 124/35/108
f 126/35/110 125/35/109 127/35/111
f 127/35/111 128/35/112 126/35/110
f 128/35/112 127/35/111 129/35/113
f 129/35/113 130/35/114 128/35/112
f 131/35/115 130/35/114 129/35/113
f 129/35/113 132/35/116 131/35/115
f 131/35/115 132/35/116 133/35/117
f 133/35/117 134/35/118 131/35/115
f 131/35/115 134/35/118 135/35/119
f 69/35/53 135/35/119 67/34/51
f 136/35/120 67/34/51 135/35/119
f 70/35/54 67/34/51 136/35/120
f 136/35/120 76/35/60 70/35/54
f 135/35/119 134/35/118 136/35/120
f 134/35/118 133/35/117 137/35/121
f 137/35/121 136/35/120 134/35/118
f 138/35/122 76/35/60 136/35/120
f 76/35/60 138/35/122 77/35/61
f 136/35/120 137/35/121 138/35/122
f 135/35/119 69/35/53 139/34/123
f 135/35/119 140/34/124 131/35/115
f 130/35/114 131/35/115 140/34/124
f 139/34/123 140/34/124 135/35/119
f 141/40/125 140/34/124 139/34/123
f 140/34/124 141/40/125 130/35/114
f 139/34/123 142/40/126 141/40/125
f 142/40/126 139/34/123 143/35/127
f 144/35/128 143/35/127 93/35/77
f 93/35/77 94/35/78 144/35/128
f 143/35/127 144/35/128 142/40/126
f 143/35/127 145/35/129 93/35/77
f 145/35/129 139/34/123 69/35/53
f 145/35/129 69/35/53 68/35/52
f 145/35/129 143/35/127 139/34/123
f 145/35/129 146/35/130 93/35/77
f 92/35/76 146/35/130 73/35/57
f 146/35/130 145/35/129 68/35/52
f 146/35/130 71/35/55 73/35/57
f 146/35/130 68/35/52 71/35/55
f 146/35/130 92/35/76 93/35/77
f 147/35/131 101/35/85 114/35/98
f 101/35/85 147/35/131 94/35/78
f 147/35/131 144/35/128 94/35/78
f 147/35/131 114/35/98 148/35/132
f 149/35/133 124/35/108 126/35/110
f 114/35/98 115/35/99 149/35/133
f 149/35/133 115/35/99 116/35/100
f 116/35/100 124/35/108 149/35/133
f 149/35/133 148/35/132 114/35/98
f 148/35/132 149/35/133 150/35/134
f 126/35/110 150/35/134 149/35/133
f 147/35/131 148/35/132 151/35/135
f 144/35/128 147/35/131 151/35/135
f 150/35/134 151/35/135 148/35/132
f 152/35/136 128/35/112 130/35/114
f 130/35/114 141/40/125 152/35/136
f 152/35/136 150/35/134 126/35/110
f 126/35/110 128/35/112 152/35/136
f 151/35/135 150/35/134 152/35/136
f 141/40/125 142/40/126 153/35/137
f 153/35/137 152/35/136 141/40/125
f 144/35/128 151/35/135 153/35/137
f 144/35/128 153/35/137 142/40/126
f 152/35/136 153/35/137 151/35/135
f 154/38/138 87/38/71 86/38/70
f 154/38/138 155/38/139 90/38/74
f 87/38/71 154/38/138 90/38/74
f 155/38/139 154/38/138 156/41/140
f 155/38/139 157/38/141 90/38/74
f 158/37/142 90/38/74 157/38/141
f 158/37/142 91/39/75 90/38/74
f 91/39/75 158/37/142 96/37/80
f 157/38/141 159/38/143 158/37/142
f 96/37/80 158/37/142 160/38/144
f 159/38/143 160/38/144 158/37/142
f 160/38/144 161/37/145 96/37/80
f 161/37/145 97/37/81 96/37/80
f 97/37/81 161/37/145 162/37/146
f 161/37/145 163/38/147 162/37/146
f 164/42/148 162/37/146 163/38/147
f 162/37/146 164/42/148 165/37/149
f 97/37/81 162/37/146 166/37/150
f 165/37/149 166/37/150 162/37/146
f 107/37/91 167/37/151 165/37/149
f 166/37/150 165/37/149 167/37/151
f 105/37/89 167/37/151 107/37/91
f 167/37/151 168/37/152 166/37/150
f 97/37/81 166/37/150 168/37/152
f 98/39/82 97/37/81 168/37/152
f 168/37/152 169/37/153 98/39/82
f 169/37/153 103/36/87 98/39/82
f 169/37/153 168/37/152 167/37/151
f 103/36/87 169/37/153 105/37/89
f 167/37/151 105/37/89 169/37/153
f 170/39/154 171/39/155 172/39/156
f 172/39/156 173/39/157 170/39/154
f 174/39/158 173/39/157 172/39/156
f 175/39/159 170/39/154 173/39/157
f 173/39/157 174/39/158 175/39/159
f 170/39/154 175/39/159 176/39/160
f 176/39/160 171/39/155 170/39/154
f 177/39/161 176/39/160 175/39/159
f 171/39/155 176/39/160 178/39/160
f 178/39/160 179/39/162 171/39/155
f 180/39/163 172/39/156 171/39/155
f 171/39/155 179/39/162 180/39/163
f 181/39/164 172/39/156 180/39/163
f 172/39/156 181/39/164 174/39/158
f 182/39/158 174/39/158 181/39/164
f 183/39/159 175/39/159 174/39/158
f 174/39/158 182/39/158 183/39/159
f 175/39/159 183/39/159 177/39/161
f 184/39/165 183/39/159 182/39/158
f 185/39/166 177/39/161 183/39/159
f 183/39/159 184/39/165 185/39/166
s 0
f 186/39/160 178/39/160 176/39/160
f 176/39/160 177/39/160 186/39/160
s 1
f 177/39/161 185/39/166 187/39/166
f 187/39/166 186/39/160 177/39/161
f 187/39/166 185/39/166 188/39/167
f 188/39/167 189/39/168 187/39/166
f 190/39/164 189/39/168 188/39/167
f 188/39/167 191/39/164 190/39/164
f 181/39/164 191/39/164 182/39/158
s 0
f 192/39/164 190/39/164 191/39/164
f 191/39/164 181/39/164 192/39/164
s 1
f 180/39/163 192/39/164 181/39/164
f 182/39/158 193/39/169 184/39/165
f 193/39/169 188/39/167 185/39/166
f 185/39/166 184/39/165 193/39/169
f 193/39/169 182/39/158 191/39/164
f 191/39/164 188/39/167 193/39/169
f 194/39/170 195/39/171 196/39/171
f 196/39/171 197/39/172 194/39/170
f 198/39/173 197/39/172 196/39/171
f 199/39/174 197/39/172 198/39/173
f 198/39/173 200/39/175 199/39/174
f 197/39/172 199/39/174 201/39/176
f 201/39/176 194/39/170 197/39/172
f 194/39/170 201/39/176 202/39/177
f 203/39/177 202/39/177 201/39/176
s 0
f 204/39/178 202/39/178 203/39/178
s 1
f 202/39/177 204/39/177 205/39/179
f 205/39/179 204/39/177 206/39/180
f 205/39/179 207/39/181 202/39/177
f 202/39/177 207/39/181 194/39/170
f 195/39/171 194/39/170 207/39/181
f 207/39/181 208/39/182 195/39/171
f 208/39/182 207/39/181 205/39/179
f 205/39/179 209/39/183 208/39/182
f 206/39/180 210/39/184 205/39/179
f 209/39/183 205/39/179 210/39/184
f 210/39/184 211/39/185 209/39/183
f 211/39/185 210/39/184 212/39/186
f 212/39/186 210/39/184 206/39/180
f 212/39/186 206/39/180 213/39/187
s 0
f 213/39/188 206/39/189 214/39/189
f 214/39/180 206/39/180 204/39/177
f 214/39/190 215/39/191 213/39/188
f 214/39/192 216/39/192 215/39/193
s 1
f 217/39/194 215/39/193 216/39/195
f 218/39/196 213/39/187 215/39/193
f 215/39/193 217/39/194 218/39/196
f 213/39/187 218/39/196 212/39/186
f 212/39/186 219/39/197 211/39/185
f 219/39/197 212/39/186 218/39/196
f 218/39/196 220/39/198 219/39/197
f 220/39/198 218/39/196 217/39/194
f 217/39/194 221/39/199 220/39/198
f 216/39/195 222/39/200 217/39/194
f 221/39/199 217/39/194 222/39/200
f 222/39/200 216/39/195 223/39/193
s 0
f 214/39/192 223/39/193 216/39/192
s 1
f 223/39/193 224/39/201 222/39/200
f 225/39/202 222/39/200 224/39/201
f 222/39/200 225/39/202 221/39/199
f 224/39/201 226/39/203 225/39/202
f 226/39/203 224/39/201 227/39/204
f 227/39/204 228/39/205 226/39/203
f 228/39/205 227/39/204 229/39/206
f 230/39/207 229/39/206 227/39/204
s 0
f 214/39/180 231/39/188 223/39/193
s 1
f 224/39/201 223/39/193 231/39/188
f 231/39/188 227/39/204 224/39/201
s 0
f 231/39/188 214/39/189 230/39/189
s 1
f 227/39/204 231/39/188 230/39/207
s 0
f 203/39/177 232/39/177 204/39/177
f 214/39/192 204/39/178 232/39/178
f 232/39/178 230/39/180 214/39/180
s 1
f 230/39/207 232/39/177 233/39/208
f 233/39/208 234/39/209 230/39/207
f 229/39/206 230/39/207 234/39/209
f 235/39/210 234/39/209 233/39/208
f 233/39/208 236/36/211 235/39/210
f 232/39/177 203/39/177 237/39/212
f 237/39/212 233/39/208 232/39/177
f 236/36/211 233/39/208 237/39/212
f 237/39/212 238/36/213 236/36/211
f 239/39/214 237/39/212 203/39/177
f 238/36/213 237/39/212 239/39/214
f 203/39/177 240/39/176 239/39/214
f 201/39/176 240/39/176 203/39/177
f 240/39/176 201/39/176 199/39/174
f 241/39/215 239/39/214 240/39/176
f 199/39/174 242/39/216 240/39/176
f 242/39/216 199/39/174 200/39/175
f 240/39/176 242/39/216 241/39/215
f 200/39/175 243/39/217 242/39/216
f 243/39/217 241/39/215 242/39/216
f 241/39/215 243/39/217 244/39/218
f 244/39/218 245/39/219 241/39/215
f 244/39/218 246/39/220 245/39/219
f 246/39/220 247/39/221 245/39/219
f 248/39/222 245/39/219 247/39/221
f 248/39/222 249/39/223 245/39/219
f 245/39/219 249/39/223 250/39/224
f 249/39/223 251/39/225 250/39/224
f 251/39/225 252/39/226 250/39/224
f 251/39/225 253/39/227 252/39/226
f 254/39/171 195/39/171 208/39/182
f 254/39/171 253/39/227 251/39/225
f 255/39/228 253/39/227 254/39/171
f 208/39/182 255/39/228 254/39/171
f 253/39/227 255/39/228 256/39/229
f 256/39/229 255/39/228 208/39/182
f 208/39/182 209/39/183 256/39/229
f 209/39/183 211/39/185 257/39/230
f 257/39/230 256/39/229 209/39/183
f 258/39/231 256/39/229 257/39/230
f 256/39/229 258/39/231 253/39/227
f 259/43/232 250/39/224 252/39/226
f 236/36/211 238/36/213 259/43/232
f 235/39/210 236/36/211 259/43/232
f 259/43/232 253/39/227 258/39/231
f 252/39/226 253/39/227 259/43/232
f 250/39/224 260/39/233 245/39/219
f 241/39/215 245/39/219 260/39/233
f 260/39/233 239/39/214 241/39/215
f 239/39/214 260/39/233 238/36/213
f 260/39/233 259/43/232 238/36/213
f 259/43/232 260/39/233 250/39/224
f 259/43/232 261/39/234 235/39/210
f 262/39/235 261/39/234 259/43/232
f 259/43/232 263/39/236 262/39/235
f 259/43/232 264/39/237 263/39/236
f 265/39/238 263/39/236 264/39/237
f 228/39/205 265/39/238 266/39/239
f 266/39/239 226/39/203 228/39/205
f 264/39/237 266/39/239 265/39/238
f 267/39/240 264/39/237 259/43/232
f 266/39/239 264/39/237 267/39/240
f 221/39/199 225/39/202 268/39/241
f 267/39/240 268/39/241 266/39/239
f 226/39/203 266/39/239 268/39/241
f 268/39/241 225/39/202 226/39/203
f 269/39/242 267/39/240 259/43/232
f 268/39/241 267/39/240 269/39/242
f 269/39/242 270/39/243 268/39/241
f 220/39/198 221/39/199 270/39/243
f 268/39/241 270/39/243 221/39/199
f 259/43/232 271/39/244 269/39/242
f 270/39/243 269/39/242 271/39/244
f 272/39/245 271/39/244 259/43/232
f 257/39/230 273/39/246 258/39/231
f 259/43/232 273/39/246 272/39/245
f 258/39/231 273/39/246 259/43/232
f 211/39/185 219/39/197 274/39/247
f 273/39/246 257/39/230 274/39/247
f 274/39/247 272/39/245 273/39/246
f 274/39/247 257/39/230 211/39/185
f 271/39/244 275/39/248 270/39/243
f 270/39/243 275/39/248 220/39/198
f 275/39/248 274/39/247 219/39/197
f 275/39/248 271/39/244 272/39/245
f 272/39/245 274/39/247 275/39/248
f 219/39/197 220/39/198 275/39/248
f 235/39/210 276/39/249 234/39/209
f 229/39/206 276/39/249 228/39/205
f 265/39/238 228/39/205 276/39/249
f 276/39/249 229/39/206 234/39/209
f 263/39/236 265/39/238 277/39/250
f 276/39/249 277/39/250 265/39/238
f 235/39/210 261/39/234 277/39/250
f 235/39/210 277/39/250 276/39/249
f 277/39/250 262/39/235 263/39/236
f 261/39/234 262/39/235 277/39/250
f 160/38/144 159/38/143 278/38/251
f 279/44/252 278/38/251 159/38/143
f 159/38/143 157/38/141 279/44/252
f 278/38/251 279/44/252 280/45/253
f 280/45/253 281/38/254 278/38/251
f 278/38/251 281/38/254 282/38/255
f 160/38/144 278/38/251 283/38/256
f 282/38/255 283/38/256 278/38/251
f 283/38/256 282/38/255 284/44/257
f 285/38/258 284/44/257 282/38/255
f 282/38/255 286/38/259 285/38/258
f 287/38/260 285/38/258 286/38/259
f 286/38/259 288/38/261 287/38/260
f 282/38/255 281/38/254 289/38/262
f 289/38/262 286/38/259 282/38/255
f 288/38/261 286/38/259 289/38/262
f 290/45/263 289/38/262 281/38/254
f 281/38/254 280/45/253 290/45/263
f 289/38/262 290/45/263 291/38/264
f 289/38/262 292/38/265 288/38/261
f 291/38/264 292/38/265 289/38/262
f 293/39/266 249/39/223 248/39/222
s 0
f 293/39/266 196/39/171 195/39/171
f 195/39/171 254/39/171 293/39/266
s 1
f 251/39/225 249/39/223 293/39/266
f 251/39/225 293/39/266 254/39/171
f 293/39/266 248/39/222 294/39/267
f 247/39/221 294/39/267 248/39/222
f 295/46/268 296/46/269 297/47/270
f 297/47/270 298/47/271 295/46/268
f 295/46/268 298/47/271 299/47/271
f 299/47/271 300/46/268 295/46/268
f 301/48/272 295/46/268 300/46/268
f 296/46/269 295/46/268 301/48/272
f 300/46/268 302/48/273 301/48/272
f 303/49/274 301/48/272 302/48/273
f 302/48/273 304/49/274 303/49/274
f 305/50/275 303/49/274 304/49/274
f 304/49/274 306/50/275 305/50/275
f 305/50/275 306/50/275 307/51/276
f 307/51/276 308/51/276 305/50/275
f 303/49/274 305/50/275 309/50/277
f 309/50/277 305/50/275 308/51/276
f 301/48/272 303/49/274 310/49/278
f 309/50/277 310/49/278 303/49/274
f 310/49/278 311/48/279 301/48/272
f 301/48/272 311/48/279 296/46/269
f 296/46/269 311/48/279 312/52/280
f 310/49/278 309/50/277 312/52/280
f 311/48/279 310/49/278 312/52/280
f 313/53/280 312/52/280 309/50/277
f 312/52/280 314/54/281 296/46/269
f 297/47/270 296/46/269 314/54/281
s 0
f 314/54/281 312/52/281 313/53/281
f 313/53/281 315/55/281 314/54/281
f 316/56/282 314/54/282 315/55/282
s 1
f 314/54/281 316/56/281 297/47/270
s 0
f 315/55/283 317/57/283 316/56/283
s 1
f 318/58/284 317/57/280 315/55/282
f 317/57/280 318/58/284 319/59/285
f 319/59/285 318/58/284 320/58/286
f 320/58/286 321/59/287 319/59/285
f 321/59/287 320/58/286 322/58/286
f 322/58/286 323/59/287 321/59/287
f 324/60/288 322/58/286 320/58/286
f 320/58/286 325/60/288 324/60/288
f 325/60/288 320/58/286 318/58/284
f 318/58/284 326/60/289 325/60/288
f 315/55/282 326/60/289 318/58/284
f 326/60/289 315/55/282 327/61/281
s 0
f 313/53/290 327/61/290 315/55/290
s 1
f 327/61/281 328/62/291 326/60/289
f 329/63/292 328/62/291 327/61/281
f 330/64/293 325/60/288 326/60/289
f 326/60/289 328/62/291 330/64/293
f 325/60/288 330/64/293 331/62/293
f 331/62/293 324/60/288 325/60/288
f 332/63/294 331/62/293 330/64/293
f 333/63/295 330/64/293 328/62/291
f 328/62/291 329/63/292 333/63/295
f 330/64/293 333/63/295 332/63/294
f 334/65/296 332/63/294 333/63/295
f 333/63/295 335/65/297 334/65/296
f 307/51/276 334/65/296 335/65/297
f 335/65/297 308/51/276 307/51/276
f 335/65/297 333/63/295 329/63/292
f 308/51/276 335/65/297 336/65/298
f 329/63/292 336/65/298 335/65/297
f 336/65/298 327/61/281 313/53/280
f 327/61/281 336/65/298 329/63/292
f 337/65/299 334/65/296 307/51/276
f 334/65/296 337/65/299 338/63/300
f 338/63/300 332/63/294 334/65/296
f 339/66/301 338/63/300 337/65/299
f 340/64/302 331/62/293 332/63/294
f 332/63/294 338/63/300 340/64/302
f 340/64/302 338/63/300 339/66/301
f 341/60/303 340/64/302 339/66/301
f 331/62/293 340/64/302 341/60/303
f 341/60/303 324/60/288 331/62/293
f 342/58/304 322/58/286 324/60/288
f 324/60/288 341/60/303 342/58/304
f 300/46/268 299/47/271 343/47/305
f 343/47/305 342/58/304 341/60/303
f 342/58/304 343/47/305 344/67/306
f 344/67/306 343/47/305 299/47/271
f 344/67/306 345/59/307 342/58/304
f 322/58/286 342/58/304 345/59/307
f 345/59/307 323/59/287 322/58/286
f 323/59/287 345/59/307 346/68/308
f 345/59/307 344/67/306 346/68/308
f 299/47/271 347/67/309 344/67/306
f 344/67/306 347/67/309 346/68/308
f 347/67/309 299/47/271 298/47/271
f 348/69/310 346/68/308 347/67/309
f 347/67/309 349/67/309 348/69/310
f 298/47/271 349/67/309 347/67/309
f 298/47/271 297/47/270 350/67/311
f 350/67/311 349/67/309 298/47/271
f 350/67/311 297/47/270 316/56/281
f 351/69/312 316/56/281 317/57/280
f 316/56/281 351/69/312 350/67/311
f 349/67/309 350/67/311 351/69/312
f 351/69/312 352/70/308 349/67/309
f 349/67/309 352/70/308 348/69/310
f 353/68/308 352/70/308 351/69/312
f 354/71/313 319/59/285 321/59/287
f 317/57/280 354/71/313 351/69/312
f 351/69/312 354/71/313 353/68/308
f 319/59/285 354/71/313 317/57/280
f 343/47/305 355/46/314 300/46/268
f 341/60/303 339/66/301 355/46/314
f 341/60/303 355/46/314 343/47/305
f 302/48/273 300/46/268 355/46/314
f 339/66/301 356/48/315 355/46/314
f 304/49/274 302/48/273 356/48/315
f 355/46/314 356/48/315 302/48/273
f 357/49/316 356/48/315 339/66/301
f 356/48/315 357/49/316 304/49/274
f 306/50/275 304/49/274 357/49/316
f 357/49/316 358/50/317 306/50/275
f 358/50/317 357/49/316 339/66/301
f 337/65/299 359/51/318 339/66/301
f 307/51/276 359/51/318 337/65/299
f 359/51/318 307/51/276 306/50/275
f 306/50/275 358/50/317 359/51/318
f 339/66/301 359/51/318 358/50/317
f 360/72/319 361/73/319 362/74/320
s 0
f 361/73/319 360/72/319 363/75/319
s 1
f 362/74/320 364/76/320 360/72/319
f 362/74/320 365/77/321 364/76/320
f 365/77/321 362/74/320 366/78/322
f 367/79/323 366/78/322 362/74/320
f 367/79/323 368/74/322 366/78/322
f 369/79/323 368/74/322 367/79/323
f 368/74/322 369/79/323 370/77/322
f 371/79/324 370/77/322 369/79/323
f 372/80/325 370/77/322 371/79/324
f 373/81/326 372/80/325 371/79/324
f 372/80/325 373/81/326 374/81/327
f 375/82/328 374/81/327 373/81/326
f 376/81/327 374/81/327 375/82/328
f 375/82/328 377/82/328 376/81/327
f 377/82/328 375/82/328 378/83/329
f 378/83/329 379/83/329 377/82/328
f 379/83/329 378/83/329 380/84/330
f 380/84/330 381/84/330 379/83/329
f 381/84/330 380/84/330 382/85/331
f 382/85/331 383/85/332 381/84/330
f 383/85/332 382/85/331 384/86/333
f 384/86/333 385/86/334 383/85/332
f 386/87/335 385/86/334 384/86/333
f 384/86/333 387/87/336 386/87/335
f 386/87/335 387/87/336 388/88/337
f 388/88/337 389/88/337 386/87/335
f 389/88/337 388/88/337 390/89/338
f 390/89/338 391/89/339 389/88/337
f 391/89/339 390/89/338 392/90/340
f 392/90/340 393/90/341 391/89/339
f 371/79/324 369/79/323 394/91/342
f 393/90/341 392/90/340 394/91/342
f 369/79/323 367/79/323 395/91/343
f 394/91/342 395/91/343 393/90/341
f 395/91/343 394/91/342 369/79/323
f 394/91/342 396/91/344 371/79/324
f 396/91/344 394/91/342 392/90/340
f 371/79/324 396/91/344 373/81/326
f 373/81/326 397/82/345 375/82/328
f 378/83/329 375/82/328 397/82/345
f 397/82/345 373/81/326 396/91/344
f 380/84/330 378/83/329 398/83/346
f 397/82/345 398/83/346 378/83/329
f 382/85/331 380/84/330 399/84/347
f 398/83/346 399/84/347 380/84/330
f 398/83/346 400/92/348 399/84/347
f 397/82/345 400/92/348 398/83/346
f 397/82/345 401/90/349 400/92/348
f 396/91/344 401/90/349 397/82/345
f 401/90/349 392/90/340 390/89/338
f 392/90/340 401/90/349 396/91/344
f 402/89/350 390/89/338 388/88/337
f 390/89/338 402/89/350 401/90/349
f 400/92/348 401/90/349 402/89/350
f 388/88/337 403/88/351 402/89/350
f 403/88/351 388/88/337 387/87/336
f 403/88/351 400/92/348 402/89/350
f 404/87/352 400/92/348 403/88/351
f 387/87/336 404/87/352 403/88/351
f 405/86/353 404/87/352 387/87/336
f 387/87/336 384/86/333 405/86/353
f 400/92/348 404/87/352 405/86/353
f 400/92/348 406/85/354 399/84/347
f 406/85/354 405/86/353 384/86/333
f 384/86/333 382/85/331 406/85/354
f 399/84/347 406/85/354 382/85/331
f 406/85/354 400/92/348 405/86/353
f 80/35/64 407/35/355 74/35/58
f 407/35/355 83/36/67 88/36/72
f 83/36/67 407/35/355 80/35/64
f 88/36/72 408/35/356 407/35/355
f 408/35/356 88/36/72 89/39/73
f 89/39/73 92/35/76 408/35/356
f 407/35/355 408/35/356 409/35/357
f 74/35/58 409/35/357 73/35/57
f 92/35/76 73/35/57 409/35/357
f 92/35/76 409/35/357 408/35/356
f 409/35/357 74/35/58 407/35/355
f 280/45/253 279/44/252 410/38/358
f 157/38/141 410/38/358 279/44/252
f 157/38/141 155/38/139 411/38/359
f 157/38/141 411/38/359 410/38/358
f 155/38/139 412/38/360 411/38/359
f 155/38/139 156/41/140 412/38/360
f 413/38/361 412/38/360 156/41/140
f 156/41/140 414/38/362 413/38/361
f 413/38/361 414/38/362 415/38/363
f 415/38/363 416/38/364 413/38/361
f 413/38/361 416/38/364 417/38/365
f 418/38/366 417/38/365 416/38/364
f 417/38/365 418/38/366 419/38/367
f 420/38/368 419/38/367 291/38/264
f 419/38/367 420/38/368 417/38/365
f 291/38/264 290/45/263 420/38/368
f 421/38/369 410/38/358 411/38/359
f 417/38/365 420/38/368 421/38/369
f 290/45/263 280/45/253 421/38/369
f 410/38/358 421/38/369 280/45/253
f 421/38/369 420/38/368 290/45/263
f 421/38/369 422/38/370 417/38/365
f 422/38/370 411/38/359 412/38/360
f 412/38/360 413/38/361 422/38/370
f 411/38/359 422/38/370 421/38/369
f 417/38/365 422/38/370 413/38/361
f 415/38/363 414/38/362 423/38/371
f 414/38/362 156/41/140 424/38/372
f 424/38/372 423/38/371 414/38/362
f 154/38/138 86/38/70 424/38/372
f 154/38/138 424/38/372 156/41/140
f 423/38/371 424/38/372 86/38/70
f 423/38/371 425/38/373 415/38/363
f 426/38/374 425/38/373 423/38/371
f 427/38/375 425/38/373 426/38/374
f 426/38/374 428/38/376 427/38/375
f 429/37/377 428/38/376 426/38/374
f 426/38/374 430/37/378 429/37/377
f 82/36/66 430/37/378 84/37/68
f 431/38/379 84/37/68 430/37/378
f 430/37/378 426/38/374 431/38/379
f 423/38/371 431/38/379 426/38/374
f 84/37/68 431/38/379 86/38/70
f 86/38/70 431/38/379 423/38/371
f 432/41/380 415/38/363 425/38/373
f 425/38/373 427/38/375 432/41/380
f 416/38/364 433/38/381 418/38/366
f 433/38/381 416/38/364 415/38/363
f 415/38/363 432/41/380 433/38/381
f 163/38/147 434/38/382 164/42/148
f 434/38/382 284/44/257 285/38/258
f 160/38/144 283/38/256 435/44/383
f 161/37/145 160/38/144 435/44/383
f 161/37/145 435/44/383 163/38/147
f 435/44/383 284/44/257 434/38/382
f 434/38/382 163/38/147 435/44/383
f 284/44/257 435/44/383 283/38/256
f 294/39/267 436/39/384 293/39/266
f 436/39/384 198/39/173 196/39/171
f 196/39/171 293/39/266 436/39/384
s 0
f 16/16/16 437/93/16 438/94/16
f 16/16/16 22/22/16 439/95/16
f 16/16/16 439/95/16 437/93/16
s 1
f 440/37/385 164/42/148 434/38/382
f 165/37/149 164/42/148 440/37/385
f 440/37/385 441/37/386 442/37/387
f 442/37/387 443/37/388 440/37/385
f 108/37/92 107/37/91 443/37/388
f 165/37/149 443/37/388 107/37/91
f 443/37/388 442/37/387 108/37/92
f 440/37/385 443/37/388 165/37/149
f 285/38/258 444/37/389 434/38/382
f 434/38/382 444/37/389 440/37/385
f 441/37/386 440/37/385 444/37/389
f 285/38/258 287/38/260 445/37/390
f 444/37/389 445/37/390 441/37/386
f 445/37/390 444/37/389 285/38/258
f 446/36/391 429/37/377 430/37/378
f 430/37/378 82/36/66 446/36/391
f 81/35/65 446/36/391 82/36/66
f 313/53/280 447/51/392 336/65/298
f 309/50/277 447/51/392 313/53/280
f 308/51/276 447/51/392 309/50/277
f 336/65/298 447/51/392 308/51/276
f 323/59/287 346/68/308 448/71/308
f 321/59/287 323/59/287 448/71/308
f 448/71/308 449/96/308 321/59/287
f 354/71/313 449/96/308 353/68/308
f 321/59/287 449/96/308 354/71/313
f 450/33/393 451/33/394 452/33/395
f 452/33/395 453/33/396 450/33/393
f 451/33/394 450/33/393 454/33/397
f 454/33/397 455/33/398 451/33/394
f 456/33/399 451/33/394 455/33/398
f 455/33/398 457/33/400 456/33/399
f 456/33/399 457/33/400 458/33/401
f 458/33/401 459/33/402 456/33/399
f 460/33/403 459/33/402 458/33/401
f 458/33/401 461/33/404 460/33/403
f 462/33/405 460/33/403 461/33/404
f 462/33/405 450/33/393 453/33/396
f 450/33/393 462/33/405 463/33/406
f 461/33/404 463/33/406 462/33/405
f 463/33/406 454/33/397 450/33/393
f 460/33/403 462/33/405 464/33/407
f 453/33/396 464/33/407 462/33/405
f 464/33/407 453/33/396 465/33/408
f 465/33/408 466/33/409 464/33/407
f 466/33/409 465/33/408 467/33/410
f 467/33/410 468/33/411 466/33/409
f 468/33/411 467/33/410 469/33/412
f 469/33/412 470/33/413 468/33/411
f 471/33/414 469/33/412 467/33/410
f 472/33/415 467/33/410 465/33/408
f 467/33/410 472/33/415 471/33/414
f 473/33/416 471/33/414 472/33/415
f 472/33/415 474/33/417 473/33/416
f 465/33/408 475/33/418 472/33/415
f 453/33/396 452/33/395 475/33/418
f 475/33/418 465/33/408 453/33/396
f 474/33/417 472/33/415 475/33/418
f 476/33/419 475/33/418 452/33/395
f 475/33/418 476/33/419 474/33/417
f 459/33/402 477/33/420 476/33/419
f 474/33/417 476/33/419 477/33/420
f 478/33/421 477/33/420 459/33/402
f 478/33/421 466/33/409 468/33/411
f 466/33/409 478/33/421 479/33/422
f 479/33/422 464/33/407 466/33/409
f 464/33/407 479/33/422 460/33/403
f 459/33/402 460/33/403 479/33/422
f 459/33/402 479/33/422 478/33/421
f 477/33/420 478/33/421 480/33/423
f 468/33/411 480/33/423 478/33/421
f 480/33/423 468/33/411 470/33/413
f 470/33/413 481/33/424 480/33/423
f 480/33/423 481/33/424 482/33/425
f 482/33/425 473/33/416 474/33/417
f 474/33/417 477/33/420 482/33/425
f 482/33/425 477/33/420 480/33/423
f 483/33/426 452/33/395 451/33/394
f 452/33/395 483/33/426 476/33/419
f 451/33/394 456/33/399 483/33/426
f 476/33/419 483/33/426 459/33/402
f 483/33/426 456/33/399 459/33/402
f 360/72/319 364/76/320 484/80/427
f 363/75/319 360/72/319 485/81/428
f 485/81/428 376/81/327 377/82/328
f 484/80/427 485/81/428 360/72/319
f 376/81/327 485/81/428 484/80/427
f 377/82/328 486/82/429 485/81/428
f 485/81/428 486/82/429 363/75/319
f 486/82/429 377/82/328 379/83/329
f 487/83/430 379/83/329 381/84/330
f 379/83/329 487/83/430 486/82/429
f 381/84/330 488/84/431 487/83/430
f 488/84/431 381/84/330 383/85/332
f 383/85/332 489/85/432 488/84/431
f 489/85/432 383/85/332 385/86/334
f 385/86/334 490/86/433 489/85/432
f 491/87/434 386/87/335 389/88/337
f 385/86/334 386/87/335 491/87/434
f 491/87/434 490/86/433 385/86/334
f 489/85/432 490/86/433 492/97/319
f 492/97/319 490/86/433 491/87/434
f 491/87/434 493/98/319 492/97/319
f 389/88/337 494/88/435 491/87/434
f 494/88/435 389/88/337 391/89/339
f 494/88/435 493/98/319 491/87/434
f 495/89/436 493/98/319 494/88/435
f 391/89/339 495/89/436 494/88/435
f 374/81/327 376/81/327 496/80/437
f 496/80/437 484/80/427 364/76/320
f 484/80/427 496/80/437 376/81/327
f 364/76/320 497/99/322 496/80/437
f 364/76/320 365/77/321 497/99/322
f 498/76/321 496/80/437 497/99/322
f 496/80/437 498/76/321 499/80/437
f 496/80/437 499/80/437 374/81/327
f 499/80/437 498/76/321 370/77/322
f 374/81/327 499/80/437 372/80/325
f 499/80/437 370/77/322 372/80/325
f 492/97/319 500/100/438 489/85/432
f 486/82/429 487/83/430 500/100/438
f 500/100/438 363/75/319 486/82/429
s 0
f 492/97/319 363/75/319 500/100/319
s 1
f 500/100/438 488/84/431 489/85/432
f 488/84/431 500/100/438 487/83/430
s 0
f 492/97/319 501/101/319 363/75/319
f 501/101/439 492/97/439 493/98/439
f 363/75/319 501/101/319 361/73/319
s 1
f 502/91/440 361/73/319 501/101/319
f 393/90/341 395/91/343 502/91/440
f 503/79/441 502/91/440 395/91/343
f 395/91/343 367/79/323 503/79/441
f 362/74/320 503/79/441 367/79/323
f 503/79/441 362/74/320 361/73/319
f 361/73/319 502/91/440 503/79/441
f 391/89/339 393/90/341 504/90/442
f 502/91/440 504/90/442 393/90/341
f 504/90/442 495/89/436 391/89/339
f 501/101/319 504/90/442 502/91/440
f 493/98/319 495/89/436 504/90/442
f 504/90/442 501/101/319 493/98/319
