# Blender 4.0.1
# www.blender.org
o _009__BMW_M3_E36_KIT00_BOOT_LODA_
v -85.504936 31.802738 0.173888
v -85.075531 31.782637 0.173888
v -85.066040 31.986885 0.455316
v -85.495064 32.006950 0.455316
v -85.050453 32.317333 0.562818
v -85.674805 32.015385 0.455316
v -85.684296 31.811138 0.173888
v -85.659599 32.345837 0.562818
v -85.479858 32.337437 0.562818
v -85.644012 32.676319 0.455316
v -85.464279 32.667885 0.455316
v -85.634521 32.880531 0.173888
v -85.454781 32.872135 0.173888
v -85.634521 32.880531 -0.173926
v -85.454781 32.872135 -0.173926
v -85.644012 32.676319 -0.455316
v -85.464279 32.667885 -0.455316
v -85.659599 32.345837 -0.562818
v -85.479858 32.337437 -0.562818
v -85.674805 32.015385 -0.455316
v -85.495064 32.006950 -0.455316
v -85.684296 31.811138 -0.173926
v -85.504936 31.802738 -0.173926
v -85.684296 31.811138 0.173888
v -85.504936 31.802738 0.173888
v -85.075531 31.782637 0.173888
v -85.075531 31.782637 -0.173926
v -85.066040 31.986885 -0.455316
v -85.050453 32.317333 -0.562818
v -85.034874 32.647820 -0.455316
v -85.025375 32.852070 -0.173926
v -85.025375 32.852070 0.173888
v -85.034874 32.647820 0.455316
v -71.913857 38.674881 7.410759
v -70.613869 38.422562 15.335014
v -71.162598 37.683163 15.335014
v -72.462570 37.935478 7.410759
v -72.371368 38.833344 0.000000
v -72.920097 38.093864 0.000000
v -72.462570 37.935478 -7.410759
v -71.913857 38.674881 -7.410759
v -71.162598 37.683163 -15.335052
v -70.613869 38.422562 -15.335052
v -69.327957 37.410206 -20.573009
v -68.779236 38.149723 -20.573009
v -70.143051 37.146866 -21.302572
v -70.143051 37.886311 -21.955412
v -85.634521 32.880531 0.173888
v -85.634521 32.880531 -0.173926
v -85.641365 32.732182 -0.125628
v -85.648201 32.584625 -0.328966
v -85.644012 32.676319 -0.455316
v -85.659599 32.345837 -0.406638
v -85.659599 32.345837 -0.562818
v -85.670616 32.107082 -0.328966
v -85.674805 32.015385 -0.455316
v -85.677460 31.959488 -0.125628
v -85.684296 31.811138 -0.173926
v -85.677460 31.959488 0.125628
v -85.684296 31.811138 0.173888
v -85.670616 32.107082 0.328966
v -85.674805 32.015385 0.455316
v -85.659599 32.345837 0.406638
v -85.659599 32.345837 0.562818
v -85.648201 32.584625 0.328966
v -85.644012 32.676319 0.455316
v -85.641365 32.732182 0.125628
v -74.269089 36.721115 -21.217415
v -74.269089 37.460556 -21.899134
v -70.143051 37.886311 -21.955412
v -70.143051 37.146866 -21.302572
v -80.867035 36.135197 -19.597551
v -83.036461 36.884480 -19.728611
v -83.245461 36.655113 -19.639538
v -81.990700 35.219887 -19.100889
v -82.107353 33.197186 -18.138273
v -83.583275 33.197186 -18.138273
v -82.171959 30.438728 -17.072906
v -83.840164 30.808508 -17.236990
v -83.910461 30.068951 -16.908783
v -82.192856 28.247192 -16.284025
v -83.970879 28.247192 -16.284025
v -82.186394 26.214497 -15.644713
v -83.925278 26.415327 -15.728162
v -83.917297 26.202108 -15.657747
v -83.922615 26.026016 -15.548232
v -82.193611 25.568192 -15.263459
v -83.936676 25.568192 -15.263459
v -83.936676 25.568192 -15.263459
v -82.193611 25.568192 -15.263459
v -82.220596 25.351744 -14.896836
v -83.998619 25.351744 -14.896836
v -82.757156 25.350681 -7.738966
v -84.365700 25.350796 -10.318634
v -84.704659 25.350567 -5.159336
v -83.004158 25.350340 0.000000
v -84.782173 25.350340 0.000000
v -84.704659 25.350567 5.159336
v -82.757156 25.350681 7.738966
v -84.365700 25.350796 10.318634
v -83.998619 25.351744 14.896836
v -82.220596 25.351744 14.896836
v -83.936676 25.568192 15.263459
v -82.193611 25.568192 15.263459
v -82.186394 26.214497 15.644713
v -83.917297 26.202108 15.657786
v -83.922615 26.026016 15.548232
v -82.193611 25.568192 15.263459
v -83.936676 25.568192 15.263459
v -82.757156 35.376106 7.738966
v -83.004158 35.375763 0.000000
v -82.021477 36.386833 0.000000
v -81.774475 36.387173 7.738966
v -82.325485 35.373711 14.896836
v -81.342796 36.388237 14.896836
v -82.220596 25.351744 14.896836
v -82.757156 25.350681 7.738966
v -83.004158 25.350340 0.000000
v -82.757156 25.350681 -7.738966
v -82.757156 35.376106 -7.738966
v -81.774475 36.387173 -7.738966
v -82.325485 35.373711 -14.896836
v -81.342796 36.388237 -14.896836
v -82.220596 25.351744 -14.896836
v -82.193611 25.568192 -15.263459
v -82.171959 30.438728 -17.072906
v -82.192856 28.247192 -16.284025
v -82.186394 26.214497 -15.644713
v -82.192856 28.247192 16.284025
v -82.171959 30.438728 17.072906
v -83.910461 30.068951 16.908783
v -83.970879 28.247192 16.284025
v -83.840164 30.808508 17.236990
v -83.583275 33.197186 18.138237
v -82.107353 33.197186 18.138237
v -83.245461 36.655113 19.639538
v -81.990700 35.219887 19.100889
v -80.867035 36.135197 19.597551
v -83.036461 36.884480 19.728611
v -74.269089 37.460556 21.899134
v -74.269089 36.721115 21.217415
v -70.143051 37.886311 21.955412
v -70.143051 37.146866 21.302572
v -69.327957 37.410206 20.573009
v -68.779236 38.149723 20.573009
v -70.143051 37.146866 21.302572
v -70.143051 37.886311 21.955412
v -83.925278 26.415327 15.728124
v -81.774475 36.387173 7.738966
v -82.021477 36.386833 0.000000
v -72.920097 38.093864 0.000000
v -72.462570 37.935478 7.410759
v -81.342796 36.388237 14.896836
v -71.162598 37.683163 15.335014
v -80.867035 36.135197 19.597551
v -70.143051 37.146866 21.302572
v -74.269089 36.721115 21.217415
v -82.107353 33.197186 18.138237
v -82.171959 30.438728 17.072906
v -82.193611 25.568192 15.263459
v -82.192856 28.247192 16.284025
v -82.186394 26.214497 15.644713
v -81.990700 35.219887 19.100889
v -69.327957 37.410206 20.573009
v -81.990700 35.219887 19.100889
v -82.325485 35.373711 14.896836
v -81.774475 36.387173 -7.738966
v -72.462570 37.935478 -7.410759
v -81.342796 36.388237 -14.896836
v -81.990700 35.219887 -19.100889
v -80.867035 36.135197 -19.597551
v -82.325485 35.373711 -14.896836
v -71.162598 37.683163 -15.335052
v -70.143051 37.146866 -21.302572
v -69.327957 37.410206 -20.573009
v -74.269089 36.721115 -21.217415
v -82.107353 33.197186 -18.138273
v -81.990700 35.219887 -19.100889
vn -0.0412 -0.9512 0.3059
vn -0.0412 -0.9512 0.3060
vn -0.0256 -0.5884 0.8082
vn -0.0255 -0.5884 0.8082
vn -0.0000 0.0001 1.0000
vn -0.6638 -0.4203 0.6187
vn -0.6757 -0.6992 0.2337
vn -0.6434 0.0275 0.7650
vn -0.0000 -0.0000 1.0000
vn -0.6232 0.4777 0.6192
vn 0.0256 0.5872 0.8091
vn -0.6110 0.7563 0.2338
vn 0.0413 0.9510 0.3065
vn -0.6098 0.7568 -0.2353
vn 0.0412 0.9506 -0.3077
vn -0.6219 0.4786 -0.6199
vn 0.0255 0.5875 -0.8088
vn -0.6424 0.0294 -0.7658
vn -0.0000 -0.0000 -1.0000
vn -0.6636 -0.4182 -0.6203
vn -0.0255 -0.5862 -0.8097
vn -0.6763 -0.6979 -0.2359
vn -0.0413 -0.9504 -0.3083
vn -0.6756 -0.6992 0.2337
vn -0.0255 -0.5863 -0.8097
vn -0.0000 0.0001 -1.0000
vn 0.8002 -0.5904 -0.1059
vn 0.7826 -0.5787 -0.2295
vn 0.7846 -0.5806 -0.2177
vn 0.8004 -0.5904 -0.1040
vn 0.8042 -0.5943 -0.0000
vn 0.7996 -0.5918 0.1019
vn 0.7994 -0.5917 0.1039
vn 0.7840 -0.5821 0.2156
vn 0.7821 -0.5802 0.2274
vn 0.7869 -0.5809 -0.2080
vn 0.8025 -0.5927 -0.0687
vn 0.3944 -0.6062 -0.6906
vn 0.3454 -0.6222 -0.7026
vn -0.9990 0.0450 -0.0000
vn -0.9990 0.0451 -0.0000
vn -0.6218 0.4787 -0.6198
vn -0.6762 -0.6979 -0.2359
vn -0.6638 -0.4203 0.6186
vn -0.6434 0.0274 0.7650
vn -0.0353 -0.6756 -0.7365
vn -0.0196 -0.6728 -0.7395
vn 0.3454 -0.6221 -0.7026
vn 0.3943 -0.6063 -0.6906
vn -0.1295 -0.5396 -0.8319
vn -0.0804 -0.3508 -0.9330
vn -0.0568 -0.3450 -0.9369
vn -0.0843 -0.4139 -0.9064
vn -0.0078 -0.3801 -0.9249
vn 0.0020 -0.3745 -0.9272
vn -0.0000 -0.3548 -0.9350
vn 0.0059 -0.3761 -0.9265
vn -0.0020 -0.3606 -0.9327
vn -0.0020 -0.3139 -0.9495
vn 0.0020 -0.3080 -0.9514
vn 0.0059 -0.4036 -0.9149
vn 0.0098 -0.2979 -0.9545
vn 0.0098 -0.4219 -0.9066
vn 0.0040 -0.5240 -0.8517
vn 0.0020 -0.7032 -0.7110
vn -0.0000 -0.7236 -0.6902
vn -0.0000 -0.7236 -0.6903
vn -0.0000 -0.9616 -0.2746
vn -0.0000 -0.9699 -0.2436
vn 0.0001 -1.0000 -0.0002
vn -0.0000 -1.0000 -0.0000
vn -0.0000 -0.9705 0.2411
vn 0.0001 -1.0000 0.0002
vn -0.0000 -0.9622 0.2724
vn -0.0000 -0.7255 0.6882
vn 0.0020 -0.7051 0.7091
vn 0.0059 -0.4060 0.9139
vn 0.0098 -0.4243 0.9055
vn 0.0040 -0.5263 0.8503
vn 0.0020 -0.7052 0.7091
vn 0.9277 -0.3707 -0.0432
vn 0.9289 -0.3704 -0.0000
vn 0.4791 -0.8778 -0.0000
vn 0.4689 -0.8829 -0.0236
vn 0.9256 -0.3726 -0.0667
vn 0.4496 -0.8913 -0.0589
vn 0.9973 0.0059 -0.0727
vn 0.9986 -0.0000 -0.0530
vn 1.0000 -0.0000 -0.0000
vn 0.9987 -0.0000 0.0510
vn 0.9271 -0.3724 0.0412
vn 0.4681 -0.8834 0.0216
vn 0.9250 -0.3743 0.0647
vn 0.4489 -0.8918 0.0568
vn 0.9975 0.0039 0.0707
vn 0.9976 0.0078 0.0687
vn 0.9990 0.0059 0.0451
vn 0.9073 -0.1470 -0.3939
vn 0.9987 0.0157 0.0491
vn -0.0020 -0.3162 0.9487
vn -0.0000 -0.3571 0.9341
vn -0.0020 -0.3629 0.9318
vn 0.0020 -0.3103 0.9506
vn 0.0059 -0.3785 0.9256
vn 0.0021 -0.3769 0.9262
vn -0.0079 -0.3825 0.9239
vn -0.0569 -0.3473 0.9360
vn -0.0844 -0.4163 0.9053
vn -0.1296 -0.5418 0.8304
vn -0.0804 -0.3532 0.9321
vn -0.0196 -0.6749 0.7377
vn -0.0354 -0.6776 0.7346
vn 0.3454 -0.6242 0.7007
vn 0.3944 -0.6083 0.6888
vn 0.7864 -0.5824 0.2059
vn 0.8017 -0.5939 0.0666
vn 0.3455 -0.6242 0.7008
vn 0.0099 -0.3003 0.9538
vn 0.4689 -0.8829 -0.0235
vn 0.4791 -0.8777 -0.0000
vn 0.1723 -0.9850 -0.0000
vn 0.1514 -0.9879 -0.0334
vn 0.1236 -0.9892 -0.0785
vn 0.3418 -0.9352 -0.0923
vn 0.1491 -0.9827 -0.1099
vn 0.1039 -0.9926 -0.0628
vn 0.9975 -0.0039 -0.0706
vn 0.9989 0.0078 -0.0471
vn 0.9974 0.0100 -0.0707
vn 0.9078 -0.1490 0.3921
vn 0.9985 0.0176 -0.0510
vn 0.8566 -0.5058 -0.1019
vn 0.2040 -0.9714 -0.1216
vn 0.4682 -0.8834 0.0216
vn 0.1509 -0.9880 0.0314
vn 0.4488 -0.8918 0.0568
vn 0.8560 -0.5073 0.0999
vn 0.3413 -0.9356 0.0902
vn 0.1234 -0.9894 0.0764
vn 0.1488 -0.9830 0.1077
vn 0.2037 -0.9717 0.1195
vn 0.1038 -0.9927 0.0607
vn 0.9976 -0.0059 0.0686
vt 0.027969 0.948791
vt 0.027969 0.947784
vt 0.028167 0.947784
vt 0.028167 0.948791
vt 0.028366 0.947784
vt 0.028167 0.949799
vt 0.027969 0.949799
vt 0.028366 0.949799
vt 0.028366 0.948791
vt 0.028564 0.949799
vt 0.028564 0.948791
vt 0.028762 0.949799
vt 0.028762 0.948791
vt 0.028976 0.949799
vt 0.028976 0.948791
vt 0.029174 0.949799
vt 0.029174 0.948791
vt 0.029373 0.949799
vt 0.029373 0.948791
vt 0.029571 0.949799
vt 0.029571 0.948791
vt 0.029769 0.949799
vt 0.029769 0.948791
vt 0.029968 0.949799
vt 0.029968 0.948791
vt 0.029968 0.947784
vt 0.029769 0.947784
vt 0.029571 0.947784
vt 0.029373 0.947784
vt 0.029174 0.947784
vt 0.028976 0.947784
vt 0.028762 0.947784
vt 0.028564 0.947784
vt 0.027801 0.942993
vt 0.027496 0.942993
vt 0.027496 0.942963
vt 0.027801 0.942963
vt 0.028076 0.942993
vt 0.028076 0.942963
vt 0.028350 0.942963
vt 0.028350 0.942993
vt 0.028656 0.942963
vt 0.028656 0.942993
vt 0.028854 0.942932
vt 0.028854 0.942963
vt 0.028884 0.942932
vt 0.028900 0.942963
vt 0.029830 0.948486
vt 0.029830 0.949097
vt 0.029342 0.948944
vt 0.029159 0.949188
vt 0.029464 0.949585
vt 0.028869 0.949280
vt 0.028869 0.949799
vt 0.028579 0.949188
vt 0.028274 0.949585
vt 0.028396 0.948944
vt 0.027908 0.949097
vt 0.028396 0.948639
vt 0.027908 0.948486
vt 0.028579 0.948364
vt 0.028274 0.947967
vt 0.028869 0.948273
vt 0.028869 0.947784
vt 0.029159 0.948364
vt 0.029464 0.947967
vt 0.029342 0.948639
vt 0.029296 0.943237
vt 0.029281 0.943268
vt 0.029144 0.943176
vt 0.029159 0.943176
vt 0.029525 0.943359
vt 0.029571 0.943420
vt 0.029586 0.943420
vt 0.029571 0.943359
vt 0.029617 0.943298
vt 0.029663 0.943298
vt 0.029678 0.943207
vt 0.029724 0.943237
vt 0.029739 0.943207
vt 0.029724 0.943115
vt 0.029785 0.943176
vt 0.029769 0.943054
vt 0.029815 0.943115
vt 0.029815 0.943085
vt 0.029830 0.943085
vt 0.029785 0.943054
vt 0.028656 0.941711
vt 0.028656 0.941772
vt 0.028640 0.941772
vt 0.028640 0.941711
vt 0.028366 0.941772
vt 0.028472 0.941711
vt 0.028274 0.941681
vt 0.028076 0.941742
vt 0.028076 0.941681
vt 0.027877 0.941681
vt 0.027786 0.941772
vt 0.027679 0.941711
vt 0.027511 0.941711
vt 0.027511 0.941772
vt 0.027496 0.941711
vt 0.027496 0.941772
vt 0.027236 0.943573
vt 0.027175 0.943634
vt 0.027175 0.943603
vt 0.027221 0.943573
vt 0.027160 0.943603
vt 0.027786 0.942871
vt 0.028076 0.942871
vt 0.028076 0.942902
vt 0.027786 0.942902
vt 0.027511 0.942871
vt 0.027511 0.942902
vt 0.027511 0.942474
vt 0.027786 0.942474
vt 0.028076 0.942474
vt 0.028366 0.942474
vt 0.028366 0.942871
vt 0.028366 0.942902
vt 0.028640 0.942871
vt 0.028640 0.942902
vt 0.028640 0.942474
vt 0.028656 0.942505
vt 0.028717 0.942688
vt 0.028686 0.942596
vt 0.028671 0.942505
vt 0.027282 0.943634
vt 0.027328 0.943726
vt 0.027267 0.943756
vt 0.027221 0.943695
vt 0.027282 0.943756
vt 0.027343 0.943817
vt 0.027389 0.943787
vt 0.027435 0.943939
vt 0.027435 0.943848
vt 0.027496 0.943878
vt 0.027725 0.943756
vt 0.027710 0.943726
vt 0.027862 0.943695
vt 0.027847 0.943664
vt 0.027298 0.942932
vt 0.027298 0.942963
vt 0.027267 0.942932
vt 0.027236 0.942963
vt 0.027191 0.943634
vt 0.027786 0.941803
vt 0.028076 0.941803
vt 0.028076 0.942139
vt 0.027801 0.942169
vt 0.027511 0.941833
vt 0.027496 0.942200
vt 0.027328 0.941833
vt 0.027267 0.942230
vt 0.027267 0.942078
vt 0.027389 0.942779
vt 0.027435 0.942688
vt 0.027496 0.942505
vt 0.027465 0.942596
vt 0.027481 0.942505
vt 0.027359 0.942871
vt 0.027298 0.942261
vt 0.027359 0.941803
vt 0.028366 0.941803
vt 0.028350 0.942169
vt 0.028640 0.941833
vt 0.028793 0.941803
vt 0.028823 0.941833
vt 0.028656 0.942200
vt 0.028884 0.942230
vt 0.028854 0.942261
vt 0.028884 0.942078
vt 0.028762 0.942779
vt 0.028793 0.942871
s 1
f 1/1/1 2/2/2 3/3/3
f 3/3/3 4/4/4 1/1/1
f 4/4/4 3/3/3 5/5/5
f 1/1/1 4/4/4 6/6/6
f 6/6/6 7/7/7 1/1/1
f 8/8/8 6/6/6 4/4/4
f 5/5/5 9/9/9 4/4/4
f 4/4/4 9/9/9 8/8/8
f 10/10/10 8/8/8 9/9/9
f 9/9/9 11/11/11 10/10/10
f 12/12/12 10/10/10 11/11/11
f 11/11/11 13/13/13 12/12/12
f 14/14/14 12/12/12 13/13/13
f 13/13/13 15/15/15 14/14/14
f 16/16/16 14/14/14 15/15/15
f 15/15/15 17/17/17 16/16/16
f 18/18/18 16/16/16 17/17/17
f 17/17/17 19/19/19 18/18/18
f 20/20/20 18/18/18 19/19/19
f 19/19/19 21/21/21 20/20/20
f 22/22/22 20/20/20 21/21/21
f 21/21/21 23/23/23 22/22/22
f 24/24/24 22/22/22 23/23/23
f 23/23/23 25/25/1 24/24/24
f 26/26/1 25/25/1 23/23/23
f 27/27/23 23/23/23 21/21/21
f 23/23/23 27/27/23 26/26/1
f 28/28/25 21/21/21 19/19/19
f 21/21/21 28/28/25 27/27/23
f 29/29/26 19/19/19 17/17/17
f 19/19/19 29/29/26 28/28/25
f 30/30/17 17/17/17 15/15/15
f 17/17/17 30/30/17 29/29/26
f 15/15/15 31/31/15 30/30/17
f 31/31/15 15/15/15 13/13/13
f 32/32/13 13/13/13 11/11/11
f 13/13/13 32/32/13 31/31/15
f 9/9/9 5/5/5 33/33/11
f 33/33/11 11/11/11 9/9/9
f 11/11/11 33/33/11 32/32/13
f 34/34/27 35/35/28 36/36/29
f 36/36/29 37/37/30 34/34/27
f 38/38/31 34/34/27 37/37/30
f 37/37/30 39/39/31 38/38/31
f 38/38/31 39/39/31 40/40/32
f 40/40/32 41/41/33 38/38/31
f 41/41/33 40/40/32 42/42/34
f 42/42/34 43/43/35 41/41/33
f 43/43/35 42/42/34 44/44/36
f 44/44/36 45/45/37 43/43/35
f 45/45/37 44/44/36 46/46/38
f 46/46/38 47/47/39 45/45/37
f 48/48/12 49/49/14 50/50/40
f 51/51/41 50/50/40 49/49/14
f 49/49/14 52/52/42 51/51/41
f 53/53/41 51/51/41 52/52/42
f 52/52/42 54/54/18 53/53/41
f 55/55/41 53/53/41 54/54/18
f 54/54/18 56/56/20 55/55/41
f 57/57/41 55/55/41 56/56/20
f 56/56/20 58/58/43 57/57/41
f 59/59/40 57/57/41 58/58/43
f 58/58/43 60/60/24 59/59/40
f 61/61/41 59/59/40 60/60/24
f 60/60/24 62/62/44 61/61/41
f 63/63/41 61/61/41 62/62/44
f 62/62/44 64/64/45 63/63/41
f 65/65/41 63/63/41 64/64/45
f 64/64/45 66/66/10 65/65/41
f 67/67/41 65/65/41 66/66/10
f 66/66/10 48/48/12 67/67/41
f 50/50/40 67/67/41 48/48/12
f 68/68/46 69/69/47 70/70/48
f 70/70/48 71/71/49 68/68/46
f 69/69/47 68/68/46 72/72/50
f 72/72/50 73/73/51 69/69/47
f 74/74/52 73/73/51 72/72/50
f 72/72/50 75/75/53 74/74/52
f 74/74/52 75/75/53 76/76/54
f 76/76/54 77/77/55 74/74/52
f 77/77/55 76/76/54 78/78/56
f 78/78/56 79/79/57 77/77/55
f 80/80/58 79/79/57 78/78/56
f 80/80/58 78/78/56 81/81/59
f 81/81/59 82/82/60 80/80/58
f 82/82/60 81/81/59 83/83/61
f 83/83/61 84/84/62 82/82/60
f 85/85/63 84/84/62 83/83/61
f 86/86/64 85/85/63 83/83/61
f 86/86/64 83/83/61 87/87/65
f 87/87/65 88/86/66 86/86/64
f 89/88/67 90/89/65 91/90/68
f 91/90/68 92/91/69 89/88/67
f 92/91/69 91/90/68 93/92/70
f 93/92/70 94/93/71 92/91/69
s 0
f 95/94/71 94/93/71 93/92/71
f 95/94/71 93/92/71 96/95/71
f 96/95/71 97/96/71 95/94/71
f 98/97/71 97/96/71 96/95/71
f 96/95/71 99/98/71 98/97/71
f 99/98/71 100/99/71 98/97/71
s 1
f 101/100/72 100/99/71 99/98/73
f 99/98/73 102/101/74 101/100/72
f 103/102/75 101/100/72 102/101/74
f 102/101/74 104/103/76 103/102/75
f 105/104/77 106/105/78 107/106/79
f 108/107/80 105/104/77 107/106/79
f 107/106/79 109/108/75 108/107/80
f 110/109/81 111/110/82 112/111/83
f 112/111/83 113/112/84 110/109/81
f 114/113/85 110/109/81 113/112/84
f 113/112/84 115/114/86 114/113/85
f 110/109/81 114/113/85 116/115/87
f 116/115/87 117/116/88 110/109/81
f 111/110/82 110/109/81 117/116/88
f 117/116/88 118/117/89 111/110/82
f 111/110/82 118/117/89 119/118/90
f 112/111/83 111/110/82 120/119/91
f 119/118/90 120/119/91 111/110/82
f 120/119/91 121/120/92 112/111/83
f 121/120/92 120/119/91 122/121/93
f 122/121/93 123/122/94 121/120/92
f 120/119/91 119/118/90 124/123/95
f 124/123/95 122/121/93 120/119/91
f 122/121/93 124/123/95 125/124/96
f 122/121/93 125/124/96 126/125/97
f 125/124/96 127/126/98 126/125/97
f 125/124/96 128/127/99 127/126/98
f 129/128/100 130/129/101 131/130/102
f 105/104/77 129/128/100 132/131/103
f 131/130/102 132/131/103 129/128/100
f 130/129/101 133/132/104 131/130/102
f 134/133/105 133/132/104 130/129/101
f 130/129/101 135/134/106 134/133/105
f 136/135/107 134/133/105 135/134/106
f 135/134/106 137/136/108 136/135/107
f 136/135/107 137/136/108 138/137/109
f 138/137/109 139/135/110 136/135/107
f 140/138/111 139/135/110 138/137/109
f 138/137/109 141/139/112 140/138/111
f 142/140/113 140/138/111 141/139/112
f 141/139/112 143/141/114 142/140/113
f 144/142/115 36/36/29 35/35/28
f 35/35/28 145/143/116 144/142/115
f 146/144/114 144/142/115 145/143/116
f 145/143/116 147/145/117 146/144/114
f 105/104/77 148/146/118 106/105/78
f 132/131/103 148/146/118 105/104/77
f 149/147/119 150/148/120 151/149/121
f 151/149/121 152/150/122 149/147/119
f 153/151/86 149/147/119 152/150/122
f 152/150/122 154/152/123 153/151/86
f 155/153/124 153/151/86 154/152/123
f 156/154/125 155/153/124 154/152/123
f 156/154/125 157/155/126 155/153/124
f 114/113/85 158/156/127 159/157/128
f 114/113/85 160/158/129 116/115/87
f 114/113/85 159/157/128 160/158/129
f 159/157/128 161/159/130 160/158/129
f 161/159/130 162/160/131 160/158/129
f 114/113/85 163/161/132 158/156/127
f 156/154/125 154/152/123 164/162/133
f 153/151/86 155/153/124 165/163/132
f 165/163/132 166/101/85 153/151/86
f 151/149/121 150/148/120 167/164/134
f 167/164/134 168/165/135 151/149/121
f 168/165/135 167/164/134 169/166/136
f 170/167/137 171/168/138 169/166/136
f 169/166/136 172/90/93 170/167/137
f 169/166/136 173/169/139 168/165/135
f 173/169/139 169/166/136 171/168/138
f 173/169/139 171/168/138 174/170/140
f 173/169/139 174/170/140 175/171/141
f 171/168/138 176/172/142 174/170/140
f 177/173/143 122/121/93 126/125/97
f 177/173/143 178/174/137 122/121/93
