# Blender 4.0.1
# www.blender.org
o _144__BMW_M3_E36_KIT00_INTERIOR_CPIT_
v 6.753362 20.883965 -4.480884
v 6.132708 20.842203 -4.406518
v 6.208936 21.020496 -3.713778
v 6.827005 21.083122 -3.784914
v 9.794463 21.239681 -2.632222
v 9.535112 21.205063 -2.893928
v 9.545221 21.116333 -2.892180
v 9.804571 21.150953 -2.630512
v 10.149307 21.281939 -2.536348
v 10.159415 21.193209 -2.534638
v 10.504721 21.320660 -2.631956
v 10.514830 21.231815 -2.630246
v 9.535112 21.205063 -2.893928
v 9.440874 21.187433 -3.251318
v 9.450981 21.098701 -3.249608
v 9.545221 21.116333 -2.892180
v 9.547045 21.102730 -3.606922
v 9.536899 21.191460 -3.608632
v 9.807687 21.127354 -3.868476
v 9.797541 21.216085 -3.870186
v 10.162987 21.165962 -3.964084
v 10.152880 21.254692 -3.965794
v 10.517945 21.208218 -3.868210
v 10.507837 21.297062 -3.869920
v 10.777295 21.242836 -3.606504
v 10.767187 21.331680 -3.608214
v 10.871459 21.260468 -3.249114
v 10.861352 21.349314 -3.250824
v 10.775509 21.256439 -2.891762
v 10.765401 21.345284 -2.893510
v 11.797634 28.892122 -2.412278
v 11.786538 29.283789 -2.343726
v 12.053373 29.282799 -2.606344
v 12.061430 29.560047 -2.656542
v 12.059378 29.005249 -2.655098
v 11.802840 29.676100 -2.414064
v 12.082254 29.805946 -2.796990
v 11.843082 30.020760 -2.606838
v 12.113756 29.986256 -3.014160
v 11.903730 30.276310 -2.905936
v 12.151680 30.082548 -3.278450
v 11.977146 30.412388 -3.273168
v 12.191542 30.082281 -3.558662
v 12.054399 30.412388 -3.664112
v 12.228554 29.984926 -3.821090
v 12.126183 30.276348 -4.031724
v 12.258727 29.803286 -4.037348
v 12.183828 30.020569 -4.331620
v 12.277688 29.556515 -4.176504
v 12.220423 29.675911 -4.527548
v 12.283730 29.277746 -4.225296
v 12.231556 29.283979 -4.596214
v 12.275636 28.999283 -4.175060
v 12.215862 28.892048 -4.528992
v 12.254850 28.753384 -4.034612
v 12.175163 28.547499 -4.333900
v 12.223348 28.573074 -3.817442
v 12.114478 28.291721 -4.034612
v 12.185615 28.477352 -3.554482
v 12.040948 28.155643 -3.666886
v 12.145752 28.478834 -3.274308
v 11.963655 28.155643 -3.275562
v 10.833840 30.412539 2.513472
v 10.911057 30.412539 2.122528
v 11.063094 30.079660 2.224672
v 11.023156 30.080305 2.505340
v 10.760348 30.276348 2.881160
v 10.985308 29.982647 2.769212
v 10.699472 30.020569 3.181170
v 10.953996 29.801765 2.984862
v 10.658585 29.675911 3.377326
v 10.933248 29.556133 3.124854
v 10.642624 29.284016 3.445992
v 10.925268 29.277746 3.174292
v 10.653530 28.892122 3.378428
v 10.931083 28.998940 3.126488
v 10.689972 28.547537 3.183108
v 10.950196 28.752815 2.986230
v 10.747657 28.291759 2.883288
v 10.980103 28.570946 2.771568
v 10.819477 28.155643 2.515524
v 11.017228 28.474197 2.508342
v 10.896768 28.155643 2.124200
v 11.057128 28.472980 2.227712
v 10.970261 28.291721 1.756550
v 11.094900 28.570301 1.964486
v 11.031061 28.547615 1.456806
v 11.126288 28.751637 1.748228
v 11.071835 28.892160 1.261182
v 11.147113 28.996964 1.607742
v 11.087718 29.284130 1.193200
v 11.155092 29.275200 1.558342
v 11.076926 29.676062 1.260042
v 11.149240 29.554613 1.606184
v 11.040257 30.020607 1.456388
v 11.130165 29.800777 1.746404
v 10.982762 30.276384 1.755448
v 11.100144 29.982950 1.961636
v 11.689942 29.884531 -3.396744
v 11.690399 29.958021 -3.398302
v 11.715060 29.958668 -3.571430
v 11.714794 29.885138 -3.571316
v 11.686180 29.282116 -3.384432
v 11.714072 29.281507 -3.580474
v 10.492867 29.503277 2.860184
v 10.484164 29.541275 2.922466
v 10.496856 29.693275 2.836966
v 10.505672 29.656530 2.773924
v 10.564459 29.192513 2.348970
v 10.578975 29.363930 2.250968
v 11.249446 33.582844 2.087872
v 11.392250 33.848728 2.116904
v 11.333882 33.940952 1.559064
v 11.191078 33.675106 1.530070
v 11.443284 33.946159 0.972876
v 11.300518 33.680275 0.943844
v 11.698834 33.863319 0.474430
v 11.556030 33.597473 0.445398
v 12.082216 33.937496 -2.465668
v 11.939412 33.671608 -2.494700
v 11.997856 33.579460 -1.937202
v 12.191200 33.942738 -3.049728
v 12.048433 33.676853 -3.078722
v 12.447206 33.859863 -3.550682
v 12.304440 33.593975 -3.579676
v 12.140622 33.845230 -1.908208
v 11.716162 33.552174 -0.686432
v 11.979578 33.918076 -0.990850
v 12.676537 33.917130 -4.758512
v 12.470766 33.559242 -4.713710
v 11.194688 33.913860 3.143056
v 10.974706 33.544575 3.252344
v 13.093624 33.671497 -24.402954
v 12.876150 33.324215 -24.526112
v 12.858290 33.317753 -21.470758
v 13.102212 33.673206 -21.444122
v 12.626756 30.958298 -22.560486
v 12.625009 30.683138 -22.888351
v 12.630138 30.477444 -21.885910
v 12.630138 30.585363 -21.486719
v 12.628276 31.328949 -22.346508
v 12.630138 30.923069 -21.378307
v 12.639676 32.817749 -22.888351
v 12.644578 32.848835 -21.324347
v 12.695765 33.117836 -21.308613
v 12.671710 32.964088 -23.290579
v 12.635345 32.542591 -22.560486
v 12.630328 32.171940 -22.346508
v 12.633786 32.350235 -21.335936
v 9.712572 21.315683 2.999036
v 11.091022 21.298582 -4.152222
v 9.660057 21.119829 -4.328010
v 8.353390 21.161552 3.438278
v -0.339262 20.471777 1.174466
v -0.339300 20.472462 -1.402124
v -0.964780 20.239674 -1.402124
v -0.964476 20.239370 1.174466
v -1.165952 20.053778 -1.402124
v -1.165990 20.053398 1.174466
v 15.605652 30.318296 20.861162
v 14.441712 30.316551 10.818335
v 14.412946 29.300392 10.808986
v 15.595886 29.304420 20.852272
v 12.787344 32.268497 -22.873644
v 12.784988 32.021992 -22.732779
v 12.629910 32.158070 -22.384813
v 12.634850 32.516449 -22.591646
v 12.789662 32.449760 -23.092335
v 12.635421 32.782715 -22.908718
v 12.791677 32.547226 -23.358904
v 12.662628 32.924984 -23.297800
v 12.793158 32.548180 -23.641890
v 12.663122 32.924984 -23.711277
v 12.318007 32.424488 -23.415562
v 12.415666 32.465378 -23.402185
v 12.416692 32.466705 -23.601307
v 12.318918 32.425892 -23.590399
v 12.317512 32.351032 -23.414230
v 12.318424 32.352402 -23.590553
v 12.313446 31.748581 -23.404163
v 12.314472 31.748848 -23.602142
v 12.310407 31.145218 -23.592072
v 12.309494 31.146168 -23.415752
v 12.310938 31.174896 -23.662638
v 12.314815 31.748922 -23.672556
v 12.309342 31.175732 -23.345110
v 12.313105 31.748507 -23.333748
v 14.179284 32.819878 -13.416279
v 14.351843 33.839378 -12.822986
v 14.412680 34.199013 -13.102818
v 14.307572 33.577827 -12.477110
v 14.483588 34.617847 -13.278758
v 14.559702 35.067692 -13.416279
v 14.483588 34.617847 -13.553802
v 14.412680 34.199013 -13.729742
v 14.351843 33.839378 -14.009574
v 14.307572 33.577827 -14.355451
v 5.272958 20.771141 -4.316458
v 3.710588 20.685299 -4.147510
v 3.784460 20.863405 -3.454504
v 5.344398 20.970150 -3.620298
v 11.205822 26.411446 1.822746
v 12.557140 26.411938 -4.396220
v 10.610743 25.043444 3.570632
v 10.904217 26.411329 3.210620
v 12.406698 25.010233 -4.719106
v 11.297896 26.411482 1.398932
v 11.078901 28.878784 1.225120
v 11.095281 29.284054 1.154820
v 11.778976 29.284054 -2.305460
v 11.790452 28.878784 -2.376368
v 11.036722 28.522305 1.427356
v 11.828224 28.522345 -2.578680
v 10.973833 28.257750 1.737322
v 11.887846 28.257750 -2.888646
v 10.950461 29.597326 0.030932
v 10.970678 29.433546 -0.087666
v 10.896464 29.290932 0.270560
v 10.958899 29.645206 -0.006460
v 10.915616 29.679028 0.213788
v 10.918694 29.739635 0.204896
v 10.982306 29.455812 -0.143602
v 11.259895 29.679863 -1.474400
v 11.298808 29.655693 -1.672456
v 11.263202 29.291235 -1.530678
v 11.221745 29.599873 -1.291468
v 11.259402 29.740587 -1.465622
v 11.304432 29.712580 -1.694572
v 11.215361 29.648132 -1.254114
v 11.795848 29.689400 -2.378192
v 11.084146 29.689362 1.223980
v 11.837382 30.045765 -2.577236
v 11.046223 30.045801 1.427052
v 11.900158 30.310205 -2.886670
v 10.986753 30.310282 1.736258
v 3.781724 20.948450 3.090350
v 3.712336 20.725010 3.770512
v 5.276112 20.796070 3.933342
v 5.343068 21.040600 3.251394
vn -0.0333 0.9344 -0.3546
vn -0.1822 0.9286 -0.3232
vn -0.1255 0.9628 -0.2392
vn -0.1019 0.9642 -0.2450
vn -0.5013 0.3775 0.7786
vn -0.8325 0.3318 0.4437
vn -0.8622 -0.0884 0.4988
vn -0.4973 -0.0394 0.8667
vn -0.0491 0.4301 0.9014
vn -0.0020 0.0157 0.9999
vn 0.4013 0.4819 0.7789
vn 0.4934 0.0708 0.8669
vn -0.9502 0.3115 -0.0079
vn -0.9939 -0.1100 -0.0000
vn -0.8593 -0.1061 -0.5003
vn -0.8287 0.3154 -0.4624
vn -0.4926 -0.0707 -0.8674
vn -0.4960 0.3470 -0.7960
vn 0.0020 -0.0158 -0.9999
vn -0.0451 0.3959 -0.9172
vn 0.4965 0.0393 -0.8672
vn 0.4039 0.4509 -0.7960
vn 0.8613 0.0883 -0.5004
vn 0.7341 0.4966 -0.4632
vn 0.9937 0.1121 -0.0000
vn 0.8554 0.5179 -0.0059
vn 0.8604 0.1041 0.4989
vn 0.7340 0.5116 0.4467
vn -0.8991 0.0960 -0.4270
vn -0.8956 0.0039 -0.4448
vn -0.7022 -0.0001 -0.7120
vn -0.7146 -0.1964 -0.6714
vn -0.7143 0.1982 -0.6711
vn -0.9010 -0.0825 -0.4259
vn -0.7509 -0.3559 -0.5563
vn -0.9170 -0.1512 -0.3691
vn -0.8026 -0.4475 -0.3944
vn -0.9359 -0.1903 -0.2963
vn -0.8575 -0.4632 -0.2237
vn -0.9554 -0.1966 -0.2202
vn -0.9072 -0.4144 -0.0727
vn -0.9723 -0.1768 -0.1532
vn -0.9456 -0.3237 0.0314
vn -0.9850 -0.1374 -0.1040
vn -0.9721 -0.2121 0.1001
vn -0.9934 -0.0903 -0.0707
vn -0.9863 -0.1022 0.1298
vn -0.9977 -0.0412 -0.0530
vn -0.9903 -0.0000 0.1392
vn -0.9990 0.0039 -0.0450
vn -0.9861 0.1039 0.1294
vn -0.9974 0.0549 -0.0470
vn -0.9716 0.2155 0.0979
vn -0.9921 0.1098 -0.0608
vn -0.9450 0.3255 0.0314
vn -0.9822 0.1627 -0.0941
vn -0.9048 0.4193 -0.0745
vn -0.9673 0.2056 -0.1488
vn -0.8543 0.4683 -0.2253
vn -0.9483 0.2273 -0.2214
vn -0.9522 -0.2101 -0.2218
vn -0.9700 -0.1905 -0.1512
vn -0.8944 -0.4425 -0.0651
vn -0.8436 -0.4878 -0.2244
vn -0.9326 -0.2003 -0.3004
vn -0.7894 -0.4636 -0.4025
vn -0.9135 -0.1571 -0.3752
vn -0.7406 -0.3655 -0.5638
vn -0.8997 -0.0845 -0.4282
vn -0.7067 -0.1984 -0.6791
vn -0.8936 0.0039 -0.4488
vn -0.6934 0.0001 -0.7205
vn -0.8953 0.0960 -0.4349
vn -0.7030 0.2036 -0.6815
vn -0.9065 0.1762 -0.3837
vn -0.7351 0.3724 -0.5666
vn -0.9233 0.2274 -0.3097
vn -0.7821 0.4746 -0.4039
vn -0.9440 0.2428 -0.2233
vn -0.8356 0.5008 -0.2257
vn -0.9639 0.2233 -0.1450
vn -0.8875 0.4564 -0.0629
vn -0.9800 0.1803 -0.0843
vn -0.9317 0.3590 0.0550
vn -0.9913 0.1234 -0.0451
vn -0.9615 0.2414 0.1315
vn -0.9977 0.0627 -0.0274
vn -0.9781 0.1196 0.1706
vn -0.9997 0.0039 -0.0255
vn -0.9836 -0.0000 0.1803
vn -0.9983 -0.0471 -0.0353
vn -0.9791 -0.1139 0.1688
vn -0.9931 -0.1021 -0.0569
vn -0.9632 -0.2354 0.1295
vn -0.9838 -0.1512 -0.0962
vn -0.9348 -0.3515 0.0511
vn -0.9903 0.0020 -0.1393
vn -0.8108 0.5851 0.0177
vn -0.7702 0.5880 -0.2469
vn -0.9903 0.0020 -0.1392
vn -0.8743 0.1745 0.4528
vn -0.8534 0.4100 0.3218
vn -0.9903 0.0019 -0.1392
vn -0.8770 0.4513 0.1648
vn -0.8823 0.4706 0.0020
vn -0.8222 0.4748 -0.3139
vn -0.8221 0.4749 -0.3140
vn -0.7586 0.4569 -0.4646
vn -0.8770 0.4513 0.1649
vn -0.8221 0.4750 -0.3140
vn -0.7586 0.4587 -0.4626
vn -0.7586 0.4587 -0.4627
vn -0.8602 0.4839 -0.1608
vn -0.8596 0.4856 -0.1587
vn -0.8644 0.4763 -0.1607
vn -0.8642 0.4767 -0.1611
vn -0.8676 0.4699 -0.1625
vn -0.8681 0.4690 -0.1625
vn -0.8448 0.5351 -0.0020
vn -0.8471 0.5314 -0.0020
vn -0.8269 0.5624 -0.0000
vn -0.8253 0.5646 -0.0000
vn -1.0000 -0.0000 0.0020
vn -0.9999 -0.0137 0.0039
vn -1.0000 -0.0020 -0.0000
vn -1.0000 -0.0000 -0.0000
vn -0.9863 0.1649 -0.0022
vn -0.9944 0.1058 -0.0000
vn -0.9760 0.2176 -0.0020
vn -0.9810 0.1939 -0.0020
vn -0.9999 0.0157 -0.0000
vn -1.0000 0.0078 -0.0000
vn -0.9999 0.0137 -0.0000
vn -0.2214 0.9700 -0.0999
vn -0.2161 0.9763 0.0098
vn -0.1194 0.9926 -0.0235
vn -0.1216 0.9921 -0.0314
vn -0.3467 0.9380 -0.0000
vn -0.3488 0.9372 0.0003
vn -0.5236 0.8520 0.0002
vn -0.5232 0.8522 0.0001
vn -0.6783 0.7348 0.0001
vn -0.6782 0.7349 0.0001
vn -0.9764 0.1862 0.1098
vn -0.9732 0.2021 0.1099
vn -0.9932 0.0236 0.1137
vn -0.9935 0.0059 0.1137
vn -0.9267 -0.2336 -0.2945
vn -0.9245 -0.1217 -0.3612
vn -0.9857 -0.0491 -0.1610
vn -0.9867 -0.0983 -0.1297
vn -0.9275 -0.3204 -0.1926
vn -0.9936 -0.0766 -0.0825
vn -0.9432 -0.3223 -0.0806
vn -0.9992 -0.0118 -0.0392
vn -0.9475 -0.3158 0.0490
vn -0.9993 -0.0216 0.0314
vn -0.7991 0.5871 0.1296
vn -0.2614 0.9355 0.2378
vn -0.2566 0.9380 -0.2330
vn -0.7941 0.5921 -0.1373
vn -1.0000 0.0059 -0.0039
vn -1.0000 0.0059 -0.0040
vn -0.7751 -0.0078 -0.6318
vn -0.7688 0.0059 -0.6394
vn -0.7821 -0.0118 0.6230
vn -0.7768 0.0019 0.6297
vn -0.9860 0.1668 0.0001
vn -0.9860 0.1669 -0.0000
vn -0.9860 0.1669 -0.0001
vn -0.9860 0.1666 -0.0000
vn -0.9860 0.1669 0.0001
vn -0.9860 0.1668 -0.0001
vn -0.0098 0.9364 -0.3507
vn -0.1861 0.9265 -0.3271
vn -0.1077 0.9679 -0.2273
vn -0.0803 0.9616 -0.2624
vn -0.9660 0.1509 -0.2097
vn -0.9663 0.1489 -0.2097
vn -0.9660 0.1510 -0.2097
vn -0.9663 0.1490 -0.2097
vn -0.9661 0.1509 -0.2097
vn -0.9661 0.1508 -0.2097
vn -0.9660 0.1509 -0.2098
vn -0.9202 0.3367 -0.1997
vn -0.9810 0.0057 -0.1939
vn -0.9810 0.0061 -0.1938
vn -0.9810 0.0060 -0.1938
vn -0.9808 0.0196 -0.1939
vn -0.9805 0.0196 -0.1957
vn -0.9808 0.0196 -0.1938
vn -0.9805 0.0197 -0.1957
vn -0.5354 0.6040 -0.5903
vn -0.6031 0.7617 -0.2369
vn -0.4973 0.2879 -0.8184
vn -0.6468 0.7625 -0.0177
vn -0.5725 0.7156 -0.4002
vn -0.7207 0.6087 0.3318
vn -0.1041 0.9511 0.2908
vn -0.1826 0.9031 0.3887
vn -0.0039 0.9110 0.4123
vn -0.0747 0.9430 0.3242
vt 0.767578 0.726074
vt 0.767578 0.663574
vt 0.733887 0.663574
vt 0.733887 0.726074
vt 0.628906 0.814209
vt 0.628906 0.813232
vt 0.650391 0.813232
vt 0.650391 0.814209
vt 0.628906 0.815308
vt 0.650391 0.815308
vt 0.628906 0.816284
vt 0.650391 0.816284
vt 0.628906 0.825439
vt 0.628906 0.824463
vt 0.650391 0.824463
vt 0.650391 0.825439
vt 0.650391 0.823364
vt 0.628906 0.823364
vt 0.650391 0.822388
vt 0.628906 0.822388
vt 0.650391 0.821411
vt 0.628906 0.821411
vt 0.650391 0.820313
vt 0.628906 0.820313
vt 0.650391 0.819336
vt 0.628906 0.819336
vt 0.650391 0.818359
vt 0.628906 0.818359
vt 0.650391 0.817261
vt 0.628906 0.817261
vt 0.117615 0.582031
vt 0.120850 0.619385
vt 0.106079 0.619629
vt 0.103699 0.645996
vt 0.103821 0.593262
vt 0.117371 0.656494
vt 0.097045 0.669189
vt 0.108215 0.689209
vt 0.086792 0.686279
vt 0.093933 0.713623
vt 0.074279 0.695312
vt 0.076355 0.726318
vt 0.061065 0.695312
vt 0.057678 0.726318
vt 0.048675 0.686035
vt 0.040100 0.713379
vt 0.038452 0.668701
vt 0.025787 0.689209
vt 0.031890 0.645264
vt 0.016433 0.656494
vt 0.029602 0.618896
vt 0.013176 0.619141
vt 0.031982 0.592529
vt 0.016403 0.582031
vt 0.038604 0.569092
vt 0.025756 0.549316
vt 0.048889 0.552002
vt 0.040069 0.524902
vt 0.061309 0.542969
vt 0.057678 0.511963
vt 0.074523 0.543213
vt 0.076355 0.511963
vt 0.353027 0.726807
vt 0.334228 0.726807
vt 0.337402 0.695312
vt 0.350586 0.695557
vt 0.370605 0.713867
vt 0.363281 0.686279
vt 0.385010 0.689453
vt 0.373291 0.669189
vt 0.394287 0.656738
vt 0.379883 0.645752
vt 0.397705 0.619629
vt 0.382324 0.619385
vt 0.394531 0.582275
vt 0.380127 0.593018
vt 0.385254 0.549561
vt 0.373535 0.569580
vt 0.370850 0.525391
vt 0.363281 0.552246
vt 0.353271 0.512451
vt 0.350830 0.542969
vt 0.334473 0.512207
vt 0.337646 0.542725
vt 0.316895 0.525146
vt 0.325195 0.552002
vt 0.302490 0.549561
vt 0.314941 0.569092
vt 0.293213 0.582275
vt 0.308350 0.592529
vt 0.290039 0.619385
vt 0.305908 0.618896
vt 0.293213 0.656738
vt 0.308105 0.645508
vt 0.302490 0.689453
vt 0.314941 0.668945
vt 0.316895 0.713623
vt 0.324951 0.686279
vt 0.071838 0.676514
vt 0.071777 0.683350
vt 0.063659 0.683594
vt 0.063659 0.676514
vt 0.072448 0.619385
vt 0.063232 0.619385
vt 0.071960 0.676269
vt 0.071899 0.683350
vt 0.063781 0.683350
vt 0.063781 0.676514
vt 0.072509 0.619141
vt 0.063293 0.619141
vt 0.636230 0.915344
vt 0.636230 0.893311
vt 0.614258 0.893311
vt 0.614258 0.915344
vt 0.592285 0.893311
vt 0.592285 0.915344
vt 0.570313 0.893311
vt 0.570313 0.915344
vt 0.592285 0.865967
vt 0.592285 0.887939
vt 0.570313 0.887939
vt 0.614258 0.865967
vt 0.614258 0.887939
vt 0.636230 0.865967
vt 0.636230 0.887939
vt 0.570313 0.865967
vt 0.689941 0.523926
vt 0.673340 0.562988
vt 0.493652 0.562988
vt 0.497559 0.523926
vt 0.871094 0.562988
vt 0.877930 0.523926
vt 0.712402 0.523926
vt 0.706543 0.562988
vt 0.849609 0.562988
vt 0.851074 0.523926
vt 0.526855 0.171387
vt 0.509277 0.141113
vt 0.563477 0.118652
vt 0.584473 0.130371
vt 0.538574 0.211914
vt 0.590332 0.167480
vt 0.509277 0.375000
vt 0.593262 0.377930
vt 0.594238 0.407715
vt 0.488037 0.390625
vt 0.526855 0.344727
vt 0.538574 0.304199
vt 0.592773 0.323730
vt 0.369141 0.178711
vt 0.030105 0.178711
vt 0.033416 0.051757
vt 0.400146 0.051757
vt 0.813477 0.897766
vt 0.729492 0.897766
vt 0.729492 0.854248
vt 0.813477 0.854248
vt 0.729492 0.837769
vt 0.813477 0.837769
vt 0.877441 0.518066
vt 0.406250 0.518066
vt 0.406250 0.422852
vt 0.877441 0.422852
vt 0.510254 0.314453
vt 0.518066 0.287598
vt 0.536621 0.302734
vt 0.525391 0.341797
vt 0.498779 0.334473
vt 0.508301 0.371094
vt 0.484375 0.345215
vt 0.487549 0.386719
vt 0.469238 0.345215
vt 0.465576 0.386719
vt 0.481201 0.331543
vt 0.481934 0.324219
vt 0.471436 0.324219
vt 0.471924 0.331543
vt 0.481445 0.323730
vt 0.471924 0.323730
vt 0.481934 0.257324
vt 0.471191 0.257813
vt 0.471924 0.191406
vt 0.481201 0.191406
vt 0.468018 0.194824
vt 0.467529 0.257813
vt 0.485107 0.194824
vt 0.485596 0.257324
vt 0.687500 0.570557
vt 0.714355 0.666016
vt 0.701660 0.699951
vt 0.729980 0.641602
vt 0.693848 0.739014
vt 0.687500 0.781128
vt 0.681152 0.739014
vt 0.673340 0.699951
vt 0.660644 0.666016
vt 0.645019 0.641602
vt 0.806641 0.822876
vt 0.806641 0.662842
vt 0.772461 0.662842
vt 0.772461 0.822876
vt 0.315918 0.361328
vt 0.018005 0.361816
vt 0.399902 0.231445
vt 0.382324 0.361328
vt 0.002832 0.228027
vt 0.295410 0.361328
vt 0.291504 0.581055
vt 0.288086 0.619385
vt 0.122681 0.619385
vt 0.119324 0.580811
vt 0.301270 0.547119
vt 0.109680 0.546875
vt 0.316162 0.521973
vt 0.094848 0.521729
vt 0.343506 0.628906
vt 0.334228 0.623779
vt 0.343506 0.592285
vt 0.343506 0.634521
vt 0.352539 0.623779
vt 0.354004 0.628906
vt 0.333008 0.628906
vt 0.119080 0.657715
vt 0.291504 0.657959
vt 0.109680 0.691650
vt 0.301025 0.691895
vt 0.094848 0.716797
vt 0.315918 0.717041
vt 0.772949 0.662842
vt 0.772949 0.822876
s 1
f 1/1/1 2/2/2 3/3/3
f 3/3/3 4/4/4 1/1/1
f 5/5/5 6/6/6 7/7/7
f 7/7/7 8/8/8 5/5/5
f 9/9/9 5/5/5 8/8/8
f 8/8/8 10/10/10 9/9/9
f 11/11/11 9/9/9 10/10/10
f 10/10/10 12/12/12 11/11/11
f 13/13/6 14/14/13 15/15/14
f 15/15/14 16/16/7 13/13/6
f 17/17/15 15/15/14 14/14/13
f 14/14/13 18/18/16 17/17/15
f 19/19/17 17/17/15 18/18/16
f 18/18/16 20/20/18 19/19/17
f 21/21/19 19/19/17 20/20/18
f 20/20/18 22/22/20 21/21/19
f 23/23/21 21/21/19 22/22/20
f 22/22/20 24/24/22 23/23/21
f 25/25/23 23/23/21 24/24/22
f 24/24/22 26/26/24 25/25/23
f 27/27/25 25/25/23 26/26/24
f 26/26/24 28/28/26 27/27/25
f 29/29/27 27/27/25 28/28/26
f 28/28/26 30/30/28 29/29/27
f 31/31/29 32/32/30 33/33/31
f 34/34/32 33/33/31 32/32/30
f 33/33/31 35/35/33 31/31/29
f 32/32/30 36/36/34 34/34/32
f 37/37/35 34/34/32 36/36/34
f 36/36/34 38/38/36 37/37/35
f 39/39/37 37/37/35 38/38/36
f 38/38/36 40/40/38 39/39/37
f 41/41/39 39/39/37 40/40/38
f 40/40/38 42/42/40 41/41/39
f 43/43/41 41/41/39 42/42/40
f 42/42/40 44/44/42 43/43/41
f 45/45/43 43/43/41 44/44/42
f 44/44/42 46/46/44 45/45/43
f 47/47/45 45/45/43 46/46/44
f 46/46/44 48/48/46 47/47/45
f 49/49/47 47/47/45 48/48/46
f 48/48/46 50/50/48 49/49/47
f 51/51/49 49/49/47 50/50/48
f 50/50/48 52/52/50 51/51/49
f 53/53/51 51/51/49 52/52/50
f 52/52/50 54/54/52 53/53/51
f 55/55/53 53/53/51 54/54/52
f 54/54/52 56/56/54 55/55/53
f 57/57/55 55/55/53 56/56/54
f 56/56/54 58/58/56 57/57/55
f 59/59/57 57/57/55 58/58/56
f 58/58/56 60/60/58 59/59/57
f 61/61/59 59/59/57 60/60/58
f 60/60/58 62/62/60 61/61/59
f 63/63/61 64/64/62 65/65/63
f 65/65/63 66/66/64 63/63/61
f 67/67/65 63/63/61 66/66/64
f 66/66/64 68/68/66 67/67/65
f 69/69/67 67/67/65 68/68/66
f 68/68/66 70/70/68 69/69/67
f 71/71/69 69/69/67 70/70/68
f 70/70/68 72/72/70 71/71/69
f 73/73/71 71/71/69 72/72/70
f 72/72/70 74/74/72 73/73/71
f 75/75/73 73/73/71 74/74/72
f 74/74/72 76/76/74 75/75/73
f 77/77/75 75/75/73 76/76/74
f 76/76/74 78/78/76 77/77/75
f 79/79/77 77/77/75 78/78/76
f 78/78/76 80/80/78 79/79/77
f 81/81/79 79/79/77 80/80/78
f 80/80/78 82/82/80 81/81/79
f 83/83/81 81/81/79 82/82/80
f 82/82/80 84/84/82 83/83/81
f 85/85/83 83/83/81 84/84/82
f 84/84/82 86/86/84 85/85/83
f 87/87/85 85/85/83 86/86/84
f 86/86/84 88/88/86 87/87/85
f 89/89/87 87/87/85 88/88/86
f 88/88/86 90/90/88 89/89/87
f 91/91/89 89/89/87 90/90/88
f 90/90/88 92/92/90 91/91/89
f 93/93/91 91/91/89 92/92/90
f 92/92/90 94/94/92 93/93/91
f 95/95/93 93/93/91 94/94/92
f 94/94/92 96/96/94 95/95/93
f 97/97/95 95/95/93 96/96/94
f 96/96/94 98/98/96 97/97/95
f 64/64/62 97/97/95 98/98/96
f 98/98/96 65/65/63 64/64/62
f 99/99/97 100/100/98 101/101/99
f 101/101/99 102/102/97 99/99/97
s 0
f 103/103/100 99/99/100 102/102/100
f 102/102/97 104/104/97 103/103/100
s 1
f 105/105/97 106/106/101 107/107/102
f 107/107/102 108/108/100 105/105/97
s 0
f 109/109/103 105/105/103 108/108/103
f 108/108/100 110/110/100 109/109/100
s 1
f 111/111/104 112/112/104 113/113/105
f 113/113/105 114/114/105 111/111/104
f 114/114/105 113/113/105 115/115/106
f 115/115/106 116/116/107 114/114/105
f 116/116/107 115/115/106 117/117/108
f 117/117/108 118/118/108 116/116/107
f 119/119/105 120/120/105 121/121/109
f 120/120/105 119/119/105 122/122/110
f 122/122/110 123/123/110 120/120/105
f 123/123/110 122/122/110 124/124/111
f 124/124/111 125/125/112 123/123/110
f 121/121/109 126/126/104 119/119/105
f 127/127/113 128/128/114 129/129/115
f 129/129/115 130/130/116 127/127/113
f 131/131/117 128/128/114 127/127/113
f 127/127/113 132/132/118 131/131/117
f 133/133/119 134/134/120 135/135/121
f 135/135/121 136/136/122 133/133/119
f 137/137/123 138/138/124 139/139/125
s 0
f 139/139/125 140/140/126 137/137/123
f 141/141/126 137/137/123 140/140/126
f 140/140/126 142/142/126 141/141/126
s 1
f 143/143/127 144/144/128 145/145/129
f 145/145/129 146/146/130 143/143/127
f 144/144/128 143/143/127 147/147/131
f 144/144/128 147/147/131 148/148/132
f 148/148/132 149/149/133 144/144/128
f 150/150/134 151/151/135 152/152/136
f 152/152/136 153/153/137 150/150/134
f 154/154/138 155/155/139 156/156/140
f 156/156/140 157/157/141 154/154/138
f 157/157/141 156/156/140 158/158/142
f 158/158/142 159/159/143 157/157/141
f 160/160/144 161/161/145 162/162/146
f 162/162/146 163/163/147 160/160/144
f 164/164/148 165/165/149 166/166/150
f 166/166/150 167/167/151 164/164/148
f 168/168/152 164/164/148 167/167/151
f 167/167/151 169/169/153 168/168/152
f 170/170/154 168/168/152 169/169/153
f 169/169/153 171/171/155 170/170/154
f 172/172/156 170/170/154 171/171/155
f 171/171/155 173/173/157 172/172/156
f 174/174/158 175/175/159 176/176/160
f 176/176/160 177/177/161 174/174/158
f 178/178/162 174/174/158 177/177/161
f 177/177/161 179/179/162 178/178/162
s 0
f 180/180/163 178/178/163 179/179/163
f 179/179/163 181/181/162 180/180/163
f 180/180/162 181/181/162 182/182/162
f 182/182/162 183/183/162 180/180/162
s 1
f 184/184/164 182/182/162 181/181/163
f 181/181/163 185/185/165 184/184/164
f 180/180/163 183/183/163 186/186/166
f 186/186/166 187/187/167 180/180/163
s 0
f 188/188/168 189/189/168 190/190/168
f 188/188/169 191/191/169 189/189/169
f 188/188/170 190/190/170 192/192/170
f 192/192/171 193/193/172 188/188/171
f 188/188/170 193/193/170 194/194/170
f 194/194/172 195/195/172 188/188/172
f 188/188/173 195/195/173 196/196/173
f 188/188/169 196/196/169 197/197/169
s 1
f 198/198/174 199/199/175 200/200/176
f 200/200/176 201/201/177 198/198/174
s 0
f 202/202/178 203/203/178 204/204/179
f 202/202/180 204/204/181 205/205/182
f 203/203/183 206/206/182 204/204/181
s 1
f 202/202/184 207/207/185 203/203/183
s 0
f 208/208/186 209/209/186 210/210/186
f 210/210/187 211/211/187 208/208/187
f 212/212/187 208/208/187 211/211/187
f 211/211/187 213/213/187 212/212/187
f 214/214/187 212/212/187 213/213/187
f 213/213/188 215/215/188 214/214/188
f 216/216/189 217/217/190 218/218/191
s 1
f 217/217/192 216/216/189 219/219/193
s 0
f 220/220/189 216/216/191 218/218/191
s 1
f 216/216/189 220/220/191 221/221/194
f 221/221/194 219/219/193 216/216/189
f 219/219/193 222/222/195 217/217/192
s 0
f 223/216/191 224/217/189 225/218/191
f 226/220/191 223/216/191 225/218/191
s 1
f 224/217/191 223/216/189 227/219/196
f 227/219/196 228/222/197 224/217/191
f 229/221/198 227/219/196 223/216/189
f 223/216/189 226/220/191 229/221/198
s 0
f 230/223/187 210/210/186 209/209/186
f 209/209/187 231/224/187 230/223/187
f 232/225/187 230/223/187 231/224/187
f 231/224/187 233/226/187 232/225/187
f 234/227/187 232/225/187 233/226/187
f 233/226/188 235/228/188 234/227/188
s 1
f 236/229/199 237/199/200 238/198/201
f 238/198/201 239/230/202 236/229/199
