# Blender 4.0.1
# www.blender.org
o _135__BMW_M3_E36_GAUGES_CPIT_
v 14.401736 33.751068 -9.424722
v 14.368106 33.552212 -9.122889
v 14.356289 33.482407 -8.766829
v 14.452125 34.048645 -9.626388
v 14.368106 33.552212 -8.410807
v 14.511518 34.399651 -9.697220
v 14.452125 34.048645 -7.907268
v 14.654930 35.247204 -8.410807
v 14.621300 35.048351 -9.424722
v 14.654930 35.247204 -9.122889
v 14.666786 35.317085 -8.766829
v 14.511518 34.399574 -7.836474
v 14.621300 35.048351 -8.108972
v 14.571217 34.752522 -7.908484
v 14.549594 34.624573 -9.942396
v 14.867350 36.502151 -10.731123
v 14.895547 36.668900 -11.139471
v 14.488300 34.262470 -10.606711
v 14.895547 36.668900 -12.015828
v 14.905160 36.725746 -11.577726
v 14.488300 34.262470 -12.548626
v 14.481421 34.221928 -13.043766
v 14.449882 34.035461 -12.898683
v 14.763914 35.891151 -13.043766
v 14.622668 35.056519 -13.270664
v 14.549594 34.624573 -13.212904
v 14.695819 35.488579 -13.212904
v 14.867350 36.502151 -12.424176
v 14.822434 36.236839 -12.774801
v 14.481421 34.221928 -10.111533
v 14.449540 34.033485 -10.258138
v 14.763914 35.891151 -10.111533
v 14.622668 35.056519 -9.884673
v 14.695819 35.488579 -9.942396
v 14.570951 34.750736 -9.626388
v 14.401736 33.751068 -8.108972
v 14.961135 34.012886 -12.898683
v 14.934193 33.853668 -12.774801
v 14.999591 34.239937 -12.548626
v 14.893190 33.611229 -12.454196
v 14.934193 33.853668 -10.380536
v 14.999591 34.239937 -10.606711
v 14.960830 34.010952 -10.258138
v 14.893190 33.611229 -10.701142
v 14.893190 33.611229 -10.701142
v 14.893190 33.611229 -12.454196
v 14.381900 33.633762 -12.454196
v 14.381900 33.633762 -10.701142
v 14.422940 33.876240 -12.774801
v 14.449882 34.035461 -12.898683
v 14.934193 33.853668 -12.774801
v 14.961135 34.012886 -12.898683
v 14.961135 34.012886 -12.898683
v 14.999591 34.239937 -12.548626
v 14.488300 34.262470 -12.548626
v 14.449882 34.035461 -12.898683
v 14.488300 34.262470 -10.606711
v 14.999591 34.239937 -10.606711
v 14.449540 34.033485 -10.258138
v 14.960830 34.010952 -10.258138
v 14.934193 33.853668 -10.380536
v 14.422940 33.876240 -10.380536
v 14.960830 34.010952 -10.258138
v 14.449540 34.033485 -10.258138
v 14.763914 35.891151 -16.721025
v 14.695819 35.488579 -16.890163
v 14.622668 35.056519 -16.947886
v 14.549594 34.624573 -16.890163
v 14.867350 36.502151 -16.101397
v 14.895547 36.668900 -15.693088
v 14.488300 34.262470 -16.225847
v 14.481421 34.221928 -16.721025
v 14.449540 34.033485 -16.574423
v 14.895547 36.668900 -14.816732
v 14.905160 36.725746 -15.254834
v 14.488300 34.262470 -14.283934
v 14.481421 34.221928 -13.788795
v 14.449882 34.035461 -13.933878
v 14.763914 35.891151 -13.788755
v 14.622668 35.056519 -13.561895
v 14.695819 35.488579 -13.619617
v 14.549594 34.624573 -13.619617
v 14.356289 33.482407 -18.065733
v 14.368106 33.552212 -17.709673
v 14.401736 33.751068 -17.407839
v 14.452125 34.048645 -17.206171
v 14.368106 33.552212 -18.421753
v 14.511518 34.399651 -17.135340
v 14.452125 34.048645 -18.925293
v 14.654930 35.247204 -18.421753
v 14.511518 34.399574 -18.996086
v 14.621300 35.048351 -18.723587
v 14.571217 34.752522 -18.924076
v 14.621300 35.048351 -17.407839
v 14.654968 35.247204 -17.709673
v 14.666786 35.317085 -18.065733
v 14.401736 33.751068 -18.723587
v 14.822434 36.236839 -16.452024
v 14.583110 34.012886 -13.933878
v 14.449882 34.035461 -13.933878
v 14.488300 34.262470 -14.283934
v 14.621529 34.239937 -14.284048
v 14.488300 34.262470 -16.225847
v 14.621490 34.239635 -16.226305
v 14.449540 34.033485 -16.574423
v 14.582768 34.010952 -16.574423
v 14.422940 33.876240 -16.452024
v 14.556169 33.853668 -16.452024
v 14.582768 34.010952 -16.574423
v 14.449540 34.033485 -16.574423
v 14.381900 33.633762 -16.131418
v 14.527326 33.683315 -16.226723
v 14.515128 33.611229 -16.131418
v 14.381900 33.633762 -14.378365
v 14.515128 33.611229 -14.378365
v 14.527213 33.682476 -14.284162
v 14.422940 33.876240 -14.057758
v 14.556169 33.853668 -14.057758
v 14.449882 34.035461 -13.933878
v 14.583110 34.012886 -13.933878
v 14.621490 34.239635 -16.226305
v 14.582768 34.010952 -16.574423
v 14.556169 33.853668 -16.452024
v 14.527326 33.683315 -16.226723
v 14.527213 33.682476 -14.284162
v 14.556169 33.853668 -14.057758
v 14.583110 34.012886 -13.933878
v 14.621529 34.239937 -14.284048
v 14.822434 36.236839 -14.057758
v 14.867350 36.502151 -14.408384
v 14.822434 36.236839 -10.380536
v 14.570951 34.750736 -17.206171
vn -0.9860 0.1667 -0.0000
vn -0.9860 0.1665 -0.0000
vn -0.9860 0.1670 0.0001
vn -0.9860 0.1666 -0.0000
vn -0.9861 0.1664 -0.0000
vn -0.9860 0.1668 -0.0000
vn -0.9860 0.1669 -0.0000
vn -0.9859 0.1673 -0.0000
vn -0.9860 0.1669 0.0001
vn -0.9860 0.1667 -0.0003
vn -0.9860 0.1667 -0.0002
vn -0.9860 0.1667 -0.0001
vn -0.9859 0.1670 -0.0002
vn -0.9860 0.1668 -0.0001
vn -0.9860 0.1669 -0.0002
vn -0.9859 0.1671 -0.0002
vn -0.9860 0.1670 -0.0000
vn 0.0392 0.9442 -0.3271
vn 0.0396 0.9445 0.3261
vn 0.0394 0.9499 0.3102
vn 0.0392 0.9495 -0.3113
vn 0.0295 0.7136 0.6999
vn 0.0236 0.6108 0.7915
vn 0.0278 0.7039 0.7098
vn 0.0235 0.6108 0.7915
vn -0.0333 -0.8376 0.5453
vn -0.0392 -0.9603 0.2763
vn -0.0392 -0.9568 0.2882
vn -0.0396 -0.9548 -0.2946
vn -0.0396 -0.9589 -0.2810
vn -0.0334 -0.8331 -0.5521
vn -0.0335 -0.8331 -0.5521
vn 0.0276 0.7039 -0.7098
vn 0.0295 0.7136 -0.6999
vn 0.0236 0.6111 -0.7912
vn 0.0235 0.6111 -0.7912
vn -0.9860 0.1670 -0.0005
vn -0.9860 0.1668 0.0001
vn -0.9861 0.1664 -0.0001
vn -0.9860 0.1669 -0.0001
vn -0.9860 0.1667 0.0001
vn -0.9860 0.1670 0.0005
vn -0.9860 0.1667 0.0005
vn -0.9860 0.1670 -0.0001
vn -0.9860 0.1667 0.0003
vn -0.9860 0.1666 -0.0002
vn -0.9861 0.1663 -0.0000
vn -0.9859 0.1671 0.0002
vn -0.1377 -0.8235 -0.5503
vn -0.1375 -0.8235 -0.5504
vn -0.1572 -0.9450 -0.2868
vn -0.1588 -0.9449 0.2862
vn -0.1587 -0.9444 0.2880
vn -0.1354 -0.8220 0.5532
vn 0.1159 0.6974 0.7072
vn 0.1163 0.6974 0.7072
vn 0.0983 0.5996 0.7942
vn 0.1552 0.9346 0.3201
vn 0.1299 0.7832 0.6081
vn 0.1551 0.9346 0.3201
vn 0.1549 0.9342 -0.3212
vn 0.1548 0.9343 -0.3212
vn 0.1296 0.7830 -0.6084
vn 0.1156 0.6975 -0.7072
vn 0.1156 0.6974 -0.7072
vn 0.0980 0.5999 -0.7940
vn -0.9859 0.1670 0.0002
vn -0.9860 0.1670 0.0002
vt 0.061859 0.106934
vt 0.124146 0.064941
vt 0.197632 0.050781
vt 0.020233 0.168945
vt 0.270996 0.064941
vt 0.005615 0.242676
vt 0.375000 0.168945
vt 0.270996 0.419922
vt 0.061859 0.378418
vt 0.124146 0.419922
vt 0.197632 0.434570
vt 0.389648 0.242676
vt 0.333252 0.378418
vt 0.374756 0.316406
vt 0.988281 0.179687
vt 0.849121 0.515869
vt 0.777344 0.545654
vt 0.871094 0.114746
vt 0.623047 0.545654
vt 0.700195 0.555908
vt 0.528809 0.114746
vt 0.441895 0.107910
vt 0.467285 0.074218
vt 0.441895 0.406738
vt 0.401855 0.257324
vt 0.412109 0.179687
vt 0.412109 0.334473
vt 0.550781 0.515869
vt 0.489258 0.468262
vt 0.958496 0.107910
vt 0.932617 0.073730
vt 0.958496 0.406738
vt 0.998535 0.257324
vt 0.988281 0.334473
vt 0.020233 0.315918
vt 0.333252 0.106934
vt 0.489258 0.045898
vt 0.545410 0.002441
vt 0.911133 0.045898
vt 0.854492 0.002441
vt 0.041259 0.849121
vt 0.011482 0.776978
vt 0.001314 0.699707
vt 0.011482 0.622314
vt 0.150391 0.958435
vt 0.222412 0.988258
vt 0.128418 0.557617
vt 0.041259 0.550293
vt 0.067077 0.516602
vt 0.376709 0.988258
vt 0.299561 0.998434
vt 0.470703 0.557617
vt 0.557617 0.550293
vt 0.532227 0.516846
vt 0.557617 0.849121
vt 0.597656 0.699707
vt 0.587402 0.776978
vt 0.587402 0.622314
vt 0.802734 0.608154
vt 0.875977 0.622803
vt 0.938477 0.664307
vt 0.979980 0.726563
vt 0.729004 0.622803
vt 0.994629 0.800049
vt 0.625000 0.726563
vt 0.729004 0.977432
vt 0.610352 0.800049
vt 0.666504 0.935852
vt 0.625488 0.873901
vt 0.938477 0.935852
vt 0.875977 0.977432
vt 0.802734 0.992073
vt 0.666504 0.664307
vt 0.088684 0.910950
vt 0.470459 0.557617
vt 0.088684 0.488770
vt 0.145142 0.445313
vt 0.128296 0.458008
vt 0.453857 0.445313
vt 0.470459 0.458008
vt 0.510254 0.488770
vt 0.510254 0.910950
vt 0.448730 0.958435
vt 0.911133 0.468262
vt 0.979980 0.873535
s 0
f 1/1/1 2/2/1 3/3/1
f 4/4/2 1/1/3 3/3/2
f 4/4/4 3/3/4 5/5/4
f 4/4/5 5/5/6 6/6/6
f 5/5/7 7/7/7 6/6/7
f 7/7/6 8/8/6 6/6/6
f 8/8/2 9/9/2 6/6/2
f 8/8/6 10/10/6 9/9/6
f 8/8/6 11/11/6 10/10/8
f 7/7/2 12/12/9 8/8/9
f 12/12/9 13/13/9 8/8/9
f 12/12/10 14/14/10 13/13/4
f 15/15/9 16/16/4 17/17/4
f 18/18/7 15/15/7 17/17/7
f 18/18/2 17/17/5 19/19/7
f 17/17/6 20/20/6 19/19/6
f 21/21/7 18/18/2 19/19/2
f 21/21/7 19/19/7 22/22/2
f 22/22/6 23/23/6 21/21/6
f 19/19/7 24/24/7 22/22/7
f 24/24/7 25/25/7 22/22/7
f 25/25/11 26/26/4 22/22/4
f 24/24/12 27/27/4 25/25/4
f 19/19/13 28/28/13 24/24/13
f 28/28/7 29/29/7 24/24/7
f 18/18/7 30/30/7 15/15/4
f 31/31/6 30/30/6 18/18/6
f 15/15/14 32/32/14 16/16/14
f 15/15/14 33/33/14 32/32/14
f 33/33/4 34/34/4 32/32/4
f 9/9/15 35/35/15 6/6/15
f 5/5/14 36/36/16 7/7/14
f 37/23/9 38/37/9 39/21/9
f 38/37/9 40/38/9 39/21/9
f 40/38/7 41/39/7 39/21/7
f 41/39/7 42/18/7 39/21/7
f 41/39/17 43/31/17 42/18/17
f 40/38/6 44/40/6 41/39/6
s 1
f 45/40/18 46/38/19 47/38/20
f 47/38/20 48/40/21 45/40/18
f 49/37/22 47/38/20 46/38/19
f 50/23/23 49/37/22 51/37/24
f 46/38/19 51/37/24 49/37/22
f 51/37/24 52/23/25 50/23/23
f 53/23/26 54/21/27 55/21/28
f 55/21/28 56/23/26 53/23/26
f 57/18/29 55/21/28 54/21/27
f 54/21/27 58/18/30 57/18/29
f 59/31/31 57/18/29 58/18/30
f 58/18/30 60/31/32 59/31/31
f 61/39/33 45/40/18 48/40/21
f 48/40/21 62/39/34 61/39/33
f 63/31/35 61/39/33 62/39/34
f 62/39/34 64/31/36 63/31/35
s 0
f 65/41/37 66/42/4 67/43/37
f 65/41/38 67/43/38 68/44/38
f 69/45/39 65/41/39 68/44/39
f 70/46/40 69/45/40 68/44/40
f 70/46/5 68/44/5 71/47/7
f 68/44/2 72/48/2 71/47/2
f 73/49/6 71/47/6 72/48/6
f 74/50/7 70/46/7 71/47/7
f 74/50/1 75/51/1 70/46/1
f 76/52/2 74/50/2 71/47/7
f 76/52/7 77/53/7 74/50/7
f 77/53/6 76/52/6 78/54/6
f 77/53/7 79/55/7 74/50/7
f 77/53/7 80/56/7 79/55/7
f 80/56/41 81/57/42 79/55/4
f 77/53/43 82/58/43 80/56/43
f 83/59/1 84/60/1 85/61/1
f 86/62/44 83/59/44 85/61/44
f 86/62/7 87/63/7 83/59/7
f 86/62/6 88/64/6 87/63/6
f 88/64/5 89/65/5 87/63/7
f 88/64/6 90/66/6 89/65/6
f 90/66/40 91/67/40 89/65/40
f 90/66/40 92/68/40 91/67/40
f 92/68/4 93/69/45 91/67/46
f 88/64/47 94/70/47 90/66/47
f 94/70/3 95/71/3 90/66/3
f 95/71/3 96/72/1 90/66/3
f 89/65/48 97/73/38 87/63/48
f 69/45/5 98/74/5 65/41/5
s 1
f 99/54/49 100/54/50 101/52/51
f 101/52/51 102/75/51 99/54/49
f 102/75/51 101/52/51 103/47/52
f 103/47/52 104/47/53 102/75/51
f 104/47/53 103/47/52 105/49/54
f 105/49/54 106/49/54 104/47/53
f 107/76/55 108/76/56 109/49/57
f 109/49/57 110/49/57 107/76/55
f 108/76/56 107/76/55 111/77/58
f 111/77/58 112/78/59 108/76/56
f 111/77/58 113/77/60 112/78/59
f 113/77/60 111/77/58 114/79/61
f 114/79/61 115/79/62 113/77/60
f 116/80/63 115/79/62 114/79/61
f 116/80/63 114/79/61 117/81/64
f 117/81/64 118/81/65 116/80/63
f 118/81/65 117/81/64 119/54/66
f 119/54/66 120/54/66 118/81/65
s 0
f 121/47/38 122/49/38 123/76/38
f 123/76/4 124/78/5 121/47/5
f 125/80/40 126/81/40 127/54/40
f 127/54/6 128/75/6 125/80/6
f 79/55/5 129/82/4 130/83/5
f 79/55/67 130/83/67 74/50/67
f 32/32/7 131/84/7 16/16/7
f 88/64/68 132/85/68 94/70/68
