# Blender 4.0.1
# www.blender.org
o BigNeedle
v 0.039057 1.591226 -0.017496
v 0.039091 1.591077 0.021414
v 0.129431 1.590952 0.021406
v 0.129422 1.590994 -0.017470
v 0.127049 0.290773 -0.077565
v -0.023538 0.290996 -0.077575
v -0.023523 0.290792 0.078301
v 0.126877 0.212999 -0.212688
v 0.127028 0.290572 0.078306
v -0.023674 0.212738 0.213237
v -0.048757 0.212737 0.213240
v -0.048674 0.290914 0.078314
v -0.048691 0.291087 -0.077580
v -0.023705 0.213275 -0.212714
v -0.048749 0.213270 -0.212706
v -0.023921 0.078356 -0.290758
v -0.049041 0.078357 -0.290761
v -0.024214 -0.077596 -0.290962
v -0.049292 -0.077477 -0.290936
v -0.024433 -0.212659 -0.213232
v -0.049622 -0.212566 -0.213242
v -0.024629 -0.290762 -0.078287
v -0.049699 -0.290659 -0.078313
v -0.024613 -0.290966 0.077590
v 0.125937 -0.291220 0.077576
v 0.125958 -0.291019 -0.078295
v 0.126117 -0.212913 -0.213245
v 0.126335 -0.077848 -0.290974
v 0.126666 0.078101 -0.290765
v 0.126876 0.212484 0.213223
v -0.023893 0.077641 0.290948
v -0.049058 0.077627 0.290973
v -0.049300 -0.078191 0.290764
v -0.049246 -0.071497 0.265676
v -0.049532 -0.194769 0.194292
v -0.049517 -0.213108 0.212720
v -0.049671 -0.265772 0.070859
v -0.049683 -0.290832 0.077581
v -0.049664 -0.265621 -0.071519
v -0.049533 -0.194301 -0.194774
v -0.049259 -0.070753 -0.265838
v -0.049127 0.000098 -0.000027
v -0.049013 0.071677 -0.265695
v -0.048810 0.194936 -0.194291
v -0.048671 0.265938 -0.070857
v -0.048678 0.265755 0.071504
v -0.049001 0.071032 0.265873
v -0.048809 0.194469 0.194777
v -0.024441 -0.213193 0.212714
v -0.024230 -0.078326 0.290773
v 0.126650 0.077368 0.290968
v 0.126319 -0.078546 0.290778
v 0.126109 -0.213445 0.212701
v 0.035272 -0.476573 -0.078546
v 0.035250 -0.476742 0.077343
v 0.035698 -0.259621 0.071441
v 0.035719 -0.259450 -0.072069
v 0.039091 1.591077 0.021414
v 0.039057 1.591226 -0.017496
v 0.125605 -0.476718 -0.078522
v 0.035272 -0.476573 -0.078546
v 0.035719 -0.259450 -0.072069
v 0.126059 -0.259577 -0.072079
v 0.039057 1.591226 -0.017496
v 0.129422 1.590994 -0.017470
v 0.035250 -0.476742 0.077343
v 0.125584 -0.476919 0.077349
v 0.126075 -0.259750 0.071437
v 0.035698 -0.259621 0.071441
v 0.129431 1.590952 0.021406
v 0.039091 1.591077 0.021414
v 0.035272 -0.476573 -0.078546
v 0.125605 -0.476718 -0.078522
v 0.125584 -0.476919 0.077349
v 0.035250 -0.476742 0.077343
vn -0.0000 1.0000 0.0013
vn -0.0000 1.0000 0.0033
vn 0.0019 1.0000 0.0014
vn 0.0021 1.0000 0.0012
vn -0.0000 1.0000 0.0012
vn -0.0000 0.9668 -0.2557
vn 0.0020 0.9668 -0.2556
vn 0.0019 0.9655 0.2603
vn -0.0000 0.7089 -0.7053
vn -0.0000 0.9655 0.2603
vn -0.0000 0.7052 0.7090
vn -0.6520 0.5354 0.5369
vn -0.6519 0.7322 0.1973
vn -0.6512 0.7339 -0.1933
vn -0.6520 0.5387 -0.5335
vn 0.0002 0.2600 -0.9656
vn -0.6539 0.1973 -0.7304
vn -0.0000 -0.2561 -0.9667
vn -0.6556 -0.1915 -0.7305
vn -0.0000 -0.7062 -0.7080
vn -0.6563 -0.5319 -0.5352
vn -0.0019 -0.9660 -0.2585
vn -0.6562 -0.7288 -0.1955
vn -0.0020 -0.9663 0.2574
vn -0.0000 -0.9663 0.2574
vn -0.0000 -0.9660 -0.2585
vn 0.0001 0.2602 -0.9655
vn -0.0000 0.7053 0.7089
vn 0.0001 0.2556 0.9668
vn -0.6532 0.1933 0.7320
vn -0.6541 -0.1949 0.7309
vn -1.0000 -0.0000 -0.0000
vn -1.0000 -0.0000 0.0001
vn -0.6549 -0.5340 0.5347
vn -1.0000 0.0001 0.0001
vn -0.6551 -0.7299 0.1952
vn -1.0000 0.0001 -0.0000
vn -1.0000 -0.0002 0.0002
vn -1.0000 0.0002 -0.0004
vn -0.0017 -0.7081 0.7061
vn -0.0001 -0.2599 0.9656
vn -0.0000 0.2557 0.9668
vn -0.0004 -0.2599 0.9656
vn -0.0001 -0.7080 0.7062
vn 1.0000 -0.0008 -0.0014
vn 1.0000 -0.0036 -0.0010
vn 1.0000 -0.0021 0.0021
vn 1.0000 -0.0008 -0.0015
vn 1.0000 -0.0036 -0.0012
vn 1.0000 -0.0023 0.0022
vn 1.0000 -0.0016 -0.0016
vn 1.0000 -0.0036 -0.0000
vn 1.0000 -0.0019 0.0019
vn 1.0000 -0.0026 -0.0027
vn 1.0000 -0.0036 -0.0001
vn 1.0000 -0.0010 0.0009
vn -0.0000 0.0287 -0.9996
vn -0.0001 0.0286 -0.9996
vn -0.0000 0.0243 0.9997
vn -0.0000 0.0242 0.9997
vn -0.0001 -1.0000 -0.0012
vn -0.0000 -1.0000 -0.0013
vt 0.970215 0.029785
vt 0.027435 0.024902
s 0
f 1/1/1 2/1/2 3/1/3
f 3/1/4 4/1/4 1/1/5
s 1
f 5/2/6 6/2/7 7/2/8
f 6/2/7 5/2/6 8/2/9
f 7/2/8 9/2/10 5/2/6
f 9/2/10 7/2/8 10/2/11
f 11/2/12 10/2/11 7/2/8
f 12/2/13 7/2/8 6/2/7
f 7/2/8 12/2/13 11/2/12
f 6/2/7 13/2/14 12/2/13
f 8/2/9 14/2/9 6/2/7
f 13/2/14 6/2/7 14/2/9
f 14/2/9 15/2/15 13/2/14
f 15/2/15 14/2/9 16/2/16
f 16/2/16 17/2/17 15/2/15
f 17/2/17 16/2/16 18/2/18
f 18/2/18 19/2/19 17/2/17
f 19/2/19 18/2/18 20/2/20
f 20/2/20 21/2/21 19/2/19
f 21/2/21 20/2/20 22/2/22
f 22/2/22 23/2/23 21/2/21
f 23/2/23 22/2/22 24/2/24
f 25/2/25 24/2/24 22/2/22
f 22/2/22 26/2/26 25/2/25
f 26/2/26 22/2/22 20/2/20
f 27/2/20 20/2/20 18/2/18
f 20/2/20 27/2/20 26/2/26
f 28/2/18 18/2/18 16/2/16
f 18/2/18 28/2/18 27/2/20
f 16/2/16 29/2/27 28/2/18
f 29/2/27 16/2/16 14/2/9
f 14/2/9 8/2/9 29/2/27
f 10/2/11 30/2/28 9/2/10
f 30/2/28 10/2/11 31/2/29
f 10/2/11 11/2/12 32/2/30
f 32/2/30 31/2/29 10/2/11
f 31/2/29 32/2/30 33/2/31
f 34/2/32 33/2/31 32/2/30
f 33/2/31 34/2/32 35/2/33
f 35/2/33 36/2/34 33/2/31
f 36/2/34 35/2/33 37/2/35
f 24/2/24 38/2/36 23/2/23
f 37/2/35 38/2/36 36/2/34
f 39/2/37 23/2/23 38/2/36
f 38/2/36 37/2/35 39/2/37
f 23/2/23 39/2/37 40/2/32
f 40/2/32 21/2/21 23/2/23
f 41/2/32 19/2/19 21/2/21
f 21/2/21 40/2/32 41/2/32
s 0
f 40/2/32 42/2/32 41/2/32
f 34/2/37 42/2/37 35/2/37
f 35/2/32 42/2/32 37/2/32
f 37/2/37 42/2/37 39/2/37
f 39/2/32 42/2/32 40/2/32
s 1
f 19/2/19 41/2/32 43/2/35
s 0
f 41/2/37 42/2/37 43/2/37
s 1
f 43/2/35 17/2/17 19/2/19
s 0
f 43/2/32 42/2/32 44/2/32
s 1
f 17/2/17 43/2/35 44/2/32
f 44/2/32 15/2/15 17/2/17
f 15/2/15 44/2/32 45/2/38
f 45/2/38 13/2/14 15/2/15
s 0
f 44/2/37 42/2/37 45/2/37
s 1
f 13/2/14 45/2/38 46/2/39
f 46/2/39 12/2/13 13/2/14
s 0
f 45/2/32 42/2/32 46/2/32
f 47/2/32 42/2/32 34/2/32
s 1
f 32/2/30 47/2/32 34/2/32
f 47/2/32 32/2/30 11/2/12
f 11/2/12 48/2/32 47/2/32
f 48/2/32 11/2/12 12/2/13
f 12/2/13 46/2/39 48/2/32
s 0
f 46/2/32 42/2/32 48/2/32
f 48/2/32 42/2/32 47/2/32
s 1
f 38/2/36 24/2/24 49/2/40
f 49/2/40 36/2/34 38/2/36
f 36/2/34 49/2/40 50/2/41
f 33/2/31 50/2/41 31/2/29
f 50/2/41 33/2/31 36/2/34
f 51/2/42 31/2/29 50/2/41
f 31/2/29 51/2/42 30/2/28
f 52/2/43 50/2/41 49/2/40
f 50/2/41 52/2/43 51/2/42
f 24/2/24 25/2/25 53/2/44
f 49/2/40 53/2/44 52/2/43
f 53/2/44 49/2/40 24/2/24
s 0
f 54/1/45 56/1/46 55/1/47
f 56/1/48 54/1/49 57/1/50
f 57/1/51 58/1/52 56/1/53
f 58/1/54 57/1/55 59/1/56
f 60/1/57 61/1/57 62/1/57
f 62/1/57 63/1/57 60/1/57
f 63/1/57 62/1/57 64/1/57
f 64/1/58 65/1/58 63/1/58
f 66/1/59 67/1/59 68/1/59
f 68/1/59 69/1/59 66/1/59
f 69/1/59 68/1/59 70/1/59
f 70/1/60 71/1/60 69/1/60
f 72/1/61 73/1/61 74/1/61
f 74/1/62 75/1/62 72/1/62
o SmallNeedle
v 0.030161 0.918003 -0.012484
v 0.030175 0.918014 0.012464
v 0.062285 0.917892 0.012448
v 0.062272 0.917879 -0.012498
v 0.028015 -0.259833 -0.049898
v 0.060119 -0.259928 -0.049888
v 0.060141 -0.259939 0.049895
v 0.028050 -0.259923 0.049857
v 0.028050 -0.259923 0.049857
v 0.060141 -0.259939 0.049895
v 0.060300 -0.166147 0.045936
v 0.028190 -0.166024 0.045951
v 0.062285 0.917892 0.012448
v 0.030175 0.918014 0.012464
v 0.060311 -0.166158 -0.045970
v 0.028164 -0.166040 -0.045960
v 0.030161 0.918003 -0.012484
v 0.060119 -0.259928 -0.049888
v 0.062272 0.917879 -0.012498
v 0.028015 -0.259833 -0.049898
v 0.030175 0.918014 0.012464
v 0.030161 0.918003 -0.012484
v 0.028164 -0.166040 -0.045960
v 0.028190 -0.166024 0.045951
v 0.028015 -0.259833 -0.049898
v 0.028050 -0.259923 0.049857
v -0.010817 0.166676 0.166617
v -0.030501 0.166663 0.166604
v -0.030693 0.061058 0.227592
v -0.030669 0.055729 0.207971
v -0.010995 0.060991 0.227580
v -0.030867 -0.060876 0.227596
v -0.030854 -0.055707 0.207992
v -0.030797 0.000060 0.000001
v -0.030488 0.152252 0.152248
v -0.030406 0.208034 0.055729
v -0.030393 0.208024 -0.055739
v -0.030317 0.227639 -0.061006
v -0.030484 0.152261 -0.152236
v -0.030687 0.055724 -0.207984
v -0.030874 -0.055712 -0.207963
v -0.031061 -0.152209 -0.152213
v -0.031192 -0.207888 -0.055701
v -0.031236 -0.227598 -0.061010
v -0.031225 -0.227593 0.060984
v -0.011546 -0.227527 0.060999
v -0.031163 -0.207872 0.055718
v -0.031058 -0.166619 0.166618
v -0.031064 -0.152190 0.152243
v -0.011455 -0.166560 0.166622
v 0.074981 -0.166712 0.166633
v 0.074784 -0.227744 0.060997
v -0.011521 -0.227527 -0.060993
v -0.031041 -0.166619 -0.166623
v -0.011437 -0.166560 -0.166619
v -0.030862 -0.060906 -0.227613
v -0.011246 -0.060981 -0.227582
v -0.030694 0.061054 -0.227591
v -0.030305 0.227642 0.060990
v -0.010714 0.227670 -0.060975
v -0.010734 0.227670 0.060963
v -0.030522 0.166633 -0.166616
v -0.010799 0.166678 -0.166625
v -0.010996 0.060987 -0.227603
v 0.075327 0.060823 -0.227607
v 0.075159 -0.061164 -0.227602
v 0.074968 -0.166741 -0.166640
v 0.074802 -0.227717 -0.060969
v 0.075702 0.227520 0.060974
v 0.075684 0.227514 -0.060967
v 0.075524 0.166513 -0.166627
v 0.075191 -0.061129 0.227612
v -0.011245 -0.060977 0.227601
v 0.075328 0.060801 0.227604
v 0.075507 0.166513 0.166614
vn -0.0000 1.0000 -0.0001
vn -0.0000 1.0000 0.0001
vn -0.0000 -1.0000 -0.0000
vn -0.0000 0.0393 0.9992
vn -0.0000 0.0334 0.9994
vn -0.0000 0.0275 0.9996
vn -0.0000 0.0353 -0.9994
vn -0.0000 0.0294 -0.9996
vn -0.0001 0.0411 -0.9992
vn -0.0000 0.0412 -0.9992
vn 1.0000 -0.0023 -0.0024
vn 1.0000 -0.0037 -0.0002
vn 1.0000 -0.0013 0.0013
vn 1.0000 -0.0020 -0.0021
vn 1.0000 -0.0036 -0.0001
vn 1.0000 -0.0015 0.0015
vn 1.0000 -0.0007 -0.0015
vn 1.0000 -0.0028 -0.0012
vn 1.0000 -0.0013 0.0012
vn 1.0000 -0.0007 -0.0016
vn 1.0000 -0.0028 -0.0011
vn 1.0000 -0.0011 0.0011
vn 0.0003 0.7071 0.7071
vn -0.6563 0.5345 0.5326
vn -0.6543 0.1945 0.7308
vn -1.0000 -0.0000 -0.0000
vn -0.0000 0.2573 0.9663
vn -0.6531 -0.1947 0.7318
vn -1.0000 0.0001 -0.0000
vn -1.0000 0.0018 0.0002
vn -1.0000 0.0019 -0.0001
vn -0.6522 0.7322 -0.1960
vn -1.0000 0.0020 -0.0001
vn -1.0000 0.0020 -0.0000
vn -1.0000 0.0019 -0.0002
vn -1.0000 0.0020 -0.0002
vn -0.6529 -0.7314 -0.1967
vn -0.6522 -0.7327 0.1945
vn -0.0000 -0.9665 0.2569
vn -1.0000 0.0021 -0.0000
vn -0.6520 -0.5361 0.5361
vn -1.0000 -0.0000 0.0001
vn -1.0000 0.0018 -0.0000
vn -0.0000 -0.7080 0.7062
vn -0.0000 -0.9665 0.2568
vn -0.0000 -0.9658 -0.2591
vn -0.6520 -0.5342 -0.5380
vn -0.0000 -0.7062 -0.7080
vn -0.6524 -0.1926 -0.7330
vn -0.0000 -0.2569 -0.9664
vn -0.6530 0.1961 -0.7315
vn -0.6533 0.7318 0.1942
vn -0.0000 0.9660 -0.2586
vn -0.0000 0.9663 0.2573
vn -0.6545 0.5348 -0.5344
vn 0.0001 0.7071 -0.7071
vn 0.0003 0.2586 -0.9660
vn -0.0000 0.2586 -0.9660
vn -0.0001 -0.7062 -0.7080
vn -0.0000 0.7071 -0.7071
vn 0.0001 -0.2592 0.9658
vn -0.0001 -0.2591 0.9659
vn -0.0000 0.7071 0.7071
vt 0.973633 0.026855
vt 0.024124 0.025390
s 0
f 76/3/63 77/3/63 78/3/63
f 78/3/64 79/3/64 76/3/64
f 80/3/65 81/3/65 82/3/65
f 82/3/65 83/3/65 80/3/65
s 1
f 84/3/66 85/3/66 86/3/67
f 86/3/67 87/3/67 84/3/66
f 87/3/67 86/3/67 88/3/68
f 88/3/68 89/3/68 87/3/67
f 90/3/69 91/3/69 92/3/70
f 91/3/69 90/3/69 93/3/71
f 92/3/70 94/3/70 90/3/69
f 93/3/71 95/3/72 91/3/69
s 0
f 96/3/73 98/3/74 97/3/75
f 98/3/76 96/3/77 99/3/78
f 99/3/79 100/3/80 98/3/81
f 100/3/82 99/3/83 101/3/84
s 1
f 102/4/85 103/4/86 104/4/87
f 105/4/88 104/4/87 103/4/86
f 104/4/87 106/4/89 102/4/85
f 106/4/89 104/4/87 107/4/90
f 104/4/87 105/4/88 108/4/88
f 108/4/88 107/4/90 104/4/87
s 0
f 105/4/88 109/4/88 108/4/88
f 110/4/91 109/4/91 105/4/91
s 1
f 103/4/86 110/4/88 105/4/88
s 0
f 111/4/92 109/4/91 110/4/91
f 112/4/93 109/4/88 111/4/93
s 1
f 113/4/94 112/4/95 111/4/96
s 0
f 114/4/91 109/4/91 112/4/97
f 115/4/88 109/4/88 114/4/88
f 116/4/91 109/4/91 115/4/91
f 117/4/88 109/4/88 116/4/88
f 118/4/98 109/4/91 117/4/91
s 1
f 119/4/99 118/4/96 117/4/88
f 118/4/96 119/4/99 120/4/100
f 121/4/101 120/4/100 119/4/99
s 0
f 122/4/96 109/4/88 118/4/96
s 1
f 120/4/100 122/4/102 118/4/96
f 122/4/102 120/4/100 123/4/103
f 123/4/103 124/4/104 122/4/102
s 0
f 108/4/88 109/4/88 124/4/88
f 124/4/88 109/4/88 122/4/105
s 1
f 107/4/90 108/4/88 124/4/104
f 124/4/104 123/4/103 107/4/90
f 125/4/106 123/4/103 120/4/100
f 120/4/100 121/4/101 125/4/106
f 126/4/106 125/4/106 121/4/101
f 121/4/101 127/4/107 126/4/106
f 119/4/99 128/4/108 121/4/101
f 127/4/107 121/4/101 128/4/108
f 117/4/88 129/4/109 119/4/99
f 129/4/109 117/4/88 116/4/91
f 128/4/108 119/4/99 129/4/109
f 129/4/109 130/4/110 128/4/108
f 130/4/110 129/4/109 131/4/111
f 131/4/111 116/4/91 115/4/104
f 116/4/91 131/4/111 129/4/109
f 131/4/111 132/4/112 130/4/110
f 133/4/113 115/4/104 114/4/88
f 115/4/104 133/4/113 131/4/111
f 132/4/112 131/4/111 133/4/113
f 111/4/96 134/4/114 113/4/94
f 134/4/114 111/4/96 110/4/88
f 110/4/88 103/4/86 134/4/114
f 135/4/115 113/4/94 134/4/114
f 134/4/114 136/4/116 135/4/115
f 136/4/116 134/4/114 103/4/86
f 103/4/86 102/4/85 136/4/116
f 112/4/95 113/4/94 137/4/117
f 137/4/117 114/4/88 112/4/95
f 114/4/88 137/4/117 133/4/113
f 138/4/118 137/4/117 113/4/94
f 113/4/94 135/4/115 138/4/118
f 139/4/119 133/4/113 137/4/117
f 133/4/113 139/4/119 132/4/112
f 137/4/117 138/4/118 139/4/119
f 140/4/120 139/4/119 138/4/118
f 141/4/112 132/4/112 139/4/119
f 139/4/119 140/4/120 141/4/112
f 142/4/121 130/4/110 132/4/112
f 132/4/112 141/4/112 142/4/121
f 130/4/110 142/4/121 143/4/108
f 143/4/108 128/4/108 130/4/110
f 128/4/108 143/4/108 127/4/107
f 144/4/116 136/4/116 102/4/85
f 136/4/116 144/4/116 145/4/115
f 145/4/115 135/4/115 136/4/116
f 146/4/122 138/4/118 135/4/115
f 138/4/118 146/4/122 140/4/120
f 135/4/115 145/4/115 146/4/122
f 125/4/106 126/4/106 147/4/123
f 107/4/90 148/4/124 106/4/89
f 148/4/124 107/4/90 123/4/103
f 147/4/123 148/4/124 125/4/106
f 123/4/103 125/4/106 148/4/124
f 148/4/124 147/4/123 149/4/89
f 149/4/89 106/4/89 148/4/124
f 106/4/89 149/4/89 150/4/125
f 102/4/85 150/4/125 144/4/116
f 150/4/125 102/4/85 106/4/89
o BigNeedle2
v 0.039057 1.346720 -0.017496
v 0.039091 1.346601 0.021414
v 0.129431 1.346501 0.021406
v 0.129422 1.346534 -0.017470
v 0.035272 -0.307519 -0.078546
v 0.035250 -0.307654 0.077343
v 0.035698 -0.133957 0.071441
v 0.035719 -0.133821 -0.072069
v 0.039091 1.346601 0.021414
v 0.039057 1.346720 -0.017496
v 0.125605 -0.307635 -0.078522
v 0.035272 -0.307519 -0.078546
v 0.035719 -0.133821 -0.072069
v 0.126059 -0.133922 -0.072079
v 0.039057 1.346720 -0.017496
v 0.129422 1.346534 -0.017470
v 0.035250 -0.307654 0.077343
v 0.125584 -0.307796 0.077349
v 0.126075 -0.134061 0.071437
v 0.035698 -0.133957 0.071441
v 0.129431 1.346501 0.021406
v 0.039091 1.346601 0.021414
v 0.035272 -0.307519 -0.078546
v 0.125605 -0.307635 -0.078522
v 0.125584 -0.307796 0.077349
v 0.035250 -0.307654 0.077343
vn -0.0003 1.0000 0.0006
vn -0.0003 1.0000 0.0025
vn 0.0017 1.0000 0.0006
vn 0.0017 1.0000 0.0009
vn -0.0004 1.0000 0.0010
vn 1.0000 -0.0013 -0.0013
vn 1.0000 -0.0040 -0.0012
vn 1.0000 -0.0026 0.0021
vn 1.0000 -0.0013 -0.0014
vn 1.0000 -0.0041 -0.0013
vn 1.0000 -0.0028 0.0021
vn 1.0000 -0.0020 -0.0016
vn 1.0000 -0.0040 -0.0001
vn 1.0000 -0.0024 0.0019
vn 1.0000 -0.0030 -0.0026
vn 1.0000 -0.0040 -0.0002
vn 1.0000 -0.0014 0.0008
vn -0.0000 0.0360 -0.9994
vn -0.0000 0.0361 -0.9993
vn -0.0001 0.0360 -0.9994
vn 0.0001 0.0362 -0.9993
vn -0.0000 0.0362 -0.9993
vn -0.0001 0.0361 -0.9994
vn -0.0001 0.0310 0.9995
vn -0.0000 0.0310 0.9995
vn -0.0001 0.0311 0.9995
vn -0.0002 0.0311 0.9995
vn -0.0000 0.0311 0.9995
vn 0.0002 -1.0000 -0.0010
vn 0.0003 -1.0000 -0.0010
vt 0.970215 0.029785
s 0
f 151/5/126 152/5/127 153/5/128
f 153/5/129 154/5/129 151/5/130
f 155/5/131 157/5/132 156/5/133
f 157/5/134 155/5/135 158/5/136
f 158/5/137 159/5/138 157/5/139
f 159/5/140 158/5/141 160/5/142
f 161/5/143 162/5/144 163/5/145
f 163/5/146 164/5/147 161/5/146
f 164/5/147 163/5/144 165/5/144
f 165/5/143 166/5/148 164/5/143
f 167/5/149 168/5/150 169/5/151
f 169/5/152 170/5/153 167/5/151
f 170/5/150 169/5/153 171/5/153
f 171/5/150 172/5/150 170/5/150
f 173/5/154 174/5/154 175/5/154
f 175/5/155 176/5/155 173/5/155
