# Blender 4.0.1
# www.blender.org
o _144__BMW_M3_E36_KIT00_INTERIOR_CPIT_.001
v 12.696714 26.593882 -4.333976
v 11.450998 26.593388 1.398856
v 11.447123 26.635302 1.447154
v 11.549608 27.212976 1.393954
v 11.531368 27.168631 1.445634
v 12.801328 27.177029 -4.393066
v 12.715181 26.638647 -4.386606
v 12.797414 27.218184 -4.345338
v 11.053405 26.635340 3.259184
v 11.137079 27.167150 3.259222
v 11.155282 27.211456 3.207656
v 11.345396 26.593731 1.885142
v 11.057394 26.593616 3.210582
v 11.447806 27.171139 1.832132
v 11.443816 27.212635 1.880506
v 11.363636 26.638037 1.833386
v 14.527326 33.683315 -16.226723
v 14.515128 33.611229 -16.131418
v 14.515128 33.611229 -14.378365
v 14.527213 33.682476 -14.284162
v 14.621490 34.239635 -16.226305
v 14.621529 34.239937 -14.284048
vn -0.9661 0.1508 -0.2097
vn -0.9661 0.1509 -0.2097
vn -0.9660 0.1510 -0.2097
vn -0.9860 0.1665 -0.0000
vn -0.9860 0.1667 -0.0000
vn -0.9860 0.1669 -0.0000
vt 0.019744 0.380859
vt 0.294189 0.380859
vt 0.296631 0.384766
vt 0.293945 0.439453
vt 0.296387 0.435547
vt 0.016784 0.436035
vt 0.017211 0.384766
vt 0.019073 0.439941
vt 0.383301 0.384766
vt 0.383301 0.435059
vt 0.380859 0.439453
vt 0.317627 0.380859
vt 0.381103 0.380859
vt 0.314941 0.435547
vt 0.317139 0.439453
vt 0.315186 0.384766
vt 0.000000 0.000000
vt 0.413710 0.456447
vt 0.413663 0.369319
vt 0.713630 0.369249
vt 0.713630 0.456555
s 0
f 1/1/1 2/2/1 3/3/1
f 1/1/2 3/3/2 4/4/2
f 3/3/2 5/5/2 4/4/2
f 1/1/2 4/4/2 6/6/2
f 1/1/2 6/6/2 7/7/2
f 4/4/3 8/8/3 6/6/3
f 9/9/3 10/10/3 11/11/3
f 12/12/2 9/9/2 11/11/2
f 12/12/2 13/13/2 9/9/2
f 12/12/2 11/11/2 14/14/2
f 11/11/2 15/15/2 14/14/2
f 12/12/2 14/14/2 16/16/2
f 17/17/4 18/17/4 19/17/4
f 17/17/5 19/17/5 20/17/5
f 21/18/6 17/19/6 20/20/6
f 22/21/4 21/18/4 20/20/4
