# Blender 4.0.1
# www.blender.org
o _133__BMW_M3_E36_NEEDLE_WATER_CPIT_
v 0.030161 0.918003 -0.012484
v 0.030175 0.918014 0.012464
v 0.062285 0.917892 0.012448
v 0.062272 0.917879 -0.012498
v 0.028015 -0.259833 -0.049898
v 0.060119 -0.259928 -0.049888
v 0.060141 -0.259939 0.049895
v 0.028050 -0.259923 0.049857
v 0.028050 -0.259923 0.049857
v 0.060141 -0.259939 0.049895
v 0.060300 -0.166147 0.045936
v 0.028190 -0.166024 0.045951
v 0.062285 0.917892 0.012448
v 0.030175 0.918014 0.012464
v 0.060311 -0.166158 -0.045970
v 0.028164 -0.166040 -0.045960
v 0.030161 0.918003 -0.012484
v 0.060119 -0.259928 -0.049888
v 0.062272 0.917879 -0.012498
v 0.028015 -0.259833 -0.049898
v 0.030175 0.918014 0.012464
v 0.030161 0.918003 -0.012484
v 0.028164 -0.166040 -0.045960
v 0.028190 -0.166024 0.045951
v 0.028015 -0.259833 -0.049898
v 0.028050 -0.259923 0.049857
v -0.010817 0.166676 0.166617
v -0.030501 0.166663 0.166604
v -0.030693 0.061058 0.227592
v -0.030669 0.055729 0.207971
v -0.010995 0.060991 0.227580
v -0.030867 -0.060876 0.227596
v -0.030854 -0.055707 0.207992
v -0.030797 0.000060 0.000001
v -0.030488 0.152252 0.152248
v -0.030406 0.208034 0.055729
v -0.030393 0.208024 -0.055739
v -0.030317 0.227639 -0.061006
v -0.030484 0.152261 -0.152236
v -0.030687 0.055724 -0.207984
v -0.030874 -0.055712 -0.207963
v -0.031061 -0.152209 -0.152213
v -0.031192 -0.207888 -0.055701
v -0.031236 -0.227598 -0.061010
v -0.031225 -0.227593 0.060984
v -0.011546 -0.227527 0.060999
v -0.031163 -0.207872 0.055718
v -0.031058 -0.166619 0.166618
v -0.031064 -0.152190 0.152243
v -0.011455 -0.166560 0.166622
v 0.074981 -0.166712 0.166633
v 0.074784 -0.227744 0.060997
v -0.011521 -0.227527 -0.060993
v -0.031041 -0.166619 -0.166623
v -0.011437 -0.166560 -0.166619
v -0.030862 -0.060906 -0.227613
v -0.011246 -0.060981 -0.227582
v -0.030694 0.061054 -0.227591
v -0.030305 0.227642 0.060990
v -0.010714 0.227670 -0.060975
v -0.010734 0.227670 0.060963
v -0.030522 0.166633 -0.166616
v -0.010799 0.166678 -0.166625
v -0.010996 0.060987 -0.227603
v 0.075327 0.060823 -0.227607
v 0.075159 -0.061164 -0.227602
v 0.074968 -0.166741 -0.166640
v 0.074802 -0.227717 -0.060969
v 0.075702 0.227520 0.060974
v 0.075684 0.227514 -0.060967
v 0.075524 0.166513 -0.166627
v 0.075191 -0.061129 0.227612
v -0.011245 -0.060977 0.227601
v 0.075328 0.060801 0.227604
v 0.075507 0.166513 0.166614
vn -0.0000 1.0000 -0.0001
vn -0.0000 1.0000 0.0001
vn -0.0000 -1.0000 -0.0000
vn -0.0000 0.0393 0.9992
vn -0.0000 0.0334 0.9994
vn -0.0000 0.0275 0.9996
vn -0.0000 0.0353 -0.9994
vn -0.0000 0.0294 -0.9996
vn -0.0001 0.0411 -0.9992
vn -0.0000 0.0412 -0.9992
vn -1.0000 -0.0000 -0.0000
vn -1.0000 0.0001 -0.0000
vn 0.0003 0.7071 0.7071
vn -0.6563 0.5345 0.5326
vn -0.6543 0.1945 0.7308
vn -0.0000 0.2573 0.9663
vn -0.6531 -0.1947 0.7318
vn -1.0000 0.0018 0.0002
vn -1.0000 0.0019 -0.0001
vn -0.6522 0.7322 -0.1960
vn -1.0000 0.0020 -0.0001
vn -1.0000 0.0020 -0.0000
vn -1.0000 0.0019 -0.0002
vn -1.0000 0.0020 -0.0002
vn -0.6529 -0.7314 -0.1967
vn -0.6522 -0.7327 0.1945
vn -0.0000 -0.9665 0.2569
vn -1.0000 0.0021 -0.0000
vn -0.6520 -0.5361 0.5361
vn -1.0000 -0.0000 0.0001
vn -1.0000 0.0018 -0.0000
vn -0.0000 -0.7080 0.7062
vn -0.0000 -0.9665 0.2568
vn -0.0000 -0.9658 -0.2591
vn -0.6520 -0.5342 -0.5380
vn -0.0000 -0.7062 -0.7080
vn -0.6524 -0.1926 -0.7330
vn -0.0000 -0.2569 -0.9664
vn -0.6530 0.1961 -0.7315
vn -0.6533 0.7318 0.1942
vn -0.0000 0.9660 -0.2586
vn -0.0000 0.9663 0.2573
vn -0.6545 0.5348 -0.5344
vn 0.0001 0.7071 -0.7071
vn 0.0003 0.2586 -0.9660
vn -0.0000 0.2586 -0.9660
vn -0.0001 -0.7062 -0.7080
vn -0.0000 0.7071 -0.7071
vn 0.0001 -0.2592 0.9658
vn -0.0001 -0.2591 0.9659
vn -0.0000 0.7071 0.7071
vt 0.973633 0.026855
vt 0.024124 0.025390
s 0
f 1/1/1 2/1/1 3/1/1
f 3/1/2 4/1/2 1/1/2
f 5/1/3 6/1/3 7/1/3
f 7/1/3 8/1/3 5/1/3
s 1
f 9/1/4 10/1/4 11/1/5
f 11/1/5 12/1/5 9/1/4
f 12/1/5 11/1/5 13/1/6
f 13/1/6 14/1/6 12/1/5
f 15/1/7 16/1/7 17/1/8
f 16/1/7 15/1/7 18/1/9
f 17/1/8 19/1/8 15/1/7
f 18/1/9 20/1/10 16/1/7
s 0
f 21/1/11 22/1/11 23/1/11
f 23/1/11 24/1/11 21/1/11
f 24/1/12 23/1/12 25/1/12
f 25/1/12 26/1/12 24/1/12
s 1
f 27/2/13 28/2/14 29/2/15
f 30/2/11 29/2/15 28/2/14
f 29/2/15 31/2/16 27/2/13
f 31/2/16 29/2/15 32/2/17
f 29/2/15 30/2/11 33/2/11
f 33/2/11 32/2/17 29/2/15
s 0
f 30/2/11 34/2/11 33/2/11
f 35/2/12 34/2/12 30/2/12
s 1
f 28/2/14 35/2/11 30/2/11
s 0
f 36/2/18 34/2/12 35/2/12
f 37/2/19 34/2/11 36/2/19
s 1
f 38/2/20 37/2/21 36/2/22
s 0
f 39/2/12 34/2/12 37/2/23
f 40/2/11 34/2/11 39/2/11
f 41/2/12 34/2/12 40/2/12
f 42/2/11 34/2/11 41/2/11
f 43/2/24 34/2/12 42/2/12
s 1
f 44/2/25 43/2/22 42/2/11
f 43/2/22 44/2/25 45/2/26
f 46/2/27 45/2/26 44/2/25
s 0
f 47/2/22 34/2/11 43/2/22
s 1
f 45/2/26 47/2/28 43/2/22
f 47/2/28 45/2/26 48/2/29
f 48/2/29 49/2/30 47/2/28
s 0
f 33/2/11 34/2/11 49/2/11
f 49/2/11 34/2/11 47/2/31
s 1
f 32/2/17 33/2/11 49/2/30
f 49/2/30 48/2/29 32/2/17
f 50/2/32 48/2/29 45/2/26
f 45/2/26 46/2/27 50/2/32
f 51/2/32 50/2/32 46/2/27
f 46/2/27 52/2/33 51/2/32
f 44/2/25 53/2/34 46/2/27
f 52/2/33 46/2/27 53/2/34
f 42/2/11 54/2/35 44/2/25
f 54/2/35 42/2/11 41/2/12
f 53/2/34 44/2/25 54/2/35
f 54/2/35 55/2/36 53/2/34
f 55/2/36 54/2/35 56/2/37
f 56/2/37 41/2/12 40/2/30
f 41/2/12 56/2/37 54/2/35
f 56/2/37 57/2/38 55/2/36
f 58/2/39 40/2/30 39/2/11
f 40/2/30 58/2/39 56/2/37
f 57/2/38 56/2/37 58/2/39
f 36/2/22 59/2/40 38/2/20
f 59/2/40 36/2/22 35/2/11
f 35/2/11 28/2/14 59/2/40
f 60/2/41 38/2/20 59/2/40
f 59/2/40 61/2/42 60/2/41
f 61/2/42 59/2/40 28/2/14
f 28/2/14 27/2/13 61/2/42
f 37/2/21 38/2/20 62/2/43
f 62/2/43 39/2/11 37/2/21
f 39/2/11 62/2/43 58/2/39
f 63/2/44 62/2/43 38/2/20
f 38/2/20 60/2/41 63/2/44
f 64/2/45 58/2/39 62/2/43
f 58/2/39 64/2/45 57/2/38
f 62/2/43 63/2/44 64/2/45
f 65/2/46 64/2/45 63/2/44
f 66/2/38 57/2/38 64/2/45
f 64/2/45 65/2/46 66/2/38
f 67/2/47 55/2/36 57/2/38
f 57/2/38 66/2/38 67/2/47
f 55/2/36 67/2/47 68/2/34
f 68/2/34 53/2/34 55/2/36
f 53/2/34 68/2/34 52/2/33
f 69/2/42 61/2/42 27/2/13
f 61/2/42 69/2/42 70/2/41
f 70/2/41 60/2/41 61/2/42
f 71/2/48 63/2/44 60/2/41
f 63/2/44 71/2/48 65/2/46
f 60/2/41 70/2/41 71/2/48
f 50/2/32 51/2/32 72/2/49
f 32/2/17 73/2/50 31/2/16
f 73/2/50 32/2/17 48/2/29
f 72/2/49 73/2/50 50/2/32
f 48/2/29 50/2/32 73/2/50
f 73/2/50 72/2/49 74/2/16
f 74/2/16 31/2/16 73/2/50
f 31/2/16 74/2/16 75/2/51
f 27/2/13 75/2/51 69/2/42
f 75/2/51 27/2/13 31/2/16
